<svg width="302" height="115" viewBox="0 0 302 115" fill="none" xmlns="http://www.w3.org/2000/svg">
<path d="M53.4597 103.024C50.8997 103.024 48.8944 102.341 47.4437 100.976C45.993 99.5253 45.2677 97.4773 45.2677 94.832V84.848H13.6517C11.0064 84.848 8.87304 84.2933 7.2517 83.184C5.7157 82.0747 4.9477 80.3253 4.9477 77.936C4.9477 76.5707 5.28904 75.0773 5.9717 73.456C6.7397 71.8347 8.06237 69.7013 9.9397 67.056L45.0117 16.24C46.2064 14.448 47.529 13.0827 48.9797 12.144C50.4304 11.2053 52.0944 10.736 53.9717 10.736C56.1904 10.736 58.025 11.4187 59.4757 12.784C60.9264 14.064 61.6517 16.112 61.6517 18.928V71.28H67.9237C70.3984 71.28 72.233 71.8773 73.4277 73.072C74.7077 74.1813 75.3477 75.8453 75.3477 78.064C75.3477 80.2827 74.7077 81.9893 73.4277 83.184C72.233 84.2933 70.3984 84.848 67.9237 84.848H61.6517V94.832C61.6517 97.4773 60.9264 99.5253 59.4757 100.976C58.025 102.341 56.0197 103.024 53.4597 103.024ZM45.2677 71.28V31.344H48.9797L18.7717 75.632V71.28H45.2677Z" fill="#E6E6E6"/>
<path d="M277.268 103.024C274.708 103.024 272.703 102.341 271.252 100.976C269.802 99.5253 269.076 97.4773 269.076 94.832V84.848H237.46C234.815 84.848 232.682 84.2933 231.06 83.184C229.524 82.0747 228.756 80.3253 228.756 77.936C228.756 76.5707 229.098 75.0773 229.78 73.456C230.548 71.8347 231.871 69.7013 233.748 67.056L268.82 16.24C270.015 14.448 271.338 13.0827 272.788 12.144C274.239 11.2053 275.903 10.736 277.78 10.736C279.999 10.736 281.834 11.4187 283.284 12.784C284.735 14.064 285.46 16.112 285.46 18.928V71.28H291.732C294.207 71.28 296.042 71.8773 297.236 73.072C298.516 74.1813 299.156 75.8453 299.156 78.064C299.156 80.2827 298.516 81.9893 297.236 83.184C296.042 84.2933 294.207 84.848 291.732 84.848H285.46V94.832C285.46 97.4773 284.735 99.5253 283.284 100.976C281.834 102.341 279.828 103.024 277.268 103.024ZM269.076 71.28V31.344H272.788L242.58 75.632V71.28H269.076Z" fill="#E6E6E6"/>
<path d="M208.405 57.289C208.46 89.3863 183.114 114.941 151.204 114.952C119.436 114.963 93.6287 89.2103 93.5957 57.4869C93.5737 26.0934 119.502 0.0110102 150.753 1.42389e-05C182.729 -0.0219777 208.35 25.4337 208.405 57.289Z" fill="#0177FF"/>
<path d="M172.832 62.2928C171.688 60.3025 170.138 58.6642 168.203 57.3886C166.256 56.1131 164.145 55.0465 161.847 54.1888C159.549 53.3311 157.251 52.5504 154.953 51.8466C152.413 51.1319 150.037 50.3952 147.827 49.6035C145.606 48.8228 143.803 47.8661 142.428 46.7225C141.043 45.5899 140.35 44.0945 140.35 42.2472C140.35 41.1146 140.603 40.059 141.12 39.1023C141.636 38.1457 142.351 37.31 143.253 36.5952C144.166 35.8805 145.287 35.3527 146.64 35.0008C147.981 34.649 149.455 34.473 151.038 34.473C152.698 34.473 154.865 34.3301 156.294 34.7259C157.724 35.1218 159.769 35.8915 160.956 36.6062C162.166 37.332 163.277 37.9917 164.222 38.8494C164.365 38.9484 164.728 39.2782 165.179 39.6851C166.861 41.1915 169.412 41.1915 171.095 39.6851L171.172 39.6081C173.096 37.8708 173.151 34.8909 171.304 33.0985C170.952 32.7467 170.655 32.4828 170.501 32.3508C169.071 31.0753 167.235 29.8437 164.981 28.6782C162.727 27.5016 160.088 26.7428 157.086 26.391V21.3548C157.086 18.6388 155.03 16.2637 152.314 16.0878C149.334 15.8898 146.871 18.254 146.871 21.1789V26.5009C144.418 26.8528 142.197 27.4796 140.218 28.3702C138.239 29.2609 136.534 30.3825 135.116 31.724C133.686 33.0765 132.598 34.616 131.85 36.3643C131.091 38.1017 130.717 40.037 130.717 42.1702C130.717 44.7982 131.212 47.0084 132.202 48.7788C133.192 50.5601 134.522 52.0666 136.182 53.3091C137.843 54.5517 139.701 55.6183 141.768 56.509C143.825 57.3996 145.925 58.1583 148.069 58.7961C150.84 59.7967 153.512 60.7094 156.085 61.5671C158.658 62.4248 160.758 63.4914 162.386 64.7669C164.013 66.0424 164.816 67.7908 164.816 69.99C164.816 71.9033 164.277 73.5307 163.211 74.8392C162.144 76.1587 160.583 77.1704 158.515 77.8741C156.459 78.5889 153.963 78.4679 151.027 78.4679C148.575 78.4679 145.628 78.5119 143.539 77.5552C141.263 76.5106 141.263 76.5106 138.492 74.2674C138.261 74.0805 137.414 73.4977 136.402 72.596C134.621 71.0126 131.927 70.7377 130.157 72.3321C130.124 72.3541 130.102 72.3871 130.069 72.4091C127.979 74.2894 128.012 77.5552 130.113 79.4135C131.729 80.832 133.39 82.2285 134.148 82.7893C135.776 83.9989 137.634 84.5047 139.734 85.3184C141.834 86.1321 144.638 86.5499 146.86 86.8248V92.0919C146.86 94.8079 148.916 97.183 151.632 97.359C154.612 97.5569 157.075 95.1928 157.075 92.2678V86.9348C159.923 86.5829 161.198 85.9452 163.485 85.0215C165.784 84.0978 167.763 82.9103 169.423 81.4478C171.084 79.9963 172.348 78.27 173.228 76.2797C174.097 74.2894 174.536 72.1232 174.536 69.7811C174.547 66.7682 173.976 64.2831 172.832 62.2928Z" fill="#E6E6E6"/>
</svg>
