<svg width="302" height="115" viewBox="0 0 302 115" fill="none" xmlns="http://www.w3.org/2000/svg">
<path d="M53.4597 103.024C50.8997 103.024 48.8944 102.341 47.4437 100.976C45.993 99.5253 45.2677 97.4773 45.2677 94.832V84.848H13.6517C11.0064 84.848 8.87304 84.2933 7.2517 83.184C5.7157 82.0747 4.9477 80.3253 4.9477 77.936C4.9477 76.5707 5.28904 75.0773 5.9717 73.456C6.7397 71.8347 8.06237 69.7013 9.9397 67.056L45.0117 16.24C46.2064 14.448 47.529 13.0827 48.9797 12.144C50.4304 11.2053 52.0944 10.736 53.9717 10.736C56.1904 10.736 58.025 11.4187 59.4757 12.784C60.9264 14.064 61.6517 16.112 61.6517 18.928V71.28H67.9237C70.3984 71.28 72.233 71.8773 73.4277 73.072C74.7077 74.1813 75.3477 75.8453 75.3477 78.064C75.3477 80.2827 74.7077 81.9893 73.4277 83.184C72.233 84.2933 70.3984 84.848 67.9237 84.848H61.6517V94.832C61.6517 97.4773 60.9264 99.5253 59.4757 100.976C58.025 102.341 56.0197 103.024 53.4597 103.024ZM45.2677 71.28V31.344H48.9797L18.7717 75.632V71.28H45.2677Z" fill="#002E69"/>
<path d="M277.268 103.024C274.708 103.024 272.703 102.341 271.252 100.976C269.802 99.5253 269.076 97.4773 269.076 94.832V84.848H237.46C234.815 84.848 232.682 84.2933 231.06 83.184C229.524 82.0747 228.756 80.3253 228.756 77.936C228.756 76.5707 229.098 75.0773 229.78 73.456C230.548 71.8347 231.871 69.7013 233.748 67.056L268.82 16.24C270.015 14.448 271.338 13.0827 272.788 12.144C274.239 11.2053 275.903 10.736 277.78 10.736C279.999 10.736 281.834 11.4187 283.284 12.784C284.735 14.064 285.46 16.112 285.46 18.928V71.28H291.732C294.207 71.28 296.042 71.8773 297.236 73.072C298.516 74.1813 299.156 75.8453 299.156 78.064C299.156 80.2827 298.516 81.9893 297.236 83.184C296.042 84.2933 294.207 84.848 291.732 84.848H285.46V94.832C285.46 97.4773 284.735 99.5253 283.284 100.976C281.834 102.341 279.828 103.024 277.268 103.024ZM269.076 71.28V31.344H272.788L242.58 75.632V71.28H269.076Z" fill="#002E69"/>
<path d="M208.405 57.289C208.46 89.3863 183.114 114.941 151.204 114.952C119.436 114.963 93.6287 89.2103 93.5957 57.4869C93.5737 26.0934 119.502 0.0110102 150.753 1.42389e-05C182.729 -0.0219777 208.35 25.4337 208.405 57.289Z" fill="#0177FF"/>
<path d="M172.832 62.2922C171.688 60.3019 170.138 58.6635 168.203 57.388C166.256 56.1125 164.145 55.0459 161.847 54.1882C159.549 53.3305 157.251 52.5498 154.953 51.846C152.413 51.1313 150.037 50.3946 147.827 49.6029C145.606 48.8222 143.803 47.8655 142.428 46.7219C141.043 45.5893 140.35 44.0939 140.35 42.2466C140.35 41.114 140.603 40.0584 141.12 39.1017C141.636 38.1451 142.351 37.3094 143.253 36.5946C144.166 35.8799 145.287 35.3521 146.64 35.0002C147.981 34.6484 149.455 34.4724 151.038 34.4724C152.698 34.4724 154.865 34.3295 156.294 34.7253C157.724 35.1212 159.769 35.8909 160.956 36.6056C162.166 37.3314 163.277 37.9911 164.222 38.8488C164.365 38.9478 164.728 39.2776 165.179 39.6845C166.861 41.1909 169.412 41.1909 171.095 39.6845L171.172 39.6075C173.096 37.8701 173.151 34.8903 171.304 33.0979C170.952 32.746 170.655 32.4821 170.501 32.3502C169.071 31.0747 167.235 29.8431 164.981 28.6775C162.727 27.501 160.088 26.7422 157.086 26.3904V21.3542C157.086 18.6382 155.03 16.2631 152.314 16.0871C149.334 15.8892 146.871 18.2534 146.871 21.1783V26.5003C144.418 26.8522 142.197 27.479 140.218 28.3696C138.239 29.2603 136.534 30.3819 135.116 31.7234C133.686 33.0759 132.598 34.6154 131.85 36.3637C131.091 38.1011 130.717 40.0364 130.717 42.1696C130.717 44.7976 131.212 47.0078 132.202 48.7782C133.192 50.5595 134.522 52.066 136.182 53.3085C137.843 54.5511 139.701 55.6177 141.768 56.5083C143.825 57.399 145.925 58.1577 148.069 58.7955C150.84 59.7961 153.512 60.7088 156.085 61.5665C158.658 62.4241 160.758 63.4908 162.386 64.7663C164.013 66.0418 164.816 67.7902 164.816 69.9894C164.816 71.9027 164.277 73.5301 163.211 74.8386C162.144 76.1581 160.583 77.1698 158.515 77.8735C156.459 78.5882 153.963 78.4673 151.027 78.4673C148.575 78.4673 145.628 78.5113 143.539 77.5546C141.263 76.51 141.263 76.51 138.492 74.2668C138.261 74.0799 137.414 73.4971 136.402 72.5954C134.621 71.012 131.927 70.7371 130.157 72.3315C130.124 72.3535 130.102 72.3865 130.069 72.4085C127.979 74.2888 128.012 77.5546 130.113 79.4129C131.729 80.8314 133.39 82.2279 134.148 82.7887C135.776 83.9983 137.634 84.5041 139.734 85.3178C141.834 86.1315 144.638 86.5493 146.86 86.8242V92.0913C146.86 94.8073 148.916 97.1824 151.632 97.3584C154.612 97.5563 157.075 95.1922 157.075 92.2672V86.9342C159.923 86.5823 161.198 85.9445 163.485 85.0209C165.784 84.0972 167.763 82.9097 169.423 81.4472C171.084 79.9957 172.348 78.2693 173.228 76.2791C174.097 74.2888 174.536 72.1226 174.536 69.7805C174.547 66.7676 173.976 64.2825 172.832 62.2922Z" fill="#E6E6E6"/>
</svg>
