<svg width="9" height="5" viewBox="0 0 9 5" fill="none" xmlns="http://www.w3.org/2000/svg">
<path d="M8.33891 0.667828C8.37091 0.635828 8.39225 0.609161 8.40291 0.587828C8.41358 0.566494 8.42425 0.529161 8.43491 0.475828C8.44558 0.422494 8.44558 0.385161 8.43491 0.363828C8.42425 0.342494 8.41358 0.310494 8.40291 0.267828C8.39225 0.225161 8.37091 0.193161 8.33891 0.171828C8.29625 0.129161 8.24291 0.102495 8.17891 0.0918279C8.11491 0.081161 8.05091 0.081161 7.98691 0.0918279C7.92291 0.102495 7.87491 0.129161 7.84291 0.171828L4.24291 4.07583L0.642912 0.171828C0.578912 0.107828 0.498912 0.0758281 0.402912 0.0758281C0.306912 0.0758281 0.221579 0.113161 0.146912 0.187828C0.0722454 0.262495 0.0349121 0.342494 0.0349121 0.427828C0.0349121 0.513161 0.0722454 0.593161 0.146912 0.667828L3.97091 4.81183C4.04558 4.88649 4.13625 4.92383 4.24291 4.92383C4.34958 4.92383 4.44025 4.88649 4.51491 4.81183L8.33891 0.667828Z" fill="#002E69"/>
</svg>
