<svg width="10" height="5" viewBox="0 0 10 5" fill="none" xmlns="http://www.w3.org/2000/svg">
<path d="M8.93102 0.667828C8.96301 0.635828 8.98435 0.609161 8.99501 0.587828C9.00568 0.566494 9.01635 0.529161 9.02701 0.475828C9.03768 0.422494 9.03768 0.385161 9.02701 0.363828C9.01635 0.342494 9.00568 0.310494 8.99501 0.267828C8.98435 0.225161 8.96301 0.193161 8.93102 0.171828C8.88835 0.129161 8.83501 0.102495 8.77101 0.0918279C8.70701 0.081161 8.64301 0.081161 8.57901 0.0918279C8.51501 0.102495 8.46701 0.129161 8.43501 0.171828L4.83501 4.07583L1.23501 0.171828C1.17101 0.107828 1.09101 0.0758281 0.995014 0.0758281C0.899014 0.0758281 0.813681 0.113161 0.739014 0.187828C0.664347 0.262495 0.627014 0.342494 0.627014 0.427828C0.627014 0.513161 0.664347 0.593161 0.739014 0.667828L4.56301 4.81183C4.63768 4.88649 4.72835 4.92383 4.83501 4.92383C4.94168 4.92383 5.03235 4.88649 5.10701 4.81183L8.93102 0.667828Z" fill="#E6E6E6"/>
</svg>
