<svg width="1184" height="201" viewBox="0 0 1184 201" fill="none" xmlns="http://www.w3.org/2000/svg">
<path d="M0 20.9443C0 9.89865 8.95431 0.944336 20 0.944336H779V200.944H20C8.95429 200.944 0 191.99 0 180.944V20.9443Z" fill="#404040"/>
<path d="M80.2 92.3443C77.2667 92.3443 74.7467 91.7577 72.64 90.5843C70.56 89.3843 68.96 87.7043 67.84 85.5443C66.72 83.3577 66.16 80.7843 66.16 77.8243C66.16 75.611 66.48 73.6243 67.12 71.8643C67.76 70.0777 68.68 68.5577 69.88 67.3043C71.08 66.0243 72.5467 65.051 74.28 64.3843C76.04 63.691 78.0133 63.3443 80.2 63.3443C81.6667 63.3443 83.1067 63.531 84.52 63.9043C85.9333 64.2777 87.1733 64.811 88.24 65.5043C88.8 65.851 89.1733 66.2777 89.36 66.7843C89.5467 67.2643 89.5867 67.7443 89.48 68.2243C89.3733 68.6777 89.1467 69.0643 88.8 69.3843C88.48 69.7043 88.0667 69.891 87.56 69.9443C87.08 69.971 86.5467 69.7977 85.96 69.4243C85.1333 68.891 84.24 68.5043 83.28 68.2643C82.32 68.0243 81.3467 67.9043 80.36 67.9043C78.4667 67.9043 76.8667 68.291 75.56 69.0643C74.2533 69.8377 73.2667 70.9577 72.6 72.4243C71.9333 73.891 71.6 75.691 71.6 77.8243C71.6 79.931 71.9333 81.731 72.6 83.2243C73.2667 84.7177 74.2533 85.851 75.56 86.6243C76.8667 87.3977 78.4667 87.7843 80.36 87.7843C81.3733 87.7843 82.3733 87.6643 83.36 87.4243C84.3467 87.1577 85.28 86.7577 86.16 86.2243C86.7467 85.8777 87.2667 85.731 87.72 85.7843C88.2 85.811 88.6 85.971 88.92 86.2643C89.24 86.5577 89.4533 86.931 89.56 87.3843C89.6667 87.811 89.64 88.2643 89.48 88.7443C89.32 89.1977 89 89.5977 88.52 89.9443C87.4533 90.7177 86.1733 91.3177 84.68 91.7443C83.2133 92.1443 81.72 92.3443 80.2 92.3443ZM104.228 92.3443C101.908 92.3443 99.9208 91.7977 98.2675 90.7043C96.6408 89.5843 95.4008 87.9843 94.5475 85.9043C93.6942 83.8243 93.2675 81.3043 93.2675 78.3443C93.2675 75.9443 93.5342 73.8243 94.0675 71.9843C94.6275 70.1177 95.4275 68.5443 96.4675 67.2643C97.5075 65.9843 98.7742 65.011 100.268 64.3443C101.788 63.6777 103.494 63.3443 105.388 63.3443C106.561 63.3443 107.748 63.531 108.948 63.9043C110.174 64.251 111.321 64.7843 112.388 65.5043C112.814 65.771 113.094 66.1177 113.227 66.5443C113.361 66.971 113.374 67.3977 113.268 67.8243C113.188 68.2243 113.001 68.5843 112.708 68.9043C112.441 69.1977 112.094 69.3843 111.668 69.4643C111.241 69.5177 110.774 69.3977 110.268 69.1043C109.361 68.571 108.508 68.1977 107.708 67.9843C106.908 67.771 106.108 67.6643 105.308 67.6643C103.761 67.6643 102.454 68.0243 101.388 68.7443C100.321 69.4643 99.5075 70.5443 98.9475 71.9843C98.4142 73.4243 98.1475 75.2243 98.1475 77.3843V80.3843H97.6675C97.8808 79.0243 98.3208 77.8643 98.9875 76.9043C99.6808 75.9177 100.561 75.171 101.628 74.6643C102.694 74.131 103.881 73.8643 105.188 73.8643C106.814 73.8643 108.254 74.251 109.508 75.0243C110.761 75.7977 111.747 76.8643 112.468 78.2243C113.188 79.5843 113.548 81.1443 113.548 82.9043C113.548 84.7177 113.148 86.3443 112.348 87.7843C111.574 89.1977 110.481 90.3177 109.068 91.1443C107.681 91.9443 106.068 92.3443 104.228 92.3443ZM103.948 88.2643C104.908 88.2643 105.748 88.051 106.468 87.6243C107.214 87.1977 107.788 86.5977 108.188 85.8243C108.588 85.0243 108.788 84.1177 108.788 83.1043C108.788 82.0643 108.588 81.1577 108.188 80.3843C107.788 79.611 107.214 79.011 106.468 78.5843C105.748 78.131 104.908 77.9043 103.948 77.9043C102.988 77.9043 102.148 78.131 101.428 78.5843C100.708 79.011 100.134 79.611 99.7075 80.3843C99.3075 81.1577 99.1075 82.0643 99.1075 83.1043C99.1075 84.1177 99.3075 85.0243 99.7075 85.8243C100.134 86.5977 100.708 87.1977 101.428 87.6243C102.148 88.051 102.988 88.2643 103.948 88.2643ZM142.231 92.3443C139.298 92.3443 136.778 91.7577 134.671 90.5843C132.591 89.3843 130.991 87.7043 129.871 85.5443C128.751 83.3577 128.191 80.7843 128.191 77.8243C128.191 75.611 128.511 73.6243 129.151 71.8643C129.791 70.0777 130.711 68.5577 131.911 67.3043C133.111 66.0243 134.578 65.051 136.311 64.3843C138.071 63.691 140.045 63.3443 142.231 63.3443C143.698 63.3443 145.138 63.531 146.551 63.9043C147.965 64.2777 149.205 64.811 150.271 65.5043C150.831 65.851 151.205 66.2777 151.391 66.7843C151.578 67.2643 151.618 67.7443 151.511 68.2243C151.405 68.6777 151.178 69.0643 150.831 69.3843C150.511 69.7043 150.098 69.891 149.591 69.9443C149.111 69.971 148.578 69.7977 147.991 69.4243C147.165 68.891 146.271 68.5043 145.311 68.2643C144.351 68.0243 143.378 67.9043 142.391 67.9043C140.498 67.9043 138.898 68.291 137.591 69.0643C136.285 69.8377 135.298 70.9577 134.631 72.4243C133.965 73.891 133.631 75.691 133.631 77.8243C133.631 79.931 133.965 81.731 134.631 83.2243C135.298 84.7177 136.285 85.851 137.591 86.6243C138.898 87.3977 140.498 87.7843 142.391 87.7843C143.405 87.7843 144.405 87.6643 145.391 87.4243C146.378 87.1577 147.311 86.7577 148.191 86.2243C148.778 85.8777 149.298 85.731 149.751 85.7843C150.231 85.811 150.631 85.971 150.951 86.2643C151.271 86.5577 151.485 86.931 151.591 87.3843C151.698 87.811 151.671 88.2643 151.511 88.7443C151.351 89.1977 151.031 89.5977 150.551 89.9443C149.485 90.7177 148.205 91.3177 146.711 91.7443C145.245 92.1443 143.751 92.3443 142.231 92.3443ZM161.556 92.3443C160.142 92.3443 158.876 92.0777 157.756 91.5443C156.662 90.9843 155.796 90.2377 155.156 89.3043C154.542 88.371 154.236 87.3177 154.236 86.1443C154.236 84.7043 154.609 83.571 155.356 82.7443C156.102 81.891 157.316 81.2777 158.996 80.9043C160.676 80.531 162.929 80.3443 165.756 80.3443H167.756V83.2243H165.796C164.142 83.2243 162.822 83.3043 161.836 83.4643C160.849 83.6243 160.142 83.9043 159.716 84.3043C159.316 84.6777 159.116 85.211 159.116 85.9043C159.116 86.7843 159.422 87.5043 160.036 88.0643C160.649 88.6243 161.502 88.9043 162.596 88.9043C163.476 88.9043 164.249 88.7043 164.916 88.3043C165.609 87.8777 166.156 87.3043 166.556 86.5843C166.956 85.8643 167.156 85.0377 167.156 84.1043V79.5043C167.156 78.171 166.862 77.211 166.276 76.6243C165.689 76.0377 164.702 75.7443 163.316 75.7443C162.542 75.7443 161.702 75.8377 160.796 76.0243C159.916 76.211 158.982 76.531 157.996 76.9843C157.489 77.2243 157.036 77.291 156.636 77.1843C156.262 77.0777 155.969 76.8643 155.756 76.5443C155.542 76.1977 155.436 75.8243 155.436 75.4243C155.436 75.0243 155.542 74.6377 155.756 74.2643C155.969 73.8643 156.329 73.571 156.836 73.3843C158.062 72.8777 159.236 72.5177 160.356 72.3043C161.502 72.091 162.542 71.9843 163.476 71.9843C165.396 71.9843 166.969 72.2777 168.196 72.8643C169.449 73.451 170.382 74.3443 170.996 75.5443C171.609 76.7177 171.916 78.2377 171.916 80.1043V89.7043C171.916 90.531 171.716 91.171 171.316 91.6243C170.916 92.051 170.342 92.2643 169.596 92.2643C168.849 92.2643 168.262 92.051 167.836 91.6243C167.436 91.171 167.236 90.531 167.236 89.7043V87.7843H167.556C167.369 88.7177 166.996 89.531 166.436 90.2243C165.902 90.891 165.222 91.411 164.396 91.7843C163.569 92.1577 162.622 92.3443 161.556 92.3443ZM179.551 92.2643C178.724 92.2643 178.084 92.051 177.631 91.6243C177.204 91.171 176.991 90.531 176.991 89.7043V74.5843C176.991 73.7577 177.204 73.131 177.631 72.7043C178.057 72.2777 178.657 72.0643 179.431 72.0643C180.204 72.0643 180.804 72.2777 181.231 72.7043C181.657 73.131 181.871 73.7577 181.871 74.5843V77.1043H181.471C181.844 75.5043 182.577 74.291 183.671 73.4643C184.764 72.6377 186.217 72.1443 188.031 71.9843C188.591 71.931 189.031 72.0777 189.351 72.4243C189.697 72.7443 189.897 73.251 189.951 73.9443C190.004 74.611 189.844 75.1577 189.471 75.5843C189.124 75.9843 188.591 76.2243 187.871 76.3043L186.991 76.3843C185.364 76.5443 184.137 77.051 183.311 77.9043C182.484 78.731 182.071 79.9043 182.071 81.4243V89.7043C182.071 90.531 181.857 91.171 181.431 91.6243C181.004 92.051 180.377 92.2643 179.551 92.2643ZM203.935 92.3443C202.281 92.3443 200.828 91.931 199.575 91.1043C198.348 90.2777 197.535 89.171 197.135 87.7843L197.575 86.7843V89.7043C197.575 90.531 197.361 91.171 196.935 91.6243C196.508 92.051 195.908 92.2643 195.135 92.2643C194.335 92.2643 193.721 92.051 193.295 91.6243C192.868 91.171 192.655 90.531 192.655 89.7043V65.9443C192.655 65.1177 192.868 64.491 193.295 64.0643C193.721 63.6377 194.335 63.4243 195.135 63.4243C195.935 63.4243 196.548 63.6377 196.975 64.0643C197.428 64.491 197.655 65.1177 197.655 65.9443V76.3443H197.175C197.601 75.0377 198.428 73.9843 199.655 73.1843C200.881 72.3843 202.308 71.9843 203.935 71.9843C205.668 71.9843 207.175 72.3977 208.455 73.2243C209.735 74.051 210.735 75.2243 211.455 76.7443C212.175 78.2377 212.535 80.0377 212.535 82.1443C212.535 84.2243 212.175 86.0377 211.455 87.5843C210.735 89.1043 209.721 90.2777 208.415 91.1043C207.135 91.931 205.641 92.3443 203.935 92.3443ZM202.535 88.5443C203.521 88.5443 204.388 88.3043 205.135 87.8243C205.881 87.3443 206.455 86.6377 206.855 85.7043C207.281 84.7443 207.495 83.5577 207.495 82.1443C207.495 80.011 207.041 78.4243 206.135 77.3843C205.228 76.3177 204.028 75.7843 202.535 75.7843C201.548 75.7843 200.681 76.0243 199.935 76.5043C199.188 76.9577 198.601 77.6643 198.175 78.6243C197.775 79.5577 197.575 80.731 197.575 82.1443C197.575 84.251 198.028 85.851 198.935 86.9443C199.841 88.011 201.041 88.5443 202.535 88.5443ZM225.559 92.3443C223.532 92.3443 221.772 91.931 220.279 91.1043C218.786 90.2777 217.626 89.1043 216.799 87.5843C215.972 86.0377 215.559 84.2243 215.559 82.1443C215.559 80.571 215.786 79.171 216.239 77.9443C216.719 76.691 217.399 75.6243 218.279 74.7443C219.159 73.8377 220.212 73.1577 221.439 72.7043C222.666 72.2243 224.039 71.9843 225.559 71.9843C227.586 71.9843 229.346 72.3977 230.839 73.2243C232.332 74.051 233.492 75.2243 234.319 76.7443C235.146 78.2643 235.559 80.0643 235.559 82.1443C235.559 83.7177 235.319 85.131 234.839 86.3843C234.386 87.6377 233.719 88.7177 232.839 89.6243C231.959 90.5043 230.906 91.1843 229.679 91.6643C228.452 92.1177 227.079 92.3443 225.559 92.3443ZM225.559 88.5443C226.546 88.5443 227.412 88.3043 228.159 87.8243C228.906 87.3443 229.479 86.6377 229.879 85.7043C230.306 84.7443 230.519 83.5577 230.519 82.1443C230.519 80.011 230.066 78.4243 229.159 77.3843C228.252 76.3177 227.052 75.7843 225.559 75.7843C224.572 75.7843 223.706 76.0243 222.959 76.5043C222.212 76.9577 221.626 77.6643 221.199 78.6243C220.799 79.5577 220.599 80.731 220.599 82.1443C220.599 84.251 221.052 85.851 221.959 86.9443C222.866 88.011 224.066 88.5443 225.559 88.5443ZM242.166 92.2643C241.366 92.2643 240.753 92.051 240.326 91.6243C239.899 91.171 239.686 90.531 239.686 89.7043V74.5843C239.686 73.7577 239.899 73.131 240.326 72.7043C240.753 72.2777 241.353 72.0643 242.126 72.0643C242.899 72.0643 243.499 72.2777 243.926 72.7043C244.353 73.131 244.566 73.7577 244.566 74.5843V77.3043L244.126 76.3043C244.713 74.891 245.619 73.8243 246.846 73.1043C248.099 72.3577 249.513 71.9843 251.086 71.9843C252.659 71.9843 253.953 72.2777 254.966 72.8643C255.979 73.451 256.739 74.3443 257.246 75.5443C257.753 76.7177 258.006 78.211 258.006 80.0243V89.7043C258.006 90.531 257.793 91.171 257.366 91.6243C256.939 92.051 256.326 92.2643 255.526 92.2643C254.726 92.2643 254.099 92.051 253.646 91.6243C253.219 91.171 253.006 90.531 253.006 89.7043V80.2643C253.006 78.7443 252.713 77.6377 252.126 76.9443C251.566 76.251 250.686 75.9043 249.486 75.9043C248.019 75.9043 246.846 76.371 245.966 77.3043C245.113 78.211 244.686 79.4243 244.686 80.9443V89.7043C244.686 91.411 243.846 92.2643 242.166 92.2643Z" fill="white"/>
<path d="M72.1 138.144C70.6333 138.144 69.3733 137.851 68.32 137.264C67.28 136.664 66.48 135.824 65.92 134.744C65.36 133.651 65.08 132.364 65.08 130.884C65.08 129.778 65.24 128.784 65.56 127.904C65.88 127.011 66.34 126.251 66.94 125.624C67.54 124.984 68.2733 124.498 69.14 124.164C70.02 123.818 71.0067 123.644 72.1 123.644C72.8333 123.644 73.5533 123.738 74.26 123.924C74.9667 124.111 75.5867 124.378 76.12 124.724C76.4 124.898 76.5867 125.111 76.68 125.364C76.7733 125.604 76.7933 125.844 76.74 126.084C76.6867 126.311 76.5733 126.504 76.4 126.664C76.24 126.824 76.0333 126.918 75.78 126.944C75.54 126.958 75.2733 126.871 74.98 126.684C74.5667 126.418 74.12 126.224 73.64 126.104C73.16 125.984 72.6733 125.924 72.18 125.924C71.2333 125.924 70.4333 126.118 69.78 126.504C69.1267 126.891 68.6333 127.451 68.3 128.184C67.9667 128.918 67.8 129.818 67.8 130.884C67.8 131.938 67.9667 132.838 68.3 133.584C68.6333 134.331 69.1267 134.898 69.78 135.284C70.4333 135.671 71.2333 135.864 72.18 135.864C72.6867 135.864 73.1867 135.804 73.68 135.684C74.1733 135.551 74.64 135.351 75.08 135.084C75.3733 134.911 75.6333 134.838 75.86 134.864C76.1 134.878 76.3 134.958 76.46 135.104C76.62 135.251 76.7267 135.438 76.78 135.664C76.8333 135.878 76.82 136.104 76.74 136.344C76.66 136.571 76.5 136.771 76.26 136.944C75.7267 137.331 75.0867 137.631 74.34 137.844C73.6067 138.044 72.86 138.144 72.1 138.144ZM82.6506 138.144C81.6373 138.144 80.7573 137.938 80.0106 137.524C79.264 137.111 78.684 136.524 78.2706 135.764C77.8573 134.991 77.6506 134.084 77.6506 133.044C77.6506 132.258 77.764 131.558 77.9906 130.944C78.2306 130.318 78.5706 129.784 79.0106 129.344C79.4506 128.891 79.9773 128.551 80.5906 128.324C81.204 128.084 81.8906 127.964 82.6506 127.964C83.664 127.964 84.544 128.171 85.2906 128.584C86.0373 128.998 86.6173 129.584 87.0306 130.344C87.444 131.104 87.6506 132.004 87.6506 133.044C87.6506 133.831 87.5306 134.538 87.2906 135.164C87.064 135.791 86.7306 136.331 86.2906 136.784C85.8506 137.224 85.324 137.564 84.7106 137.804C84.0973 138.031 83.4106 138.144 82.6506 138.144ZM82.6506 136.244C83.144 136.244 83.5773 136.124 83.9506 135.884C84.324 135.644 84.6106 135.291 84.8106 134.824C85.024 134.344 85.1306 133.751 85.1306 133.044C85.1306 131.978 84.904 131.184 84.4506 130.664C83.9973 130.131 83.3973 129.864 82.6506 129.864C82.1573 129.864 81.724 129.984 81.3506 130.224C80.9773 130.451 80.684 130.804 80.4706 131.284C80.2706 131.751 80.1706 132.338 80.1706 133.044C80.1706 134.098 80.3973 134.898 80.8506 135.444C81.304 135.978 81.904 136.244 82.6506 136.244ZM90.9541 138.104C90.5541 138.104 90.2474 137.998 90.0341 137.784C89.8207 137.558 89.7141 137.238 89.7141 136.824V129.264C89.7141 128.851 89.8207 128.538 90.0341 128.324C90.2474 128.111 90.5474 128.004 90.9341 128.004C91.3207 128.004 91.6207 128.111 91.8341 128.324C92.0474 128.538 92.1541 128.851 92.1541 129.264V130.624L91.9341 130.124C92.2274 129.418 92.6807 128.884 93.2941 128.524C93.9207 128.151 94.6274 127.964 95.4141 127.964C96.2007 127.964 96.8474 128.111 97.3541 128.404C97.8607 128.698 98.2407 129.144 98.4941 129.744C98.7474 130.331 98.8741 131.078 98.8741 131.984V136.824C98.8741 137.238 98.7674 137.558 98.5541 137.784C98.3407 137.998 98.0341 138.104 97.6341 138.104C97.2341 138.104 96.9207 137.998 96.6941 137.784C96.4807 137.558 96.3741 137.238 96.3741 136.824V132.104C96.3741 131.344 96.2274 130.791 95.9341 130.444C95.6541 130.098 95.2141 129.924 94.6141 129.924C93.8807 129.924 93.2941 130.158 92.8541 130.624C92.4274 131.078 92.2141 131.684 92.2141 132.444V136.824C92.2141 137.678 91.7941 138.104 90.9541 138.104ZM102.653 138.104C102.253 138.104 101.947 137.998 101.733 137.784C101.52 137.558 101.413 137.238 101.413 136.824V124.944C101.413 124.531 101.52 124.218 101.733 124.004C101.947 123.791 102.253 123.684 102.653 123.684C103.053 123.684 103.36 123.791 103.573 124.004C103.8 124.218 103.913 124.531 103.913 124.944V130.124H103.633C103.927 129.418 104.38 128.884 104.993 128.524C105.62 128.151 106.327 127.964 107.113 127.964C107.9 127.964 108.547 128.111 109.053 128.404C109.56 128.698 109.94 129.144 110.193 129.744C110.447 130.331 110.573 131.078 110.573 131.984V136.824C110.573 137.238 110.467 137.558 110.253 137.784C110.04 137.998 109.733 138.104 109.333 138.104C108.933 138.104 108.62 137.998 108.393 137.784C108.18 137.558 108.073 137.238 108.073 136.824V132.104C108.073 131.344 107.927 130.791 107.633 130.444C107.353 130.098 106.913 129.924 106.313 129.924C105.58 129.924 104.993 130.158 104.553 130.624C104.127 131.078 103.913 131.684 103.913 132.444V136.824C103.913 137.678 103.493 138.104 102.653 138.104ZM117.933 138.144C116.826 138.144 115.873 137.938 115.073 137.524C114.273 137.111 113.653 136.524 113.213 135.764C112.786 135.004 112.573 134.104 112.573 133.064C112.573 132.051 112.779 131.164 113.193 130.404C113.619 129.644 114.199 129.051 114.933 128.624C115.679 128.184 116.526 127.964 117.473 127.964C118.166 127.964 118.786 128.078 119.333 128.304C119.893 128.531 120.366 128.858 120.753 129.284C121.153 129.711 121.453 130.231 121.653 130.844C121.866 131.444 121.973 132.124 121.973 132.884C121.973 133.124 121.886 133.311 121.713 133.444C121.553 133.564 121.319 133.624 121.013 133.624H114.593V132.184H120.213L119.893 132.484C119.893 131.871 119.799 131.358 119.613 130.944C119.439 130.531 119.179 130.218 118.833 130.004C118.499 129.778 118.079 129.664 117.573 129.664C117.013 129.664 116.533 129.798 116.133 130.064C115.746 130.318 115.446 130.684 115.233 131.164C115.033 131.631 114.933 132.191 114.933 132.844V132.984C114.933 134.078 115.186 134.898 115.693 135.444C116.213 135.978 116.973 136.244 117.973 136.244C118.319 136.244 118.706 136.204 119.133 136.124C119.573 136.031 119.986 135.878 120.373 135.664C120.653 135.504 120.899 135.438 121.113 135.464C121.326 135.478 121.493 135.551 121.613 135.684C121.746 135.818 121.826 135.984 121.853 136.184C121.879 136.371 121.839 136.564 121.733 136.764C121.639 136.964 121.473 137.138 121.233 137.284C120.766 137.578 120.226 137.798 119.613 137.944C119.013 138.078 118.453 138.144 117.933 138.144ZM128.472 138.144C127.446 138.144 126.552 137.938 125.792 137.524C125.032 137.098 124.446 136.498 124.032 135.724C123.619 134.951 123.412 134.044 123.412 133.004C123.412 132.218 123.526 131.518 123.752 130.904C123.992 130.278 124.332 129.751 124.772 129.324C125.212 128.884 125.746 128.551 126.372 128.324C126.999 128.084 127.699 127.964 128.472 127.964C128.912 127.964 129.386 128.024 129.892 128.144C130.412 128.264 130.899 128.464 131.352 128.744C131.566 128.878 131.706 129.038 131.772 129.224C131.839 129.411 131.852 129.604 131.812 129.804C131.772 129.991 131.686 130.158 131.552 130.304C131.432 130.438 131.279 130.524 131.092 130.564C130.906 130.591 130.699 130.544 130.472 130.424C130.179 130.251 129.879 130.124 129.572 130.044C129.266 129.951 128.972 129.904 128.692 129.904C128.252 129.904 127.866 129.978 127.532 130.124C127.199 130.258 126.912 130.458 126.672 130.724C126.446 130.978 126.272 131.298 126.152 131.684C126.032 132.071 125.972 132.518 125.972 133.024C125.972 134.011 126.206 134.791 126.672 135.364C127.152 135.924 127.826 136.204 128.692 136.204C128.972 136.204 129.259 136.164 129.552 136.084C129.859 136.004 130.166 135.878 130.472 135.704C130.699 135.584 130.899 135.544 131.072 135.584C131.259 135.624 131.412 135.718 131.532 135.864C131.652 135.998 131.726 136.164 131.752 136.364C131.779 136.551 131.752 136.738 131.672 136.924C131.606 137.111 131.472 137.264 131.272 137.384C130.832 137.651 130.366 137.844 129.872 137.964C129.379 138.084 128.912 138.144 128.472 138.144ZM128.352 141.844C128.099 141.844 127.832 141.824 127.552 141.784C127.272 141.758 127.019 141.704 126.792 141.624C126.592 141.558 126.452 141.444 126.372 141.284C126.306 141.138 126.292 140.984 126.332 140.824C126.386 140.678 126.479 140.564 126.612 140.484C126.759 140.404 126.932 140.404 127.132 140.484C127.306 140.538 127.472 140.578 127.632 140.604C127.792 140.631 127.966 140.644 128.152 140.644C128.499 140.644 128.766 140.591 128.952 140.484C129.139 140.391 129.232 140.244 129.232 140.044C129.232 139.898 129.172 139.784 129.052 139.704C128.946 139.624 128.759 139.584 128.492 139.584C128.399 139.584 128.299 139.584 128.192 139.584C128.099 139.598 127.999 139.618 127.892 139.644C127.799 139.671 127.712 139.678 127.632 139.664C127.566 139.664 127.499 139.638 127.432 139.584C127.379 139.531 127.346 139.464 127.332 139.384C127.319 139.304 127.319 139.198 127.332 139.064L127.552 137.544H128.892L128.632 139.064L127.992 138.844C128.152 138.791 128.312 138.751 128.472 138.724C128.632 138.698 128.779 138.684 128.912 138.684C129.459 138.684 129.899 138.811 130.232 139.064C130.566 139.318 130.732 139.671 130.732 140.124C130.732 140.644 130.512 141.058 130.072 141.364C129.632 141.684 129.059 141.844 128.352 141.844ZM136.547 138.144C135.841 138.144 135.207 138.011 134.647 137.744C134.101 137.464 133.667 137.091 133.347 136.624C133.041 136.158 132.887 135.631 132.887 135.044C132.887 134.324 133.074 133.758 133.447 133.344C133.821 132.918 134.427 132.611 135.267 132.424C136.107 132.238 137.234 132.144 138.647 132.144H139.647V133.584H138.667C137.841 133.584 137.181 133.624 136.687 133.704C136.194 133.784 135.841 133.924 135.627 134.124C135.427 134.311 135.327 134.578 135.327 134.924C135.327 135.364 135.481 135.724 135.787 136.004C136.094 136.284 136.521 136.424 137.067 136.424C137.507 136.424 137.894 136.324 138.227 136.124C138.574 135.911 138.847 135.624 139.047 135.264C139.247 134.904 139.347 134.491 139.347 134.024V131.724C139.347 131.058 139.201 130.578 138.907 130.284C138.614 129.991 138.121 129.844 137.427 129.844C137.041 129.844 136.621 129.891 136.167 129.984C135.727 130.078 135.261 130.238 134.767 130.464C134.514 130.584 134.287 130.618 134.087 130.564C133.901 130.511 133.754 130.404 133.647 130.244C133.541 130.071 133.487 129.884 133.487 129.684C133.487 129.484 133.541 129.291 133.647 129.104C133.754 128.904 133.934 128.758 134.187 128.664C134.801 128.411 135.387 128.231 135.947 128.124C136.521 128.018 137.041 127.964 137.507 127.964C138.467 127.964 139.254 128.111 139.867 128.404C140.494 128.698 140.961 129.144 141.267 129.744C141.574 130.331 141.727 131.091 141.727 132.024V136.824C141.727 137.238 141.627 137.558 141.427 137.784C141.227 137.998 140.941 138.104 140.567 138.104C140.194 138.104 139.901 137.998 139.687 137.784C139.487 137.558 139.387 137.238 139.387 136.824V135.864H139.547C139.454 136.331 139.267 136.738 138.987 137.084C138.721 137.418 138.381 137.678 137.967 137.864C137.554 138.051 137.081 138.144 136.547 138.144ZM154.155 138.144C153.141 138.144 152.261 137.938 151.515 137.524C150.768 137.111 150.188 136.524 149.775 135.764C149.361 134.991 149.155 134.084 149.155 133.044C149.155 132.258 149.268 131.558 149.495 130.944C149.735 130.318 150.075 129.784 150.515 129.344C150.955 128.891 151.481 128.551 152.095 128.324C152.708 128.084 153.395 127.964 154.155 127.964C155.168 127.964 156.048 128.171 156.795 128.584C157.541 128.998 158.121 129.584 158.535 130.344C158.948 131.104 159.155 132.004 159.155 133.044C159.155 133.831 159.035 134.538 158.795 135.164C158.568 135.791 158.235 136.331 157.795 136.784C157.355 137.224 156.828 137.564 156.215 137.804C155.601 138.031 154.915 138.144 154.155 138.144ZM154.155 136.244C154.648 136.244 155.081 136.124 155.455 135.884C155.828 135.644 156.115 135.291 156.315 134.824C156.528 134.344 156.635 133.751 156.635 133.044C156.635 131.978 156.408 131.184 155.955 130.664C155.501 130.131 154.901 129.864 154.155 129.864C153.661 129.864 153.228 129.984 152.855 130.224C152.481 130.451 152.188 130.804 151.975 131.284C151.775 131.751 151.675 132.338 151.675 133.044C151.675 134.098 151.901 134.898 152.355 135.444C152.808 135.978 153.408 136.244 154.155 136.244ZM164.798 138.144C164.225 138.144 163.618 138.084 162.978 137.964C162.338 137.844 161.765 137.638 161.258 137.344C161.045 137.211 160.891 137.058 160.798 136.884C160.718 136.698 160.685 136.518 160.698 136.344C160.725 136.158 160.791 135.998 160.898 135.864C161.018 135.731 161.165 135.644 161.338 135.604C161.525 135.564 161.725 135.598 161.938 135.704C162.471 135.958 162.971 136.138 163.438 136.244C163.905 136.338 164.365 136.384 164.818 136.384C165.458 136.384 165.931 136.278 166.238 136.064C166.558 135.838 166.718 135.544 166.718 135.184C166.718 134.878 166.611 134.644 166.398 134.484C166.198 134.311 165.891 134.184 165.478 134.104L163.478 133.724C162.651 133.564 162.018 133.264 161.578 132.824C161.151 132.371 160.938 131.791 160.938 131.084C160.938 130.444 161.111 129.891 161.458 129.424C161.818 128.958 162.311 128.598 162.938 128.344C163.565 128.091 164.285 127.964 165.098 127.964C165.685 127.964 166.231 128.031 166.738 128.164C167.258 128.284 167.758 128.478 168.238 128.744C168.438 128.851 168.571 128.991 168.638 129.164C168.718 129.338 168.738 129.518 168.698 129.704C168.658 129.878 168.578 130.038 168.458 130.184C168.338 130.318 168.185 130.404 167.998 130.444C167.825 130.471 167.625 130.431 167.398 130.324C166.985 130.111 166.585 129.958 166.198 129.864C165.825 129.771 165.465 129.724 165.118 129.724C164.465 129.724 163.978 129.838 163.658 130.064C163.351 130.291 163.198 130.591 163.198 130.964C163.198 131.244 163.291 131.478 163.478 131.664C163.665 131.851 163.951 131.978 164.338 132.044L166.338 132.424C167.205 132.584 167.858 132.878 168.298 133.304C168.751 133.731 168.978 134.304 168.978 135.024C168.978 135.998 168.598 136.764 167.838 137.324C167.078 137.871 166.065 138.144 164.798 138.144ZM178.013 137.944C177.573 137.944 177.233 137.831 176.993 137.604C176.767 137.364 176.653 137.024 176.653 136.584V125.204C176.653 124.764 176.767 124.431 176.993 124.204C177.233 123.964 177.573 123.844 178.013 123.844H182.813C183.8 123.844 184.64 123.991 185.333 124.284C186.027 124.578 186.553 124.998 186.913 125.544C187.287 126.091 187.473 126.744 187.473 127.504C187.473 128.358 187.227 129.078 186.733 129.664C186.24 130.251 185.567 130.644 184.713 130.844V130.544C185.7 130.691 186.467 131.064 187.013 131.664C187.56 132.264 187.833 133.044 187.833 134.004C187.833 135.258 187.407 136.231 186.553 136.924C185.713 137.604 184.54 137.944 183.033 137.944H178.013ZM179.113 136.004H182.713C183.62 136.004 184.287 135.831 184.713 135.484C185.14 135.124 185.353 134.591 185.353 133.884C185.353 133.164 185.14 132.631 184.713 132.284C184.287 131.938 183.62 131.764 182.713 131.764H179.113V136.004ZM179.113 129.824H182.373C183.253 129.824 183.907 129.658 184.333 129.324C184.773 128.978 184.993 128.471 184.993 127.804C184.993 127.138 184.773 126.638 184.333 126.304C183.907 125.958 183.253 125.784 182.373 125.784H179.113V129.824ZM195.003 138.144C193.896 138.144 192.943 137.938 192.143 137.524C191.343 137.111 190.723 136.524 190.283 135.764C189.856 135.004 189.643 134.104 189.643 133.064C189.643 132.051 189.849 131.164 190.263 130.404C190.689 129.644 191.269 129.051 192.003 128.624C192.749 128.184 193.596 127.964 194.543 127.964C195.236 127.964 195.856 128.078 196.403 128.304C196.963 128.531 197.436 128.858 197.823 129.284C198.223 129.711 198.523 130.231 198.723 130.844C198.936 131.444 199.043 132.124 199.043 132.884C199.043 133.124 198.956 133.311 198.783 133.444C198.623 133.564 198.389 133.624 198.083 133.624H191.663V132.184H197.283L196.963 132.484C196.963 131.871 196.869 131.358 196.683 130.944C196.509 130.531 196.249 130.218 195.903 130.004C195.569 129.778 195.149 129.664 194.643 129.664C194.083 129.664 193.603 129.798 193.203 130.064C192.816 130.318 192.516 130.684 192.303 131.164C192.103 131.631 192.003 132.191 192.003 132.844V132.984C192.003 134.078 192.256 134.898 192.763 135.444C193.283 135.978 194.043 136.244 195.043 136.244C195.389 136.244 195.776 136.204 196.203 136.124C196.643 136.031 197.056 135.878 197.443 135.664C197.723 135.504 197.969 135.438 198.183 135.464C198.396 135.478 198.563 135.551 198.683 135.684C198.816 135.818 198.896 135.984 198.923 136.184C198.949 136.371 198.909 136.564 198.803 136.764C198.709 136.964 198.543 137.138 198.303 137.284C197.836 137.578 197.296 137.798 196.683 137.944C196.083 138.078 195.523 138.144 195.003 138.144ZM202.263 138.104C201.863 138.104 201.556 137.998 201.343 137.784C201.129 137.558 201.023 137.238 201.023 136.824V129.264C201.023 128.851 201.129 128.538 201.343 128.324C201.556 128.111 201.856 128.004 202.243 128.004C202.629 128.004 202.929 128.111 203.143 128.324C203.356 128.538 203.463 128.851 203.463 129.264V130.624L203.243 130.124C203.536 129.418 203.989 128.884 204.603 128.524C205.229 128.151 205.936 127.964 206.723 127.964C207.509 127.964 208.156 128.111 208.663 128.404C209.169 128.698 209.549 129.144 209.803 129.744C210.056 130.331 210.183 131.078 210.183 131.984V136.824C210.183 137.238 210.076 137.558 209.863 137.784C209.649 137.998 209.343 138.104 208.943 138.104C208.543 138.104 208.229 137.998 208.003 137.784C207.789 137.558 207.683 137.238 207.683 136.824V132.104C207.683 131.344 207.536 130.791 207.243 130.444C206.963 130.098 206.523 129.924 205.923 129.924C205.189 129.924 204.603 130.158 204.163 130.624C203.736 131.078 203.523 131.684 203.523 132.444V136.824C203.523 137.678 203.103 138.104 202.263 138.104ZM217.542 138.144C216.435 138.144 215.482 137.938 214.682 137.524C213.882 137.111 213.262 136.524 212.822 135.764C212.395 135.004 212.182 134.104 212.182 133.064C212.182 132.051 212.389 131.164 212.802 130.404C213.229 129.644 213.809 129.051 214.542 128.624C215.289 128.184 216.135 127.964 217.082 127.964C217.775 127.964 218.395 128.078 218.942 128.304C219.502 128.531 219.975 128.858 220.362 129.284C220.762 129.711 221.062 130.231 221.262 130.844C221.475 131.444 221.582 132.124 221.582 132.884C221.582 133.124 221.495 133.311 221.322 133.444C221.162 133.564 220.929 133.624 220.622 133.624H214.202V132.184H219.822L219.502 132.484C219.502 131.871 219.409 131.358 219.222 130.944C219.049 130.531 218.789 130.218 218.442 130.004C218.109 129.778 217.689 129.664 217.182 129.664C216.622 129.664 216.142 129.798 215.742 130.064C215.355 130.318 215.055 130.684 214.842 131.164C214.642 131.631 214.542 132.191 214.542 132.844V132.984C214.542 134.078 214.795 134.898 215.302 135.444C215.822 135.978 216.582 136.244 217.582 136.244C217.929 136.244 218.315 136.204 218.742 136.124C219.182 136.031 219.595 135.878 219.982 135.664C220.262 135.504 220.509 135.438 220.722 135.464C220.935 135.478 221.102 135.551 221.222 135.684C221.355 135.818 221.435 135.984 221.462 136.184C221.489 136.371 221.449 136.564 221.342 136.764C221.249 136.964 221.082 137.138 220.842 137.284C220.375 137.578 219.835 137.798 219.222 137.944C218.622 138.078 218.062 138.144 217.542 138.144ZM225.443 138.104C225.043 138.104 224.729 137.998 224.503 137.784C224.289 137.558 224.183 137.238 224.183 136.824V130.044H223.263C222.943 130.044 222.696 129.964 222.523 129.804C222.349 129.631 222.263 129.398 222.263 129.104C222.263 128.798 222.349 128.564 222.523 128.404C222.696 128.244 222.943 128.164 223.263 128.164H224.903L224.183 128.824V128.144C224.183 126.771 224.529 125.744 225.223 125.064C225.916 124.371 226.916 123.964 228.223 123.844L228.903 123.784C229.169 123.758 229.383 123.804 229.543 123.924C229.703 124.031 229.809 124.178 229.863 124.364C229.916 124.538 229.923 124.718 229.883 124.904C229.843 125.091 229.756 125.258 229.623 125.404C229.503 125.538 229.343 125.611 229.143 125.624L228.863 125.644C228.103 125.698 227.549 125.891 227.203 126.224C226.856 126.558 226.683 127.064 226.683 127.744V128.484L226.363 128.164H228.383C228.703 128.164 228.949 128.244 229.123 128.404C229.296 128.564 229.383 128.798 229.383 129.104C229.383 129.398 229.296 129.631 229.123 129.804C228.949 129.964 228.703 130.044 228.383 130.044H226.683V136.824C226.683 137.678 226.269 138.104 225.443 138.104ZM232.048 138.084C231.648 138.084 231.341 137.964 231.128 137.724C230.914 137.484 230.808 137.151 230.808 136.724V129.384C230.808 128.944 230.914 128.611 231.128 128.384C231.341 128.144 231.648 128.024 232.048 128.024C232.448 128.024 232.754 128.144 232.968 128.384C233.194 128.611 233.308 128.944 233.308 129.384V136.724C233.308 137.151 233.201 137.484 232.988 137.724C232.774 137.964 232.461 138.084 232.048 138.084ZM232.988 126.744C232.854 126.931 232.694 127.038 232.508 127.064C232.321 127.091 232.141 127.058 231.968 126.964C231.794 126.871 231.668 126.738 231.588 126.564C231.521 126.391 231.541 126.198 231.648 125.984L233.168 123.004C233.288 122.751 233.448 122.591 233.648 122.524C233.848 122.444 234.054 122.431 234.268 122.484C234.481 122.538 234.661 122.638 234.808 122.784C234.968 122.931 235.061 123.111 235.088 123.324C235.128 123.524 235.074 123.731 234.928 123.944L232.988 126.744ZM240.425 138.144C239.399 138.144 238.505 137.938 237.745 137.524C236.985 137.098 236.399 136.498 235.985 135.724C235.572 134.951 235.365 134.044 235.365 133.004C235.365 132.218 235.479 131.518 235.705 130.904C235.945 130.278 236.285 129.751 236.725 129.324C237.165 128.884 237.699 128.551 238.325 128.324C238.952 128.084 239.652 127.964 240.425 127.964C240.865 127.964 241.339 128.024 241.845 128.144C242.365 128.264 242.852 128.464 243.305 128.744C243.519 128.878 243.659 129.038 243.725 129.224C243.792 129.411 243.805 129.604 243.765 129.804C243.725 129.991 243.639 130.158 243.505 130.304C243.385 130.438 243.232 130.524 243.045 130.564C242.859 130.591 242.652 130.544 242.425 130.424C242.132 130.251 241.832 130.124 241.525 130.044C241.219 129.951 240.925 129.904 240.645 129.904C240.205 129.904 239.819 129.978 239.485 130.124C239.152 130.258 238.865 130.458 238.625 130.724C238.399 130.978 238.225 131.298 238.105 131.684C237.985 132.071 237.925 132.518 237.925 133.024C237.925 134.011 238.159 134.791 238.625 135.364C239.105 135.924 239.779 136.204 240.645 136.204C240.925 136.204 241.212 136.164 241.505 136.084C241.812 136.004 242.119 135.878 242.425 135.704C242.652 135.584 242.852 135.544 243.025 135.584C243.212 135.624 243.365 135.718 243.485 135.864C243.605 135.998 243.679 136.164 243.705 136.364C243.732 136.551 243.705 136.738 243.625 136.924C243.559 137.111 243.425 137.264 243.225 137.384C242.785 137.651 242.319 137.844 241.825 137.964C241.332 138.084 240.865 138.144 240.425 138.144ZM246.579 138.084C246.179 138.084 245.872 137.964 245.659 137.724C245.446 137.484 245.339 137.151 245.339 136.724V129.384C245.339 128.944 245.446 128.611 245.659 128.384C245.872 128.144 246.179 128.024 246.579 128.024C246.979 128.024 247.286 128.144 247.499 128.384C247.726 128.611 247.839 128.944 247.839 129.384V136.724C247.839 137.151 247.732 137.484 247.519 137.724C247.306 137.964 246.992 138.084 246.579 138.084ZM246.579 126.164C246.112 126.164 245.746 126.051 245.479 125.824C245.226 125.584 245.099 125.258 245.099 124.844C245.099 124.418 245.226 124.091 245.479 123.864C245.746 123.638 246.112 123.524 246.579 123.524C247.059 123.524 247.426 123.638 247.679 123.864C247.932 124.091 248.059 124.418 248.059 124.844C248.059 125.258 247.932 125.584 247.679 125.824C247.426 126.051 247.059 126.164 246.579 126.164ZM254.897 138.144C253.883 138.144 253.003 137.938 252.257 137.524C251.51 137.111 250.93 136.524 250.517 135.764C250.103 134.991 249.897 134.084 249.897 133.044C249.897 132.258 250.01 131.558 250.237 130.944C250.477 130.318 250.817 129.784 251.257 129.344C251.697 128.891 252.223 128.551 252.837 128.324C253.45 128.084 254.137 127.964 254.897 127.964C255.91 127.964 256.79 128.171 257.537 128.584C258.283 128.998 258.863 129.584 259.277 130.344C259.69 131.104 259.897 132.004 259.897 133.044C259.897 133.831 259.777 134.538 259.537 135.164C259.31 135.791 258.977 136.331 258.537 136.784C258.097 137.224 257.57 137.564 256.957 137.804C256.343 138.031 255.657 138.144 254.897 138.144ZM254.897 136.244C255.39 136.244 255.823 136.124 256.197 135.884C256.57 135.644 256.857 135.291 257.057 134.824C257.27 134.344 257.377 133.751 257.377 133.044C257.377 131.978 257.15 131.184 256.697 130.664C256.243 130.131 255.643 129.864 254.897 129.864C254.403 129.864 253.97 129.984 253.597 130.224C253.223 130.451 252.93 130.804 252.717 131.284C252.517 131.751 252.417 132.338 252.417 133.044C252.417 134.098 252.643 134.898 253.097 135.444C253.55 135.978 254.15 136.244 254.897 136.244ZM265.54 138.144C264.967 138.144 264.36 138.084 263.72 137.964C263.08 137.844 262.507 137.638 262 137.344C261.787 137.211 261.633 137.058 261.54 136.884C261.46 136.698 261.427 136.518 261.44 136.344C261.467 136.158 261.533 135.998 261.64 135.864C261.76 135.731 261.907 135.644 262.08 135.604C262.267 135.564 262.467 135.598 262.68 135.704C263.213 135.958 263.713 136.138 264.18 136.244C264.647 136.338 265.107 136.384 265.56 136.384C266.2 136.384 266.673 136.278 266.98 136.064C267.3 135.838 267.46 135.544 267.46 135.184C267.46 134.878 267.353 134.644 267.14 134.484C266.94 134.311 266.633 134.184 266.22 134.104L264.22 133.724C263.393 133.564 262.76 133.264 262.32 132.824C261.893 132.371 261.68 131.791 261.68 131.084C261.68 130.444 261.853 129.891 262.2 129.424C262.56 128.958 263.053 128.598 263.68 128.344C264.307 128.091 265.027 127.964 265.84 127.964C266.427 127.964 266.973 128.031 267.48 128.164C268 128.284 268.5 128.478 268.98 128.744C269.18 128.851 269.313 128.991 269.38 129.164C269.46 129.338 269.48 129.518 269.44 129.704C269.4 129.878 269.32 130.038 269.2 130.184C269.08 130.318 268.927 130.404 268.74 130.444C268.567 130.471 268.367 130.431 268.14 130.324C267.727 130.111 267.327 129.958 266.94 129.864C266.567 129.771 266.207 129.724 265.86 129.724C265.207 129.724 264.72 129.838 264.4 130.064C264.093 130.291 263.94 130.591 263.94 130.964C263.94 131.244 264.033 131.478 264.22 131.664C264.407 131.851 264.693 131.978 265.08 132.044L267.08 132.424C267.947 132.584 268.6 132.878 269.04 133.304C269.493 133.731 269.72 134.304 269.72 135.024C269.72 135.998 269.34 136.764 268.58 137.324C267.82 137.871 266.807 138.144 265.54 138.144ZM280.915 138.144C280.062 138.144 279.309 137.938 278.655 137.524C278.015 137.111 277.515 136.524 277.155 135.764C276.795 134.991 276.615 134.084 276.615 133.044C276.615 131.991 276.795 131.091 277.155 130.344C277.515 129.584 278.015 128.998 278.655 128.584C279.309 128.171 280.062 127.964 280.915 127.964C281.729 127.964 282.435 128.164 283.035 128.564C283.649 128.964 284.062 129.491 284.275 130.144H284.055V124.944C284.055 124.531 284.162 124.218 284.375 124.004C284.589 123.791 284.895 123.684 285.295 123.684C285.695 123.684 286.002 123.791 286.215 124.004C286.442 124.218 286.555 124.531 286.555 124.944V136.824C286.555 137.238 286.449 137.558 286.235 137.784C286.022 137.998 285.715 138.104 285.315 138.104C284.915 138.104 284.609 137.998 284.395 137.784C284.182 137.558 284.075 137.238 284.075 136.824V135.264L284.295 135.864C284.095 136.558 283.689 137.111 283.075 137.524C282.462 137.938 281.742 138.144 280.915 138.144ZM281.615 136.244C282.109 136.244 282.542 136.124 282.915 135.884C283.289 135.644 283.575 135.291 283.775 134.824C283.989 134.344 284.095 133.751 284.095 133.044C284.095 131.978 283.869 131.184 283.415 130.664C282.962 130.131 282.362 129.864 281.615 129.864C281.122 129.864 280.689 129.984 280.315 130.224C279.942 130.451 279.649 130.804 279.435 131.284C279.235 131.751 279.135 132.338 279.135 133.044C279.135 134.098 279.362 134.898 279.815 135.444C280.269 135.978 280.869 136.244 281.615 136.244ZM293.608 138.144C292.594 138.144 291.714 137.938 290.968 137.524C290.221 137.111 289.641 136.524 289.228 135.764C288.814 134.991 288.608 134.084 288.608 133.044C288.608 132.258 288.721 131.558 288.948 130.944C289.188 130.318 289.528 129.784 289.968 129.344C290.408 128.891 290.934 128.551 291.548 128.324C292.161 128.084 292.848 127.964 293.608 127.964C294.621 127.964 295.501 128.171 296.248 128.584C296.994 128.998 297.574 129.584 297.988 130.344C298.401 131.104 298.608 132.004 298.608 133.044C298.608 133.831 298.488 134.538 298.248 135.164C298.021 135.791 297.688 136.331 297.248 136.784C296.808 137.224 296.281 137.564 295.668 137.804C295.054 138.031 294.368 138.144 293.608 138.144ZM293.608 136.244C294.101 136.244 294.534 136.124 294.908 135.884C295.281 135.644 295.568 135.291 295.768 134.824C295.981 134.344 296.088 133.751 296.088 133.044C296.088 131.978 295.861 131.184 295.408 130.664C294.954 130.131 294.354 129.864 293.608 129.864C293.114 129.864 292.681 129.984 292.308 130.224C291.934 130.451 291.641 130.804 291.428 131.284C291.228 131.751 291.128 132.338 291.128 133.044C291.128 134.098 291.354 134.898 291.808 135.444C292.261 135.978 292.861 136.244 293.608 136.244ZM312.901 138.144C311.434 138.144 310.174 137.851 309.121 137.264C308.081 136.664 307.281 135.824 306.721 134.744C306.161 133.651 305.881 132.364 305.881 130.884C305.881 129.778 306.041 128.784 306.361 127.904C306.681 127.011 307.141 126.251 307.741 125.624C308.341 124.984 309.074 124.498 309.941 124.164C310.821 123.818 311.807 123.644 312.901 123.644C313.634 123.644 314.354 123.738 315.061 123.924C315.767 124.111 316.387 124.378 316.921 124.724C317.201 124.898 317.387 125.111 317.481 125.364C317.574 125.604 317.594 125.844 317.541 126.084C317.487 126.311 317.374 126.504 317.201 126.664C317.041 126.824 316.834 126.918 316.581 126.944C316.341 126.958 316.074 126.871 315.781 126.684C315.367 126.418 314.921 126.224 314.441 126.104C313.961 125.984 313.474 125.924 312.981 125.924C312.034 125.924 311.234 126.118 310.581 126.504C309.927 126.891 309.434 127.451 309.101 128.184C308.767 128.918 308.601 129.818 308.601 130.884C308.601 131.938 308.767 132.838 309.101 133.584C309.434 134.331 309.927 134.898 310.581 135.284C311.234 135.671 312.034 135.864 312.981 135.864C313.487 135.864 313.987 135.804 314.481 135.684C314.974 135.551 315.441 135.351 315.881 135.084C316.174 134.911 316.434 134.838 316.661 134.864C316.901 134.878 317.101 134.958 317.261 135.104C317.421 135.251 317.527 135.438 317.581 135.664C317.634 135.878 317.621 136.104 317.541 136.344C317.461 136.571 317.301 136.771 317.061 136.944C316.527 137.331 315.887 137.631 315.141 137.844C314.407 138.044 313.661 138.144 312.901 138.144ZM322.563 138.144C321.856 138.144 321.223 138.011 320.663 137.744C320.116 137.464 319.683 137.091 319.363 136.624C319.056 136.158 318.903 135.631 318.903 135.044C318.903 134.324 319.09 133.758 319.463 133.344C319.836 132.918 320.443 132.611 321.283 132.424C322.123 132.238 323.25 132.144 324.663 132.144H325.663V133.584H324.683C323.856 133.584 323.196 133.624 322.703 133.704C322.21 133.784 321.856 133.924 321.643 134.124C321.443 134.311 321.343 134.578 321.343 134.924C321.343 135.364 321.496 135.724 321.803 136.004C322.11 136.284 322.536 136.424 323.083 136.424C323.523 136.424 323.91 136.324 324.243 136.124C324.59 135.911 324.863 135.624 325.063 135.264C325.263 134.904 325.363 134.491 325.363 134.024V131.724C325.363 131.058 325.216 130.578 324.923 130.284C324.63 129.991 324.136 129.844 323.443 129.844C323.056 129.844 322.636 129.891 322.183 129.984C321.743 130.078 321.276 130.238 320.783 130.464C320.53 130.584 320.303 130.618 320.103 130.564C319.916 130.511 319.77 130.404 319.663 130.244C319.556 130.071 319.503 129.884 319.503 129.684C319.503 129.484 319.556 129.291 319.663 129.104C319.77 128.904 319.95 128.758 320.203 128.664C320.816 128.411 321.403 128.231 321.963 128.124C322.536 128.018 323.056 127.964 323.523 127.964C324.483 127.964 325.27 128.111 325.883 128.404C326.51 128.698 326.976 129.144 327.283 129.744C327.59 130.331 327.743 131.091 327.743 132.024V136.824C327.743 137.238 327.643 137.558 327.443 137.784C327.243 137.998 326.956 138.104 326.583 138.104C326.21 138.104 325.916 137.998 325.703 137.784C325.503 137.558 325.403 137.238 325.403 136.824V135.864H325.563C325.47 136.331 325.283 136.738 325.003 137.084C324.736 137.418 324.396 137.678 323.983 137.864C323.57 138.051 323.096 138.144 322.563 138.144ZM331.56 138.104C331.147 138.104 330.827 137.998 330.6 137.784C330.387 137.558 330.28 137.238 330.28 136.824V129.264C330.28 128.851 330.387 128.538 330.6 128.324C330.814 128.111 331.114 128.004 331.5 128.004C331.887 128.004 332.187 128.111 332.4 128.324C332.614 128.538 332.72 128.851 332.72 129.264V130.524H332.52C332.707 129.724 333.074 129.118 333.62 128.704C334.167 128.291 334.894 128.044 335.8 127.964C336.08 127.938 336.3 128.011 336.46 128.184C336.634 128.344 336.734 128.598 336.76 128.944C336.787 129.278 336.707 129.551 336.52 129.764C336.347 129.964 336.08 130.084 335.72 130.124L335.28 130.164C334.467 130.244 333.854 130.498 333.44 130.924C333.027 131.338 332.82 131.924 332.82 132.684V136.824C332.82 137.238 332.714 137.558 332.5 137.784C332.287 137.998 331.974 138.104 331.56 138.104ZM343.159 138.144C342.292 138.144 341.566 137.998 340.979 137.704C340.406 137.411 339.979 136.984 339.699 136.424C339.419 135.851 339.279 135.144 339.279 134.304V130.044H338.239C337.919 130.044 337.672 129.964 337.499 129.804C337.326 129.631 337.239 129.398 337.239 129.104C337.239 128.798 337.326 128.564 337.499 128.404C337.672 128.244 337.919 128.164 338.239 128.164H339.279V126.344C339.279 125.931 339.386 125.618 339.599 125.404C339.826 125.191 340.139 125.084 340.539 125.084C340.939 125.084 341.246 125.191 341.459 125.404C341.672 125.618 341.779 125.931 341.779 126.344V128.164H343.899C344.219 128.164 344.466 128.244 344.639 128.404C344.812 128.564 344.899 128.798 344.899 129.104C344.899 129.398 344.812 129.631 344.639 129.804C344.466 129.964 344.219 130.044 343.899 130.044H341.779V134.164C341.779 134.804 341.919 135.284 342.199 135.604C342.479 135.924 342.932 136.084 343.559 136.084C343.786 136.084 343.986 136.064 344.159 136.024C344.332 135.984 344.486 135.958 344.619 135.944C344.779 135.931 344.912 135.984 345.019 136.104C345.126 136.211 345.179 136.438 345.179 136.784C345.179 137.051 345.132 137.291 345.039 137.504C344.959 137.704 344.806 137.844 344.579 137.924C344.406 137.978 344.179 138.024 343.899 138.064C343.619 138.118 343.372 138.144 343.159 138.144ZM349.575 138.144C348.868 138.144 348.235 138.011 347.675 137.744C347.128 137.464 346.695 137.091 346.375 136.624C346.068 136.158 345.915 135.631 345.915 135.044C345.915 134.324 346.101 133.758 346.475 133.344C346.848 132.918 347.455 132.611 348.295 132.424C349.135 132.238 350.261 132.144 351.675 132.144H352.675V133.584H351.695C350.868 133.584 350.208 133.624 349.715 133.704C349.221 133.784 348.868 133.924 348.655 134.124C348.455 134.311 348.355 134.578 348.355 134.924C348.355 135.364 348.508 135.724 348.815 136.004C349.121 136.284 349.548 136.424 350.095 136.424C350.535 136.424 350.921 136.324 351.255 136.124C351.601 135.911 351.875 135.624 352.075 135.264C352.275 134.904 352.375 134.491 352.375 134.024V131.724C352.375 131.058 352.228 130.578 351.935 130.284C351.641 129.991 351.148 129.844 350.455 129.844C350.068 129.844 349.648 129.891 349.195 129.984C348.755 130.078 348.288 130.238 347.795 130.464C347.541 130.584 347.315 130.618 347.115 130.564C346.928 130.511 346.781 130.404 346.675 130.244C346.568 130.071 346.515 129.884 346.515 129.684C346.515 129.484 346.568 129.291 346.675 129.104C346.781 128.904 346.961 128.758 347.215 128.664C347.828 128.411 348.415 128.231 348.975 128.124C349.548 128.018 350.068 127.964 350.535 127.964C351.495 127.964 352.281 128.111 352.895 128.404C353.521 128.698 353.988 129.144 354.295 129.744C354.601 130.331 354.755 131.091 354.755 132.024V136.824C354.755 137.238 354.655 137.558 354.455 137.784C354.255 137.998 353.968 138.104 353.595 138.104C353.221 138.104 352.928 137.998 352.715 137.784C352.515 137.558 352.415 137.238 352.415 136.824V135.864H352.575C352.481 136.331 352.295 136.738 352.015 137.084C351.748 137.418 351.408 137.678 350.995 137.864C350.581 138.051 350.108 138.144 349.575 138.144ZM347.375 126.324C347.175 126.311 347.021 126.244 346.915 126.124C346.808 126.004 346.781 125.818 346.835 125.564C346.888 125.284 346.968 125.011 347.075 124.744C347.195 124.464 347.348 124.211 347.535 123.984C347.721 123.758 347.948 123.578 348.215 123.444C348.481 123.298 348.795 123.224 349.155 123.224C349.488 123.224 349.781 123.291 350.035 123.424C350.288 123.558 350.521 123.711 350.735 123.884C350.948 124.058 351.161 124.211 351.375 124.344C351.588 124.478 351.821 124.544 352.075 124.544C352.355 124.544 352.595 124.451 352.795 124.264C353.008 124.064 353.141 123.818 353.195 123.524C353.221 123.378 353.288 123.264 353.395 123.184C353.515 123.104 353.681 123.071 353.895 123.084C354.095 123.098 354.248 123.164 354.355 123.284C354.461 123.404 354.488 123.591 354.435 123.844C354.368 124.204 354.241 124.564 354.055 124.924C353.868 125.284 353.615 125.584 353.295 125.824C352.988 126.064 352.595 126.184 352.115 126.184C351.781 126.184 351.488 126.118 351.235 125.984C350.981 125.851 350.741 125.698 350.515 125.524C350.301 125.351 350.088 125.198 349.875 125.064C349.661 124.931 349.435 124.864 349.195 124.864C348.915 124.864 348.675 124.958 348.475 125.144C348.275 125.331 348.141 125.578 348.075 125.884C348.048 126.031 347.975 126.144 347.855 126.224C347.748 126.304 347.588 126.338 347.375 126.324ZM361.752 138.144C360.739 138.144 359.859 137.938 359.112 137.524C358.366 137.111 357.786 136.524 357.372 135.764C356.959 134.991 356.752 134.084 356.752 133.044C356.752 132.258 356.866 131.558 357.092 130.944C357.332 130.318 357.672 129.784 358.112 129.344C358.552 128.891 359.079 128.551 359.692 128.324C360.306 128.084 360.992 127.964 361.752 127.964C362.766 127.964 363.646 128.171 364.392 128.584C365.139 128.998 365.719 129.584 366.132 130.344C366.546 131.104 366.752 132.004 366.752 133.044C366.752 133.831 366.632 134.538 366.392 135.164C366.166 135.791 365.832 136.331 365.392 136.784C364.952 137.224 364.426 137.564 363.812 137.804C363.199 138.031 362.512 138.144 361.752 138.144ZM361.752 136.244C362.246 136.244 362.679 136.124 363.052 135.884C363.426 135.644 363.712 135.291 363.912 134.824C364.126 134.344 364.232 133.751 364.232 133.044C364.232 131.978 364.006 131.184 363.552 130.664C363.099 130.131 362.499 129.864 361.752 129.864C361.259 129.864 360.826 129.984 360.452 130.224C360.079 130.451 359.786 130.804 359.572 131.284C359.372 131.751 359.272 132.338 359.272 133.044C359.272 134.098 359.499 134.898 359.952 135.444C360.406 135.978 361.006 136.244 361.752 136.244ZM378.005 138.144C377.152 138.144 376.399 137.938 375.745 137.524C375.105 137.111 374.605 136.524 374.245 135.764C373.885 134.991 373.705 134.084 373.705 133.044C373.705 131.991 373.885 131.091 374.245 130.344C374.605 129.584 375.105 128.998 375.745 128.584C376.399 128.171 377.152 127.964 378.005 127.964C378.819 127.964 379.525 128.164 380.125 128.564C380.739 128.964 381.152 129.491 381.365 130.144H381.145V124.944C381.145 124.531 381.252 124.218 381.465 124.004C381.679 123.791 381.985 123.684 382.385 123.684C382.785 123.684 383.092 123.791 383.305 124.004C383.532 124.218 383.645 124.531 383.645 124.944V136.824C383.645 137.238 383.539 137.558 383.325 137.784C383.112 137.998 382.805 138.104 382.405 138.104C382.005 138.104 381.699 137.998 381.485 137.784C381.272 137.558 381.165 137.238 381.165 136.824V135.264L381.385 135.864C381.185 136.558 380.779 137.111 380.165 137.524C379.552 137.938 378.832 138.144 378.005 138.144ZM378.705 136.244C379.199 136.244 379.632 136.124 380.005 135.884C380.379 135.644 380.665 135.291 380.865 134.824C381.079 134.344 381.185 133.751 381.185 133.044C381.185 131.978 380.959 131.184 380.505 130.664C380.052 130.131 379.452 129.864 378.705 129.864C378.212 129.864 377.779 129.984 377.405 130.224C377.032 130.451 376.739 130.804 376.525 131.284C376.325 131.751 376.225 132.338 376.225 133.044C376.225 134.098 376.452 134.898 376.905 135.444C377.359 135.978 377.959 136.244 378.705 136.244ZM391.058 138.144C389.951 138.144 388.998 137.938 388.198 137.524C387.398 137.111 386.778 136.524 386.338 135.764C385.911 135.004 385.698 134.104 385.698 133.064C385.698 132.051 385.904 131.164 386.318 130.404C386.744 129.644 387.324 129.051 388.058 128.624C388.804 128.184 389.651 127.964 390.598 127.964C391.291 127.964 391.911 128.078 392.458 128.304C393.018 128.531 393.491 128.858 393.878 129.284C394.278 129.711 394.578 130.231 394.778 130.844C394.991 131.444 395.098 132.124 395.098 132.884C395.098 133.124 395.011 133.311 394.838 133.444C394.678 133.564 394.444 133.624 394.138 133.624H387.718V132.184H393.338L393.018 132.484C393.018 131.871 392.924 131.358 392.738 130.944C392.564 130.531 392.304 130.218 391.958 130.004C391.624 129.778 391.204 129.664 390.698 129.664C390.138 129.664 389.658 129.798 389.258 130.064C388.871 130.318 388.571 130.684 388.358 131.164C388.158 131.631 388.058 132.191 388.058 132.844V132.984C388.058 134.078 388.311 134.898 388.818 135.444C389.338 135.978 390.098 136.244 391.098 136.244C391.444 136.244 391.831 136.204 392.258 136.124C392.698 136.031 393.111 135.878 393.498 135.664C393.778 135.504 394.024 135.438 394.238 135.464C394.451 135.478 394.618 135.551 394.738 135.684C394.871 135.818 394.951 135.984 394.978 136.184C395.004 136.371 394.964 136.564 394.858 136.764C394.764 136.964 394.598 137.138 394.358 137.284C393.891 137.578 393.351 137.798 392.738 137.944C392.138 138.078 391.578 138.144 391.058 138.144ZM409.307 138.144C407.84 138.144 406.58 137.851 405.527 137.264C404.487 136.664 403.687 135.824 403.127 134.744C402.567 133.651 402.287 132.364 402.287 130.884C402.287 129.778 402.447 128.784 402.767 127.904C403.087 127.011 403.547 126.251 404.147 125.624C404.747 124.984 405.48 124.498 406.347 124.164C407.227 123.818 408.214 123.644 409.307 123.644C410.04 123.644 410.76 123.738 411.467 123.924C412.174 124.111 412.794 124.378 413.327 124.724C413.607 124.898 413.794 125.111 413.887 125.364C413.98 125.604 414 125.844 413.947 126.084C413.894 126.311 413.78 126.504 413.607 126.664C413.447 126.824 413.24 126.918 412.987 126.944C412.747 126.958 412.48 126.871 412.187 126.684C411.774 126.418 411.327 126.224 410.847 126.104C410.367 125.984 409.88 125.924 409.387 125.924C408.44 125.924 407.64 126.118 406.987 126.504C406.334 126.891 405.84 127.451 405.507 128.184C405.174 128.918 405.007 129.818 405.007 130.884C405.007 131.938 405.174 132.838 405.507 133.584C405.84 134.331 406.334 134.898 406.987 135.284C407.64 135.671 408.44 135.864 409.387 135.864C409.894 135.864 410.394 135.804 410.887 135.684C411.38 135.551 411.847 135.351 412.287 135.084C412.58 134.911 412.84 134.838 413.067 134.864C413.307 134.878 413.507 134.958 413.667 135.104C413.827 135.251 413.934 135.438 413.987 135.664C414.04 135.878 414.027 136.104 413.947 136.344C413.867 136.571 413.707 136.771 413.467 136.944C412.934 137.331 412.294 137.631 411.547 137.844C410.814 138.044 410.067 138.144 409.307 138.144ZM417.381 138.104C416.967 138.104 416.647 137.998 416.421 137.784C416.207 137.558 416.101 137.238 416.101 136.824V129.264C416.101 128.851 416.207 128.538 416.421 128.324C416.634 128.111 416.934 128.004 417.321 128.004C417.707 128.004 418.007 128.111 418.221 128.324C418.434 128.538 418.541 128.851 418.541 129.264V130.524H418.341C418.527 129.724 418.894 129.118 419.441 128.704C419.987 128.291 420.714 128.044 421.621 127.964C421.901 127.938 422.121 128.011 422.281 128.184C422.454 128.344 422.554 128.598 422.581 128.944C422.607 129.278 422.527 129.551 422.341 129.764C422.167 129.964 421.901 130.084 421.541 130.124L421.101 130.164C420.287 130.244 419.674 130.498 419.261 130.924C418.847 131.338 418.641 131.924 418.641 132.684V136.824C418.641 137.238 418.534 137.558 418.321 137.784C418.107 137.998 417.794 138.104 417.381 138.104ZM428.597 138.144C427.49 138.144 426.537 137.938 425.737 137.524C424.937 137.111 424.317 136.524 423.877 135.764C423.45 135.004 423.237 134.104 423.237 133.064C423.237 132.051 423.443 131.164 423.857 130.404C424.283 129.644 424.863 129.051 425.597 128.624C426.343 128.184 427.19 127.964 428.137 127.964C428.83 127.964 429.45 128.078 429.997 128.304C430.557 128.531 431.03 128.858 431.417 129.284C431.817 129.711 432.117 130.231 432.317 130.844C432.53 131.444 432.637 132.124 432.637 132.884C432.637 133.124 432.55 133.311 432.377 133.444C432.217 133.564 431.983 133.624 431.677 133.624H425.257V132.184H430.877L430.557 132.484C430.557 131.871 430.463 131.358 430.277 130.944C430.103 130.531 429.843 130.218 429.497 130.004C429.163 129.778 428.743 129.664 428.237 129.664C427.677 129.664 427.197 129.798 426.797 130.064C426.41 130.318 426.11 130.684 425.897 131.164C425.697 131.631 425.597 132.191 425.597 132.844V132.984C425.597 134.078 425.85 134.898 426.357 135.444C426.877 135.978 427.637 136.244 428.637 136.244C428.983 136.244 429.37 136.204 429.797 136.124C430.237 136.031 430.65 135.878 431.037 135.664C431.317 135.504 431.563 135.438 431.777 135.464C431.99 135.478 432.157 135.551 432.277 135.684C432.41 135.818 432.49 135.984 432.517 136.184C432.543 136.371 432.503 136.564 432.397 136.764C432.303 136.964 432.137 137.138 431.897 137.284C431.43 137.578 430.89 137.798 430.277 137.944C429.677 138.078 429.117 138.144 428.597 138.144ZM429.097 126.744C428.963 126.931 428.803 127.038 428.617 127.064C428.43 127.091 428.25 127.058 428.077 126.964C427.903 126.871 427.777 126.738 427.697 126.564C427.63 126.391 427.65 126.198 427.757 125.984L429.277 123.004C429.397 122.751 429.557 122.591 429.757 122.524C429.957 122.444 430.163 122.431 430.377 122.484C430.59 122.538 430.77 122.638 430.917 122.784C431.077 122.931 431.17 123.111 431.197 123.324C431.237 123.524 431.183 123.731 431.037 123.944L429.097 126.744ZM438.376 138.144C437.523 138.144 436.77 137.938 436.116 137.524C435.476 137.111 434.976 136.524 434.616 135.764C434.256 134.991 434.076 134.084 434.076 133.044C434.076 131.991 434.256 131.091 434.616 130.344C434.976 129.584 435.476 128.998 436.116 128.584C436.77 128.171 437.523 127.964 438.376 127.964C439.19 127.964 439.896 128.164 440.496 128.564C441.11 128.964 441.523 129.491 441.736 130.144H441.516V124.944C441.516 124.531 441.623 124.218 441.836 124.004C442.05 123.791 442.356 123.684 442.756 123.684C443.156 123.684 443.463 123.791 443.676 124.004C443.903 124.218 444.016 124.531 444.016 124.944V136.824C444.016 137.238 443.91 137.558 443.696 137.784C443.483 137.998 443.176 138.104 442.776 138.104C442.376 138.104 442.07 137.998 441.856 137.784C441.643 137.558 441.536 137.238 441.536 136.824V135.264L441.756 135.864C441.556 136.558 441.15 137.111 440.536 137.524C439.923 137.938 439.203 138.144 438.376 138.144ZM439.076 136.244C439.57 136.244 440.003 136.124 440.376 135.884C440.75 135.644 441.036 135.291 441.236 134.824C441.45 134.344 441.556 133.751 441.556 133.044C441.556 131.978 441.33 131.184 440.876 130.664C440.423 130.131 439.823 129.864 439.076 129.864C438.583 129.864 438.15 129.984 437.776 130.224C437.403 130.451 437.11 130.804 436.896 131.284C436.696 131.751 436.596 132.338 436.596 133.044C436.596 134.098 436.823 134.898 437.276 135.444C437.73 135.978 438.33 136.244 439.076 136.244ZM447.849 138.084C447.449 138.084 447.142 137.964 446.929 137.724C446.715 137.484 446.609 137.151 446.609 136.724V129.384C446.609 128.944 446.715 128.611 446.929 128.384C447.142 128.144 447.449 128.024 447.849 128.024C448.249 128.024 448.555 128.144 448.769 128.384C448.995 128.611 449.109 128.944 449.109 129.384V136.724C449.109 137.151 449.002 137.484 448.789 137.724C448.575 137.964 448.262 138.084 447.849 138.084ZM447.849 126.164C447.382 126.164 447.015 126.051 446.749 125.824C446.495 125.584 446.369 125.258 446.369 124.844C446.369 124.418 446.495 124.091 446.749 123.864C447.015 123.638 447.382 123.524 447.849 123.524C448.329 123.524 448.695 123.638 448.949 123.864C449.202 124.091 449.329 124.418 449.329 124.844C449.329 125.258 449.202 125.584 448.949 125.824C448.695 126.051 448.329 126.164 447.849 126.164ZM456.186 138.144C455.32 138.144 454.593 137.998 454.006 137.704C453.433 137.411 453.006 136.984 452.726 136.424C452.446 135.851 452.306 135.144 452.306 134.304V130.044H451.266C450.946 130.044 450.7 129.964 450.526 129.804C450.353 129.631 450.266 129.398 450.266 129.104C450.266 128.798 450.353 128.564 450.526 128.404C450.7 128.244 450.946 128.164 451.266 128.164H452.306V126.344C452.306 125.931 452.413 125.618 452.626 125.404C452.853 125.191 453.166 125.084 453.566 125.084C453.966 125.084 454.273 125.191 454.486 125.404C454.7 125.618 454.806 125.931 454.806 126.344V128.164H456.926C457.246 128.164 457.493 128.244 457.666 128.404C457.84 128.564 457.926 128.798 457.926 129.104C457.926 129.398 457.84 129.631 457.666 129.804C457.493 129.964 457.246 130.044 456.926 130.044H454.806V134.164C454.806 134.804 454.946 135.284 455.226 135.604C455.506 135.924 455.96 136.084 456.586 136.084C456.813 136.084 457.013 136.064 457.186 136.024C457.36 135.984 457.513 135.958 457.646 135.944C457.806 135.931 457.94 135.984 458.046 136.104C458.153 136.211 458.206 136.438 458.206 136.784C458.206 137.051 458.16 137.291 458.066 137.504C457.986 137.704 457.833 137.844 457.606 137.924C457.433 137.978 457.206 138.024 456.926 138.064C456.646 138.118 456.4 138.144 456.186 138.144ZM463.744 138.144C462.731 138.144 461.851 137.938 461.104 137.524C460.358 137.111 459.778 136.524 459.364 135.764C458.951 134.991 458.744 134.084 458.744 133.044C458.744 132.258 458.858 131.558 459.084 130.944C459.324 130.318 459.664 129.784 460.104 129.344C460.544 128.891 461.071 128.551 461.684 128.324C462.298 128.084 462.984 127.964 463.744 127.964C464.758 127.964 465.638 128.171 466.384 128.584C467.131 128.998 467.711 129.584 468.124 130.344C468.538 131.104 468.744 132.004 468.744 133.044C468.744 133.831 468.624 134.538 468.384 135.164C468.158 135.791 467.824 136.331 467.384 136.784C466.944 137.224 466.418 137.564 465.804 137.804C465.191 138.031 464.504 138.144 463.744 138.144ZM463.744 136.244C464.238 136.244 464.671 136.124 465.044 135.884C465.418 135.644 465.704 135.291 465.904 134.824C466.118 134.344 466.224 133.751 466.224 133.044C466.224 131.978 465.998 131.184 465.544 130.664C465.091 130.131 464.491 129.864 463.744 129.864C463.251 129.864 462.818 129.984 462.444 130.224C462.071 130.451 461.778 130.804 461.564 131.284C461.364 131.751 461.264 132.338 461.264 133.044C461.264 134.098 461.491 134.898 461.944 135.444C462.398 135.978 462.998 136.244 463.744 136.244Z" fill="white"/>
<path d="M779 0.944336H1164C1175.05 0.944336 1184 9.89864 1184 20.9443V180.944C1184 191.99 1175.05 200.944 1164 200.944H779V0.944336Z" fill="white"/>
<path d="M978.138 98.7766C981.864 96.9859 984.117 93.3053 984.117 88.8435C984.117 85.5144 983.038 82.7892 980.926 80.7461C978.871 78.6187 976.161 77.5403 972.88 77.5403H959.375C959.257 77.5403 959.164 77.6364 959.164 77.7537V124.132C959.164 124.252 959.257 124.346 959.375 124.346H974.704C978.249 124.346 981.263 123.093 983.666 120.623C986.085 118.132 987.311 115.1 987.311 111.609C987.311 105.293 983.76 100.411 978.138 98.7766ZM960.892 79.2708H972.88C978.477 79.2708 982.389 83.2037 982.389 88.8435C982.389 91.5594 981.488 93.8341 979.712 95.6097C977.982 97.3402 975.683 98.2207 972.88 98.2207H960.892V79.2708ZM982.38 119.43C980.325 121.545 977.741 122.618 974.704 122.618H960.892V99.9482H974.118C977.486 99.9482 980.193 101.015 982.386 103.211C984.511 105.333 985.583 108.16 985.583 111.609C985.583 114.716 984.535 117.27 982.38 119.43Z" fill="black"/>
<path d="M885.894 109.37C884.244 110.789 882.33 111.498 880.155 111.498C877.361 111.498 875.098 110.524 873.362 108.58C871.622 106.633 870.754 104.088 870.754 100.942C870.754 97.7787 871.619 95.2218 873.344 93.2749C875.068 91.3309 877.34 90.3542 880.155 90.3542C882.201 90.3542 884.049 91.0002 885.696 92.2861C887.345 93.5721 888.511 95.2698 889.193 97.3818H905.255C904.42 90.9821 901.692 85.8113 897.077 81.8632C892.459 77.9152 886.795 75.9441 880.089 75.9441C875.119 75.9441 870.646 77.014 866.665 79.1594C862.686 81.3015 859.58 84.2822 857.347 88.095C855.115 91.9107 854 96.1951 854 100.942C854 105.693 855.115 109.974 857.347 113.79C859.58 117.606 862.686 120.584 866.665 122.729C870.646 124.874 875.119 125.943 880.089 125.943C886.906 125.943 892.645 123.897 897.305 119.811C901.968 115.719 904.672 110.377 905.42 103.779H889.127C888.622 106.089 887.543 107.952 885.894 109.37Z" fill="black"/>
<path d="M943.722 96.3704C940.555 93.39 936.471 91.9026 931.466 91.9026C930.952 91.9026 930.255 91.9266 929.372 91.9717L938.232 77.5407L922.407 77.5436L914.917 89.7723C912.799 93.2397 911.233 96.4335 910.221 99.3568C909.208 102.277 908.7 105.183 908.7 108.067C908.7 113.352 910.545 117.652 914.234 120.969C917.924 124.286 922.713 125.944 928.602 125.944C934.561 125.944 939.362 124.292 943.006 120.987C946.648 117.682 948.472 113.328 948.472 107.929C948.472 103.203 946.888 99.3508 943.722 96.3704ZM933.037 112.361C931.895 113.503 930.42 114.073 928.602 114.073C926.788 114.073 925.309 113.503 924.171 112.361C923.029 111.222 922.458 109.744 922.458 107.929C922.458 106.111 923.029 104.624 924.171 103.458C925.309 102.296 926.788 101.713 928.602 101.713C930.42 101.713 931.895 102.296 933.037 103.458C934.176 104.624 934.747 106.111 934.747 107.929C934.747 109.744 934.176 111.222 933.037 112.361Z" fill="black"/>
<path d="M1108.53 124.011L1090.54 98.7911L1108.47 77.8911C1108.5 77.8554 1108.52 77.8073 1108.52 77.7532C1108.52 77.6359 1108.42 77.5398 1108.31 77.5398H1106.61C1106.55 77.5398 1106.49 77.5699 1106.45 77.618L1081.8 106.348V77.7532C1081.8 77.6359 1081.71 77.5398 1081.59 77.5398H1080.31C1080.2 77.5398 1080.1 77.6359 1080.1 77.7532V124.135C1080.1 124.252 1080.2 124.345 1080.31 124.345H1081.59C1081.71 124.345 1081.8 124.252 1081.8 124.135V108.923L1089.39 100.161L1106.58 124.255C1106.61 124.309 1106.68 124.345 1106.75 124.345H1108.36C1108.48 124.345 1108.57 124.252 1108.57 124.135C1108.57 124.087 1108.56 124.045 1108.53 124.011Z" fill="black"/>
<path d="M1069.32 77.5403H1068.01C1067.89 77.5403 1067.8 77.6366 1067.8 77.7538V120.214L1037.11 77.6274C1037.07 77.5763 1037.01 77.5403 1036.94 77.5403H1036.11C1035.99 77.5403 1035.9 77.6366 1035.9 77.7538V124.132C1035.9 124.25 1035.99 124.346 1036.11 124.346H1037.42C1037.53 124.346 1037.63 124.25 1037.63 124.132V81.3411L1068.56 124.259C1068.6 124.313 1068.66 124.346 1068.73 124.346H1069.32C1069.44 124.346 1069.53 124.25 1069.53 124.132V77.7538C1069.53 77.6366 1069.44 77.5403 1069.32 77.5403Z" fill="black"/>
<path d="M1028.21 124.06L1010.62 77.6784C1010.59 77.6003 1010.51 77.5403 1010.42 77.5403H1009.6C1009.5 77.5403 1009.43 77.5974 1009.4 77.6755L991.807 124.057C991.798 124.081 991.795 124.108 991.795 124.132C991.795 124.249 991.889 124.346 992.006 124.346H993.361C993.454 124.346 993.529 124.288 993.562 124.21L998.976 109.863H1021.04L1026.46 124.204C1026.49 124.289 1026.56 124.346 1026.65 124.346H1028.01C1028.13 124.346 1028.22 124.249 1028.22 124.132C1028.22 124.108 1028.22 124.081 1028.21 124.06ZM999.604 108.136L1010.01 80.8783L1020.41 108.136H999.604Z" fill="black"/>
</svg>
