<svg width="1184" height="201" viewBox="0 0 1184 201" fill="none" xmlns="http://www.w3.org/2000/svg">
<path d="M0 20.9443C0 9.89865 8.95431 0.944336 20 0.944336H779V200.944H20C8.95429 200.944 0 191.99 0 180.944V20.9443Z" fill="#3CB6FB"/>
<path d="M69.48 92.2643C68.7333 92.2643 68.16 92.051 67.76 91.6243C67.36 91.1977 67.16 90.611 67.16 89.8643V65.8243C67.16 65.051 67.3733 64.4643 67.8 64.0643C68.2267 63.6377 68.8133 63.4243 69.56 63.4243C70.2267 63.4243 70.7467 63.5577 71.12 63.8243C71.52 64.0643 71.88 64.491 72.2 65.1043L82.08 83.3843H80.8L90.68 65.1043C91 64.491 91.3467 64.0643 91.72 63.8243C92.0933 63.5577 92.6133 63.4243 93.28 63.4243C94.0267 63.4243 94.6 63.6377 95 64.0643C95.4 64.4643 95.6 65.051 95.6 65.8243V89.8643C95.6 90.611 95.4 91.1977 95 91.6243C94.6267 92.051 94.0533 92.2643 93.28 92.2643C92.5333 92.2643 91.96 92.051 91.56 91.6243C91.16 91.1977 90.96 90.611 90.96 89.8643V71.3443H91.84L83.44 86.6643C83.1733 87.1177 82.8933 87.451 82.6 87.6643C82.3067 87.8777 81.9067 87.9843 81.4 87.9843C80.8933 87.9843 80.48 87.8777 80.16 87.6643C79.84 87.4243 79.56 87.091 79.32 86.6643L70.84 71.3043H71.8V89.8643C71.8 90.611 71.6 91.1977 71.2 91.6243C70.8267 92.051 70.2533 92.2643 69.48 92.2643ZM107.767 92.3443C106.353 92.3443 105.087 92.0777 103.967 91.5443C102.873 90.9843 102.007 90.2377 101.367 89.3043C100.753 88.371 100.447 87.3177 100.447 86.1443C100.447 84.7043 100.82 83.571 101.567 82.7443C102.313 81.891 103.527 81.2777 105.207 80.9043C106.887 80.531 109.14 80.3443 111.967 80.3443H113.967V83.2243H112.007C110.353 83.2243 109.033 83.3043 108.047 83.4643C107.06 83.6243 106.353 83.9043 105.927 84.3043C105.527 84.6777 105.327 85.211 105.327 85.9043C105.327 86.7843 105.633 87.5043 106.247 88.0643C106.86 88.6243 107.713 88.9043 108.807 88.9043C109.687 88.9043 110.46 88.7043 111.127 88.3043C111.82 87.8777 112.367 87.3043 112.767 86.5843C113.167 85.8643 113.367 85.0377 113.367 84.1043V79.5043C113.367 78.171 113.073 77.211 112.487 76.6243C111.9 76.0377 110.913 75.7443 109.527 75.7443C108.753 75.7443 107.913 75.8377 107.007 76.0243C106.127 76.211 105.193 76.531 104.207 76.9843C103.7 77.2243 103.247 77.291 102.847 77.1843C102.473 77.0777 102.18 76.8643 101.967 76.5443C101.753 76.1977 101.647 75.8243 101.647 75.4243C101.647 75.0243 101.753 74.6377 101.967 74.2643C102.18 73.8643 102.54 73.571 103.047 73.3843C104.273 72.8777 105.447 72.5177 106.567 72.3043C107.713 72.091 108.753 71.9843 109.687 71.9843C111.607 71.9843 113.18 72.2777 114.407 72.8643C115.66 73.451 116.593 74.3443 117.207 75.5443C117.82 76.7177 118.127 78.2377 118.127 80.1043V89.7043C118.127 90.531 117.927 91.171 117.527 91.6243C117.127 92.051 116.553 92.2643 115.807 92.2643C115.06 92.2643 114.473 92.051 114.047 91.6243C113.647 91.171 113.447 90.531 113.447 89.7043V87.7843H113.767C113.58 88.7177 113.207 89.531 112.647 90.2243C112.113 90.891 111.433 91.411 110.607 91.7843C109.78 92.1577 108.833 92.3443 107.767 92.3443ZM132.322 99.5443C130.882 99.5443 129.482 99.411 128.122 99.1443C126.788 98.8777 125.575 98.4643 124.482 97.9043C123.975 97.6377 123.628 97.3177 123.442 96.9443C123.282 96.571 123.228 96.1843 123.282 95.7843C123.362 95.411 123.522 95.0777 123.762 94.7843C124.028 94.491 124.348 94.291 124.722 94.1843C125.095 94.0777 125.482 94.131 125.882 94.3443C127.055 94.931 128.162 95.3043 129.202 95.4643C130.268 95.651 131.175 95.7443 131.922 95.7443C133.708 95.7443 135.042 95.3043 135.922 94.4243C136.828 93.571 137.282 92.291 137.282 90.5843V86.9843H137.642C137.242 88.3443 136.402 89.4377 135.122 90.2643C133.868 91.0643 132.442 91.4643 130.842 91.4643C129.082 91.4643 127.548 91.0643 126.242 90.2643C124.935 89.4377 123.922 88.291 123.202 86.8243C122.482 85.3577 122.122 83.651 122.122 81.7043C122.122 80.2377 122.322 78.9177 122.722 77.7443C123.148 76.5443 123.735 75.5177 124.482 74.6643C125.255 73.811 126.175 73.1577 127.242 72.7043C128.335 72.2243 129.535 71.9843 130.842 71.9843C132.495 71.9843 133.935 72.3977 135.162 73.2243C136.415 74.0243 137.228 75.091 137.602 76.4243L137.202 77.4243V74.5843C137.202 73.7577 137.415 73.131 137.842 72.7043C138.295 72.2777 138.908 72.0643 139.682 72.0643C140.482 72.0643 141.095 72.2777 141.522 72.7043C141.948 73.131 142.162 73.7577 142.162 74.5843V89.9843C142.162 93.1577 141.322 95.5443 139.642 97.1443C137.962 98.7443 135.522 99.5443 132.322 99.5443ZM132.202 87.6643C133.242 87.6643 134.135 87.4243 134.882 86.9443C135.628 86.4643 136.202 85.7843 136.602 84.9043C137.028 83.9977 137.242 82.931 137.242 81.7043C137.242 79.8643 136.788 78.4243 135.882 77.3843C134.975 76.3177 133.748 75.7843 132.202 75.7843C131.162 75.7843 130.268 76.0243 129.522 76.5043C128.775 76.9843 128.188 77.6643 127.762 78.5443C127.362 79.4243 127.162 80.4777 127.162 81.7043C127.162 83.5443 127.615 84.9977 128.522 86.0643C129.428 87.131 130.655 87.6643 132.202 87.6643ZM153.782 92.3443C152.369 92.3443 151.102 92.0777 149.982 91.5443C148.889 90.9843 148.022 90.2377 147.382 89.3043C146.769 88.371 146.462 87.3177 146.462 86.1443C146.462 84.7043 146.836 83.571 147.582 82.7443C148.329 81.891 149.542 81.2777 151.222 80.9043C152.902 80.531 155.156 80.3443 157.982 80.3443H159.982V83.2243H158.022C156.369 83.2243 155.049 83.3043 154.062 83.4643C153.076 83.6243 152.369 83.9043 151.942 84.3043C151.542 84.6777 151.342 85.211 151.342 85.9043C151.342 86.7843 151.649 87.5043 152.262 88.0643C152.876 88.6243 153.729 88.9043 154.822 88.9043C155.702 88.9043 156.476 88.7043 157.142 88.3043C157.836 87.8777 158.382 87.3043 158.782 86.5843C159.182 85.8643 159.382 85.0377 159.382 84.1043V79.5043C159.382 78.171 159.089 77.211 158.502 76.6243C157.916 76.0377 156.929 75.7443 155.542 75.7443C154.769 75.7443 153.929 75.8377 153.022 76.0243C152.142 76.211 151.209 76.531 150.222 76.9843C149.716 77.2243 149.262 77.291 148.862 77.1843C148.489 77.0777 148.196 76.8643 147.982 76.5443C147.769 76.1977 147.662 75.8243 147.662 75.4243C147.662 75.0243 147.769 74.6377 147.982 74.2643C148.196 73.8643 148.556 73.571 149.062 73.3843C150.289 72.8777 151.462 72.5177 152.582 72.3043C153.729 72.091 154.769 71.9843 155.702 71.9843C157.622 71.9843 159.196 72.2777 160.422 72.8643C161.676 73.451 162.609 74.3443 163.222 75.5443C163.836 76.7177 164.142 78.2377 164.142 80.1043V89.7043C164.142 90.531 163.942 91.171 163.542 91.6243C163.142 92.051 162.569 92.2643 161.822 92.2643C161.076 92.2643 160.489 92.051 160.062 91.6243C159.662 91.171 159.462 90.531 159.462 89.7043V87.7843H159.782C159.596 88.7177 159.222 89.531 158.662 90.2243C158.129 90.891 157.449 91.411 156.622 91.7843C155.796 92.1577 154.849 92.3443 153.782 92.3443ZM170.417 91.9443C169.911 91.9443 169.484 91.8243 169.137 91.5843C168.817 91.3177 168.604 90.9843 168.497 90.5843C168.391 90.1843 168.391 89.7577 168.497 89.3043C168.631 88.8243 168.884 88.371 169.257 87.9443L179.617 74.9443V76.1443H170.177C169.564 76.1443 169.084 75.9843 168.737 75.6643C168.417 75.3177 168.257 74.851 168.257 74.2643C168.257 73.651 168.417 73.1843 168.737 72.8643C169.084 72.5443 169.564 72.3843 170.177 72.3843H182.017C182.604 72.3843 183.084 72.5177 183.457 72.7843C183.831 73.0243 184.071 73.3443 184.177 73.7443C184.311 74.1443 184.324 74.571 184.217 75.0243C184.111 75.4777 183.871 75.9043 183.497 76.3043L172.937 89.5043V88.1843H182.937C184.217 88.1843 184.857 88.811 184.857 90.0643C184.857 90.651 184.684 91.1177 184.337 91.4643C184.017 91.7843 183.551 91.9443 182.937 91.9443H170.417ZM190.643 92.2243C189.843 92.2243 189.229 91.9843 188.803 91.5043C188.376 91.0243 188.163 90.3577 188.163 89.5043V74.8243C188.163 73.9443 188.376 73.2777 188.803 72.8243C189.229 72.3443 189.843 72.1043 190.643 72.1043C191.443 72.1043 192.056 72.3443 192.483 72.8243C192.936 73.2777 193.163 73.9443 193.163 74.8243V89.5043C193.163 90.3577 192.949 91.0243 192.523 91.5043C192.096 91.9843 191.469 92.2243 190.643 92.2243ZM190.643 68.3843C189.709 68.3843 188.976 68.1577 188.443 67.7043C187.936 67.2243 187.683 66.571 187.683 65.7443C187.683 64.891 187.936 64.2377 188.443 63.7843C188.976 63.331 189.709 63.1043 190.643 63.1043C191.603 63.1043 192.336 63.331 192.843 63.7843C193.349 64.2377 193.603 64.891 193.603 65.7443C193.603 66.571 193.349 67.2243 192.843 67.7043C192.336 68.1577 191.603 68.3843 190.643 68.3843ZM200.838 92.2643C200.038 92.2643 199.424 92.051 198.998 91.6243C198.571 91.171 198.358 90.531 198.358 89.7043V74.5843C198.358 73.7577 198.571 73.131 198.998 72.7043C199.424 72.2777 200.024 72.0643 200.798 72.0643C201.571 72.0643 202.171 72.2777 202.598 72.7043C203.024 73.131 203.238 73.7577 203.238 74.5843V77.3043L202.798 76.3043C203.384 74.891 204.291 73.8243 205.518 73.1043C206.771 72.3577 208.184 71.9843 209.758 71.9843C211.331 71.9843 212.624 72.2777 213.638 72.8643C214.651 73.451 215.411 74.3443 215.918 75.5443C216.424 76.7177 216.678 78.211 216.678 80.0243V89.7043C216.678 90.531 216.464 91.171 216.038 91.6243C215.611 92.051 214.998 92.2643 214.198 92.2643C213.398 92.2643 212.771 92.051 212.318 91.6243C211.891 91.171 211.678 90.531 211.678 89.7043V80.2643C211.678 78.7443 211.384 77.6377 210.798 76.9443C210.238 76.251 209.358 75.9043 208.158 75.9043C206.691 75.9043 205.518 76.371 204.638 77.3043C203.784 78.211 203.358 79.4243 203.358 80.9443V89.7043C203.358 91.411 202.518 92.2643 200.838 92.2643ZM231.396 92.3443C229.183 92.3443 227.276 91.931 225.676 91.1043C224.076 90.2777 222.836 89.1043 221.956 87.5843C221.103 86.0643 220.676 84.2643 220.676 82.1843C220.676 80.1577 221.09 78.3843 221.916 76.8643C222.77 75.3443 223.93 74.1577 225.396 73.3043C226.89 72.4243 228.583 71.9843 230.476 71.9843C231.863 71.9843 233.103 72.211 234.196 72.6643C235.316 73.1177 236.263 73.771 237.036 74.6243C237.836 75.4777 238.436 76.5177 238.836 77.7443C239.263 78.9443 239.476 80.3043 239.476 81.8243C239.476 82.3043 239.303 82.6777 238.956 82.9443C238.636 83.1843 238.17 83.3043 237.556 83.3043H224.716V80.4243H235.956L235.316 81.0243C235.316 79.7977 235.13 78.771 234.756 77.9443C234.41 77.1177 233.89 76.491 233.196 76.0643C232.53 75.611 231.69 75.3843 230.676 75.3843C229.556 75.3843 228.596 75.651 227.796 76.1843C227.023 76.691 226.423 77.4243 225.996 78.3843C225.596 79.3177 225.396 80.4377 225.396 81.7443V82.0243C225.396 84.211 225.903 85.851 226.916 86.9443C227.956 88.011 229.476 88.5443 231.476 88.5443C232.17 88.5443 232.943 88.4643 233.796 88.3043C234.676 88.1177 235.503 87.811 236.276 87.3843C236.836 87.0643 237.33 86.931 237.756 86.9843C238.183 87.011 238.516 87.1577 238.756 87.4243C239.023 87.691 239.183 88.0243 239.236 88.4243C239.29 88.7977 239.21 89.1843 238.996 89.5843C238.81 89.9843 238.476 90.331 237.996 90.6243C237.063 91.211 235.983 91.651 234.756 91.9443C233.556 92.211 232.436 92.3443 231.396 92.3443ZM257.375 91.9443C256.549 91.9443 255.909 91.7177 255.455 91.2643C255.002 90.7843 254.775 90.131 254.775 89.3043V66.2243C254.775 65.371 254.989 64.731 255.415 64.3043C255.869 63.851 256.509 63.6243 257.335 63.6243C258.162 63.6243 258.789 63.851 259.215 64.3043C259.669 64.731 259.895 65.371 259.895 66.2243V87.5843H271.495C272.215 87.5843 272.762 87.771 273.135 88.1443C273.535 88.5177 273.735 89.051 273.735 89.7443C273.735 90.4377 273.535 90.9843 273.135 91.3843C272.762 91.7577 272.215 91.9443 271.495 91.9443H257.375ZM283.446 92.3443C281.819 92.3443 280.472 92.051 279.406 91.4643C278.339 90.851 277.539 89.9443 277.006 88.7443C276.499 87.5443 276.246 86.051 276.246 84.2643V74.5843C276.246 73.731 276.459 73.1043 276.886 72.7043C277.312 72.2777 277.926 72.0643 278.726 72.0643C279.526 72.0643 280.139 72.2777 280.566 72.7043C281.019 73.1043 281.246 73.731 281.246 74.5843V84.3443C281.246 85.731 281.526 86.7577 282.086 87.4243C282.646 88.091 283.539 88.4243 284.766 88.4243C286.099 88.4243 287.192 87.971 288.046 87.0643C288.899 86.131 289.326 84.9043 289.326 83.3843V74.5843C289.326 73.731 289.539 73.1043 289.966 72.7043C290.392 72.2777 291.006 72.0643 291.806 72.0643C292.606 72.0643 293.219 72.2777 293.646 72.7043C294.099 73.1043 294.326 73.731 294.326 74.5843V89.7043C294.326 91.411 293.512 92.2643 291.886 92.2643C291.112 92.2643 290.512 92.051 290.086 91.6243C289.659 91.171 289.446 90.531 289.446 89.7043V86.6643L290.006 87.8643C289.446 89.3043 288.592 90.411 287.446 91.1843C286.326 91.9577 284.992 92.3443 283.446 92.3443ZM302.01 92.2243C301.21 92.2243 300.596 91.9843 300.17 91.5043C299.743 91.0243 299.53 90.3577 299.53 89.5043V74.8243C299.53 73.9443 299.743 73.2777 300.17 72.8243C300.596 72.3443 301.21 72.1043 302.01 72.1043C302.81 72.1043 303.423 72.3443 303.85 72.8243C304.303 73.2777 304.53 73.9443 304.53 74.8243V89.5043C304.53 90.3577 304.316 91.0243 303.89 91.5043C303.463 91.9843 302.836 92.2243 302.01 92.2243ZM302.01 68.3843C301.076 68.3843 300.343 68.1577 299.81 67.7043C299.303 67.2243 299.05 66.571 299.05 65.7443C299.05 64.891 299.303 64.2377 299.81 63.7843C300.343 63.331 301.076 63.1043 302.01 63.1043C302.97 63.1043 303.703 63.331 304.21 63.7843C304.716 64.2377 304.97 64.891 304.97 65.7443C304.97 66.571 304.716 67.2243 304.21 67.7043C303.703 68.1577 302.97 68.3843 302.01 68.3843ZM310.925 91.9443C310.418 91.9443 309.992 91.8243 309.645 91.5843C309.325 91.3177 309.112 90.9843 309.005 90.5843C308.898 90.1843 308.898 89.7577 309.005 89.3043C309.138 88.8243 309.392 88.371 309.765 87.9443L320.125 74.9443V76.1443H310.685C310.072 76.1443 309.592 75.9843 309.245 75.6643C308.925 75.3177 308.765 74.851 308.765 74.2643C308.765 73.651 308.925 73.1843 309.245 72.8643C309.592 72.5443 310.072 72.3843 310.685 72.3843H322.525C323.112 72.3843 323.592 72.5177 323.965 72.7843C324.338 73.0243 324.578 73.3443 324.685 73.7443C324.818 74.1443 324.832 74.571 324.725 75.0243C324.618 75.4777 324.378 75.9043 324.005 76.3043L313.445 89.5043V88.1843H323.445C324.725 88.1843 325.365 88.811 325.365 90.0643C325.365 90.651 325.192 91.1177 324.845 91.4643C324.525 91.7843 324.058 91.9443 323.445 91.9443H310.925ZM334.915 92.3443C333.502 92.3443 332.235 92.0777 331.115 91.5443C330.022 90.9843 329.155 90.2377 328.515 89.3043C327.902 88.371 327.595 87.3177 327.595 86.1443C327.595 84.7043 327.968 83.571 328.715 82.7443C329.462 81.891 330.675 81.2777 332.355 80.9043C334.035 80.531 336.288 80.3443 339.115 80.3443H341.115V83.2243H339.155C337.502 83.2243 336.182 83.3043 335.195 83.4643C334.208 83.6243 333.502 83.9043 333.075 84.3043C332.675 84.6777 332.475 85.211 332.475 85.9043C332.475 86.7843 332.782 87.5043 333.395 88.0643C334.008 88.6243 334.862 88.9043 335.955 88.9043C336.835 88.9043 337.608 88.7043 338.275 88.3043C338.968 87.8777 339.515 87.3043 339.915 86.5843C340.315 85.8643 340.515 85.0377 340.515 84.1043V79.5043C340.515 78.171 340.222 77.211 339.635 76.6243C339.048 76.0377 338.062 75.7443 336.675 75.7443C335.902 75.7443 335.062 75.8377 334.155 76.0243C333.275 76.211 332.342 76.531 331.355 76.9843C330.848 77.2243 330.395 77.291 329.995 77.1843C329.622 77.0777 329.328 76.8643 329.115 76.5443C328.902 76.1977 328.795 75.8243 328.795 75.4243C328.795 75.0243 328.902 74.6377 329.115 74.2643C329.328 73.8643 329.688 73.571 330.195 73.3843C331.422 72.8777 332.595 72.5177 333.715 72.3043C334.862 72.091 335.902 71.9843 336.835 71.9843C338.755 71.9843 340.328 72.2777 341.555 72.8643C342.808 73.451 343.742 74.3443 344.355 75.5443C344.968 76.7177 345.275 78.2377 345.275 80.1043V89.7043C345.275 90.531 345.075 91.171 344.675 91.6243C344.275 92.051 343.702 92.2643 342.955 92.2643C342.208 92.2643 341.622 92.051 341.195 91.6243C340.795 91.171 340.595 90.531 340.595 89.7043V87.7843H340.915C340.728 88.7177 340.355 89.531 339.795 90.2243C339.262 90.891 338.582 91.411 337.755 91.7843C336.928 92.1577 335.982 92.3443 334.915 92.3443Z" fill="#002E69"/>
<path d="M65.68 138.104C65.36 138.104 65.1 138.031 64.9 137.884C64.7133 137.738 64.6 137.544 64.56 137.304C64.52 137.051 64.5667 136.771 64.7 136.464L69.98 124.764C70.1533 124.378 70.36 124.104 70.6 123.944C70.8533 123.771 71.14 123.684 71.46 123.684C71.7667 123.684 72.04 123.771 72.28 123.944C72.5333 124.104 72.7467 124.378 72.92 124.764L78.22 136.464C78.3667 136.771 78.42 137.051 78.38 137.304C78.34 137.558 78.2267 137.758 78.04 137.904C77.8533 138.038 77.6067 138.104 77.3 138.104C76.9267 138.104 76.6333 138.018 76.42 137.844C76.22 137.658 76.04 137.378 75.88 137.004L74.58 133.984L75.66 134.684H67.22L68.3 133.984L67.02 137.004C66.8467 137.391 66.6667 137.671 66.48 137.844C66.2933 138.018 66.0267 138.104 65.68 138.104ZM71.42 126.624L68.62 133.284L68.1 132.644H74.78L74.28 133.284L71.46 126.624H71.42ZM81.4228 141.704C81.0228 141.704 80.7161 141.598 80.5028 141.384C80.2895 141.171 80.1828 140.858 80.1828 140.444V129.264C80.1828 128.851 80.2895 128.538 80.5028 128.324C80.7161 128.111 81.0161 128.004 81.4028 128.004C81.8028 128.004 82.1095 128.111 82.3228 128.324C82.5361 128.538 82.6428 128.851 82.6428 129.264V130.824L82.4228 130.224C82.6228 129.544 83.0295 128.998 83.6428 128.584C84.2695 128.171 84.9961 127.964 85.8228 127.964C86.6761 127.964 87.4228 128.171 88.0628 128.584C88.7161 128.998 89.2228 129.584 89.5828 130.344C89.9428 131.091 90.1228 131.991 90.1228 133.044C90.1228 134.084 89.9428 134.991 89.5828 135.764C89.2228 136.524 88.7228 137.111 88.0828 137.524C87.4428 137.938 86.6895 138.144 85.8228 138.144C85.0095 138.144 84.2961 137.944 83.6828 137.544C83.0695 137.131 82.6561 136.598 82.4428 135.944H82.6828V140.444C82.6828 140.858 82.5695 141.171 82.3428 141.384C82.1295 141.598 81.8228 141.704 81.4228 141.704ZM85.1228 136.244C85.6161 136.244 86.0495 136.124 86.4228 135.884C86.7961 135.644 87.0828 135.291 87.2828 134.824C87.4961 134.344 87.6028 133.751 87.6028 133.044C87.6028 131.978 87.3761 131.184 86.9228 130.664C86.4695 130.131 85.8695 129.864 85.1228 129.864C84.6295 129.864 84.1961 129.984 83.8228 130.224C83.4495 130.451 83.1561 130.804 82.9428 131.284C82.7428 131.751 82.6428 132.338 82.6428 133.044C82.6428 134.098 82.8695 134.898 83.3228 135.444C83.7761 135.978 84.3761 136.244 85.1228 136.244ZM93.455 138.104C93.0417 138.104 92.7217 137.998 92.495 137.784C92.2817 137.558 92.175 137.238 92.175 136.824V129.264C92.175 128.851 92.2817 128.538 92.495 128.324C92.7083 128.111 93.0083 128.004 93.395 128.004C93.7817 128.004 94.0817 128.111 94.295 128.324C94.5083 128.538 94.615 128.851 94.615 129.264V130.524H94.415C94.6017 129.724 94.9683 129.118 95.515 128.704C96.0617 128.291 96.7883 128.044 97.695 127.964C97.975 127.938 98.195 128.011 98.355 128.184C98.5283 128.344 98.6283 128.598 98.655 128.944C98.6817 129.278 98.6017 129.551 98.415 129.764C98.2417 129.964 97.975 130.084 97.615 130.124L97.175 130.164C96.3617 130.244 95.7483 130.498 95.335 130.924C94.9217 131.338 94.715 131.924 94.715 132.684V136.824C94.715 137.238 94.6083 137.558 94.395 137.784C94.1817 137.998 93.8683 138.104 93.455 138.104ZM104.311 138.144C103.297 138.144 102.417 137.938 101.671 137.524C100.924 137.111 100.344 136.524 99.9308 135.764C99.5174 134.991 99.3108 134.084 99.3108 133.044C99.3108 132.258 99.4241 131.558 99.6508 130.944C99.8908 130.318 100.231 129.784 100.671 129.344C101.111 128.891 101.637 128.551 102.251 128.324C102.864 128.084 103.551 127.964 104.311 127.964C105.324 127.964 106.204 128.171 106.951 128.584C107.697 128.998 108.277 129.584 108.691 130.344C109.104 131.104 109.311 132.004 109.311 133.044C109.311 133.831 109.191 134.538 108.951 135.164C108.724 135.791 108.391 136.331 107.951 136.784C107.511 137.224 106.984 137.564 106.371 137.804C105.757 138.031 105.071 138.144 104.311 138.144ZM104.311 136.244C104.804 136.244 105.237 136.124 105.611 135.884C105.984 135.644 106.271 135.291 106.471 134.824C106.684 134.344 106.791 133.751 106.791 133.044C106.791 131.978 106.564 131.184 106.111 130.664C105.657 130.131 105.057 129.864 104.311 129.864C103.817 129.864 103.384 129.984 103.011 130.224C102.637 130.451 102.344 130.804 102.131 131.284C101.931 131.751 101.831 132.338 101.831 133.044C101.831 134.098 102.057 134.898 102.511 135.444C102.964 135.978 103.564 136.244 104.311 136.244ZM115.139 138.104C114.806 138.104 114.512 138.018 114.259 137.844C114.019 137.671 113.819 137.404 113.659 137.044L110.479 129.664C110.359 129.371 110.312 129.098 110.339 128.844C110.379 128.591 110.499 128.391 110.699 128.244C110.912 128.084 111.199 128.004 111.559 128.004C111.866 128.004 112.112 128.078 112.299 128.224C112.486 128.358 112.652 128.618 112.799 129.004L115.499 135.744H114.899L117.679 128.984C117.826 128.611 117.992 128.358 118.179 128.224C118.379 128.078 118.646 128.004 118.979 128.004C119.272 128.004 119.506 128.084 119.679 128.244C119.852 128.391 119.959 128.591 119.999 128.844C120.039 129.084 119.992 129.351 119.859 129.644L116.619 137.044C116.472 137.404 116.272 137.671 116.019 137.844C115.779 138.018 115.486 138.104 115.139 138.104ZM126.35 138.144C125.244 138.144 124.29 137.938 123.49 137.524C122.69 137.111 122.07 136.524 121.63 135.764C121.204 135.004 120.99 134.104 120.99 133.064C120.99 132.051 121.197 131.164 121.61 130.404C122.037 129.644 122.617 129.051 123.35 128.624C124.097 128.184 124.944 127.964 125.89 127.964C126.584 127.964 127.204 128.078 127.75 128.304C128.31 128.531 128.784 128.858 129.17 129.284C129.57 129.711 129.87 130.231 130.07 130.844C130.284 131.444 130.39 132.124 130.39 132.884C130.39 133.124 130.304 133.311 130.13 133.444C129.97 133.564 129.737 133.624 129.43 133.624H123.01V132.184H128.63L128.31 132.484C128.31 131.871 128.217 131.358 128.03 130.944C127.857 130.531 127.597 130.218 127.25 130.004C126.917 129.778 126.497 129.664 125.99 129.664C125.43 129.664 124.95 129.798 124.55 130.064C124.164 130.318 123.864 130.684 123.65 131.164C123.45 131.631 123.35 132.191 123.35 132.844V132.984C123.35 134.078 123.604 134.898 124.11 135.444C124.63 135.978 125.39 136.244 126.39 136.244C126.737 136.244 127.124 136.204 127.55 136.124C127.99 136.031 128.404 135.878 128.79 135.664C129.07 135.504 129.317 135.438 129.53 135.464C129.744 135.478 129.91 135.551 130.03 135.684C130.164 135.818 130.244 135.984 130.27 136.184C130.297 136.371 130.257 136.564 130.15 136.764C130.057 136.964 129.89 137.138 129.65 137.284C129.184 137.578 128.644 137.798 128.03 137.944C127.43 138.078 126.87 138.144 126.35 138.144ZM133.61 138.084C133.21 138.084 132.904 137.964 132.69 137.724C132.477 137.484 132.37 137.151 132.37 136.724V129.384C132.37 128.944 132.477 128.611 132.69 128.384C132.904 128.144 133.21 128.024 133.61 128.024C134.01 128.024 134.317 128.144 134.53 128.384C134.757 128.611 134.87 128.944 134.87 129.384V136.724C134.87 137.151 134.764 137.484 134.55 137.724C134.337 137.964 134.024 138.084 133.61 138.084ZM133.61 126.164C133.144 126.164 132.777 126.051 132.51 125.824C132.257 125.584 132.13 125.258 132.13 124.844C132.13 124.418 132.257 124.091 132.51 123.864C132.777 123.638 133.144 123.524 133.61 123.524C134.09 123.524 134.457 123.638 134.71 123.864C134.964 124.091 135.09 124.418 135.09 124.844C135.09 125.258 134.964 125.584 134.71 125.824C134.457 126.051 134.09 126.164 133.61 126.164ZM141.948 138.144C141.081 138.144 140.355 137.998 139.768 137.704C139.195 137.411 138.768 136.984 138.488 136.424C138.208 135.851 138.068 135.144 138.068 134.304V130.044H137.028C136.708 130.044 136.461 129.964 136.288 129.804C136.115 129.631 136.028 129.398 136.028 129.104C136.028 128.798 136.115 128.564 136.288 128.404C136.461 128.244 136.708 128.164 137.028 128.164H138.068V126.344C138.068 125.931 138.175 125.618 138.388 125.404C138.615 125.191 138.928 125.084 139.328 125.084C139.728 125.084 140.035 125.191 140.248 125.404C140.461 125.618 140.568 125.931 140.568 126.344V128.164H142.688C143.008 128.164 143.255 128.244 143.428 128.404C143.601 128.564 143.688 128.798 143.688 129.104C143.688 129.398 143.601 129.631 143.428 129.804C143.255 129.964 143.008 130.044 142.688 130.044H140.568V134.164C140.568 134.804 140.708 135.284 140.988 135.604C141.268 135.924 141.721 136.084 142.348 136.084C142.575 136.084 142.775 136.064 142.948 136.024C143.121 135.984 143.275 135.958 143.408 135.944C143.568 135.931 143.701 135.984 143.808 136.104C143.915 136.211 143.968 136.438 143.968 136.784C143.968 137.051 143.921 137.291 143.828 137.504C143.748 137.704 143.595 137.844 143.368 137.924C143.195 137.978 142.968 138.024 142.688 138.064C142.408 138.118 142.161 138.144 141.948 138.144ZM149.866 138.144C148.759 138.144 147.806 137.938 147.006 137.524C146.206 137.111 145.586 136.524 145.146 135.764C144.719 135.004 144.506 134.104 144.506 133.064C144.506 132.051 144.713 131.164 145.126 130.404C145.553 129.644 146.133 129.051 146.866 128.624C147.613 128.184 148.459 127.964 149.406 127.964C150.099 127.964 150.719 128.078 151.266 128.304C151.826 128.531 152.299 128.858 152.686 129.284C153.086 129.711 153.386 130.231 153.586 130.844C153.799 131.444 153.906 132.124 153.906 132.884C153.906 133.124 153.819 133.311 153.646 133.444C153.486 133.564 153.253 133.624 152.946 133.624H146.526V132.184H152.146L151.826 132.484C151.826 131.871 151.733 131.358 151.546 130.944C151.373 130.531 151.113 130.218 150.766 130.004C150.433 129.778 150.013 129.664 149.506 129.664C148.946 129.664 148.466 129.798 148.066 130.064C147.679 130.318 147.379 130.684 147.166 131.164C146.966 131.631 146.866 132.191 146.866 132.844V132.984C146.866 134.078 147.119 134.898 147.626 135.444C148.146 135.978 148.906 136.244 149.906 136.244C150.253 136.244 150.639 136.204 151.066 136.124C151.506 136.031 151.919 135.878 152.306 135.664C152.586 135.504 152.833 135.438 153.046 135.464C153.259 135.478 153.426 135.551 153.546 135.684C153.679 135.818 153.759 135.984 153.786 136.184C153.813 136.371 153.773 136.564 153.666 136.764C153.573 136.964 153.406 137.138 153.166 137.284C152.699 137.578 152.159 137.798 151.546 137.944C150.946 138.078 150.386 138.144 149.866 138.144ZM164.896 138.144C164.322 138.144 163.716 138.084 163.076 137.964C162.436 137.844 161.862 137.638 161.356 137.344C161.142 137.211 160.989 137.058 160.896 136.884C160.816 136.698 160.782 136.518 160.796 136.344C160.822 136.158 160.889 135.998 160.996 135.864C161.116 135.731 161.262 135.644 161.436 135.604C161.622 135.564 161.822 135.598 162.036 135.704C162.569 135.958 163.069 136.138 163.536 136.244C164.002 136.338 164.462 136.384 164.916 136.384C165.556 136.384 166.029 136.278 166.336 136.064C166.656 135.838 166.816 135.544 166.816 135.184C166.816 134.878 166.709 134.644 166.496 134.484C166.296 134.311 165.989 134.184 165.576 134.104L163.576 133.724C162.749 133.564 162.116 133.264 161.676 132.824C161.249 132.371 161.036 131.791 161.036 131.084C161.036 130.444 161.209 129.891 161.556 129.424C161.916 128.958 162.409 128.598 163.036 128.344C163.662 128.091 164.382 127.964 165.196 127.964C165.782 127.964 166.329 128.031 166.836 128.164C167.356 128.284 167.856 128.478 168.336 128.744C168.536 128.851 168.669 128.991 168.736 129.164C168.816 129.338 168.836 129.518 168.796 129.704C168.756 129.878 168.676 130.038 168.556 130.184C168.436 130.318 168.282 130.404 168.096 130.444C167.922 130.471 167.722 130.431 167.496 130.324C167.082 130.111 166.682 129.958 166.296 129.864C165.922 129.771 165.562 129.724 165.216 129.724C164.562 129.724 164.076 129.838 163.756 130.064C163.449 130.291 163.296 130.591 163.296 130.964C163.296 131.244 163.389 131.478 163.576 131.664C163.762 131.851 164.049 131.978 164.436 132.044L166.436 132.424C167.302 132.584 167.956 132.878 168.396 133.304C168.849 133.731 169.076 134.304 169.076 135.024C169.076 135.998 168.696 136.764 167.936 137.324C167.176 137.871 166.162 138.144 164.896 138.144ZM174.621 138.144C173.808 138.144 173.135 137.998 172.601 137.704C172.068 137.398 171.668 136.944 171.401 136.344C171.148 135.744 171.021 134.998 171.021 134.104V129.264C171.021 128.838 171.128 128.524 171.341 128.324C171.555 128.111 171.861 128.004 172.261 128.004C172.661 128.004 172.968 128.111 173.181 128.324C173.408 128.524 173.521 128.838 173.521 129.264V134.144C173.521 134.838 173.661 135.351 173.941 135.684C174.221 136.018 174.668 136.184 175.281 136.184C175.948 136.184 176.495 135.958 176.921 135.504C177.348 135.038 177.561 134.424 177.561 133.664V129.264C177.561 128.838 177.668 128.524 177.881 128.324C178.095 128.111 178.401 128.004 178.801 128.004C179.201 128.004 179.508 128.111 179.721 128.324C179.948 128.524 180.061 128.838 180.061 129.264V136.824C180.061 137.678 179.655 138.104 178.841 138.104C178.455 138.104 178.155 137.998 177.941 137.784C177.728 137.558 177.621 137.238 177.621 136.824V135.304L177.901 135.904C177.621 136.624 177.195 137.178 176.621 137.564C176.061 137.951 175.395 138.144 174.621 138.144ZM185.883 138.144C185.177 138.144 184.543 138.011 183.983 137.744C183.437 137.464 183.003 137.091 182.683 136.624C182.377 136.158 182.223 135.631 182.223 135.044C182.223 134.324 182.41 133.758 182.783 133.344C183.157 132.918 183.763 132.611 184.603 132.424C185.443 132.238 186.57 132.144 187.983 132.144H188.983V133.584H188.003C187.177 133.584 186.517 133.624 186.023 133.704C185.53 133.784 185.177 133.924 184.963 134.124C184.763 134.311 184.663 134.578 184.663 134.924C184.663 135.364 184.817 135.724 185.123 136.004C185.43 136.284 185.857 136.424 186.403 136.424C186.843 136.424 187.23 136.324 187.563 136.124C187.91 135.911 188.183 135.624 188.383 135.264C188.583 134.904 188.683 134.491 188.683 134.024V131.724C188.683 131.058 188.537 130.578 188.243 130.284C187.95 129.991 187.457 129.844 186.763 129.844C186.377 129.844 185.957 129.891 185.503 129.984C185.063 130.078 184.597 130.238 184.103 130.464C183.85 130.584 183.623 130.618 183.423 130.564C183.237 130.511 183.09 130.404 182.983 130.244C182.877 130.071 182.823 129.884 182.823 129.684C182.823 129.484 182.877 129.291 182.983 129.104C183.09 128.904 183.27 128.758 183.523 128.664C184.137 128.411 184.723 128.231 185.283 128.124C185.857 128.018 186.377 127.964 186.843 127.964C187.803 127.964 188.59 128.111 189.203 128.404C189.83 128.698 190.297 129.144 190.603 129.744C190.91 130.331 191.063 131.091 191.063 132.024V136.824C191.063 137.238 190.963 137.558 190.763 137.784C190.563 137.998 190.277 138.104 189.903 138.104C189.53 138.104 189.237 137.998 189.023 137.784C188.823 137.558 188.723 137.238 188.723 136.824V135.864H188.883C188.79 136.331 188.603 136.738 188.323 137.084C188.057 137.418 187.717 137.678 187.303 137.864C186.89 138.051 186.417 138.144 185.883 138.144ZM197.181 138.144C196.607 138.144 196.001 138.084 195.361 137.964C194.721 137.844 194.147 137.638 193.641 137.344C193.427 137.211 193.274 137.058 193.181 136.884C193.101 136.698 193.067 136.518 193.081 136.344C193.107 136.158 193.174 135.998 193.281 135.864C193.401 135.731 193.547 135.644 193.721 135.604C193.907 135.564 194.107 135.598 194.321 135.704C194.854 135.958 195.354 136.138 195.821 136.244C196.287 136.338 196.747 136.384 197.201 136.384C197.841 136.384 198.314 136.278 198.621 136.064C198.941 135.838 199.101 135.544 199.101 135.184C199.101 134.878 198.994 134.644 198.781 134.484C198.581 134.311 198.274 134.184 197.861 134.104L195.861 133.724C195.034 133.564 194.401 133.264 193.961 132.824C193.534 132.371 193.321 131.791 193.321 131.084C193.321 130.444 193.494 129.891 193.841 129.424C194.201 128.958 194.694 128.598 195.321 128.344C195.947 128.091 196.667 127.964 197.481 127.964C198.067 127.964 198.614 128.031 199.121 128.164C199.641 128.284 200.141 128.478 200.621 128.744C200.821 128.851 200.954 128.991 201.021 129.164C201.101 129.338 201.121 129.518 201.081 129.704C201.041 129.878 200.961 130.038 200.841 130.184C200.721 130.318 200.567 130.404 200.381 130.444C200.207 130.471 200.007 130.431 199.781 130.324C199.367 130.111 198.967 129.958 198.581 129.864C198.207 129.771 197.847 129.724 197.501 129.724C196.847 129.724 196.361 129.838 196.041 130.064C195.734 130.291 195.581 130.591 195.581 130.964C195.581 131.244 195.674 131.478 195.861 131.664C196.047 131.851 196.334 131.978 196.721 132.044L198.721 132.424C199.587 132.584 200.241 132.878 200.681 133.304C201.134 133.731 201.361 134.304 201.361 135.024C201.361 135.998 200.981 136.764 200.221 137.324C199.461 137.871 198.447 138.144 197.181 138.144ZM213.316 138.144C212.289 138.144 211.396 137.938 210.636 137.524C209.876 137.098 209.289 136.498 208.876 135.724C208.463 134.951 208.256 134.044 208.256 133.004C208.256 132.218 208.369 131.518 208.596 130.904C208.836 130.278 209.176 129.751 209.616 129.324C210.056 128.884 210.589 128.551 211.216 128.324C211.843 128.084 212.543 127.964 213.316 127.964C213.756 127.964 214.229 128.024 214.736 128.144C215.256 128.264 215.743 128.464 216.196 128.744C216.409 128.878 216.549 129.038 216.616 129.224C216.683 129.411 216.696 129.604 216.656 129.804C216.616 129.991 216.529 130.158 216.396 130.304C216.276 130.438 216.123 130.524 215.936 130.564C215.749 130.591 215.543 130.544 215.316 130.424C215.023 130.251 214.723 130.124 214.416 130.044C214.109 129.951 213.816 129.904 213.536 129.904C213.096 129.904 212.709 129.978 212.376 130.124C212.043 130.258 211.756 130.458 211.516 130.724C211.289 130.978 211.116 131.298 210.996 131.684C210.876 132.071 210.816 132.518 210.816 133.024C210.816 134.011 211.049 134.791 211.516 135.364C211.996 135.924 212.669 136.204 213.536 136.204C213.816 136.204 214.103 136.164 214.396 136.084C214.703 136.004 215.009 135.878 215.316 135.704C215.543 135.584 215.743 135.544 215.916 135.584C216.103 135.624 216.256 135.718 216.376 135.864C216.496 135.998 216.569 136.164 216.596 136.364C216.623 136.551 216.596 136.738 216.516 136.924C216.449 137.111 216.316 137.264 216.116 137.384C215.676 137.651 215.209 137.844 214.716 137.964C214.223 138.084 213.756 138.144 213.316 138.144ZM222.494 138.144C221.481 138.144 220.601 137.938 219.854 137.524C219.108 137.111 218.528 136.524 218.114 135.764C217.701 134.991 217.494 134.084 217.494 133.044C217.494 132.258 217.608 131.558 217.834 130.944C218.074 130.318 218.414 129.784 218.854 129.344C219.294 128.891 219.821 128.551 220.434 128.324C221.048 128.084 221.734 127.964 222.494 127.964C223.508 127.964 224.388 128.171 225.134 128.584C225.881 128.998 226.461 129.584 226.874 130.344C227.288 131.104 227.494 132.004 227.494 133.044C227.494 133.831 227.374 134.538 227.134 135.164C226.908 135.791 226.574 136.331 226.134 136.784C225.694 137.224 225.168 137.564 224.554 137.804C223.941 138.031 223.254 138.144 222.494 138.144ZM222.494 136.244C222.988 136.244 223.421 136.124 223.794 135.884C224.168 135.644 224.454 135.291 224.654 134.824C224.868 134.344 224.974 133.751 224.974 133.044C224.974 131.978 224.748 131.184 224.294 130.664C223.841 130.131 223.241 129.864 222.494 129.864C222.001 129.864 221.568 129.984 221.194 130.224C220.821 130.451 220.528 130.804 220.314 131.284C220.114 131.751 220.014 132.338 220.014 133.044C220.014 134.098 220.241 134.898 220.694 135.444C221.148 135.978 221.748 136.244 222.494 136.244ZM230.838 138.104C230.438 138.104 230.131 137.998 229.918 137.784C229.704 137.558 229.598 137.238 229.598 136.824V129.264C229.598 128.851 229.704 128.538 229.918 128.324C230.131 128.111 230.431 128.004 230.818 128.004C231.204 128.004 231.504 128.111 231.718 128.324C231.931 128.538 232.038 128.851 232.038 129.264V130.724L231.818 130.124C232.084 129.458 232.498 128.931 233.058 128.544C233.618 128.158 234.284 127.964 235.058 127.964C235.844 127.964 236.491 128.151 236.998 128.524C237.504 128.898 237.858 129.471 238.058 130.244H237.778C238.044 129.538 238.484 128.984 239.098 128.584C239.711 128.171 240.418 127.964 241.218 127.964C241.964 127.964 242.578 128.111 243.058 128.404C243.551 128.698 243.918 129.144 244.158 129.744C244.398 130.331 244.518 131.078 244.518 131.984V136.824C244.518 137.238 244.404 137.558 244.178 137.784C243.964 137.998 243.658 138.104 243.258 138.104C242.858 138.104 242.551 137.998 242.338 137.784C242.124 137.558 242.018 137.238 242.018 136.824V132.084C242.018 131.338 241.891 130.791 241.638 130.444C241.398 130.098 240.984 129.924 240.398 129.924C239.744 129.924 239.231 130.158 238.858 130.624C238.484 131.078 238.298 131.711 238.298 132.524V136.824C238.298 137.238 238.191 137.558 237.978 137.784C237.764 137.998 237.458 138.104 237.058 138.104C236.658 138.104 236.344 137.998 236.118 137.784C235.904 137.558 235.798 137.238 235.798 136.824V132.084C235.798 131.338 235.671 130.791 235.418 130.444C235.178 130.098 234.771 129.924 234.198 129.924C233.544 129.924 233.031 130.158 232.658 130.624C232.284 131.078 232.098 131.711 232.098 132.524V136.824C232.098 137.678 231.678 138.104 230.838 138.104ZM248.337 141.704C247.937 141.704 247.63 141.598 247.417 141.384C247.204 141.171 247.097 140.858 247.097 140.444V129.264C247.097 128.851 247.204 128.538 247.417 128.324C247.63 128.111 247.93 128.004 248.317 128.004C248.717 128.004 249.024 128.111 249.237 128.324C249.45 128.538 249.557 128.851 249.557 129.264V130.824L249.337 130.224C249.537 129.544 249.944 128.998 250.557 128.584C251.184 128.171 251.91 127.964 252.737 127.964C253.59 127.964 254.337 128.171 254.977 128.584C255.63 128.998 256.137 129.584 256.497 130.344C256.857 131.091 257.037 131.991 257.037 133.044C257.037 134.084 256.857 134.991 256.497 135.764C256.137 136.524 255.637 137.111 254.997 137.524C254.357 137.938 253.604 138.144 252.737 138.144C251.924 138.144 251.21 137.944 250.597 137.544C249.984 137.131 249.57 136.598 249.357 135.944H249.597V140.444C249.597 140.858 249.484 141.171 249.257 141.384C249.044 141.598 248.737 141.704 248.337 141.704ZM252.037 136.244C252.53 136.244 252.964 136.124 253.337 135.884C253.71 135.644 253.997 135.291 254.197 134.824C254.41 134.344 254.517 133.751 254.517 133.044C254.517 131.978 254.29 131.184 253.837 130.664C253.384 130.131 252.784 129.864 252.037 129.864C251.544 129.864 251.11 129.984 250.737 130.224C250.364 130.451 250.07 130.804 249.857 131.284C249.657 131.751 249.557 132.338 249.557 133.044C249.557 134.098 249.784 134.898 250.237 135.444C250.69 135.978 251.29 136.244 252.037 136.244ZM260.369 138.104C259.956 138.104 259.636 137.998 259.409 137.784C259.196 137.558 259.089 137.238 259.089 136.824V129.264C259.089 128.851 259.196 128.538 259.409 128.324C259.622 128.111 259.922 128.004 260.309 128.004C260.696 128.004 260.996 128.111 261.209 128.324C261.422 128.538 261.529 128.851 261.529 129.264V130.524H261.329C261.516 129.724 261.882 129.118 262.429 128.704C262.976 128.291 263.702 128.044 264.609 127.964C264.889 127.938 265.109 128.011 265.269 128.184C265.442 128.344 265.542 128.598 265.569 128.944C265.596 129.278 265.516 129.551 265.329 129.764C265.156 129.964 264.889 130.084 264.529 130.124L264.089 130.164C263.276 130.244 262.662 130.498 262.249 130.924C261.836 131.338 261.629 131.924 261.629 132.684V136.824C261.629 137.238 261.522 137.558 261.309 137.784C261.096 137.998 260.782 138.104 260.369 138.104ZM270.043 138.144C269.337 138.144 268.703 138.011 268.143 137.744C267.597 137.464 267.163 137.091 266.843 136.624C266.537 136.158 266.383 135.631 266.383 135.044C266.383 134.324 266.57 133.758 266.943 133.344C267.317 132.918 267.923 132.611 268.763 132.424C269.603 132.238 270.73 132.144 272.143 132.144H273.143V133.584H272.163C271.337 133.584 270.677 133.624 270.183 133.704C269.69 133.784 269.337 133.924 269.123 134.124C268.923 134.311 268.823 134.578 268.823 134.924C268.823 135.364 268.977 135.724 269.283 136.004C269.59 136.284 270.017 136.424 270.563 136.424C271.003 136.424 271.39 136.324 271.723 136.124C272.07 135.911 272.343 135.624 272.543 135.264C272.743 134.904 272.843 134.491 272.843 134.024V131.724C272.843 131.058 272.697 130.578 272.403 130.284C272.11 129.991 271.617 129.844 270.923 129.844C270.537 129.844 270.117 129.891 269.663 129.984C269.223 130.078 268.757 130.238 268.263 130.464C268.01 130.584 267.783 130.618 267.583 130.564C267.397 130.511 267.25 130.404 267.143 130.244C267.037 130.071 266.983 129.884 266.983 129.684C266.983 129.484 267.037 129.291 267.143 129.104C267.25 128.904 267.43 128.758 267.683 128.664C268.297 128.411 268.883 128.231 269.443 128.124C270.017 128.018 270.537 127.964 271.003 127.964C271.963 127.964 272.75 128.111 273.363 128.404C273.99 128.698 274.457 129.144 274.763 129.744C275.07 130.331 275.223 131.091 275.223 132.024V136.824C275.223 137.238 275.123 137.558 274.923 137.784C274.723 137.998 274.437 138.104 274.063 138.104C273.69 138.104 273.397 137.998 273.183 137.784C272.983 137.558 272.883 137.238 272.883 136.824V135.864H273.043C272.95 136.331 272.763 136.738 272.483 137.084C272.217 137.418 271.877 137.678 271.463 137.864C271.05 138.051 270.577 138.144 270.043 138.144ZM281.341 138.144C280.768 138.144 280.161 138.084 279.521 137.964C278.881 137.844 278.308 137.638 277.801 137.344C277.588 137.211 277.434 137.058 277.341 136.884C277.261 136.698 277.228 136.518 277.241 136.344C277.268 136.158 277.334 135.998 277.441 135.864C277.561 135.731 277.708 135.644 277.881 135.604C278.068 135.564 278.268 135.598 278.481 135.704C279.014 135.958 279.514 136.138 279.981 136.244C280.448 136.338 280.908 136.384 281.361 136.384C282.001 136.384 282.474 136.278 282.781 136.064C283.101 135.838 283.261 135.544 283.261 135.184C283.261 134.878 283.154 134.644 282.941 134.484C282.741 134.311 282.434 134.184 282.021 134.104L280.021 133.724C279.194 133.564 278.561 133.264 278.121 132.824C277.694 132.371 277.481 131.791 277.481 131.084C277.481 130.444 277.654 129.891 278.001 129.424C278.361 128.958 278.854 128.598 279.481 128.344C280.108 128.091 280.828 127.964 281.641 127.964C282.228 127.964 282.774 128.031 283.281 128.164C283.801 128.284 284.301 128.478 284.781 128.744C284.981 128.851 285.114 128.991 285.181 129.164C285.261 129.338 285.281 129.518 285.241 129.704C285.201 129.878 285.121 130.038 285.001 130.184C284.881 130.318 284.728 130.404 284.541 130.444C284.368 130.471 284.168 130.431 283.941 130.324C283.528 130.111 283.128 129.958 282.741 129.864C282.368 129.771 282.008 129.724 281.661 129.724C281.008 129.724 280.521 129.838 280.201 130.064C279.894 130.291 279.741 130.591 279.741 130.964C279.741 131.244 279.834 131.478 280.021 131.664C280.208 131.851 280.494 131.978 280.881 132.044L282.881 132.424C283.748 132.584 284.401 132.878 284.841 133.304C285.294 133.731 285.521 134.304 285.521 135.024C285.521 135.998 285.141 136.764 284.381 137.324C283.621 137.871 282.608 138.144 281.341 138.144ZM294.196 138.104C293.796 138.104 293.49 137.998 293.276 137.784C293.063 137.558 292.956 137.238 292.956 136.824V129.264C292.956 128.851 293.063 128.538 293.276 128.324C293.49 128.111 293.79 128.004 294.176 128.004C294.563 128.004 294.863 128.111 295.076 128.324C295.29 128.538 295.396 128.851 295.396 129.264V130.624L295.176 130.124C295.47 129.418 295.923 128.884 296.536 128.524C297.163 128.151 297.87 127.964 298.656 127.964C299.443 127.964 300.09 128.111 300.596 128.404C301.103 128.698 301.483 129.144 301.736 129.744C301.99 130.331 302.116 131.078 302.116 131.984V136.824C302.116 137.238 302.01 137.558 301.796 137.784C301.583 137.998 301.276 138.104 300.876 138.104C300.476 138.104 300.163 137.998 299.936 137.784C299.723 137.558 299.616 137.238 299.616 136.824V132.104C299.616 131.344 299.47 130.791 299.176 130.444C298.896 130.098 298.456 129.924 297.856 129.924C297.123 129.924 296.536 130.158 296.096 130.624C295.67 131.078 295.456 131.684 295.456 132.444V136.824C295.456 137.678 295.036 138.104 294.196 138.104ZM307.875 138.144C307.169 138.144 306.535 138.011 305.975 137.744C305.429 137.464 304.995 137.091 304.675 136.624C304.369 136.158 304.215 135.631 304.215 135.044C304.215 134.324 304.402 133.758 304.775 133.344C305.149 132.918 305.755 132.611 306.595 132.424C307.435 132.238 308.562 132.144 309.975 132.144H310.975V133.584H309.995C309.169 133.584 308.509 133.624 308.015 133.704C307.522 133.784 307.169 133.924 306.955 134.124C306.755 134.311 306.655 134.578 306.655 134.924C306.655 135.364 306.809 135.724 307.115 136.004C307.422 136.284 307.849 136.424 308.395 136.424C308.835 136.424 309.222 136.324 309.555 136.124C309.902 135.911 310.175 135.624 310.375 135.264C310.575 134.904 310.675 134.491 310.675 134.024V131.724C310.675 131.058 310.529 130.578 310.235 130.284C309.942 129.991 309.449 129.844 308.755 129.844C308.369 129.844 307.949 129.891 307.495 129.984C307.055 130.078 306.589 130.238 306.095 130.464C305.842 130.584 305.615 130.618 305.415 130.564C305.229 130.511 305.082 130.404 304.975 130.244C304.869 130.071 304.815 129.884 304.815 129.684C304.815 129.484 304.869 129.291 304.975 129.104C305.082 128.904 305.262 128.758 305.515 128.664C306.129 128.411 306.715 128.231 307.275 128.124C307.849 128.018 308.369 127.964 308.835 127.964C309.795 127.964 310.582 128.111 311.195 128.404C311.822 128.698 312.289 129.144 312.595 129.744C312.902 130.331 313.055 131.091 313.055 132.024V136.824C313.055 137.238 312.955 137.558 312.755 137.784C312.555 137.998 312.269 138.104 311.895 138.104C311.522 138.104 311.229 137.998 311.015 137.784C310.815 137.558 310.715 137.238 310.715 136.824V135.864H310.875C310.782 136.331 310.595 136.738 310.315 137.084C310.049 137.418 309.709 137.678 309.295 137.864C308.882 138.051 308.409 138.144 307.875 138.144ZM325.843 138.144C324.736 138.144 323.783 137.938 322.983 137.524C322.183 137.111 321.563 136.524 321.123 135.764C320.696 135.004 320.483 134.104 320.483 133.064C320.483 132.051 320.689 131.164 321.103 130.404C321.529 129.644 322.109 129.051 322.843 128.624C323.589 128.184 324.436 127.964 325.383 127.964C326.076 127.964 326.696 128.078 327.243 128.304C327.803 128.531 328.276 128.858 328.663 129.284C329.063 129.711 329.363 130.231 329.563 130.844C329.776 131.444 329.883 132.124 329.883 132.884C329.883 133.124 329.796 133.311 329.623 133.444C329.463 133.564 329.229 133.624 328.923 133.624H322.503V132.184H328.123L327.803 132.484C327.803 131.871 327.709 131.358 327.523 130.944C327.349 130.531 327.089 130.218 326.743 130.004C326.409 129.778 325.989 129.664 325.483 129.664C324.923 129.664 324.443 129.798 324.043 130.064C323.656 130.318 323.356 130.684 323.143 131.164C322.943 131.631 322.843 132.191 322.843 132.844V132.984C322.843 134.078 323.096 134.898 323.603 135.444C324.123 135.978 324.883 136.244 325.883 136.244C326.229 136.244 326.616 136.204 327.043 136.124C327.483 136.031 327.896 135.878 328.283 135.664C328.563 135.504 328.809 135.438 329.023 135.464C329.236 135.478 329.403 135.551 329.523 135.684C329.656 135.818 329.736 135.984 329.763 136.184C329.789 136.371 329.749 136.564 329.643 136.764C329.549 136.964 329.383 137.138 329.143 137.284C328.676 137.578 328.136 137.798 327.523 137.944C326.923 138.078 326.363 138.144 325.843 138.144ZM341.852 141.744C341.132 141.744 340.432 141.678 339.752 141.544C339.086 141.411 338.479 141.204 337.932 140.924C337.679 140.791 337.506 140.631 337.412 140.444C337.332 140.258 337.306 140.064 337.332 139.864C337.372 139.678 337.452 139.511 337.572 139.364C337.706 139.218 337.866 139.118 338.052 139.064C338.239 139.011 338.432 139.038 338.632 139.144C339.219 139.438 339.772 139.624 340.292 139.704C340.826 139.798 341.279 139.844 341.652 139.844C342.546 139.844 343.212 139.624 343.652 139.184C344.106 138.758 344.332 138.118 344.332 137.264V135.464H344.512C344.312 136.144 343.892 136.691 343.252 137.104C342.626 137.504 341.912 137.704 341.112 137.704C340.232 137.704 339.466 137.504 338.812 137.104C338.159 136.691 337.652 136.118 337.292 135.384C336.932 134.651 336.752 133.798 336.752 132.824C336.752 132.091 336.852 131.431 337.052 130.844C337.266 130.244 337.559 129.731 337.932 129.304C338.319 128.878 338.779 128.551 339.312 128.324C339.859 128.084 340.459 127.964 341.112 127.964C341.939 127.964 342.659 128.171 343.272 128.584C343.899 128.984 344.306 129.518 344.492 130.184L344.292 130.684V129.264C344.292 128.851 344.399 128.538 344.612 128.324C344.839 128.111 345.146 128.004 345.532 128.004C345.932 128.004 346.239 128.111 346.452 128.324C346.666 128.538 346.772 128.851 346.772 129.264V136.964C346.772 138.551 346.352 139.744 345.512 140.544C344.672 141.344 343.452 141.744 341.852 141.744ZM341.792 135.804C342.312 135.804 342.759 135.684 343.132 135.444C343.506 135.204 343.792 134.864 343.992 134.424C344.206 133.971 344.312 133.438 344.312 132.824C344.312 131.904 344.086 131.184 343.632 130.664C343.179 130.131 342.566 129.864 341.792 129.864C341.272 129.864 340.826 129.984 340.452 130.224C340.079 130.464 339.786 130.804 339.572 131.244C339.372 131.684 339.272 132.211 339.272 132.824C339.272 133.744 339.499 134.471 339.952 135.004C340.406 135.538 341.019 135.804 341.792 135.804ZM352.583 138.144C351.876 138.144 351.243 138.011 350.683 137.744C350.136 137.464 349.703 137.091 349.382 136.624C349.076 136.158 348.923 135.631 348.923 135.044C348.923 134.324 349.109 133.758 349.483 133.344C349.856 132.918 350.463 132.611 351.303 132.424C352.143 132.238 353.269 132.144 354.683 132.144H355.683V133.584H354.703C353.876 133.584 353.216 133.624 352.723 133.704C352.229 133.784 351.876 133.924 351.663 134.124C351.463 134.311 351.363 134.578 351.363 134.924C351.363 135.364 351.516 135.724 351.823 136.004C352.129 136.284 352.556 136.424 353.103 136.424C353.543 136.424 353.929 136.324 354.263 136.124C354.609 135.911 354.883 135.624 355.083 135.264C355.283 134.904 355.383 134.491 355.383 134.024V131.724C355.383 131.058 355.236 130.578 354.943 130.284C354.649 129.991 354.156 129.844 353.463 129.844C353.076 129.844 352.656 129.891 352.203 129.984C351.763 130.078 351.296 130.238 350.803 130.464C350.549 130.584 350.323 130.618 350.123 130.564C349.936 130.511 349.789 130.404 349.683 130.244C349.576 130.071 349.523 129.884 349.523 129.684C349.523 129.484 349.576 129.291 349.683 129.104C349.789 128.904 349.969 128.758 350.223 128.664C350.836 128.411 351.423 128.231 351.983 128.124C352.556 128.018 353.076 127.964 353.543 127.964C354.503 127.964 355.289 128.111 355.903 128.404C356.529 128.698 356.996 129.144 357.303 129.744C357.609 130.331 357.763 131.091 357.763 132.024V136.824C357.763 137.238 357.663 137.558 357.463 137.784C357.263 137.998 356.976 138.104 356.603 138.104C356.229 138.104 355.936 137.998 355.723 137.784C355.523 137.558 355.423 137.238 355.423 136.824V135.864H355.583C355.489 136.331 355.303 136.738 355.023 137.084C354.756 137.418 354.416 137.678 354.003 137.864C353.589 138.051 353.116 138.144 352.583 138.144ZM361.54 138.104C361.14 138.104 360.833 137.998 360.62 137.784C360.407 137.558 360.3 137.238 360.3 136.824V129.264C360.3 128.851 360.407 128.538 360.62 128.324C360.833 128.111 361.133 128.004 361.52 128.004C361.907 128.004 362.207 128.111 362.42 128.324C362.633 128.538 362.74 128.851 362.74 129.264V130.624L362.52 130.124C362.813 129.418 363.267 128.884 363.88 128.524C364.507 128.151 365.213 127.964 366 127.964C366.787 127.964 367.433 128.111 367.94 128.404C368.447 128.698 368.827 129.144 369.08 129.744C369.333 130.331 369.46 131.078 369.46 131.984V136.824C369.46 137.238 369.353 137.558 369.14 137.784C368.927 137.998 368.62 138.104 368.22 138.104C367.82 138.104 367.507 137.998 367.28 137.784C367.067 137.558 366.96 137.238 366.96 136.824V132.104C366.96 131.344 366.813 130.791 366.52 130.444C366.24 130.098 365.8 129.924 365.2 129.924C364.467 129.924 363.88 130.158 363.44 130.624C363.013 131.078 362.8 131.684 362.8 132.444V136.824C362.8 137.678 362.38 138.104 361.54 138.104ZM373.239 138.104C372.839 138.104 372.533 137.998 372.319 137.784C372.106 137.558 371.999 137.238 371.999 136.824V124.944C371.999 124.531 372.106 124.218 372.319 124.004C372.533 123.791 372.839 123.684 373.239 123.684C373.639 123.684 373.946 123.791 374.159 124.004C374.386 124.218 374.499 124.531 374.499 124.944V130.124H374.219C374.513 129.418 374.966 128.884 375.579 128.524C376.206 128.151 376.913 127.964 377.699 127.964C378.486 127.964 379.133 128.111 379.639 128.404C380.146 128.698 380.526 129.144 380.779 129.744C381.033 130.331 381.159 131.078 381.159 131.984V136.824C381.159 137.238 381.053 137.558 380.839 137.784C380.626 137.998 380.319 138.104 379.919 138.104C379.519 138.104 379.206 137.998 378.979 137.784C378.766 137.558 378.659 137.238 378.659 136.824V132.104C378.659 131.344 378.513 130.791 378.219 130.444C377.939 130.098 377.499 129.924 376.899 129.924C376.166 129.924 375.579 130.158 375.139 130.624C374.713 131.078 374.499 131.684 374.499 132.444V136.824C374.499 137.678 374.079 138.104 373.239 138.104ZM388.518 138.144C387.412 138.144 386.458 137.938 385.658 137.524C384.858 137.111 384.238 136.524 383.798 135.764C383.372 135.004 383.158 134.104 383.158 133.064C383.158 132.051 383.365 131.164 383.778 130.404C384.205 129.644 384.785 129.051 385.518 128.624C386.265 128.184 387.112 127.964 388.058 127.964C388.752 127.964 389.372 128.078 389.918 128.304C390.478 128.531 390.952 128.858 391.338 129.284C391.738 129.711 392.038 130.231 392.238 130.844C392.452 131.444 392.558 132.124 392.558 132.884C392.558 133.124 392.472 133.311 392.298 133.444C392.138 133.564 391.905 133.624 391.598 133.624H385.178V132.184H390.798L390.478 132.484C390.478 131.871 390.385 131.358 390.198 130.944C390.025 130.531 389.765 130.218 389.418 130.004C389.085 129.778 388.665 129.664 388.158 129.664C387.598 129.664 387.118 129.798 386.718 130.064C386.332 130.318 386.032 130.684 385.818 131.164C385.618 131.631 385.518 132.191 385.518 132.844V132.984C385.518 134.078 385.772 134.898 386.278 135.444C386.798 135.978 387.558 136.244 388.558 136.244C388.905 136.244 389.292 136.204 389.718 136.124C390.158 136.031 390.572 135.878 390.958 135.664C391.238 135.504 391.485 135.438 391.698 135.464C391.912 135.478 392.078 135.551 392.198 135.684C392.332 135.818 392.412 135.984 392.438 136.184C392.465 136.371 392.425 136.564 392.318 136.764C392.225 136.964 392.058 137.138 391.818 137.284C391.352 137.578 390.812 137.798 390.198 137.944C389.598 138.078 389.038 138.144 388.518 138.144ZM406.768 138.144C405.301 138.144 404.041 137.851 402.988 137.264C401.948 136.664 401.148 135.824 400.588 134.744C400.028 133.651 399.748 132.364 399.748 130.884C399.748 129.778 399.908 128.784 400.228 127.904C400.548 127.011 401.008 126.251 401.608 125.624C402.208 124.984 402.941 124.498 403.808 124.164C404.688 123.818 405.675 123.644 406.768 123.644C407.501 123.644 408.221 123.738 408.928 123.924C409.635 124.111 410.255 124.378 410.788 124.724C411.068 124.898 411.255 125.111 411.348 125.364C411.441 125.604 411.461 125.844 411.408 126.084C411.355 126.311 411.241 126.504 411.068 126.664C410.908 126.824 410.701 126.918 410.448 126.944C410.208 126.958 409.941 126.871 409.648 126.684C409.235 126.418 408.788 126.224 408.308 126.104C407.828 125.984 407.341 125.924 406.848 125.924C405.901 125.924 405.101 126.118 404.448 126.504C403.795 126.891 403.301 127.451 402.968 128.184C402.635 128.918 402.468 129.818 402.468 130.884C402.468 131.938 402.635 132.838 402.968 133.584C403.301 134.331 403.795 134.898 404.448 135.284C405.101 135.671 405.901 135.864 406.848 135.864C407.355 135.864 407.855 135.804 408.348 135.684C408.841 135.551 409.308 135.351 409.748 135.084C410.041 134.911 410.301 134.838 410.528 134.864C410.768 134.878 410.968 134.958 411.128 135.104C411.288 135.251 411.395 135.438 411.448 135.664C411.501 135.878 411.488 136.104 411.408 136.344C411.328 136.571 411.168 136.771 410.928 136.944C410.395 137.331 409.755 137.631 409.008 137.844C408.275 138.044 407.528 138.144 406.768 138.144ZM416.43 138.144C415.723 138.144 415.09 138.011 414.53 137.744C413.983 137.464 413.55 137.091 413.23 136.624C412.923 136.158 412.77 135.631 412.77 135.044C412.77 134.324 412.957 133.758 413.33 133.344C413.703 132.918 414.31 132.611 415.15 132.424C415.99 132.238 417.117 132.144 418.53 132.144H419.53V133.584H418.55C417.723 133.584 417.063 133.624 416.57 133.704C416.077 133.784 415.723 133.924 415.51 134.124C415.31 134.311 415.21 134.578 415.21 134.924C415.21 135.364 415.363 135.724 415.67 136.004C415.977 136.284 416.403 136.424 416.95 136.424C417.39 136.424 417.777 136.324 418.11 136.124C418.457 135.911 418.73 135.624 418.93 135.264C419.13 134.904 419.23 134.491 419.23 134.024V131.724C419.23 131.058 419.083 130.578 418.79 130.284C418.497 129.991 418.003 129.844 417.31 129.844C416.923 129.844 416.503 129.891 416.05 129.984C415.61 130.078 415.143 130.238 414.65 130.464C414.397 130.584 414.17 130.618 413.97 130.564C413.783 130.511 413.637 130.404 413.53 130.244C413.423 130.071 413.37 129.884 413.37 129.684C413.37 129.484 413.423 129.291 413.53 129.104C413.637 128.904 413.817 128.758 414.07 128.664C414.683 128.411 415.27 128.231 415.83 128.124C416.403 128.018 416.923 127.964 417.39 127.964C418.35 127.964 419.137 128.111 419.75 128.404C420.377 128.698 420.843 129.144 421.15 129.744C421.457 130.331 421.61 131.091 421.61 132.024V136.824C421.61 137.238 421.51 137.558 421.31 137.784C421.11 137.998 420.823 138.104 420.45 138.104C420.077 138.104 419.783 137.998 419.57 137.784C419.37 137.558 419.27 137.238 419.27 136.824V135.864H419.43C419.337 136.331 419.15 136.738 418.87 137.084C418.603 137.418 418.263 137.678 417.85 137.864C417.437 138.051 416.963 138.144 416.43 138.144ZM427.728 138.144C427.154 138.144 426.548 138.084 425.908 137.964C425.268 137.844 424.694 137.638 424.188 137.344C423.974 137.211 423.821 137.058 423.728 136.884C423.648 136.698 423.614 136.518 423.628 136.344C423.654 136.158 423.721 135.998 423.828 135.864C423.948 135.731 424.094 135.644 424.268 135.604C424.454 135.564 424.654 135.598 424.868 135.704C425.401 135.958 425.901 136.138 426.368 136.244C426.834 136.338 427.294 136.384 427.748 136.384C428.388 136.384 428.861 136.278 429.168 136.064C429.488 135.838 429.648 135.544 429.648 135.184C429.648 134.878 429.541 134.644 429.328 134.484C429.128 134.311 428.821 134.184 428.408 134.104L426.408 133.724C425.581 133.564 424.948 133.264 424.508 132.824C424.081 132.371 423.868 131.791 423.868 131.084C423.868 130.444 424.041 129.891 424.388 129.424C424.748 128.958 425.241 128.598 425.868 128.344C426.494 128.091 427.214 127.964 428.028 127.964C428.614 127.964 429.161 128.031 429.668 128.164C430.188 128.284 430.688 128.478 431.168 128.744C431.368 128.851 431.501 128.991 431.568 129.164C431.648 129.338 431.668 129.518 431.628 129.704C431.588 129.878 431.508 130.038 431.388 130.184C431.268 130.318 431.114 130.404 430.928 130.444C430.754 130.471 430.554 130.431 430.328 130.324C429.914 130.111 429.514 129.958 429.128 129.864C428.754 129.771 428.394 129.724 428.048 129.724C427.394 129.724 426.908 129.838 426.588 130.064C426.281 130.291 426.128 130.591 426.128 130.964C426.128 131.244 426.221 131.478 426.408 131.664C426.594 131.851 426.881 131.978 427.268 132.044L429.268 132.424C430.134 132.584 430.788 132.878 431.228 133.304C431.681 133.731 431.908 134.304 431.908 135.024C431.908 135.998 431.528 136.764 430.768 137.324C430.008 137.871 428.994 138.144 427.728 138.144ZM435.153 138.104C434.753 138.104 434.447 137.998 434.233 137.784C434.02 137.558 433.913 137.238 433.913 136.824V124.944C433.913 124.531 434.02 124.218 434.233 124.004C434.447 123.791 434.753 123.684 435.153 123.684C435.553 123.684 435.86 123.791 436.073 124.004C436.3 124.218 436.413 124.531 436.413 124.944V130.124H436.133C436.427 129.418 436.88 128.884 437.493 128.524C438.12 128.151 438.827 127.964 439.613 127.964C440.4 127.964 441.047 128.111 441.553 128.404C442.06 128.698 442.44 129.144 442.693 129.744C442.947 130.331 443.073 131.078 443.073 131.984V136.824C443.073 137.238 442.967 137.558 442.753 137.784C442.54 137.998 442.233 138.104 441.833 138.104C441.433 138.104 441.12 137.998 440.893 137.784C440.68 137.558 440.573 137.238 440.573 136.824V132.104C440.573 131.344 440.427 130.791 440.133 130.444C439.853 130.098 439.413 129.924 438.813 129.924C438.08 129.924 437.493 130.158 437.053 130.624C436.627 131.078 436.413 131.684 436.413 132.444V136.824C436.413 137.678 435.993 138.104 435.153 138.104ZM451.253 138.144C450.426 138.144 449.699 137.938 449.073 137.524C448.459 137.111 448.053 136.558 447.853 135.864L448.073 135.364V136.824C448.073 137.238 447.966 137.558 447.753 137.784C447.539 137.998 447.239 138.104 446.853 138.104C446.453 138.104 446.146 137.998 445.933 137.784C445.719 137.558 445.613 137.238 445.613 136.824V124.944C445.613 124.531 445.719 124.218 445.933 124.004C446.146 123.791 446.453 123.684 446.853 123.684C447.253 123.684 447.559 123.791 447.773 124.004C447.999 124.218 448.113 124.531 448.113 124.944V130.144H447.873C448.086 129.491 448.499 128.964 449.113 128.564C449.726 128.164 450.439 127.964 451.253 127.964C452.119 127.964 452.873 128.171 453.513 128.584C454.153 128.998 454.653 129.584 455.013 130.344C455.373 131.091 455.553 131.991 455.553 133.044C455.553 134.084 455.373 134.991 455.013 135.764C454.653 136.524 454.146 137.111 453.493 137.524C452.853 137.938 452.106 138.144 451.253 138.144ZM450.553 136.244C451.046 136.244 451.479 136.124 451.853 135.884C452.226 135.644 452.513 135.291 452.713 134.824C452.926 134.344 453.033 133.751 453.033 133.044C453.033 131.978 452.806 131.184 452.353 130.664C451.899 130.131 451.299 129.864 450.553 129.864C450.059 129.864 449.626 129.984 449.253 130.224C448.879 130.451 448.586 130.804 448.373 131.284C448.173 131.751 448.073 132.338 448.073 133.044C448.073 134.098 448.299 134.898 448.753 135.444C449.206 135.978 449.806 136.244 450.553 136.244ZM460.825 138.144C460.118 138.144 459.485 138.011 458.925 137.744C458.378 137.464 457.945 137.091 457.625 136.624C457.318 136.158 457.165 135.631 457.165 135.044C457.165 134.324 457.351 133.758 457.725 133.344C458.098 132.918 458.705 132.611 459.545 132.424C460.385 132.238 461.511 132.144 462.925 132.144H463.925V133.584H462.945C462.118 133.584 461.458 133.624 460.965 133.704C460.471 133.784 460.118 133.924 459.905 134.124C459.705 134.311 459.605 134.578 459.605 134.924C459.605 135.364 459.758 135.724 460.065 136.004C460.371 136.284 460.798 136.424 461.345 136.424C461.785 136.424 462.171 136.324 462.505 136.124C462.851 135.911 463.125 135.624 463.325 135.264C463.525 134.904 463.625 134.491 463.625 134.024V131.724C463.625 131.058 463.478 130.578 463.185 130.284C462.891 129.991 462.398 129.844 461.705 129.844C461.318 129.844 460.898 129.891 460.445 129.984C460.005 130.078 459.538 130.238 459.045 130.464C458.791 130.584 458.565 130.618 458.365 130.564C458.178 130.511 458.031 130.404 457.925 130.244C457.818 130.071 457.765 129.884 457.765 129.684C457.765 129.484 457.818 129.291 457.925 129.104C458.031 128.904 458.211 128.758 458.465 128.664C459.078 128.411 459.665 128.231 460.225 128.124C460.798 128.018 461.318 127.964 461.785 127.964C462.745 127.964 463.531 128.111 464.145 128.404C464.771 128.698 465.238 129.144 465.545 129.744C465.851 130.331 466.005 131.091 466.005 132.024V136.824C466.005 137.238 465.905 137.558 465.705 137.784C465.505 137.998 465.218 138.104 464.845 138.104C464.471 138.104 464.178 137.998 463.965 137.784C463.765 137.558 463.665 137.238 463.665 136.824V135.864H463.825C463.731 136.331 463.545 136.738 463.265 137.084C462.998 137.418 462.658 137.678 462.245 137.864C461.831 138.051 461.358 138.144 460.825 138.144ZM473.062 138.144C472.036 138.144 471.142 137.938 470.382 137.524C469.622 137.098 469.036 136.498 468.622 135.724C468.209 134.951 468.002 134.044 468.002 133.004C468.002 132.218 468.116 131.518 468.342 130.904C468.582 130.278 468.922 129.751 469.362 129.324C469.802 128.884 470.336 128.551 470.962 128.324C471.589 128.084 472.289 127.964 473.062 127.964C473.502 127.964 473.976 128.024 474.482 128.144C475.002 128.264 475.489 128.464 475.942 128.744C476.156 128.878 476.296 129.038 476.362 129.224C476.429 129.411 476.442 129.604 476.402 129.804C476.362 129.991 476.276 130.158 476.142 130.304C476.022 130.438 475.869 130.524 475.682 130.564C475.496 130.591 475.289 130.544 475.062 130.424C474.769 130.251 474.469 130.124 474.162 130.044C473.856 129.951 473.562 129.904 473.282 129.904C472.842 129.904 472.456 129.978 472.122 130.124C471.789 130.258 471.502 130.458 471.262 130.724C471.036 130.978 470.862 131.298 470.742 131.684C470.622 132.071 470.562 132.518 470.562 133.024C470.562 134.011 470.796 134.791 471.262 135.364C471.742 135.924 472.416 136.204 473.282 136.204C473.562 136.204 473.849 136.164 474.142 136.084C474.449 136.004 474.756 135.878 475.062 135.704C475.289 135.584 475.489 135.544 475.662 135.584C475.849 135.624 476.002 135.718 476.122 135.864C476.242 135.998 476.316 136.164 476.342 136.364C476.369 136.551 476.342 136.738 476.262 136.924C476.196 137.111 476.062 137.264 475.862 137.384C475.422 137.651 474.956 137.844 474.462 137.964C473.969 138.084 473.502 138.144 473.062 138.144ZM479.216 138.104C478.816 138.104 478.509 137.998 478.296 137.784C478.082 137.558 477.976 137.238 477.976 136.824V124.944C477.976 124.531 478.082 124.218 478.296 124.004C478.509 123.791 478.816 123.684 479.216 123.684C479.616 123.684 479.922 123.791 480.136 124.004C480.362 124.218 480.476 124.531 480.476 124.944V132.324H480.516L483.816 128.844C484.082 128.578 484.316 128.371 484.516 128.224C484.716 128.078 484.989 128.004 485.336 128.004C485.682 128.004 485.942 128.098 486.116 128.284C486.302 128.458 486.396 128.671 486.396 128.924C486.396 129.178 486.276 129.431 486.036 129.684L482.556 133.364V132.324L486.376 136.444C486.616 136.698 486.722 136.958 486.696 137.224C486.682 137.478 486.576 137.691 486.376 137.864C486.176 138.024 485.922 138.104 485.616 138.104C485.242 138.104 484.942 138.031 484.716 137.884C484.502 137.738 484.262 137.518 483.996 137.224L480.516 133.584H480.476V136.824C480.476 137.678 480.056 138.104 479.216 138.104ZM498.948 138.144C497.841 138.144 496.888 137.938 496.088 137.524C495.288 137.111 494.668 136.524 494.228 135.764C493.801 135.004 493.588 134.104 493.588 133.064C493.588 132.051 493.795 131.164 494.208 130.404C494.635 129.644 495.215 129.051 495.948 128.624C496.695 128.184 497.541 127.964 498.488 127.964C499.181 127.964 499.801 128.078 500.348 128.304C500.908 128.531 501.381 128.858 501.768 129.284C502.168 129.711 502.468 130.231 502.668 130.844C502.881 131.444 502.988 132.124 502.988 132.884C502.988 133.124 502.901 133.311 502.728 133.444C502.568 133.564 502.335 133.624 502.028 133.624H495.608V132.184H501.228L500.908 132.484C500.908 131.871 500.815 131.358 500.628 130.944C500.455 130.531 500.195 130.218 499.848 130.004C499.515 129.778 499.095 129.664 498.588 129.664C498.028 129.664 497.548 129.798 497.148 130.064C496.761 130.318 496.461 130.684 496.248 131.164C496.048 131.631 495.948 132.191 495.948 132.844V132.984C495.948 134.078 496.201 134.898 496.708 135.444C497.228 135.978 497.988 136.244 498.988 136.244C499.335 136.244 499.721 136.204 500.148 136.124C500.588 136.031 501.001 135.878 501.388 135.664C501.668 135.504 501.915 135.438 502.128 135.464C502.341 135.478 502.508 135.551 502.628 135.684C502.761 135.818 502.841 135.984 502.868 136.184C502.895 136.371 502.855 136.564 502.748 136.764C502.655 136.964 502.488 137.138 502.248 137.284C501.781 137.578 501.241 137.798 500.628 137.944C500.028 138.078 499.468 138.144 498.948 138.144ZM511.918 138.104C511.504 138.104 511.184 137.991 510.958 137.764C510.744 137.524 510.638 137.198 510.638 136.784V125.144C510.638 124.718 510.751 124.398 510.978 124.184C511.204 123.958 511.524 123.844 511.938 123.844H516.758C518.304 123.844 519.498 124.231 520.338 125.004C521.178 125.778 521.598 126.858 521.598 128.244C521.598 129.631 521.178 130.718 520.338 131.504C519.498 132.278 518.304 132.664 516.758 132.664H513.198V136.784C513.198 137.198 513.091 137.524 512.878 137.764C512.664 137.991 512.344 138.104 511.918 138.104ZM513.198 130.644H516.358C517.264 130.644 517.951 130.444 518.418 130.044C518.884 129.631 519.118 129.031 519.118 128.244C519.118 127.458 518.884 126.864 518.418 126.464C517.951 126.064 517.264 125.864 516.358 125.864H513.198V130.644ZM527.416 138.144C526.403 138.144 525.523 137.938 524.776 137.524C524.03 137.111 523.45 136.524 523.036 135.764C522.623 134.991 522.416 134.084 522.416 133.044C522.416 132.258 522.53 131.558 522.756 130.944C522.996 130.318 523.336 129.784 523.776 129.344C524.216 128.891 524.743 128.551 525.356 128.324C525.97 128.084 526.656 127.964 527.416 127.964C528.43 127.964 529.31 128.171 530.056 128.584C530.803 128.998 531.383 129.584 531.796 130.344C532.21 131.104 532.416 132.004 532.416 133.044C532.416 133.831 532.296 134.538 532.056 135.164C531.83 135.791 531.496 136.331 531.056 136.784C530.616 137.224 530.09 137.564 529.476 137.804C528.863 138.031 528.176 138.144 527.416 138.144ZM527.416 136.244C527.91 136.244 528.343 136.124 528.716 135.884C529.09 135.644 529.376 135.291 529.576 134.824C529.79 134.344 529.896 133.751 529.896 133.044C529.896 131.978 529.67 131.184 529.216 130.664C528.763 130.131 528.163 129.864 527.416 129.864C526.923 129.864 526.49 129.984 526.116 130.224C525.743 130.451 525.45 130.804 525.236 131.284C525.036 131.751 524.936 132.338 524.936 133.044C524.936 134.098 525.163 134.898 525.616 135.444C526.07 135.978 526.67 136.244 527.416 136.244ZM535.72 138.104C535.32 138.104 535.013 137.998 534.8 137.784C534.586 137.558 534.48 137.238 534.48 136.824V129.264C534.48 128.851 534.586 128.538 534.8 128.324C535.013 128.111 535.313 128.004 535.7 128.004C536.086 128.004 536.386 128.111 536.6 128.324C536.813 128.538 536.92 128.851 536.92 129.264V130.624L536.7 130.124C536.993 129.418 537.446 128.884 538.06 128.524C538.686 128.151 539.393 127.964 540.18 127.964C540.966 127.964 541.613 128.111 542.12 128.404C542.626 128.698 543.006 129.144 543.26 129.744C543.513 130.331 543.64 131.078 543.64 131.984V136.824C543.64 137.238 543.533 137.558 543.32 137.784C543.106 137.998 542.8 138.104 542.4 138.104C542 138.104 541.686 137.998 541.46 137.784C541.246 137.558 541.14 137.238 541.14 136.824V132.104C541.14 131.344 540.993 130.791 540.7 130.444C540.42 130.098 539.98 129.924 539.38 129.924C538.646 129.924 538.06 130.158 537.62 130.624C537.193 131.078 536.98 131.684 536.98 132.444V136.824C536.98 137.678 536.56 138.104 535.72 138.104ZM550.659 138.144C549.792 138.144 549.066 137.998 548.479 137.704C547.906 137.411 547.479 136.984 547.199 136.424C546.919 135.851 546.779 135.144 546.779 134.304V130.044H545.739C545.419 130.044 545.172 129.964 544.999 129.804C544.826 129.631 544.739 129.398 544.739 129.104C544.739 128.798 544.826 128.564 544.999 128.404C545.172 128.244 545.419 128.164 545.739 128.164H546.779V126.344C546.779 125.931 546.886 125.618 547.099 125.404C547.326 125.191 547.639 125.084 548.039 125.084C548.439 125.084 548.746 125.191 548.959 125.404C549.172 125.618 549.279 125.931 549.279 126.344V128.164H551.399C551.719 128.164 551.966 128.244 552.139 128.404C552.312 128.564 552.399 128.798 552.399 129.104C552.399 129.398 552.312 129.631 552.139 129.804C551.966 129.964 551.719 130.044 551.399 130.044H549.279V134.164C549.279 134.804 549.419 135.284 549.699 135.604C549.979 135.924 550.432 136.084 551.059 136.084C551.286 136.084 551.486 136.064 551.659 136.024C551.832 135.984 551.986 135.958 552.119 135.944C552.279 135.931 552.412 135.984 552.519 136.104C552.626 136.211 552.679 136.438 552.679 136.784C552.679 137.051 552.632 137.291 552.539 137.504C552.459 137.704 552.306 137.844 552.079 137.924C551.906 137.978 551.679 138.024 551.399 138.064C551.119 138.118 550.872 138.144 550.659 138.144ZM558.217 138.144C557.204 138.144 556.324 137.938 555.577 137.524C554.83 137.111 554.25 136.524 553.837 135.764C553.424 134.991 553.217 134.084 553.217 133.044C553.217 132.258 553.33 131.558 553.557 130.944C553.797 130.318 554.137 129.784 554.577 129.344C555.017 128.891 555.544 128.551 556.157 128.324C556.77 128.084 557.457 127.964 558.217 127.964C559.23 127.964 560.11 128.171 560.857 128.584C561.604 128.998 562.184 129.584 562.597 130.344C563.01 131.104 563.217 132.004 563.217 133.044C563.217 133.831 563.097 134.538 562.857 135.164C562.63 135.791 562.297 136.331 561.857 136.784C561.417 137.224 560.89 137.564 560.277 137.804C559.664 138.031 558.977 138.144 558.217 138.144ZM558.217 136.244C558.71 136.244 559.144 136.124 559.517 135.884C559.89 135.644 560.177 135.291 560.377 134.824C560.59 134.344 560.697 133.751 560.697 133.044C560.697 131.978 560.47 131.184 560.017 130.664C559.564 130.131 558.964 129.864 558.217 129.864C557.724 129.864 557.29 129.984 556.917 130.224C556.544 130.451 556.25 130.804 556.037 131.284C555.837 131.751 555.737 132.338 555.737 133.044C555.737 134.098 555.964 134.898 556.417 135.444C556.87 135.978 557.47 136.244 558.217 136.244ZM568.86 138.144C568.287 138.144 567.68 138.084 567.04 137.964C566.4 137.844 565.827 137.638 565.32 137.344C565.107 137.211 564.954 137.058 564.86 136.884C564.78 136.698 564.747 136.518 564.76 136.344C564.787 136.158 564.854 135.998 564.96 135.864C565.08 135.731 565.227 135.644 565.4 135.604C565.587 135.564 565.787 135.598 566 135.704C566.534 135.958 567.034 136.138 567.5 136.244C567.967 136.338 568.427 136.384 568.88 136.384C569.52 136.384 569.994 136.278 570.3 136.064C570.62 135.838 570.78 135.544 570.78 135.184C570.78 134.878 570.674 134.644 570.46 134.484C570.26 134.311 569.954 134.184 569.54 134.104L567.54 133.724C566.714 133.564 566.08 133.264 565.64 132.824C565.214 132.371 565 131.791 565 131.084C565 130.444 565.174 129.891 565.52 129.424C565.88 128.958 566.374 128.598 567 128.344C567.627 128.091 568.347 127.964 569.16 127.964C569.747 127.964 570.294 128.031 570.8 128.164C571.32 128.284 571.82 128.478 572.3 128.744C572.5 128.851 572.634 128.991 572.7 129.164C572.78 129.338 572.8 129.518 572.76 129.704C572.72 129.878 572.64 130.038 572.52 130.184C572.4 130.318 572.247 130.404 572.06 130.444C571.887 130.471 571.687 130.431 571.46 130.324C571.047 130.111 570.647 129.958 570.26 129.864C569.887 129.771 569.527 129.724 569.18 129.724C568.527 129.724 568.04 129.838 567.72 130.064C567.414 130.291 567.26 130.591 567.26 130.964C567.26 131.244 567.354 131.478 567.54 131.664C567.727 131.851 568.014 131.978 568.4 132.044L570.4 132.424C571.267 132.584 571.92 132.878 572.36 133.304C572.814 133.731 573.04 134.304 573.04 135.024C573.04 135.998 572.66 136.764 571.9 137.324C571.14 137.871 570.127 138.144 568.86 138.144ZM580.936 138.524C580.856 138.778 580.729 138.958 580.556 139.064C580.382 139.184 580.189 139.244 579.976 139.244C579.776 139.244 579.589 139.191 579.416 139.084C579.242 138.978 579.122 138.824 579.056 138.624C578.976 138.438 578.976 138.211 579.056 137.944L583.676 123.604C583.756 123.351 583.882 123.164 584.056 123.044C584.242 122.924 584.436 122.871 584.636 122.884C584.836 122.884 585.022 122.938 585.196 123.044C585.369 123.151 585.489 123.298 585.556 123.484C585.636 123.671 585.636 123.898 585.556 124.164L580.936 138.524ZM593.615 138.104C593.242 138.104 592.955 137.998 592.755 137.784C592.555 137.571 592.455 137.278 592.455 136.904V124.884C592.455 124.498 592.562 124.204 592.775 124.004C592.988 123.791 593.282 123.684 593.655 123.684C593.988 123.684 594.248 123.751 594.435 123.884C594.635 124.004 594.815 124.218 594.975 124.524L599.915 133.664H599.275L604.215 124.524C604.375 124.218 604.548 124.004 604.735 123.884C604.922 123.751 605.182 123.684 605.515 123.684C605.888 123.684 606.175 123.791 606.375 124.004C606.575 124.204 606.675 124.498 606.675 124.884V136.904C606.675 137.278 606.575 137.571 606.375 137.784C606.188 137.998 605.902 138.104 605.515 138.104C605.142 138.104 604.855 137.998 604.655 137.784C604.455 137.571 604.355 137.278 604.355 136.904V127.644H604.795L600.595 135.304C600.462 135.531 600.322 135.698 600.175 135.804C600.028 135.911 599.828 135.964 599.575 135.964C599.322 135.964 599.115 135.911 598.955 135.804C598.795 135.684 598.655 135.518 598.535 135.304L594.295 127.624H594.775V136.904C594.775 137.278 594.675 137.571 594.475 137.784C594.288 137.998 594.002 138.104 593.615 138.104ZM610.778 138.084C610.378 138.084 610.072 137.964 609.858 137.724C609.645 137.484 609.538 137.151 609.538 136.724V129.384C609.538 128.944 609.645 128.611 609.858 128.384C610.072 128.144 610.378 128.024 610.778 128.024C611.178 128.024 611.485 128.144 611.698 128.384C611.925 128.611 612.038 128.944 612.038 129.384V136.724C612.038 137.151 611.932 137.484 611.718 137.724C611.505 137.964 611.192 138.084 610.778 138.084ZM610.778 126.164C610.312 126.164 609.945 126.051 609.678 125.824C609.425 125.584 609.298 125.258 609.298 124.844C609.298 124.418 609.425 124.091 609.678 123.864C609.945 123.638 610.312 123.524 610.778 123.524C611.258 123.524 611.625 123.638 611.878 123.864C612.132 124.091 612.258 124.418 612.258 124.844C612.258 125.258 612.132 125.584 611.878 125.824C611.625 126.051 611.258 126.164 610.778 126.164ZM617.976 138.144C616.869 138.144 616.036 137.831 615.476 137.204C614.916 136.564 614.636 135.631 614.636 134.404V124.944C614.636 124.531 614.743 124.218 614.956 124.004C615.169 123.791 615.476 123.684 615.876 123.684C616.276 123.684 616.583 123.791 616.796 124.004C617.023 124.218 617.136 124.531 617.136 124.944V134.284C617.136 134.898 617.263 135.351 617.516 135.644C617.783 135.938 618.156 136.084 618.636 136.084C618.743 136.084 618.843 136.084 618.936 136.084C619.029 136.071 619.123 136.058 619.216 136.044C619.403 136.018 619.529 136.071 619.596 136.204C619.663 136.324 619.696 136.578 619.696 136.964C619.696 137.298 619.629 137.558 619.496 137.744C619.363 137.931 619.143 138.044 618.836 138.084C618.703 138.098 618.563 138.111 618.416 138.124C618.269 138.138 618.123 138.144 617.976 138.144ZM622.263 138.104C621.863 138.104 621.556 137.998 621.343 137.784C621.129 137.558 621.023 137.238 621.023 136.824V124.944C621.023 124.531 621.129 124.218 621.343 124.004C621.556 123.791 621.863 123.684 622.263 123.684C622.663 123.684 622.969 123.791 623.183 124.004C623.409 124.218 623.523 124.531 623.523 124.944V130.124H623.243C623.536 129.418 623.989 128.884 624.603 128.524C625.229 128.151 625.936 127.964 626.723 127.964C627.509 127.964 628.156 128.111 628.663 128.404C629.169 128.698 629.549 129.144 629.803 129.744C630.056 130.331 630.183 131.078 630.183 131.984V136.824C630.183 137.238 630.076 137.558 629.863 137.784C629.649 137.998 629.343 138.104 628.943 138.104C628.543 138.104 628.229 137.998 628.003 137.784C627.789 137.558 627.683 137.238 627.683 136.824V132.104C627.683 131.344 627.536 130.791 627.243 130.444C626.963 130.098 626.523 129.924 625.923 129.924C625.189 129.924 624.603 130.158 624.163 130.624C623.736 131.078 623.523 131.684 623.523 132.444V136.824C623.523 137.678 623.103 138.104 622.263 138.104ZM635.942 138.144C635.235 138.144 634.602 138.011 634.042 137.744C633.495 137.464 633.062 137.091 632.742 136.624C632.435 136.158 632.282 135.631 632.282 135.044C632.282 134.324 632.469 133.758 632.842 133.344C633.215 132.918 633.822 132.611 634.662 132.424C635.502 132.238 636.629 132.144 638.042 132.144H639.042V133.584H638.062C637.235 133.584 636.575 133.624 636.082 133.704C635.589 133.784 635.235 133.924 635.022 134.124C634.822 134.311 634.722 134.578 634.722 134.924C634.722 135.364 634.875 135.724 635.182 136.004C635.489 136.284 635.915 136.424 636.462 136.424C636.902 136.424 637.289 136.324 637.622 136.124C637.969 135.911 638.242 135.624 638.442 135.264C638.642 134.904 638.742 134.491 638.742 134.024V131.724C638.742 131.058 638.595 130.578 638.302 130.284C638.009 129.991 637.515 129.844 636.822 129.844C636.435 129.844 636.015 129.891 635.562 129.984C635.122 130.078 634.655 130.238 634.162 130.464C633.909 130.584 633.682 130.618 633.482 130.564C633.295 130.511 633.149 130.404 633.042 130.244C632.935 130.071 632.882 129.884 632.882 129.684C632.882 129.484 632.935 129.291 633.042 129.104C633.149 128.904 633.329 128.758 633.582 128.664C634.195 128.411 634.782 128.231 635.342 128.124C635.915 128.018 636.435 127.964 636.902 127.964C637.862 127.964 638.649 128.111 639.262 128.404C639.889 128.698 640.355 129.144 640.662 129.744C640.969 130.331 641.122 131.091 641.122 132.024V136.824C641.122 137.238 641.022 137.558 640.822 137.784C640.622 137.998 640.335 138.104 639.962 138.104C639.589 138.104 639.295 137.998 639.082 137.784C638.882 137.558 638.782 137.238 638.782 136.824V135.864H638.942C638.849 136.331 638.662 136.738 638.382 137.084C638.115 137.418 637.775 137.678 637.362 137.864C636.949 138.051 636.475 138.144 635.942 138.144ZM647.239 138.144C646.666 138.144 646.059 138.084 645.419 137.964C644.779 137.844 644.206 137.638 643.699 137.344C643.486 137.211 643.333 137.058 643.239 136.884C643.159 136.698 643.126 136.518 643.139 136.344C643.166 136.158 643.233 135.998 643.339 135.864C643.459 135.731 643.606 135.644 643.779 135.604C643.966 135.564 644.166 135.598 644.379 135.704C644.913 135.958 645.413 136.138 645.879 136.244C646.346 136.338 646.806 136.384 647.259 136.384C647.899 136.384 648.373 136.278 648.679 136.064C648.999 135.838 649.159 135.544 649.159 135.184C649.159 134.878 649.053 134.644 648.839 134.484C648.639 134.311 648.333 134.184 647.919 134.104L645.919 133.724C645.093 133.564 644.459 133.264 644.019 132.824C643.593 132.371 643.379 131.791 643.379 131.084C643.379 130.444 643.553 129.891 643.899 129.424C644.259 128.958 644.753 128.598 645.379 128.344C646.006 128.091 646.726 127.964 647.539 127.964C648.126 127.964 648.673 128.031 649.179 128.164C649.699 128.284 650.199 128.478 650.679 128.744C650.879 128.851 651.013 128.991 651.079 129.164C651.159 129.338 651.179 129.518 651.139 129.704C651.099 129.878 651.019 130.038 650.899 130.184C650.779 130.318 650.626 130.404 650.439 130.444C650.266 130.471 650.066 130.431 649.839 130.324C649.426 130.111 649.026 129.958 648.639 129.864C648.266 129.771 647.906 129.724 647.559 129.724C646.906 129.724 646.419 129.838 646.099 130.064C645.793 130.291 645.639 130.591 645.639 130.964C645.639 131.244 645.733 131.478 645.919 131.664C646.106 131.851 646.393 131.978 646.779 132.044L648.779 132.424C649.646 132.584 650.299 132.878 650.739 133.304C651.193 133.731 651.419 134.304 651.419 135.024C651.419 135.998 651.039 136.764 650.279 137.324C649.519 137.871 648.506 138.144 647.239 138.144ZM654.527 138.044C654.074 138.044 653.707 137.904 653.427 137.624C653.161 137.344 653.027 136.984 653.027 136.544C653.027 136.118 653.161 135.771 653.427 135.504C653.707 135.224 654.074 135.084 654.527 135.084C654.994 135.084 655.354 135.224 655.607 135.504C655.874 135.771 656.007 136.118 656.007 136.544C656.007 136.984 655.874 137.344 655.607 137.624C655.354 137.904 654.994 138.044 654.527 138.044Z" fill="white"/>
<path d="M779 0.944336H1164C1175.05 0.944336 1184 9.89864 1184 20.9443V180.944C1184 191.99 1175.05 200.944 1164 200.944H779V0.944336Z" fill="white"/>
<path fill-rule="evenodd" clip-rule="evenodd" d="M1021.15 77.7708H1025.13C1026.52 77.7708 1027.4 78.5972 1027.5 79.9918V108.865C1027.5 110.311 1026.63 111.189 1025.18 111.189H1021.36C1019.96 111.189 1019.08 110.466 1018.88 109.175L1018.52 107.16C1016.24 109.64 1012.58 112.016 1006.95 112.016C997.959 112.016 991.709 104.526 991.709 94.4025C991.709 84.0722 998.424 76.9443 1007.51 76.9443C1012.94 76.9443 1016.19 79.1137 1018.41 81.4897L1018.62 79.8368C1018.83 78.4939 1019.76 77.7708 1021.15 77.7708ZM1001.21 94.5575C1001.21 100.084 1004.47 103.596 1009.58 103.596C1014.59 103.596 1017.95 99.9809 1017.95 94.4025C1017.95 88.8758 1014.69 85.3635 1009.58 85.3635C1004.62 85.3635 1001.21 88.9791 1001.21 94.5575ZM1046.46 102.408H1055.55C1057 102.408 1057.87 103.287 1057.82 104.733V108.865C1057.82 110.311 1056.95 111.189 1055.5 111.189H1044.19C1036.49 111.189 1031.79 106.489 1031.79 98.7929V80.0434C1031.79 78.5972 1032.67 77.7191 1034.12 77.7191H1039.28C1040.73 77.7191 1041.6 78.5972 1041.6 80.0434V97.5533C1041.6 100.756 1043.26 102.408 1046.46 102.408ZM1085.66 77.7708H1090.73C1092.22 77.7708 1093.05 78.5972 1093 80.0435V108.917C1093 110.363 1092.12 111.241 1090.67 111.241H1087.01C1085.61 111.241 1084.73 110.518 1084.48 109.227L1084.06 107.212C1081.43 110.466 1077.76 112.067 1073.01 112.067C1065.05 112.067 1059.79 106.282 1059.79 96.1071V80.0951C1059.79 78.6489 1060.66 77.7708 1062.11 77.7708H1067.17C1068.62 77.7708 1069.5 78.6489 1069.5 80.0951V95.3839C1069.5 100.807 1071.92 103.597 1076.26 103.597C1080.39 103.597 1083.34 100.497 1083.34 95.0224V80.0951C1083.34 78.6489 1084.22 77.7708 1085.66 77.7708ZM908.499 79.9918C908.344 78.4423 907.569 77.7708 906.123 77.7708H902.301C901.061 77.7708 900.235 78.2873 899.563 79.372L890.266 95.074L881.64 79.372C881.072 78.2873 880.091 77.7708 878.903 77.7708H874.77C873.324 77.7708 872.549 78.4939 872.394 79.9918L870.019 108.865C869.864 110.466 870.69 111.241 872.188 111.241H876.785C878.231 111.241 879.109 110.518 879.161 109.02L880.142 92.853L885.721 102.873C886.289 103.958 887.27 104.475 888.458 104.475H891.66C892.9 104.475 893.727 104.061 894.398 102.873L900.648 92.1299L901.371 109.02C901.423 110.569 902.249 111.241 903.695 111.241H908.705C910.255 111.241 911.03 110.466 910.875 108.865L908.499 79.9918ZM985.924 77.7708H981.947C980.553 77.7708 979.623 78.4939 979.416 79.8368L979.21 81.4897C976.989 79.1137 973.735 76.9443 968.311 76.9443C959.221 76.9443 952.506 83.659 952.506 93.9893C952.506 103.803 958.704 110.724 967.691 110.724C973.27 110.724 976.575 108.4 978.796 105.972V107.625C978.796 113.41 975.542 117.077 968.673 117.077C965.78 117.077 963.198 116.509 960.512 115.373C959.117 114.702 958.033 115.011 957.413 116.354L955.812 119.557C955.14 120.848 955.398 121.933 956.586 122.656C960.409 124.825 965.109 125.703 969.654 125.703C980.966 125.703 988.197 118.575 988.197 108.607V80.0951C988.249 78.5972 987.371 77.7708 985.924 77.7708ZM970.429 102.512C965.419 102.512 962.061 99.2061 962.061 94.041C962.061 88.6176 965.574 85.4152 970.429 85.4152C975.439 85.4152 978.796 88.3593 978.796 93.9377C978.796 98.8962 975.232 102.512 970.429 102.512ZM942.795 77.7708H946.773C948.219 77.7708 949.045 78.5972 949.148 79.9918V108.865C949.148 110.311 948.27 111.189 946.824 111.189H943.002C941.607 111.189 940.729 110.466 940.523 109.175L940.161 107.16C937.888 109.64 934.221 112.016 928.591 112.016C919.604 112.016 913.354 104.526 913.354 94.4025C913.354 84.0722 920.069 76.9443 929.159 76.9443C934.583 76.9443 937.837 79.1137 940.058 81.4897L940.264 79.8368C940.471 78.4939 941.401 77.7708 942.795 77.7708ZM922.858 94.5575C922.858 100.084 926.112 103.596 931.225 103.596C936.236 103.596 939.593 99.9809 939.593 94.4025C939.593 88.8758 936.339 85.3635 931.225 85.3635C926.267 85.3635 922.858 88.9791 922.858 94.5575Z" fill="#009FE3"/>
</svg>
