<svg width="120" height="31" viewBox="0 0 120 31" fill="none" xmlns="http://www.w3.org/2000/svg">
<path d="M19.9462 18.4332C14.0374 23.1934 9.24674 19.8437 9.80347 15.7735C10.2947 12.2624 15.7777 8.02852 20.7345 13.2145L21.9485 3.59811C13.3824 0.840214 6.65259 3.53261 1.73095 11.7385C-1.05969 18.2695 0.023349 23.3899 4.98007 27.1326C8.29469 29.3314 12.7251 29.5934 18.2409 27.9209L19.9462 18.4332Z" fill="#016DB8"/>
<path d="M47.6491 28.9361L42.4631 3.20279H32.1894L19.3894 28.7069H29.2678L30.3508 25.5888H37.4081L37.8011 28.9361H47.6491ZM36.3251 11.804L36.7508 19.6168H33.0409L35.897 11.804H36.3251Z" fill="#016DB8"/>
<path d="M59.1696 28.5759L63.0433 2.90805H53.6562L49.7825 28.5759H59.1696Z" fill="#016DB8"/>
<path d="M73.118 15.1841H84.442L80.5706 7.4718L78.3367 3.0063H67.0806L73.118 15.1841Z" fill="#016DB8"/>
<path d="M78.6339 28.7069H89.8573L83.7216 16.5291L76.3018 24.2765L78.6339 28.7069Z" fill="#016DB8"/>
<path d="M104.564 3.20279L91.6958 28.8051L101.541 28.8706L102.69 25.6215H109.747L110.14 28.9361H119.986L114.8 3.20279H104.564ZM105.35 19.6145L108.206 11.8016H108.599L109.024 19.6145H105.35Z" fill="#016DB8"/>
<path d="M84.7041 3.07179L80.5708 7.47179L84.4421 15.1841L95.9626 3.07179H84.7041Z" fill="#F8A23D"/>
<path d="M72.496 16.5291L61.041 28.5431H72.1989L76.2691 24.2765L83.689 16.5291H72.496Z" fill="#F8A23D"/>
</svg>
