<svg width="120" height="31" viewBox="0 0 120 31" fill="none" xmlns="http://www.w3.org/2000/svg">
<path fill-rule="evenodd" clip-rule="evenodd" d="M19.7606 18.3131C19.7606 23.0743 22.8785 26.1502 27.0077 26.1502C31.0948 26.1502 34.2549 22.9901 34.2549 18.3131V0.11084H38.6791V29.6052H34.2971V26.8665C32.3167 28.9311 29.578 30.1108 26.5021 30.1108C20.1819 30.1108 15.3364 25.5181 15.3364 18.5659V0.11084H19.7606V18.3131ZM43.019 29.6052V0.11084H47.2746V10.8552C48.2671 9.83869 49.4535 9.03153 50.7634 8.4815C52.0733 7.93147 53.4803 7.64974 54.901 7.65297C61.2212 7.65297 66.1931 12.667 66.1931 18.903C66.1931 25.0968 61.2212 30.1108 54.901 30.1108C51.9094 30.1108 49.1707 28.8889 47.2325 26.9086V29.6052H43.019ZM47.1903 18.903C47.1903 23.0322 50.4768 26.3608 54.6061 26.3608C58.651 26.3608 61.9797 23.0322 61.9797 18.903C61.9797 14.7316 58.651 11.4451 54.6061 11.4451C50.519 11.4451 47.1903 14.7316 47.1903 18.903ZM68.7212 18.8608C68.7212 12.7934 73.4825 7.69511 79.7606 7.69511C85.9544 7.69511 90.5049 12.4563 90.5049 18.8608V20.2513H73.019C73.6089 23.7485 76.5162 26.3608 80.1398 26.3608C82.6257 26.3608 84.7325 25.3496 86.3336 23.2007L89.4094 25.476C87.2606 28.3412 84.0583 30.0687 80.1398 30.0687C73.6931 30.0687 68.7212 25.2653 68.7212 18.8608ZM79.6763 11.403C76.5162 11.403 73.8617 13.594 73.1033 16.8805H86.2072C85.4909 13.594 82.8364 11.403 79.6763 11.403ZM104.662 11.9086H102.893C100.112 11.9086 98.0892 14.0575 98.0892 17.3861V29.6052H93.8336V8.11646H98.0471V10.771C99.1005 9.04342 100.828 7.94792 103.188 7.94792H104.662V11.9086Z" fill="black"/>
</svg>
