<svg width="120" height="31" viewBox="0 0 120 31" fill="none" xmlns="http://www.w3.org/2000/svg">
<path d="M74.0601 0.11084C67.4807 0.11084 61.5734 3.53437 61.5734 9.81672C61.5734 17.052 72.0085 17.5461 72.0085 21.1461C72.0085 22.6638 70.2398 24.0403 67.2685 24.0403C63.0237 24.0403 59.8401 22.1344 59.8401 22.1344L58.4959 28.4873C58.4959 28.4873 62.1394 30.1108 67.0209 30.1108C74.2369 30.1108 79.8966 26.5461 79.8966 20.1226C79.8966 12.4991 69.4262 12.005 69.4262 8.65202C69.4262 7.45202 70.8765 6.14613 73.8479 6.14613C77.2083 6.14613 79.9674 7.5226 79.9674 7.5226L81.3116 1.38143C81.2762 1.38143 78.2695 0.11084 74.0601 0.11084ZM13.7844 0.569663L13.6075 1.48731C13.6075 1.48731 16.3666 1.98143 18.8781 3.00496C22.0971 4.16966 22.3093 4.84025 22.8753 6.9226L28.7826 29.6167H36.7061L48.8391 0.569663H40.9509L33.1335 20.3344L29.9499 3.56966C29.6669 1.66378 28.1812 0.569663 26.3418 0.569663H13.7844ZM52.0227 0.569663L45.8324 29.6167H53.3669L59.5218 0.569663H52.0227ZM93.9751 0.569663C92.1711 0.569663 91.216 1.5226 90.5086 3.21672L79.4722 29.6167H87.3604L88.8814 25.205H98.5029L99.4226 29.6167H106.391L100.342 0.569663H93.9751ZM95.0009 8.44025L97.3355 19.3461H91.0745L95.0009 8.44025Z" fill="#1434CB"/>
</svg>
