<svg width="120" height="31" viewBox="0 0 120 31" fill="none" xmlns="http://www.w3.org/2000/svg">
<path fill-rule="evenodd" clip-rule="evenodd" d="M77.5102 29.5496H71.1542V2.87671H77.5102V29.5496ZM31.2301 29.5496H31.2273L31.2301 29.5506V29.5496ZM31.2301 29.5496H49.6954V24.6935H39.3045L48.9886 14.9795V10.1609H32.011V15.017H40.9076L31.2301 24.6195V29.5496ZM10.8907 29.5496H3.75L13.7341 2.87858H20.7979L30.782 29.5496H23.5288L21.8844 24.7685H12.5725L10.8907 29.5496ZM17.2833 10.2734H17.2083L14.1803 19.6134H20.2364L17.2833 10.2734ZM63.3074 10.1604H69.6635V29.5539H63.4949V26.9008H63.4199C62.2237 28.8798 59.7544 30.1107 57.5139 30.1107C51.9415 30.1107 50.3328 26.898 50.3328 21.8169V10.1604H56.6889V21.4063C56.6889 23.9853 57.812 24.8824 59.8294 24.8824C61.2141 24.8824 63.3074 23.9853 63.3074 20.5476V10.1604Z" fill="#0E2B58"/>
<path fill-rule="evenodd" clip-rule="evenodd" d="M105.085 2.88599H106.823V4.25469H105.083L105.085 2.88599Z" fill="#5061AA"/>
<path fill-rule="evenodd" clip-rule="evenodd" d="M98.6807 17.5537H104.001V23.2254H98.6807V17.5537Z" fill="#8B328A"/>
<path fill-rule="evenodd" clip-rule="evenodd" d="M102.175 24.4382H105.672V26.5569H102.175V24.4382Z" fill="#5D80C0"/>
<path fill-rule="evenodd" clip-rule="evenodd" d="M100.104 25.4282H104.307V29.5887H100.105L100.104 25.4282Z" fill="#E94E29"/>
<path fill-rule="evenodd" clip-rule="evenodd" d="M105.31 21.6514H108.908V23.2263H105.312L105.31 21.6514Z" fill="#D5262A"/>
<path fill-rule="evenodd" clip-rule="evenodd" d="M103.992 18.7834H107.681V19.7162H103.992V18.7834Z" fill="#F6A022"/>
<path fill-rule="evenodd" clip-rule="evenodd" d="M108.903 21.6514H111.481V22.361H108.903V21.6514Z" fill="#6A95CD"/>
<path fill-rule="evenodd" clip-rule="evenodd" d="M103.992 14.2668H107.517V18.7855H103.992V14.2668Z" fill="#306FB6"/>
<path fill-rule="evenodd" clip-rule="evenodd" d="M97.1104 10.802H104.001V17.5546H97.1104V10.802Z" fill="#73C8DD"/>
<path fill-rule="evenodd" clip-rule="evenodd" d="M93.1004 10.8035H97.7015V14.5384H93.1004V10.8035Z" fill="#92C143"/>
<path fill-rule="evenodd" clip-rule="evenodd" d="M99.0703 4.47925H106.866V10.8512H99.0703V4.47925Z" fill="#5061AA"/>
<path fill-rule="evenodd" clip-rule="evenodd" d="M107.513 11.6287H113.194V18.5631H107.513V11.6287Z" fill="#169BD6"/>
<path fill-rule="evenodd" clip-rule="evenodd" d="M106.618 15.5757H111.48V21.6692H106.617L106.618 15.5757Z" fill="#F6A022"/>
<path fill-rule="evenodd" clip-rule="evenodd" d="M103.992 19.7024H107.59V23.2207H103.992V19.7024Z" fill="#D5262A"/>
<path fill-rule="evenodd" clip-rule="evenodd" d="M101.891 21.9116H106.534V24.4615H101.889L101.891 21.9116Z" fill="#199AA6"/>
<path fill-rule="evenodd" clip-rule="evenodd" d="M111.475 17.9456H112.469V20.9989H111.475V17.9456Z" fill="#A5BFDF"/>
<path fill-rule="evenodd" clip-rule="evenodd" d="M113.188 11.4141H115.788V13.0209H113.189L113.188 11.4141Z" fill="#3FB7AF"/>
<path fill-rule="evenodd" clip-rule="evenodd" d="M112.951 13.0198H114.826V14.0651H112.951V13.0198Z" fill="#AE2258"/>
<path fill-rule="evenodd" clip-rule="evenodd" d="M103.992 8.09351H107.517V14.2752H103.992V8.09351Z" fill="#79C199"/>
<path fill-rule="evenodd" clip-rule="evenodd" d="M107.513 5.60425H112.255V11.6275H107.515L107.513 5.60425Z" fill="#E5DF1F"/>
<path fill-rule="evenodd" clip-rule="evenodd" d="M106.86 4.47925H110.316V10.1266H106.86V4.47925Z" fill="#33BACF"/>
<path fill-rule="evenodd" clip-rule="evenodd" d="M111.533 9.97021H116.249V11.6295H111.533V9.97021Z" fill="#6CA9DB"/>
<path fill-rule="evenodd" clip-rule="evenodd" d="M112.261 6.33276H114.512V9.97203H112.261V6.33276Z" fill="#DE5097"/>
<path fill-rule="evenodd" clip-rule="evenodd" d="M113.836 7.47754H115.925V9.00374H113.836V7.47754Z" fill="#604596"/>
<path fill-rule="evenodd" clip-rule="evenodd" d="M113.299 9.00439H116.248V10.5297H113.299V9.00439Z" fill="#FAD803"/>
<path d="M105.072 2.82007H106.844V4.2544H105.072V2.82007ZM99.0703 2.86413H102.286V6.42933H99.0703V2.86413Z" fill="#5061AA"/>
<path fill-rule="evenodd" clip-rule="evenodd" d="M89.1382 2.86426H99.0848V10.8515H89.1382V2.86426Z" fill="#0BB8E7"/>
<path fill-rule="evenodd" clip-rule="evenodd" d="M94.2388 0.11084H97.7V4.61539H94.2388V0.11084Z" fill="#41AD4C"/>
<path fill-rule="evenodd" clip-rule="evenodd" d="M87.0464 10.1697H93.4681V12.6727H87.0464V10.1697Z" fill="#E7B720"/>
<path fill-rule="evenodd" clip-rule="evenodd" d="M102.281 0.519775H104.774V4.47965H102.281V0.519775Z" fill="#B9CF37"/>
<path fill-rule="evenodd" clip-rule="evenodd" d="M105.607 15.5757H106.617V16.5825H105.604L105.607 15.5757Z" fill="#92C143"/>
</svg>
