<svg width="120" height="31" viewBox="0 0 120 31" fill="none" xmlns="http://www.w3.org/2000/svg">
<path fill-rule="evenodd" clip-rule="evenodd" d="M96.0508 22.89L99.6629 8.92998H103.656C103.656 8.92998 104.669 8.83239 105.19 9.2452C105.711 9.65802 105.859 10.2959 105.859 10.2959L108.029 17.0517L110.86 8.93011H114.725C114.725 8.93011 115.686 8.93011 116.184 9.32041C116.682 9.7107 116.832 10.2961 116.832 10.2961L119.999 22.8903H116.247L113.417 12.1555L110.446 20.3388H106.469C106.469 20.3388 105.989 20.3857 105.531 20.0761C105.073 19.7665 105.059 19.4831 105.059 19.4831L102.637 12.1559L99.8587 22.8907L96.0508 22.89ZM58.8434 8.92818V11.7127L65.5451 12.163V22.8884H69.4157V12.163L76.1174 11.7127V8.92818H58.8434ZM47.7055 8.92818L40.7255 22.8882H45.0162L46.2355 20.3214H54.0179L55.2094 22.8882H59.4761L52.8541 9.84369C52.8541 9.84369 52.6377 9.36323 52.2625 9.14848C51.8872 8.93376 51.4923 8.928 51.4923 8.928H47.7054L47.7055 8.92818ZM50.0754 11.9428L52.6404 17.4845H47.4703L50.0754 11.9428ZM25.9851 8.92818V22.8882H37.7687L39.3749 19.6759H30.023V8.92804L25.9851 8.92818ZM82.5141 8.92818L75.5341 22.8882H79.8248L81.0441 20.3214H88.8265L90.018 22.8882H94.2847L87.6627 9.84369C87.6627 9.84369 87.4464 9.36323 87.0711 9.14848C86.6958 8.93376 86.301 8.928 86.301 8.928H82.514L82.5141 8.92818ZM84.884 11.9428L87.4491 17.4845H82.2789L84.8839 11.9428H84.884Z" fill="#2A0088"/>
<path fill-rule="evenodd" clip-rule="evenodd" d="M1.99667 13.4145L5.09426 12.5297C5.09426 12.5297 5.06107 12.3228 4.95002 12.2212C4.83897 12.1196 4.63916 12.0569 4.63916 12.0569L0.333852 10.493C0.333852 10.493 0.197179 10.4471 0.0972974 10.5024C-0.00258422 10.5577 0.00097332 10.7014 0.00097332 10.7014V12.7035C0.00097332 12.7035 -0.00974435 12.8952 0.26788 13.3248C0.545549 13.7545 1.2032 13.6451 1.2032 13.6451L1.99667 13.4145ZM14.3279 8.58388L17.2093 6.96956C17.2093 6.96956 17.2527 6.69063 17.1416 6.58903C17.0306 6.48744 16.8983 6.45623 16.8983 6.45623L4.45408 2.01546C4.45408 2.01546 4.31741 1.96952 4.21753 2.02482C4.11765 2.08012 4.1212 2.22387 4.1212 2.22387V3.95005C4.1212 3.95005 4.11949 4.35002 4.39712 4.77968C4.67479 5.20929 5.12529 5.32052 5.12529 5.32052L14.3279 8.58388ZM14.3279 13.6086L17.2093 12.1159C17.2093 12.1159 17.2707 11.7379 17.1596 11.6363C17.0485 11.5348 16.8983 11.4809 16.8983 11.4809L0.333627 5.46422C0.333627 5.46422 0.196954 5.41828 0.0970722 5.47358C-0.00280939 5.52888 0.000748153 5.67263 0.000748153 5.67263V7.39885C0.000748153 7.39885 -0.00096307 7.79883 0.276661 8.22848C0.55433 8.65809 1.00483 8.76932 1.00483 8.76932L14.3279 13.6086Z" fill="#ED1651"/>
<path fill-rule="evenodd" clip-rule="evenodd" d="M16.8983 6.45605C16.8983 6.45605 17.0665 6.48154 17.2091 6.62042C17.3518 6.7593 17.3534 6.92885 17.3534 6.92885V9.21442C17.3534 9.21442 17.3465 9.52668 17.2184 9.8075C17.0903 10.0883 16.9028 10.1547 16.9028 10.1547L16.5125 10.2965L4.07636 14.8137C4.07636 14.8137 4.01655 14.8322 3.93878 14.8322C3.86101 14.8322 3.80116 14.8137 3.80116 14.8137L0.336245 13.555C0.336245 13.555 0.250279 13.5351 0.128331 13.344C-0.00901722 13.1297 0.000889894 12.7041 0.000889894 12.7041C0.000889894 12.7041 0.0224153 12.9223 0.145759 13.0259C0.269102 13.1294 0.597748 13.0158 0.597748 13.0158L16.5126 7.23502C16.5126 7.23502 17.1445 6.97721 17.1445 6.71531C17.1445 6.53446 16.8984 6.45682 16.8984 6.45682L16.8983 6.45605ZM16.8983 11.4808C16.8983 11.4808 17.0665 11.5063 17.2091 11.6451C17.3518 11.784 17.3534 11.9536 17.3534 11.9536V14.2391C17.3534 14.2391 17.3465 14.5514 17.2184 14.8322C17.0903 15.113 16.9028 15.1794 16.9028 15.1794L16.5125 15.3212L4.07636 19.8384V16.7762L16.5125 12.259C16.5125 12.259 17.1444 12.0012 17.1444 11.7393C17.1444 11.5584 16.8983 11.4808 16.8983 11.4808V11.4808ZM10.7248 19.5253C10.8438 19.6444 10.8438 19.9063 10.8438 19.9063V21.6154C10.8438 21.6154 10.837 21.9277 10.7089 22.2085C10.5808 22.4893 10.3932 22.5557 10.3932 22.5557L10.0029 22.6975L4.07622 24.8504V21.7882L10.0029 19.6353C10.0029 19.6353 10.6058 19.4063 10.7248 19.5253ZM6.90155 25.9163C7.02057 26.0354 7.02057 26.2973 7.02057 26.2973V28.0064C7.02057 28.0064 7.01372 28.3187 6.88565 28.5995C6.75753 28.8803 6.56998 28.9467 6.56998 28.9467L6.17968 29.0885L4.07622 29.8904V26.8282L6.17968 26.0263C6.17968 26.0263 6.78253 25.7973 6.90155 25.9163Z" fill="#2A0088"/>
</svg>
