<svg width="25" height="26" viewBox="0 0 25 26" fill="none" xmlns="http://www.w3.org/2000/svg">
<g clip-path="url(#clip0_2245_29161)">
<path d="M12.5 1.8374C15.5784 1.8374 18.5307 3.06029 20.7075 5.23706C22.8842 7.41382 24.1071 10.3661 24.1071 13.4445C24.1071 16.523 22.8842 19.4753 20.7075 21.652C18.5307 23.8288 15.5784 25.0517 12.5 25.0517C9.42156 25.0517 6.46924 23.8288 4.29248 21.652C2.11571 19.4753 0.892822 16.523 0.892822 13.4445C0.892822 10.3661 2.11571 7.41382 4.29248 5.23706C6.46924 3.06029 9.42156 1.8374 12.5 1.8374ZM10.4214 3.84276L12.5 5.23026L14.5785 3.84455C13.2086 3.54913 11.7914 3.54913 10.4214 3.84455V3.84276ZM8.29104 4.56776C6.98812 5.1878 5.83722 6.08633 4.91961 7.1999L6.07497 10.957L7.87139 11.5553L11.6071 8.71597V6.78026L8.29104 4.56776ZM3.65711 9.16776C3.16346 10.1852 2.85047 11.2806 2.73211 12.4053L4.31246 11.2999L3.65711 9.16776ZM2.74282 14.5785C2.92139 16.1231 3.45711 17.5606 4.26604 18.8017H7.66604L8.79996 17.6678L7.33032 13.257L5.50175 12.6481L2.74282 14.5767V14.5785ZM5.76068 20.5874C6.48032 21.2695 7.30532 21.8428 8.20711 22.2803L7.45889 20.5874H5.76247H5.76068ZM10.5107 23.0642C11.8231 23.3343 13.1768 23.3343 14.4893 23.0642L15.9 19.8928L14.8089 18.8017H10.191L9.10175 19.891L10.5107 23.0642ZM16.791 22.2803C17.6888 21.8435 18.515 21.2727 19.241 20.5874H17.5446L16.791 22.2803ZM20.7321 18.8017C21.5178 17.5981 22.0464 16.2124 22.2393 14.7213L19.4821 12.6535L17.6696 13.257L16.2 17.6678L17.3339 18.8017H20.7321ZM22.2785 12.5195C22.1698 11.3454 21.8491 10.2007 21.3321 9.14097L20.6768 11.3195L22.2785 12.5195ZM20.0571 7.17133C19.1432 6.0708 18.0007 5.18238 16.7089 4.56776L13.3928 6.78026V8.71597L17.1285 11.5553L18.9214 10.9588L20.0571 7.17133ZM9.08568 12.8731L10.4643 17.016H14.5357L15.9143 12.8749L12.5 10.2803L9.08568 12.8767V12.8731Z" fill="#002E69"/>
</g>
<defs>
<clipPath id="clip0_2245_29161">
<rect width="25" height="25" fill="white" transform="translate(0 0.944336)"/>
</clipPath>
</defs>
</svg>
