<svg width="25" height="26" viewBox="0 0 25 26" fill="none" xmlns="http://www.w3.org/2000/svg">
<g clip-path="url(#clip0_2245_29177)">
<path fill-rule="evenodd" clip-rule="evenodd" d="M2.78571 4.51576V1.83719C2.78571 1.60039 2.87978 1.37329 3.04723 1.20585C3.21467 1.0384 3.44177 0.944336 3.67857 0.944336H23.3214C23.5582 0.944336 23.7853 1.0384 23.9528 1.20585C24.1202 1.37329 24.2143 1.60039 24.2143 1.83719V25.0515C24.2143 25.2883 24.1202 25.5154 23.9528 25.6828C23.7853 25.8503 23.5582 25.9443 23.3214 25.9443H3.67857C3.44177 25.9443 3.21467 25.8503 3.04723 25.6828C2.87978 25.5154 2.78571 25.2883 2.78571 25.0515V22.3729H1.89286C1.29762 22.3729 1 22.0753 1 21.4801C1 20.8848 1.29762 20.5872 1.89286 20.5872H2.78571V17.0158H1.89286C1.29762 17.0158 1 16.7181 1 16.1229C1 15.5277 1.29762 15.2301 1.89286 15.2301H2.78571V11.6586H1.89286C1.29762 11.6586 1 11.361 1 10.7658C1 10.1705 1.29762 9.87291 1.89286 9.87291H2.78571V6.30148H1.89286C1.29762 6.30148 1 6.00386 1 5.40862C1 4.81338 1.29762 4.51576 1.89286 4.51576H2.78571ZM4.57143 4.51576V2.73005H17.9643V24.1586L4.57143 24.1586V22.3729H5.46429C6.05952 22.3729 6.35714 22.0753 6.35714 21.4801C6.35714 20.8848 6.05952 20.5872 5.46429 20.5872H4.57143V17.0158H5.46429C6.05952 17.0158 6.35714 16.7181 6.35714 16.1229C6.35714 15.5277 6.05952 15.2301 5.46429 15.2301H4.57143V11.6586H5.46429C6.05952 11.6586 6.35714 11.361 6.35714 10.7658C6.35714 10.1705 6.05952 9.87291 5.46429 9.87291H4.57143V6.30148H5.46429C6.05952 6.30148 6.35714 6.00386 6.35714 5.40862C6.35714 4.81338 6.05952 4.51576 5.46429 4.51576H4.57143ZM19.75 24.1586L22.4286 24.1586V2.73005H19.75V24.1586Z" fill="#002E69"/>
</g>
<defs>
<clipPath id="clip0_2245_29177">
<rect width="25" height="25" fill="white" transform="translate(0 0.944336)"/>
</clipPath>
</defs>
</svg>
