<svg width="25" height="26" viewBox="0 0 25 26" fill="none" xmlns="http://www.w3.org/2000/svg">
<g clip-path="url(#clip0_2245_36817)">
<path fill-rule="evenodd" clip-rule="evenodd" d="M3.57141 9.87299C3.57141 8.88677 4.3709 8.08728 5.35713 8.08728H15.1786C16.1648 8.08728 16.9643 8.88677 16.9643 9.87299V17.0159C16.9643 18.0021 16.1648 18.8016 15.1786 18.8016H5.35713C4.3709 18.8016 3.57141 18.0021 3.57141 17.0159V9.87299ZM15.1786 9.87299H5.35713V17.0159H15.1786V9.87299Z" fill="#002E69"/>
<path d="M19.6429 8.98016C19.1497 8.98016 18.75 9.37991 18.75 9.87302C18.75 10.3661 19.1497 10.7659 19.6429 10.7659H20.5357C21.0288 10.7659 21.4286 10.3661 21.4286 9.87302C21.4286 9.37991 21.0288 8.98016 20.5357 8.98016H19.6429Z" fill="#002E69"/>
<path d="M19.6429 11.6587C19.1497 11.6587 18.75 12.0585 18.75 12.5516C18.75 13.0447 19.1497 13.4444 19.6429 13.4444H20.5357C21.0288 13.4444 21.4286 13.0447 21.4286 12.5516C21.4286 12.0585 21.0288 11.6587 20.5357 11.6587H19.6429Z" fill="#002E69"/>
<path fill-rule="evenodd" clip-rule="evenodd" d="M0 6.30158C0 5.31536 0.799491 4.51587 1.78571 4.51587H23.2143C24.2005 4.51587 25 5.31536 25 6.30158V20.5873C25 21.5735 24.2005 22.373 23.2143 22.373H1.78571C0.799491 22.373 0 21.5735 0 20.5873V6.30158ZM23.2143 6.30158H1.78571V20.5873H23.2143V6.30158Z" fill="#002E69"/>
</g>
<defs>
<clipPath id="clip0_2245_36817">
<rect width="25" height="25" fill="white" transform="translate(0 0.944336)"/>
</clipPath>
</defs>
</svg>
