<svg width="25" height="26" viewBox="0 0 25 26" fill="none" xmlns="http://www.w3.org/2000/svg">
<g clip-path="url(#clip0_2245_36104)">
<path d="M10.4555 0.967773C8.9777 0.993428 7.64295 1.90173 7.03914 3.3062L14.269 5.55675C14.5868 3.60314 13.448 1.70904 11.6154 1.13426C11.287 1.03164 10.9427 0.975415 10.5985 0.967773H10.4555ZM6.76372 4.24725C6.44062 6.20631 7.5794 8.10587 9.41732 8.67902C11.2605 9.25216 13.2256 8.3133 13.9989 6.49561L6.76372 4.24725ZM20.8262 6.66483C19.4862 6.67028 18.0614 7.33622 16.9862 8.90282L10.376 18.5589C8.60164 21.1463 9.37495 23.8537 11.1228 25.131C12.876 26.4137 15.6038 26.2664 17.3781 23.679L23.983 14.0284C25.7574 11.4356 24.9841 8.7336 23.2362 7.45085C22.5794 6.9705 21.7902 6.69212 20.9586 6.66483H20.8262ZM20.7309 7.60915C20.7997 7.60915 20.8686 7.60915 20.9321 7.61461C21.573 7.6419 22.1769 7.87662 22.6853 8.25325C24.0466 9.2467 24.7298 11.2281 23.1991 13.4607L19.7828 18.4552C17.8866 17.9312 15.4502 16.1463 14.3432 14.4705L17.7701 9.4705C18.6652 8.16592 19.7298 7.63098 20.7309 7.60915ZM3.77378 11.7685C3.26425 11.774 2.7616 11.8832 2.29444 12.096C0.540731 12.8875 -0.371875 14.9072 0.163082 16.8067L7.08681 13.6899C6.39296 12.4836 5.13236 11.7522 3.77378 11.7685ZM7.46287 14.5851L0.540201 17.7074C1.51743 19.4214 3.57516 20.1091 5.33893 19.3177C7.0974 18.5207 8.00842 16.4902 7.46287 14.5851Z" fill="#002E69"/>
</g>
<defs>
<clipPath id="clip0_2245_36104">
<rect width="25" height="25" fill="white" transform="translate(0 0.944336)"/>
</clipPath>
</defs>
</svg>
