<svg width="25" height="26" viewBox="0 0 25 26" fill="none" xmlns="http://www.w3.org/2000/svg">
<g clip-path="url(#clip0_2245_2186)">
<path fill-rule="evenodd" clip-rule="evenodd" d="M9.98963 3.7419C10.5687 3.1628 11.3541 2.83747 12.1731 2.83747C12.9921 2.83747 13.7775 3.1628 14.3566 3.7419C14.9357 4.321 15.261 5.10642 15.261 5.92538V6.36769C15.261 7.54295 15.7279 8.67007 16.5589 9.50111C17.39 10.3321 18.5171 10.799 19.6923 10.799C20.8676 10.799 21.9947 10.3321 22.8258 9.50111C23.6568 8.67007 24.1237 7.54295 24.1237 6.36769V3.71385C24.1237 3.22073 23.7239 2.82099 23.2308 2.82099C22.7377 2.82099 22.3379 3.22073 22.3379 3.71385V6.36769C22.3379 7.06935 22.0592 7.74227 21.5631 8.23842C21.0669 8.73456 20.394 9.0133 19.6923 9.0133C18.9907 9.0133 18.3178 8.73456 17.8216 8.23842C17.3255 7.74227 17.0467 7.06935 17.0467 6.36769V5.92538C17.0467 4.63282 16.5333 3.39319 15.6193 2.47921C14.7053 1.56523 13.4657 1.05176 12.1731 1.05176C10.8805 1.05176 9.64092 1.56523 8.72694 2.47921C7.90697 3.29918 7.40936 4.38124 7.31566 5.5285C3.81629 5.96034 1.10718 8.94377 1.10718 12.56V18.7523C1.10718 22.6653 4.27931 25.8374 8.19234 25.8374C12.1054 25.8374 15.2775 22.6653 15.2775 18.7523V12.56C15.2775 8.95795 12.5896 5.98373 9.11013 5.53369C9.19637 4.8592 9.50364 4.22789 9.98963 3.7419ZM7.29949 7.3354C4.80044 7.75941 2.89686 9.9329 2.8929 12.5518H7.29949V7.3354ZM2.89289 14.3375V18.7523C2.89289 21.6791 5.26554 24.0517 8.19234 24.0517C11.1191 24.0517 13.4918 21.6791 13.4918 18.7523V14.3375H2.89289ZM13.4918 12.5518H9.0852V7.3354C11.5842 7.75941 13.4878 9.9329 13.4918 12.5518Z" fill="#002E69"/>
</g>
<defs>
<clipPath id="clip0_2245_2186">
<rect width="25" height="25" fill="white" transform="translate(0 0.944336)"/>
</clipPath>
</defs>
</svg>
