<svg width="25" height="26" viewBox="0 0 25 26" fill="none" xmlns="http://www.w3.org/2000/svg">
<g clip-path="url(#clip0_2245_36061)">
<path d="M5.3473 20.5969L0.902859 18.1664L2.36119 16.7081L5.83341 17.1942L11.2501 11.7775L0.416748 5.87473L2.36119 3.93028L15.6251 7.33306L21.0765 1.95112C21.47 1.5576 21.9621 1.36084 22.5529 1.36084C23.1436 1.36084 23.6353 1.5576 24.0279 1.95112C24.4214 2.34464 24.6181 2.83677 24.6181 3.42751C24.6181 4.01825 24.4214 4.50991 24.0279 4.90251L18.6112 10.3192L22.014 23.5831L20.0695 25.5275L14.1667 14.6942L8.75008 20.1108L9.23619 23.5831L7.77786 25.0414L5.3473 20.5969Z" fill="#002E69"/>
</g>
<defs>
<clipPath id="clip0_2245_36061">
<rect width="25" height="25" fill="white" transform="translate(0 0.944336)"/>
</clipPath>
</defs>
</svg>
