<svg width="25" height="26" viewBox="0 0 25 26" fill="none" xmlns="http://www.w3.org/2000/svg">
<g clip-path="url(#clip0_2245_9924)">
<path d="M6 0.944336V25.9443H19.4701V0.944336H6ZM11.5809 2.05298H13.8869C14.0045 2.05298 14.1173 2.0997 14.2005 2.18287C14.2837 2.26603 14.3304 2.37883 14.3304 2.49644C14.3304 2.61406 14.2837 2.72685 14.2005 2.81002C14.1173 2.89318 14.0045 2.9399 13.8869 2.9399H11.5809C11.4633 2.9399 11.3505 2.89318 11.2674 2.81002C11.1842 2.72685 11.1375 2.61406 11.1375 2.49644C11.1375 2.37883 11.1842 2.26603 11.2674 2.18287C11.3505 2.0997 11.4633 2.05298 11.5809 2.05298ZM12.7073 25.3629C12.4962 25.3629 12.2897 25.3002 12.1142 25.1829C11.9386 25.0656 11.8018 24.8989 11.721 24.7038C11.6402 24.5087 11.619 24.294 11.6602 24.0869C11.7014 23.8798 11.8031 23.6896 11.9524 23.5403C12.1017 23.391 12.2919 23.2893 12.499 23.2481C12.7061 23.2069 12.9208 23.2281 13.1159 23.3089C13.311 23.3897 13.4777 23.5265 13.595 23.7021C13.7123 23.8777 13.7749 24.0841 13.7749 24.2952C13.7749 24.5784 13.6625 24.8499 13.4622 25.0501C13.262 25.2504 12.9905 25.3629 12.7073 25.3629ZM18.5277 22.8956H6.83149V3.88225H18.5277V22.8956Z" fill="#002E69"/>
</g>
<defs>
<clipPath id="clip0_2245_9924">
<rect width="25" height="25" fill="white" transform="translate(0 0.944336)"/>
</clipPath>
</defs>
</svg>
