<svg width="25" height="26" viewBox="0 0 25 26" fill="none" xmlns="http://www.w3.org/2000/svg">
<g clip-path="url(#clip0_2245_8903)">
<path d="M23.465 11.1381L21.755 6.00809C21.5069 5.26119 21.0298 4.61146 20.3914 4.15122C19.753 3.69098 18.9858 3.44364 18.1987 3.44434H15V0.944336H10V3.44434H6.80125C6.01424 3.44364 5.24702 3.69098 4.60861 4.15122C3.97019 4.61146 3.49306 5.26119 3.245 6.00809L1.535 11.1381C1.08028 11.3284 0.691951 11.6488 0.418833 12.0591C0.145716 12.4695 -6.01125e-07 12.9514 0 13.4443V19.6943C0 20.6168 0.505 21.4143 1.25 21.8481V24.6943C1.25 25.0259 1.3817 25.3438 1.61612 25.5782C1.85054 25.8126 2.16848 25.9443 2.5 25.9443H3.75C4.08152 25.9443 4.39946 25.8126 4.63388 25.5782C4.8683 25.3438 5 25.0259 5 24.6943V22.1943H20V24.6943C20 25.0259 20.1317 25.3438 20.3661 25.5782C20.6005 25.8126 20.9185 25.9443 21.25 25.9443H22.5C22.8315 25.9443 23.1495 25.8126 23.3839 25.5782C23.6183 25.3438 23.75 25.0259 23.75 24.6943V21.8481C24.1292 21.6306 24.4445 21.317 24.6639 20.9389C24.8834 20.5608 24.9993 20.1315 25 19.6943V13.4443C25 12.9514 24.8543 12.4695 24.5812 12.0591C24.308 11.6488 23.9197 11.3284 23.465 11.1381ZM6.80125 5.94434H18.1975C18.7362 5.94434 19.2138 6.28684 19.3838 6.79934L20.7663 10.9443H4.23375L5.615 6.79934C5.69794 6.55033 5.85715 6.33374 6.07006 6.18028C6.28298 6.02682 6.53879 5.94427 6.80125 5.94434ZM4.375 18.4443C4.12869 18.4443 3.88481 18.3957 3.65728 18.3013C3.42975 18.207 3.22303 18.0688 3.04892 17.8945C2.87481 17.7203 2.73672 17.5135 2.64253 17.2859C2.54835 17.0583 2.49992 16.8144 2.5 16.5681C2.50008 16.3218 2.54868 16.0779 2.64301 15.8504C2.73735 15.6228 2.87557 15.4161 3.0498 15.242C3.22403 15.0679 3.43084 14.9298 3.65843 14.8356C3.88602 14.7414 4.12994 14.693 4.37625 14.6931C4.8737 14.6933 5.3507 14.891 5.70233 15.2429C6.05396 15.5948 6.25142 16.0719 6.25125 16.5693C6.25108 17.0668 6.05332 17.5438 5.70145 17.8954C5.34959 18.2471 4.87245 18.4445 4.375 18.4443ZM20.625 18.4443C20.3787 18.4443 20.1348 18.3957 19.9073 18.3013C19.6797 18.207 19.473 18.0688 19.2989 17.8945C19.1248 17.7203 18.9867 17.5135 18.8925 17.2859C18.7984 17.0583 18.7499 16.8144 18.75 16.5681C18.7501 16.3218 18.7987 16.0779 18.893 15.8504C18.9873 15.6228 19.1256 15.4161 19.2998 15.242C19.474 15.0679 19.6808 14.9298 19.9084 14.8356C20.136 14.7414 20.3799 14.693 20.6262 14.6931C21.1237 14.6933 21.6007 14.891 21.9523 15.2429C22.304 15.5948 22.5014 16.0719 22.5012 16.5693C22.5011 17.0668 22.3033 17.5438 21.9515 17.8954C21.5996 18.2471 21.1224 18.4445 20.625 18.4443Z" fill="#002E69"/>
</g>
<defs>
<clipPath id="clip0_2245_8903">
<rect width="25" height="25" fill="white" transform="translate(0 0.944336)"/>
</clipPath>
</defs>
</svg>
