<svg width="25" height="26" viewBox="0 0 25 26" fill="none" xmlns="http://www.w3.org/2000/svg">
<g clip-path="url(#clip0_2245_4295)">
<path d="M3.57722 3.28807L3.65895 2.62702C3.71751 2.16218 3.94375 1.73471 4.29519 1.42488C4.64662 1.11505 5.09908 0.944175 5.56759 0.944336H19.5098C19.9783 0.944175 20.4308 1.11505 20.7822 1.42488C21.1336 1.73471 21.3599 2.16218 21.4184 2.62702L21.5002 3.28687C21.5087 3.35486 21.5027 3.42389 21.4824 3.48935C21.4621 3.5548 21.428 3.61516 21.3825 3.66638C21.337 3.7176 21.281 3.75849 21.2184 3.78632C21.1558 3.81415 21.0879 3.82827 21.0194 3.82773H4.05438C3.98627 3.82773 3.91894 3.81326 3.85684 3.78528C3.79475 3.7573 3.73931 3.71644 3.69419 3.66542C3.64908 3.6144 3.61532 3.55437 3.59515 3.48932C3.57499 3.42426 3.56887 3.35566 3.57722 3.28807ZM17.4665 5.752C17.6809 6.5773 18.163 7.30819 18.8372 7.83018C19.5115 8.35217 20.3398 8.63578 21.1925 8.63659H21.624C21.6925 8.63713 21.7603 8.62301 21.823 8.59518C21.8856 8.56736 21.9415 8.52646 21.9871 8.47524C22.0326 8.42402 22.0666 8.36366 22.0869 8.29821C22.1072 8.23276 22.1133 8.16372 22.1047 8.09573L21.8643 6.17267C21.8496 6.05584 21.7926 5.94847 21.7039 5.87093C21.6153 5.79339 21.5013 5.75107 21.3836 5.752H17.4665ZM3.45342 8.63659H3.88491C4.73759 8.63578 5.56593 8.35217 6.24017 7.83018C6.91441 7.30819 7.39647 6.5773 7.61084 5.752H3.6938C3.57605 5.75107 3.46206 5.79339 3.37345 5.87093C3.28483 5.94847 3.22775 6.05584 3.21304 6.17267L2.97265 8.09573C2.96408 8.16372 2.97015 8.23276 2.99044 8.29821C3.01074 8.36366 3.04479 8.42402 3.09032 8.47524C3.13584 8.52646 3.1918 8.56736 3.25442 8.59518C3.31704 8.62301 3.38489 8.63713 3.45342 8.63659ZM24.0627 23.7807L22.4617 10.9803C22.447 10.8635 22.3899 10.7561 22.3013 10.6786C22.2127 10.6011 22.0987 10.5587 21.9809 10.5597H21.1925C19.8297 10.5577 18.5115 10.0742 17.4708 9.19444C16.4301 8.3147 15.7338 7.0954 15.505 5.752H13.5002V10.5272C13.5033 10.7753 13.4124 11.0153 13.2459 11.1992C13.0794 11.3831 12.8495 11.4973 12.6024 11.5188C12.4709 11.5275 12.339 11.5091 12.2148 11.4647C12.0907 11.4203 11.9771 11.3509 11.8809 11.2607C11.7848 11.1705 11.7082 11.0616 11.6559 10.9405C11.6037 10.8195 11.5769 10.6891 11.5772 10.5573V5.752H9.57237C9.34359 7.0954 8.64732 8.3147 7.60659 9.19444C6.56585 10.0742 5.24765 10.5577 3.88491 10.5597H3.09284C2.9751 10.5587 2.86111 10.6011 2.77249 10.6786C2.68387 10.7561 2.62679 10.8635 2.61208 10.9803L1.01473 23.7807C0.971523 24.1278 1.02378 24.4801 1.16589 24.7997C1.308 25.1192 1.53457 25.394 1.82122 25.5944C2.15907 25.8265 2.56036 25.9487 2.97025 25.9442H7.81397C8.24163 25.9442 8.65712 25.8017 8.99473 25.5392C9.33235 25.2767 9.57282 24.9092 9.67814 24.4947L12.5387 13.437L15.398 24.4874C15.502 24.9035 15.7421 25.2728 16.0801 25.5368C16.4181 25.8007 16.8346 25.9441 17.2634 25.9442H22.1071C22.5168 25.9495 22.9181 25.8282 23.2562 25.5968C23.5432 25.3962 23.77 25.121 23.9122 24.801C24.0543 24.481 24.1063 24.1282 24.0627 23.7807Z" fill="#002E69"/>
</g>
<defs>
<clipPath id="clip0_2245_4295">
<rect width="25" height="25" fill="white" transform="translate(0 0.944336)"/>
</clipPath>
</defs>
</svg>
