<svg width="25" height="26" viewBox="0 0 25 26" fill="none" xmlns="http://www.w3.org/2000/svg">
<path d="M17.5 7.19434H20V24.6943H5V7.19434H7.5V5.94434C7.5 5.28129 7.76339 4.64541 8.23223 4.17657C8.70107 3.70773 9.33696 3.44434 10 3.44434H15C15.663 3.44434 16.2989 3.70773 16.7678 4.17657C17.2366 4.64541 17.5 5.28129 17.5 5.94434V7.19434ZM21.25 7.19434H22.5C23.163 7.19434 23.7989 7.45773 24.2678 7.92657C24.7366 8.39541 25 9.03129 25 9.69434V22.1943C25 22.8574 24.7366 23.4933 24.2678 23.9621C23.7989 24.4309 23.163 24.6943 22.5 24.6943H21.25V7.19434ZM3.75 7.19434V24.6943H2.5C1.83696 24.6943 1.20107 24.4309 0.732233 23.9621C0.263392 23.4933 0 22.8574 0 22.1943V9.69434C0 8.31934 1.125 7.19434 2.5 7.19434H3.75ZM10 5.94434V7.19434H15V5.94434H10Z" fill="#002E69"/>
</svg>
