<svg width="25" height="26" viewBox="0 0 25 26" fill="none" xmlns="http://www.w3.org/2000/svg">
<g clip-path="url(#clip0_2245_3733)">
<path d="M23.6911 4.94434H1.30885C0.589062 4.94434 0 5.59902 0 6.24642C0 6.89382 0.589062 7.54798 1.30885 7.54798H1.625V10.1521H23.4068V7.54798H23.6911C24.4115 7.54798 25 6.89382 25 6.24642C25 5.59902 24.4115 4.94434 23.6911 4.94434ZM12.5 8.861C12.1385 8.861 11.8458 8.55944 11.8458 8.18809C11.8458 7.81673 12.1385 7.51517 12.5 7.51517C12.862 7.51517 13.1542 7.81673 13.1542 8.18809C13.1542 8.55944 12.862 8.861 12.5 8.861ZM1.625 15.36H23.4068V11.1943H1.625V15.36ZM12.5 12.561C12.862 12.561 13.1542 12.862 13.1542 13.2334C13.1542 13.6053 12.862 13.9063 12.5 13.9063C12.1385 13.9063 11.8458 13.6053 11.8458 13.2334C11.8453 12.862 12.1385 12.561 12.5 12.561ZM1.625 18.9521V21.9803C1.625 22.3501 1.67135 22.6532 2.03125 22.6532H4.64792C5.00781 22.6532 5.17083 22.3501 5.17083 21.9803V20.048H19.8609V21.9803C19.8609 22.3501 19.9922 22.6532 20.3516 22.6532H22.9688C23.3276 22.6532 23.4062 22.3501 23.4062 21.9803V16.4027H1.625V18.9521ZM12.5 17.6068C12.862 17.6068 13.1542 17.9084 13.1542 18.2792C13.1542 18.6516 12.862 18.9516 12.5 18.9516C12.1385 18.9516 11.8458 18.6516 11.8458 18.2792C11.8453 17.9089 12.1385 17.6068 12.5 17.6068Z" fill="#002E69"/>
</g>
<defs>
<clipPath id="clip0_2245_3733">
<rect width="25" height="25" fill="white" transform="translate(0 0.944336)"/>
</clipPath>
</defs>
</svg>
