<svg width="25" height="26" viewBox="0 0 25 26" fill="none" xmlns="http://www.w3.org/2000/svg">
<g clip-path="url(#clip0_2245_1383)">
<path d="M24.3293 12.5584C23.2245 7.56387 21.5619 4.8981 19.0957 4.16993C18.5772 4.01786 18.0395 3.94189 17.4992 3.9444C16.7851 3.9444 16.1632 4.11836 15.5054 4.30275C14.7126 4.52516 13.812 4.77778 12.4989 4.77778C11.1858 4.77778 10.2847 4.52568 9.49042 4.30327C8.83205 4.11836 8.21066 3.9444 7.49864 3.9444C6.93997 3.94246 6.38375 4.01819 5.84594 4.16941C3.39267 4.89445 1.73112 7.55919 0.610222 12.5553C-0.595055 17.9317 -0.00179202 21.3261 2.27386 22.1137C2.58579 22.2236 2.914 22.2803 3.24475 22.2814C4.80369 22.2814 6.05376 20.9829 6.90798 19.9198C7.87314 18.7166 9.00289 18.1061 12.4989 18.1061C15.6215 18.1061 16.9138 18.5296 18.03 19.9198C18.7316 20.7938 19.3946 21.4053 20.0561 21.7902C20.9359 22.3017 21.8151 22.4152 22.6688 22.122C24.0137 21.6631 24.7845 20.45 24.9606 18.5155C25.0944 17.0321 24.8882 15.0836 24.3293 12.5584ZM9.99878 12.2782H8.33202V13.945C8.33202 14.166 8.24422 14.378 8.08793 14.5343C7.93164 14.6905 7.71967 14.7784 7.49864 14.7784C7.27761 14.7784 7.06564 14.6905 6.90935 14.5343C6.75306 14.378 6.66526 14.166 6.66526 13.945V12.2782H4.9985C4.77747 12.2782 4.5655 12.1904 4.40921 12.0341C4.25292 11.8778 4.16511 11.6659 4.16511 11.4448C4.16511 11.2238 4.25292 11.0118 4.40921 10.8555C4.5655 10.6992 4.77747 10.6114 4.9985 10.6114H6.66526V8.94468C6.66526 8.72366 6.75306 8.51168 6.90935 8.35539C7.06564 8.1991 7.27761 8.1113 7.49864 8.1113C7.71967 8.1113 7.93164 8.1991 8.08793 8.35539C8.24422 8.51168 8.33202 8.72366 8.33202 8.94468V10.6114H9.99878C10.2198 10.6114 10.4318 10.6992 10.5881 10.8555C10.7444 11.0118 10.8322 11.2238 10.8322 11.4448C10.8322 11.6659 10.7444 11.8778 10.5881 12.0341C10.4318 12.1904 10.2198 12.2782 9.99878 12.2782ZM14.374 12.4866C14.168 12.4866 13.9666 12.4255 13.7953 12.311C13.624 12.1965 13.4905 12.0338 13.4116 11.8435C13.3328 11.6531 13.3121 11.4437 13.3523 11.2416C13.3925 11.0395 13.4917 10.8539 13.6374 10.7082C13.7831 10.5625 13.9687 10.4633 14.1708 10.4231C14.3729 10.3829 14.5823 10.4036 14.7727 10.4824C14.963 10.5612 15.1257 10.6948 15.2402 10.8661C15.3547 11.0374 15.4158 11.2388 15.4158 11.4448C15.4158 11.7211 15.306 11.9861 15.1106 12.1814C14.9153 12.3768 14.6503 12.4866 14.374 12.4866ZM16.6658 14.7784C16.4597 14.7784 16.2582 14.7172 16.0868 14.6026C15.9154 14.488 15.7819 14.3252 15.7032 14.1347C15.6244 13.9442 15.6039 13.7346 15.6443 13.5324C15.6847 13.3303 15.7842 13.1447 15.9301 12.9991C16.0761 12.8535 16.262 12.7545 16.4642 12.7146C16.6665 12.6747 16.876 12.6957 17.0663 12.7749C17.2566 12.8542 17.4191 12.9881 17.5333 13.1598C17.6474 13.3314 17.7081 13.5331 17.7076 13.7392C17.7069 14.0151 17.5968 14.2794 17.4015 14.4742C17.2062 14.669 16.9417 14.7784 16.6658 14.7784ZM16.6658 10.1948C16.4598 10.1948 16.2584 10.1337 16.0871 10.0192C15.9158 9.90473 15.7822 9.74203 15.7034 9.55168C15.6246 9.36133 15.6039 9.15187 15.6441 8.9498C15.6843 8.74772 15.7835 8.5621 15.9292 8.41642C16.0749 8.27073 16.2605 8.17151 16.4626 8.13132C16.6647 8.09112 16.8741 8.11175 17.0645 8.1906C17.2548 8.26944 17.4175 8.40297 17.532 8.57428C17.6465 8.74559 17.7076 8.94699 17.7076 9.15303C17.7076 9.42931 17.5978 9.69428 17.4024 9.88964C17.2071 10.085 16.9421 10.1948 16.6658 10.1948ZM18.9576 12.4866C18.7516 12.4866 18.5502 12.4255 18.3789 12.311C18.2076 12.1965 18.074 12.0338 17.9952 11.8435C17.9164 11.6531 17.8957 11.4437 17.9359 11.2416C17.9761 11.0395 18.0753 10.8539 18.221 10.7082C18.3667 10.5625 18.5523 10.4633 18.7544 10.4231C18.9565 10.3829 19.1659 10.4036 19.3563 10.4824C19.5466 10.5612 19.7093 10.6948 19.8238 10.8661C19.9383 11.0374 19.9994 11.2388 19.9994 11.4448C19.9994 11.7211 19.8896 11.9861 19.6942 12.1814C19.4989 12.3768 19.2339 12.4866 18.9576 12.4866Z" fill="#002E69"/>
</g>
<defs>
<clipPath id="clip0_2245_1383">
<rect width="25" height="25" fill="white" transform="translate(0 0.944336)"/>
</clipPath>
</defs>
</svg>
