<svg width="25" height="26" viewBox="0 0 25 26" fill="none" xmlns="http://www.w3.org/2000/svg">
<g clip-path="url(#clip0_2245_2676)">
<path d="M9.42071e-08 17.6528C-5.28367e-05 17.2885 0.022199 16.9245 0.0666309 16.5629L0.275323 16.6471C0.736508 16.8404 1.19103 17.0492 1.63811 17.2732L1.78897 17.3473C2.24156 17.5686 2.73186 17.8075 3.2473 18.0363C4.40266 18.548 5.73527 19.0282 7.26275 19.2004C9.36868 19.4367 10.9924 18.6946 12.3672 18.0662L12.3694 18.0652L12.5077 18.0023C13.9434 17.3461 15.1315 16.8445 16.6891 17.1035C17.9551 17.3134 19.0652 17.6667 19.6573 17.9961L20.0961 18.2399C19.9528 20.4149 19.0224 22.3924 17.5666 23.9224C16.9997 24.517 16.7167 24.8138 15.5312 25.3229C14.3445 25.8308 13.5273 25.8308 11.8904 25.8308H8.22449C6.58764 25.8308 5.77047 25.8308 4.58369 25.3229C3.39817 24.8138 3.1153 24.5171 2.54957 23.9224C0.963002 22.2566 9.42071e-08 20.0603 9.42071e-08 17.6528Z" fill="#002E69"/>
<path d="M13.8252 4.773C13.8076 3.60382 13.7209 2.94128 13.2759 2.4975C12.724 1.94434 11.8351 1.94434 10.0575 1.94434C8.27981 1.94434 7.39224 1.94434 6.83656 2.4975C6.58513 2.74893 6.44809 3.07077 6.37392 3.51582H6.42169C6.54908 3.51393 6.6765 3.51435 6.80388 3.51707C7.02335 3.51946 7.24151 3.55117 7.45258 3.61136C7.7621 3.70152 8.03196 3.89384 8.21821 4.15698C8.4269 4.45745 8.48599 4.79311 8.48599 5.08729C8.48599 5.38148 8.4269 5.71714 8.21821 6.01635C8.00323 6.32688 7.70779 6.48403 7.45384 6.56323C7.21623 6.63614 6.97988 6.65249 6.80513 6.65877C6.68444 6.66129 6.54238 6.66003 6.42043 6.65877H6.28592V7.58155C7.46767 7.18679 8.73742 6.97307 10.0575 6.97307C11.3392 6.97151 12.6128 7.17698 13.829 7.58155V6.65877H15.4885C16.3177 6.65903 17.1355 6.85228 17.8771 7.22325L19.0036 7.78647C19.0426 8.7545 19.6825 9.77156 20.7435 10.3851C22.2459 11.2525 24.0285 10.981 24.7225 9.7791C25.4177 8.57598 24.7615 6.89764 23.2579 6.03018C22.0347 5.32364 20.6279 5.37142 19.7717 6.06161L18.7207 5.53611C17.7171 5.03434 16.6105 4.77307 15.4885 4.773H13.8252Z" fill="#002E69"/>
<path d="M10.0574 8.23029C5.60069 8.23029 1.82285 10.9458 0.502808 14.7048L0.981794 14.8996C1.48343 15.109 1.97779 15.3355 2.46401 15.5785L2.61613 15.6527C3.06998 15.8752 3.52885 16.099 4.01161 16.3127C5.0777 16.7854 6.21293 17.1839 7.47389 17.326C9.05668 17.5045 10.2598 16.9551 11.7106 16.2926L11.7244 16.2863C13.1513 15.6351 14.8171 14.8808 16.9983 15.2429C18.0795 15.4226 19.1481 15.7105 19.9715 16.0575C19.1619 11.6134 15.0321 8.23029 10.0574 8.23029Z" fill="#002E69"/>
</g>
<defs>
<clipPath id="clip0_2245_2676">
<rect width="25" height="25" fill="white" transform="translate(0 0.944336)"/>
</clipPath>
</defs>
</svg>
