<svg width="25" height="26" viewBox="0 0 25 26" fill="none" xmlns="http://www.w3.org/2000/svg">
<g clip-path="url(#clip0_2245_8045)">
<path d="M17.7084 23.3471C16.5556 23.3471 15.625 22.1804 15.625 20.736C15.625 19.3054 16.5556 18.1388 17.7084 18.1388C18.8611 18.1388 19.7917 19.3054 19.7917 20.736C19.7917 22.1804 18.8611 23.3471 17.7084 23.3471ZM12.5 12.4027C10.7778 12.4027 9.37502 11.236 9.37502 9.80545C9.37502 8.361 10.7778 7.19434 12.5 7.19434C14.2222 7.19434 15.625 8.361 15.625 9.80545C15.625 11.236 14.2222 12.4027 12.5 12.4027ZM7.29168 23.3471C6.13891 23.3471 5.20835 22.1804 5.20835 20.736C5.20835 19.3054 6.13891 18.1388 7.29168 18.1388C8.44446 18.1388 9.37502 19.3054 9.37502 20.736C9.37502 22.1804 8.44446 23.3471 7.29168 23.3471ZM12.5 8.236C13.0695 8.236 13.5417 8.70822 13.5417 9.27767C13.5417 9.84711 13.0695 10.3193 12.5 10.3193C11.9306 10.3193 11.4584 9.84711 11.4584 9.27767C11.4584 8.70822 11.9306 8.236 12.5 8.236ZM21.875 13.4443C21.4306 13.4443 21 13.5416 20.6111 13.7221C19.9445 12.8749 19.0417 12.1527 17.9584 11.5971C18.75 10.486 19.2222 9.13878 19.2222 7.68045V7.59711C20.7361 7.27767 21.875 5.93045 21.875 4.30545C21.875 2.45822 20.3611 0.944336 18.5139 0.944336C17.5556 0.944336 16.6667 1.34711 16.0834 1.986C15.012 1.3057 13.7691 0.944439 12.5 0.944439C11.2309 0.944439 9.98804 1.3057 8.91668 1.986C8.33335 1.34711 7.44446 0.944336 6.48613 0.944336C4.63891 0.944336 3.12502 2.45822 3.12502 4.30545C3.12502 5.91656 4.26391 7.26378 5.76391 7.59711V7.68045C5.76391 9.13878 6.25002 10.4999 7.0278 11.5971C5.95835 12.1527 5.05557 12.8749 4.38891 13.7221C3.91427 13.5083 3.39358 13.417 2.87452 13.4566C2.35546 13.4962 1.85463 13.6654 1.41792 13.9487C0.981197 14.232 0.622551 14.6204 0.374832 15.0782C0.127112 15.5361 -0.00176066 16.0488 1.81678e-05 16.5693C1.81678e-05 18.3054 1.38891 19.6943 3.12502 19.6943H3.20835C3.1528 20.0277 3.12502 20.3888 3.12502 20.736C3.12502 23.611 4.98613 25.9443 7.29168 25.9443C8.69446 25.9443 9.93057 25.0693 10.6945 23.736C11.2778 23.8193 11.875 23.861 12.5 23.861C13.125 23.861 13.7222 23.8193 14.3056 23.736C15.0695 25.0693 16.3056 25.9443 17.7084 25.9443C20.0139 25.9443 21.875 23.611 21.875 20.736C21.875 20.3888 21.8472 20.0277 21.7917 19.6943H21.875C23.6111 19.6943 25 18.3054 25 16.5693C25 14.8332 23.6111 13.4443 21.875 13.4443Z" fill="#002E69"/>
</g>
<defs>
<clipPath id="clip0_2245_8045">
<rect width="25" height="25" fill="white" transform="translate(0 0.944336)"/>
</clipPath>
</defs>
</svg>
