<svg width="25" height="26" viewBox="0 0 25 26" fill="none" xmlns="http://www.w3.org/2000/svg">
<g clip-path="url(#clip0_2245_9227)">
<path d="M6.03568 0.944336C5.79888 0.944336 5.57178 1.0384 5.40433 1.20585C5.23689 1.37329 5.14282 1.60039 5.14282 1.83719V10.7658C5.14223 12.506 5.77692 14.1865 6.92773 15.4919C8.07853 16.7972 9.66628 17.6375 11.3928 17.8551V24.1586H8.71425C8.47745 24.1586 8.25035 24.2527 8.08291 24.4201C7.91546 24.5876 7.82139 24.8147 7.82139 25.0515C7.82139 25.2883 7.91546 25.5154 8.08291 25.6828C8.25035 25.8503 8.47745 25.9443 8.71425 25.9443H15.8571C16.0939 25.9443 16.321 25.8503 16.4885 25.6828C16.6559 25.5154 16.75 25.2883 16.75 25.0515C16.75 24.8147 16.6559 24.5876 16.4885 24.4201C16.321 24.2527 16.0939 24.1586 15.8571 24.1586H13.1785V17.8551C14.9051 17.6375 16.4928 16.7972 17.6436 15.4919C18.7944 14.1865 19.4291 12.506 19.4285 10.7658V1.83719C19.4285 1.60039 19.3345 1.37329 19.167 1.20585C18.9996 1.0384 18.7725 0.944336 18.5357 0.944336H6.03568ZM6.92854 6.30148V2.73005H17.6428V6.30148H6.92854ZM17.166 10.414C17.0517 11.4447 16.614 12.4128 15.9157 13.1795C15.2173 13.9462 14.2942 14.4721 13.2785 14.6818C13.0465 14.7297 12.8049 14.6834 12.607 14.5531C12.4091 14.4228 12.271 14.2193 12.2232 13.9872C12.1753 13.7551 12.2217 13.5136 12.3519 13.3156C12.4822 13.1177 12.6858 12.9797 12.9178 12.9318C13.5638 12.7983 14.1509 12.4638 14.5952 11.9763C15.0394 11.4887 15.318 10.8731 15.391 10.2176C15.4039 10.101 15.4397 9.98814 15.4962 9.88539C15.5527 9.78265 15.6289 9.69205 15.7204 9.61876C15.812 9.54547 15.917 9.49092 16.0296 9.45824C16.1423 9.42555 16.2602 9.41537 16.3768 9.42826C16.4933 9.44116 16.6062 9.47689 16.7089 9.53341C16.8116 9.58992 16.9022 9.66612 16.9755 9.75766C17.0488 9.84919 17.1034 9.95426 17.1361 10.0669C17.1688 10.1795 17.1789 10.2974 17.166 10.414Z" fill="#002E69"/>
</g>
<defs>
<clipPath id="clip0_2245_9227">
<rect width="25" height="25" fill="white" transform="translate(0 0.944336)"/>
</clipPath>
</defs>
</svg>
