<svg width="25" height="26" viewBox="0 0 25 26" fill="none" xmlns="http://www.w3.org/2000/svg">
<g clip-path="url(#clip0_2245_20369)">
<path fill-rule="evenodd" clip-rule="evenodd" d="M1.87507 0.944336C0.888847 0.944336 0.0893555 1.74383 0.0893555 2.73005V24.1586C0.0893555 25.1448 0.888847 25.9443 1.87507 25.9443H6.33936C6.66462 25.9443 6.96957 25.8574 7.23223 25.7054C7.49488 25.8574 7.79982 25.9443 8.12507 25.9443H12.5894C13.5756 25.9443 14.3751 25.1448 14.3751 24.1586V10.2419L17.9205 24.4094C18.16 25.3661 19.1296 25.9476 20.0863 25.7081L23.5509 24.8411C24.5077 24.6017 25.0891 23.632 24.8497 22.6753L23.9726 19.1705C23.9684 19.142 23.9627 19.1134 23.9556 19.0849C23.9484 19.0562 23.9399 19.0282 23.9302 19.0009L20.5146 5.35236C20.2751 4.39564 19.3055 3.81416 18.3488 4.05358L14.8842 4.92061C14.5796 4.99682 14.3131 5.14702 14.099 5.34723C13.7825 4.84751 13.2247 4.51575 12.5894 4.51575H8.12507L8.12507 2.73005C8.12507 1.74383 7.32558 0.944336 6.33936 0.944336H1.87507ZM22.0023 18.6529L18.7823 5.78587L15.3177 6.6529L18.5375 19.5191L22.0023 18.6529ZM18.971 21.2514L19.6528 23.9758L23.1174 23.1088L22.4358 20.3852L18.971 21.2514ZM12.5894 16.1229V6.30146H8.12507V16.1229H12.5894ZM8.12507 17.9086H12.5894V24.1586H8.12507V18.8028C8.12507 18.8023 8.12507 18.8019 8.12507 18.8014C8.12507 18.801 8.12507 18.8006 8.12507 18.8001V17.9086ZM6.33936 2.73005H1.87507V17.9086H6.33936V2.73005ZM6.33936 19.6943H1.87507V24.1586H6.33936L6.33936 19.6943Z" fill="#002E69"/>
</g>
<defs>
<clipPath id="clip0_2245_20369">
<rect width="25" height="25" fill="white" transform="translate(0 0.944336)"/>
</clipPath>
</defs>
</svg>
