<svg width="25" height="26" viewBox="0 0 25 26" fill="none" xmlns="http://www.w3.org/2000/svg">
<g clip-path="url(#clip0_2245_3043)">
<path d="M7.79549 0.944336V2.06374H14.6363V0.944336H7.79549ZM8.97187 3.18315C9.79694 6.17981 9.78344 9.86876 7.69636 12.8917L7.68194 12.9126L7.66577 12.932C5.26246 15.8161 4.82017 18.3585 5.05605 20.5998C5.27372 22.6678 6.09449 24.4507 6.63131 25.9443H15.8005C16.3373 24.4507 17.1581 22.6678 17.3758 20.5998C17.6117 18.3585 17.1695 15.816 14.7661 12.932L14.747 12.9089L14.7304 12.8841C12.7733 9.94861 12.6502 6.20381 13.4636 3.18315H8.97168H8.97187ZM14.5955 3.24242C14.4925 3.6006 14.4062 3.96334 14.3366 4.32949C15.6197 4.60984 16.4537 5.13204 16.9988 5.77912C17.6705 6.57652 17.934 7.61359 17.918 8.7764C17.896 10.3734 17.3126 12.1655 16.6454 13.5874C16.9014 13.9764 17.1274 14.3623 17.3255 14.7441C18.1883 13.1337 19.0079 10.9253 19.0373 8.79183C19.0558 7.4476 18.7425 6.11177 17.8549 5.05798C17.137 4.20561 16.0631 3.57072 14.5956 3.24236L14.5955 3.24242Z" fill="#002E69"/>
</g>
<defs>
<clipPath id="clip0_2245_3043">
<rect width="25" height="25" fill="white" transform="translate(0 0.944336)"/>
</clipPath>
</defs>
</svg>
