<svg width="25" height="26" viewBox="0 0 25 26" fill="none" xmlns="http://www.w3.org/2000/svg">
<g clip-path="url(#clip0_2245_14135)">
<path d="M15.3571 10.5872C17.6786 10.5872 19.1071 7.19434 19.1071 5.05148C19.1071 3.26576 18.2143 1.12291 16.4286 1.12291C14.1071 1.12291 12.6786 4.51576 12.6786 6.65862C12.6786 8.44434 13.5714 10.5872 15.3571 10.5872ZM8.57143 10.5872C10.3571 10.5872 11.25 8.44434 11.25 6.65862C11.25 4.33719 9.82143 0.944336 7.5 0.944336C5.71429 0.944336 4.82143 3.08719 4.82143 4.87291C4.64286 7.19434 6.07143 10.5872 8.57143 10.5872ZM21.7857 8.80148C19.4643 8.80148 17.8571 12.0158 17.8571 14.3372C17.8571 15.9443 18.5714 17.5515 20.1786 17.5515C22.5 17.5515 24.1071 14.3372 24.1071 12.0158C24.1071 10.4086 23.2143 8.80148 21.7857 8.80148ZM6.25 14.3372C6.25 12.0158 4.46429 8.80148 2.32143 8.80148C0.714286 8.80148 0 10.4086 0 12.0158C0 14.3372 1.78571 17.5515 3.92857 17.5515C5.53571 17.5515 6.25 15.9443 6.25 14.3372ZM11.9643 13.9801C8.39286 13.9801 3.57143 19.6943 3.57143 23.6229C3.57143 25.4086 4.82143 25.9443 6.25 25.9443C8.39286 25.9443 10 24.5158 11.9643 24.5158C13.75 24.5158 15.3571 25.9443 17.3214 25.9443C18.75 25.9443 20.3571 25.5872 20.3571 23.6229C20.3571 19.6943 15.5357 13.9801 11.9643 13.9801Z" fill="#002E69"/>
</g>
<defs>
<clipPath id="clip0_2245_14135">
<rect width="25" height="25" fill="white" transform="translate(0 0.944336)"/>
</clipPath>
</defs>
</svg>
