<svg width="25" height="26" viewBox="0 0 25 26" fill="none" xmlns="http://www.w3.org/2000/svg">
<g clip-path="url(#clip0_2245_12760)">
<path d="M16.1038 2.95339L16.2225 2.94464L16.3625 2.94964L16.5037 2.97089L16.645 3.00839L24.145 5.50839C24.3704 5.58355 24.5698 5.72142 24.7197 5.90584C24.8696 6.09026 24.9638 6.31359 24.9912 6.54964L25 6.69464V12.9446C25 13.2508 24.8876 13.5463 24.6841 13.7751C24.4807 14.0039 24.2003 14.1501 23.8963 14.1859L23.75 14.1946H21.25V22.9446C21.2502 23.5754 21.012 24.1828 20.5831 24.6453C20.1543 25.1078 19.5664 25.3911 18.9375 25.4384L18.75 25.4446H6.25C5.61928 25.4448 5.01179 25.2066 4.54931 24.7778C4.08684 24.3489 3.80355 23.7611 3.75625 23.1321L3.75 22.9446V14.1946H1.25C0.943833 14.1946 0.648329 14.0822 0.419535 13.8787C0.190741 13.6753 0.0445715 13.395 0.00875003 13.0909L7.13398e-08 12.9446V6.69464C-8.02172e-05 6.45695 0.0676108 6.22416 0.195136 6.02357C0.32266 5.82299 0.504732 5.66292 0.72 5.56214L0.855 5.50839L8.355 3.00839C8.54292 2.9458 8.74301 2.92876 8.93881 2.95868C9.1346 2.98859 9.32048 3.06461 9.48113 3.18046C9.64178 3.29631 9.7726 3.44868 9.86282 3.625C9.95303 3.80133 10 3.99657 10 4.19464C9.9971 4.84337 10.2465 5.46782 10.6955 5.93608C11.1445 6.40434 11.7579 6.67972 12.4062 6.70406C13.0545 6.72841 13.6868 6.49979 14.1696 6.06652C14.6525 5.63325 14.948 5.02926 14.9937 4.38214L15.005 4.08214L15.0262 3.94089L15.0725 3.77339L15.1275 3.64464L15.19 3.52964L15.275 3.41339L15.3612 3.31339C15.4312 3.24589 15.5025 3.18839 15.58 3.13839L15.7 3.07214L15.8288 3.01714L15.9637 2.97714L16.1038 2.95339Z" fill="#002E69"/>
</g>
<defs>
<clipPath id="clip0_2245_12760">
<rect width="25" height="25" fill="white" transform="translate(0 0.944336)"/>
</clipPath>
</defs>
</svg>
