<svg width="267" height="51" viewBox="0 0 267 51" fill="none" xmlns="http://www.w3.org/2000/svg">
<path d="M53.3239 14.8223C53.3377 22.8466 47.0012 29.2352 39.0236 29.238C31.0818 29.2407 24.6299 22.8026 24.6217 14.8717C24.6162 7.02336 31.0983 0.502753 38.9109 0.500004C46.905 0.494506 53.3102 6.85842 53.3239 14.8223Z" fill="white"/>
<path d="M39.2573 38.2772C37.1571 38.0655 35.1393 37.8401 33.1518 37.4222C30.3945 36.8422 28.8689 34.8244 27.5521 32.5757C27.4146 32.3421 27.2854 32.0452 27.5054 31.795C27.6978 31.5779 27.9479 31.7373 28.1734 31.7813C34.5648 33.0623 40.9617 32.6527 47.3503 31.7895C48.4334 31.6438 49.3159 31.8088 50.0993 32.5455C50.5914 33.0101 51.1274 33.4334 51.5783 33.9365C53.2799 35.8251 53.3514 36.658 52.0923 38.816C49.9619 42.4639 47.8204 46.1063 45.7284 49.7762C45.2556 50.6064 44.8488 50.7686 44.189 50.0236C43.9003 49.6965 43.5677 49.4051 43.2571 49.0944C42.1602 47.9976 41.7671 46.7743 42.5204 45.3063C42.7348 44.8885 42.842 44.4157 43.0509 43.8164C41.6104 44.215 40.4339 44.9297 39.2051 45.4988C35.6946 47.1289 32.2034 48.7673 28.2861 49.2319C21.6912 50.0126 15.6187 48.3687 9.86782 45.2981C6.7587 43.6377 3.87501 41.6419 1.68406 38.8077C0.919845 37.8181 0.46901 36.6662 0.0951471 35.4787C-0.0670435 34.9674 -0.0560474 34.4891 0.400285 34.1949C0.9061 33.8678 1.07104 34.4616 1.3212 34.6952C6.58277 39.5582 12.6938 42.7443 19.8769 43.2089C26.3425 43.6267 32.5635 42.2605 38.3364 39.1871C38.669 39.0084 39.0841 38.8737 39.2573 38.2772Z" fill="white"/>
<path d="M10.9179 29.2353C5.03784 29.2436 0.199611 24.5236 0.185866 18.7672C0.172121 12.7524 4.94162 7.98287 10.9867 7.97462C16.754 7.96637 21.6802 12.8321 21.6802 18.5363C21.683 24.4823 16.908 29.2271 10.9179 29.2353Z" fill="white"/>
<path d="M13.9281 19.7562C13.7329 19.4181 13.469 19.1405 13.1391 18.9205C12.8093 18.7034 12.4491 18.5219 12.0588 18.3762C11.6684 18.2305 11.2781 18.0986 10.885 17.9776C10.4534 17.8567 10.0493 17.7302 9.67265 17.5955C9.29604 17.4636 8.98815 17.2986 8.75174 17.1062C8.51532 16.9138 8.39712 16.6581 8.39712 16.3447C8.39712 16.1523 8.4411 15.9736 8.52907 15.8087C8.61704 15.6465 8.73799 15.5035 8.89194 15.3826C9.04588 15.2616 9.23831 15.1709 9.46923 15.1104C9.69739 15.05 9.94755 15.0197 10.217 15.0197C10.5001 15.0197 10.8685 14.995 11.1104 15.0637C11.3523 15.1297 11.7014 15.2616 11.9048 15.3826C12.111 15.5063 12.2979 15.619 12.4601 15.7647C12.4849 15.7812 12.5453 15.8362 12.6223 15.9076C12.9082 16.166 13.3426 16.1633 13.6312 15.9076L13.6449 15.8939C13.9721 15.5998 13.9831 15.0912 13.6669 14.7861C13.6065 14.7283 13.557 14.6816 13.5295 14.6596C13.2876 14.4424 12.9742 14.2335 12.5893 14.0328C12.2045 13.8322 11.7564 13.703 11.2451 13.6425V12.7848C11.2451 12.323 10.896 11.9189 10.4341 11.8886C9.92831 11.8556 9.50771 12.257 9.50771 12.7573V13.6645C9.08986 13.7249 8.71325 13.8322 8.37513 13.9833C8.037 14.1345 7.74836 14.3242 7.50644 14.5551C7.26453 14.7861 7.0776 15.0472 6.95115 15.3441C6.82194 15.641 6.75872 15.9709 6.75872 16.3337C6.75872 16.7818 6.84394 17.1557 7.01163 17.4581C7.17931 17.7605 7.40473 18.0189 7.68788 18.2305C7.97102 18.4422 8.28716 18.6237 8.63903 18.7748C8.98815 18.926 9.34552 19.0552 9.71114 19.1652C10.184 19.3356 10.6375 19.4923 11.0746 19.638C11.5117 19.7837 11.8691 19.9652 12.1467 20.1823C12.4216 20.3995 12.5618 20.6964 12.5618 21.0703C12.5618 21.3974 12.4711 21.6723 12.2897 21.895C12.1083 22.1176 11.8416 22.2908 11.4897 22.4118C11.1379 22.5327 10.7145 22.5135 10.217 22.5135C9.7991 22.5135 9.29879 22.5217 8.94417 22.3595C8.55656 22.1808 8.55656 22.1809 8.08373 21.7987C8.04525 21.7685 7.89955 21.6668 7.72911 21.5156C7.42672 21.2462 6.96764 21.1995 6.66525 21.4716C6.65975 21.4771 6.65426 21.4799 6.65151 21.4854C6.29689 21.8042 6.29964 22.3623 6.65975 22.6784C6.93465 22.9203 7.2178 23.1567 7.347 23.253C7.6219 23.4591 7.94078 23.5444 8.29815 23.6818C8.65552 23.822 9.13385 23.8907 9.51046 23.9402V24.8364C9.51046 25.2982 9.85958 25.7023 10.3214 25.7325C10.8272 25.7655 11.2478 25.3642 11.2478 24.8639V23.9567C11.7344 23.8962 11.9488 23.7863 12.3392 23.6296C12.7295 23.4729 13.0677 23.2694 13.3508 23.022C13.6339 22.7746 13.8484 22.4805 13.9968 22.1424C14.1453 21.8042 14.2195 21.4359 14.2195 21.0345C14.2222 20.5177 14.1233 20.0944 13.9281 19.7562Z" fill="#002E69"/>
<path d="M44.4309 16.0737C44.145 15.5761 43.7574 15.1665 43.2736 14.8476C42.787 14.5288 42.2592 14.2621 41.6846 14.0477C41.1101 13.8333 40.5356 13.6381 39.961 13.4621C39.326 13.2835 38.7322 13.0993 38.1797 12.9014C37.6244 12.7062 37.1735 12.467 36.8299 12.1811C36.4835 11.898 36.3104 11.5241 36.3104 11.0623C36.3104 10.7791 36.3736 10.5152 36.5028 10.2761C36.632 10.0369 36.8107 9.82798 37.0361 9.6493C37.2643 9.47061 37.5447 9.33867 37.8828 9.2507C38.2182 9.16273 38.5865 9.11874 38.9824 9.11874C39.3975 9.11874 39.939 9.08301 40.2964 9.18197C40.6538 9.28094 41.1651 9.47336 41.462 9.65205C41.7644 9.83348 42.042 9.99842 42.2784 10.2128C42.3142 10.2376 42.4049 10.3201 42.5176 10.4218C42.9382 10.7984 43.5759 10.7984 43.9965 10.4218L44.0158 10.4025C44.4969 9.96818 44.5106 9.22321 44.0488 8.77512C43.9608 8.68715 43.8866 8.62118 43.8481 8.58819C43.4907 8.26931 43.0316 7.96142 42.4681 7.67003C41.9046 7.37589 41.2448 7.1862 40.4943 7.09823V5.8392C40.4943 5.1602 39.9803 4.56641 39.3013 4.52243C38.5563 4.47295 37.9405 5.06398 37.9405 5.79521V7.12572C37.3275 7.21369 36.7722 7.37038 36.2774 7.59305C35.7826 7.81572 35.3565 8.09612 35.0018 8.4315C34.6445 8.76962 34.3723 9.15448 34.1854 9.59157C33.9957 10.0259 33.9022 10.5097 33.9022 11.043C33.9022 11.7 34.0259 12.2526 34.2734 12.6952C34.5208 13.1405 34.8534 13.5171 35.2685 13.8278C35.6836 14.1384 36.1482 14.4051 36.665 14.6277C37.179 14.8504 37.7041 15.0401 38.2402 15.1995C38.9329 15.4497 39.6009 15.6778 40.2442 15.8923C40.8874 16.1067 41.4125 16.3733 41.8193 16.6922C42.2262 17.0111 42.4269 17.4482 42.4269 17.998C42.4269 18.4763 42.2922 18.8832 42.0255 19.2103C41.7589 19.5402 41.3685 19.7931 40.8517 19.969C40.3376 20.1477 39.7136 20.1175 38.9796 20.1175C38.3666 20.1175 37.6299 20.1285 37.1076 19.8893C36.5385 19.6281 36.5385 19.6281 35.8458 19.0673C35.788 19.0206 35.5764 18.8749 35.3235 18.6495C34.8781 18.2536 34.2046 18.1849 33.762 18.5835C33.7538 18.589 33.7483 18.5973 33.74 18.6028C33.2177 19.0728 33.226 19.8893 33.751 20.3539C34.1551 20.7085 34.5702 21.0576 34.7599 21.1978C35.1668 21.5002 35.6314 21.6267 36.1564 21.8301C36.6815 22.0335 37.3825 22.138 37.9378 22.2067V23.5235C37.9378 24.2025 38.4518 24.7962 39.1308 24.8402C39.8758 24.8897 40.4916 24.2987 40.4916 23.5674V22.2342C41.2036 22.1462 41.5224 21.9868 42.0942 21.7559C42.6688 21.5249 43.1636 21.2281 43.5787 20.8624C43.9938 20.4996 44.3099 20.068 44.5298 19.5704C44.747 19.0728 44.857 18.5313 44.857 17.9458C44.8597 17.1925 44.7168 16.5713 44.4309 16.0737Z" fill="#002E69"/>
<path d="M93.1156 19.4551C97.4068 19.4551 100.84 22.2838 100.84 26.3221C100.84 30.3109 97.5827 33.1643 93.1156 33.1643C88.445 33.1643 85.3139 30.3109 85.3139 26.3221C85.3139 22.281 88.7474 19.4551 93.1156 19.4551ZM93.0908 29.3487C94.8337 29.3487 96.0955 28.0869 96.0955 26.3193C96.0955 24.527 94.7567 23.2652 93.0908 23.2652C91.4002 23.2652 90.0614 24.527 90.0614 26.3193C90.0614 28.0869 91.2738 29.3487 93.0908 29.3487Z" fill="white"/>
<path d="M103.391 19.8325H107.858V21.196H107.908C108.917 20.1871 110.206 19.4531 111.619 19.4531C113.334 19.4531 115.228 20.0854 116.138 21.8255C117.502 20.1844 119.017 19.4531 120.43 19.4531C122.802 19.4531 125.479 20.6407 125.479 24.2501V32.783H121.012V25.4624C121.012 24.1759 120.331 23.0378 118.739 23.0378C117.326 23.0378 116.718 24.0742 116.669 25.0583V32.783H112.202V25.4624C112.202 24.1759 111.52 23.0378 109.931 23.0378C108.441 23.0378 107.861 24.1731 107.861 25.2095V32.783H103.391V19.8325Z" fill="white"/>
<path d="M136.462 33.1616C134.719 33.1616 133.281 32.5815 132.22 31.5451V39.3468H127.753V19.8317H132.17V21.2969H132.22C133.179 20.2358 134.694 19.4551 136.462 19.4551C140.247 19.4551 142.9 22.5092 142.9 26.2973C142.897 30.0827 140.247 33.1616 136.462 33.1616ZM135.123 23.2652C133.38 23.2652 132.118 24.527 132.118 26.2946C132.118 28.0869 133.457 29.3487 135.123 29.3487C136.814 29.3487 138.152 28.0869 138.152 26.2946C138.152 24.527 136.94 23.2652 135.123 23.2652Z" fill="white"/>
<path d="M150.498 19.4551C152.241 19.4551 153.679 20.0351 154.74 21.0715V19.8344H159.207V32.7849H154.789V31.3197H154.74C153.78 32.3808 152.266 33.1616 150.498 33.1616C146.71 33.1616 144.06 30.1074 144.06 26.3193C144.06 22.5339 146.71 19.4551 150.498 19.4551ZM151.834 29.3487C153.577 29.3487 154.839 28.0869 154.839 26.3193C154.839 24.527 153.5 23.2652 151.834 23.2652C150.143 23.2652 148.805 24.527 148.805 26.3193C148.805 28.0869 150.017 29.3487 151.834 29.3487Z" fill="white"/>
<path d="M161.73 19.8317H166.198V21.701H166.247C166.247 21.701 167.66 19.4551 170.211 19.4551C171.877 19.4551 173.04 20.2633 173.04 20.2633L171.17 24.0487C171.17 24.0487 170.338 23.3422 168.848 23.3422C166.525 23.3422 166.198 25.6403 166.198 25.9674V32.7822H161.73V19.8317Z" fill="white"/>
<path d="M177.358 26.9268C177.358 28.9199 179.024 29.6016 180.16 29.6016C181.597 29.6016 182.23 29.324 183.316 28.1639L186.546 29.7803C185.08 32.2296 182.708 33.1643 179.83 33.1643C175.918 33.1643 172.71 30.0854 172.71 26.3221C172.71 22.5367 175.915 19.4551 179.83 19.4551C183.769 19.4551 186.771 21.778 186.771 26.3221C186.771 26.498 186.771 26.7757 186.746 26.9268H177.358ZM182.406 24.4528C182.202 23.0893 181.27 22.358 179.956 22.358C178.417 22.358 177.559 23.2679 177.482 24.4528H182.406Z" fill="white"/>
<path d="M188.313 19.8325H192.78V21.196H192.83C193.839 20.1871 195.128 19.4531 196.541 19.4531C198.256 19.4531 200.15 20.0854 201.06 21.8255C202.424 20.1844 203.938 19.4531 205.351 19.4531C207.724 19.4531 210.401 20.6407 210.401 24.2501V32.783H205.934V25.4624C205.934 24.1759 205.252 23.0378 203.661 23.0378C202.248 23.0378 201.64 24.0742 201.591 25.0583V32.783H197.124V25.4624C197.124 24.1759 196.442 23.0378 194.853 23.0378C193.363 23.0378 192.783 24.1731 192.783 25.2095V32.783H188.316V19.8325H188.313Z" fill="white"/>
<path d="M218.178 19.4551C219.921 19.4551 221.359 20.0351 222.42 21.0715V19.8344H226.887V32.7849H222.469V31.3197H222.42C221.461 32.3808 219.946 33.1616 218.178 33.1616C214.393 33.1616 211.74 30.1074 211.74 26.3193C211.743 22.5339 214.393 19.4551 218.178 19.4551ZM219.517 29.3487C221.26 29.3487 222.522 28.0869 222.522 26.3193C222.522 24.527 221.183 23.2652 219.517 23.2652C217.826 23.2652 216.488 24.527 216.488 26.3193C216.488 28.0869 217.7 29.3487 219.517 29.3487Z" fill="white"/>
<path d="M229.413 19.8325H233.88V21.196H233.93C234.939 20.1871 236.228 19.4531 237.641 19.4531C240.013 19.4531 243.321 20.6407 243.321 24.2501V32.783H238.853V25.4624C238.853 24.1759 237.971 22.9388 236.53 22.9388C235.192 22.9388 233.88 24.1759 233.88 25.4624V32.783H229.413V19.8325Z" fill="white"/>
<path d="M250.542 14.4801C250.542 15.9453 249.355 17.1301 247.892 17.1301C246.427 17.1301 245.242 15.9426 245.242 14.4801C245.242 13.0149 246.43 11.8301 247.892 11.8301C249.357 11.8301 250.542 13.0176 250.542 14.4801ZM245.597 32.7829H250.064V19.8324H245.597V32.7829Z" fill="white"/>
<path d="M258.217 19.4551C259.96 19.4551 261.398 20.0351 262.459 21.0715V19.8344H266.926V32.7849H262.508V31.3197H262.459C261.5 32.3808 259.985 33.1616 258.217 33.1616C254.432 33.1616 251.779 30.1074 251.779 26.3193C251.779 22.5339 254.432 19.4551 258.217 19.4551ZM259.556 29.3487C261.299 29.3487 262.561 28.0869 262.561 26.3193C262.561 24.527 261.222 23.2652 259.556 23.2652C257.865 23.2652 256.527 24.527 256.527 26.3193C256.527 28.0869 257.739 29.3487 259.556 29.3487Z" fill="white"/>
<path d="M84.1071 27.5549L86.1634 31.6646C86.1634 31.6646 83.7992 33.6164 79.2002 33.6164C73.2129 33.6164 67.7149 28.7342 67.7149 22.6699C67.7149 16.5809 73.1881 11.6465 79.2002 11.6465C83.7992 11.6465 86.1634 13.5983 86.1634 13.5983L84.1071 17.708C84.1071 17.708 82.411 16.3968 79.9451 16.3968C75.0904 16.3968 72.9572 19.789 72.9572 22.615C72.9572 25.4657 75.0904 28.8579 79.9451 28.8579C82.411 28.8634 84.1071 27.5549 84.1071 27.5549Z" fill="white"/>
</svg>
