<svg width="267" height="51" viewBox="0 0 267 51" fill="none" xmlns="http://www.w3.org/2000/svg">
<path d="M53.3239 14.8223C53.3377 22.8466 47.0012 29.2352 39.0236 29.238C31.0818 29.2407 24.6299 22.8026 24.6217 14.8717C24.6162 7.02336 31.0983 0.502753 38.9109 0.500004C46.905 0.494506 53.3102 6.85842 53.3239 14.8223Z" fill="#0177FF"/>
<path d="M39.2573 38.2767C37.1571 38.065 35.1393 37.8396 33.1518 37.4217C30.3945 36.8417 28.8689 34.8239 27.5521 32.5753C27.4146 32.3416 27.2854 32.0447 27.5054 31.7945C27.6978 31.5774 27.9479 31.7368 28.1734 31.7808C34.5648 33.0618 40.9617 32.6522 47.3503 31.7891C48.4334 31.6434 49.3159 31.8083 50.0993 32.545C50.5914 33.0096 51.1274 33.4329 51.5783 33.936C53.2799 35.8246 53.3514 36.6575 52.0923 38.8155C49.9619 42.4634 47.8204 46.1058 45.7284 49.7757C45.2556 50.6059 44.8488 50.7681 44.189 50.0231C43.9003 49.696 43.5677 49.4046 43.2571 49.094C42.1602 47.9971 41.7671 46.7738 42.5204 45.3058C42.7348 44.888 42.842 44.4152 43.0509 43.8159C41.6104 44.2145 40.4339 44.9292 39.2051 45.4983C35.6946 47.1284 32.2034 48.7668 28.2861 49.2314C21.6912 50.0121 15.6187 48.3682 9.86782 45.2976C6.7587 43.6372 3.87501 41.6414 1.68406 38.8072C0.919845 37.8176 0.46901 36.6658 0.0951471 35.4782C-0.0670435 34.9669 -0.0560474 34.4886 0.400285 34.1944C0.9061 33.8673 1.07104 34.4611 1.3212 34.6947C6.58277 39.5577 12.6938 42.7438 19.8769 43.2084C26.3425 43.6262 32.5635 42.26 38.3364 39.1866C38.669 39.0079 39.0841 38.8732 39.2573 38.2767Z" fill="#07316A"/>
<path d="M10.9179 29.2352C5.03784 29.2435 0.199611 24.5234 0.185866 18.767C0.172121 12.7522 4.94162 7.98274 10.9867 7.9745C16.754 7.96625 21.6802 12.832 21.6802 18.5361C21.683 24.4822 16.908 29.227 10.9179 29.2352Z" fill="#0177FF"/>
<path d="M13.9281 19.7567C13.7329 19.4186 13.469 19.141 13.1391 18.921C12.8093 18.7039 12.4491 18.5224 12.0588 18.3767C11.6684 18.231 11.2781 18.0991 10.885 17.9781C10.4534 17.8572 10.0493 17.7307 9.67265 17.596C9.29604 17.4641 8.98815 17.2991 8.75174 17.1067C8.51532 16.9143 8.39712 16.6586 8.39712 16.3452C8.39712 16.1528 8.4411 15.9741 8.52907 15.8092C8.61704 15.647 8.73799 15.504 8.89194 15.3831C9.04588 15.2621 9.23831 15.1714 9.46923 15.1109C9.69739 15.0504 9.94755 15.0202 10.217 15.0202C10.5001 15.0202 10.8685 14.9955 11.1104 15.0642C11.3523 15.1302 11.7014 15.2621 11.9048 15.3831C12.111 15.5068 12.2979 15.6195 12.4601 15.7652C12.4849 15.7817 12.5453 15.8367 12.6223 15.9081C12.9082 16.1665 13.3426 16.1638 13.6312 15.9081L13.6449 15.8944C13.9721 15.6002 13.9831 15.0917 13.6669 14.7865C13.6065 14.7288 13.557 14.6821 13.5295 14.6601C13.2876 14.4429 12.9742 14.234 12.5893 14.0333C12.2045 13.8326 11.7564 13.7034 11.2451 13.643V12.7853C11.2451 12.3234 10.896 11.9193 10.4341 11.8891C9.92831 11.8561 9.50771 12.2575 9.50771 12.7578V13.665C9.08986 13.7254 8.71325 13.8326 8.37513 13.9838C8.037 14.135 7.74836 14.3247 7.50644 14.5556C7.26453 14.7865 7.0776 15.0477 6.95115 15.3446C6.82194 15.6415 6.75872 15.9714 6.75872 16.3342C6.75872 16.7823 6.84394 17.1562 7.01163 17.4586C7.17931 17.761 7.40473 18.0194 7.68788 18.231C7.97102 18.4427 8.28716 18.6241 8.63903 18.7753C8.98815 18.9265 9.34552 19.0557 9.71114 19.1657C10.184 19.3361 10.6375 19.4928 11.0746 19.6385C11.5117 19.7842 11.8691 19.9656 12.1467 20.1828C12.4216 20.4 12.5618 20.6969 12.5618 21.0707C12.5618 21.3979 12.4711 21.6728 12.2897 21.8954C12.1083 22.1181 11.8416 22.2913 11.4897 22.4122C11.1379 22.5332 10.7145 22.514 10.217 22.514C9.7991 22.514 9.29879 22.5222 8.94417 22.36C8.55656 22.1813 8.55656 22.1813 8.08373 21.7992C8.04525 21.769 7.89955 21.6673 7.72911 21.5161C7.42672 21.2467 6.96764 21.1999 6.66525 21.4721C6.65975 21.4776 6.65426 21.4803 6.65151 21.4858C6.29689 21.8047 6.29964 22.3628 6.65975 22.6789C6.93465 22.9208 7.2178 23.1572 7.347 23.2534C7.6219 23.4596 7.94078 23.5448 8.29815 23.6823C8.65552 23.8225 9.13385 23.8912 9.51046 23.9407V24.8369C9.51046 25.2987 9.85958 25.7028 10.3214 25.733C10.8272 25.766 11.2478 25.3647 11.2478 24.8644V23.9572C11.7344 23.8967 11.9488 23.7868 12.3392 23.6301C12.7295 23.4734 13.0677 23.2699 13.3508 23.0225C13.6339 22.7751 13.8484 22.481 13.9968 22.1429C14.1453 21.8047 14.2195 21.4364 14.2195 21.035C14.2222 20.5182 14.1233 20.0948 13.9281 19.7567Z" fill="white"/>
<path d="M44.4309 16.0731C44.145 15.5755 43.7574 15.1659 43.2736 14.847C42.787 14.5281 42.2592 14.2615 41.6846 14.0471C41.1101 13.8327 40.5356 13.6375 39.961 13.4615C39.326 13.2829 38.7322 13.0987 38.1797 12.9007C37.6244 12.7056 37.1735 12.4664 36.8299 12.1805C36.4835 11.8974 36.3104 11.5235 36.3104 11.0617C36.3104 10.7785 36.3736 10.5146 36.5028 10.2755C36.632 10.0363 36.8107 9.82737 37.0361 9.64869C37.2643 9.47 37.5447 9.33806 37.8828 9.25009C38.2182 9.16212 38.5865 9.11813 38.9824 9.11813C39.3975 9.11813 39.939 9.0824 40.2964 9.18136C40.6538 9.28033 41.1651 9.47275 41.462 9.65144C41.7644 9.83287 42.042 9.99781 42.2784 10.2122C42.3142 10.237 42.4049 10.3194 42.5176 10.4212C42.9382 10.7978 43.5759 10.7978 43.9965 10.4212L44.0158 10.4019C44.4969 9.96757 44.5106 9.22259 44.0488 8.77451C43.9608 8.68654 43.8866 8.62057 43.8481 8.58758C43.4907 8.2687 43.0316 7.96081 42.4681 7.66942C41.9046 7.37527 41.2448 7.18559 40.4943 7.09762V5.83859C40.4943 5.15959 39.9803 4.5658 39.3013 4.52182C38.5563 4.47234 37.9405 5.06337 37.9405 5.7946V7.12511C37.3275 7.21308 36.7722 7.36977 36.2774 7.59244C35.7826 7.81511 35.3565 8.09551 35.0018 8.43088C34.6445 8.76901 34.3723 9.15387 34.1854 9.59096C33.9957 10.0253 33.9022 10.5091 33.9022 11.0424C33.9022 11.6994 34.0259 12.252 34.2734 12.6946C34.5208 13.1399 34.8534 13.5165 35.2685 13.8272C35.6836 14.1378 36.1482 14.4044 36.665 14.6271C37.179 14.8498 37.7041 15.0395 38.2402 15.1989C38.9329 15.4491 39.6009 15.6772 40.2442 15.8916C40.8874 16.1061 41.4125 16.3727 41.8193 16.6916C42.2262 17.0105 42.4269 17.4476 42.4269 17.9974C42.4269 18.4757 42.2922 18.8826 42.0255 19.2097C41.7589 19.5396 41.3685 19.7925 40.8517 19.9684C40.3376 20.1471 39.7136 20.1169 38.9796 20.1169C38.3666 20.1169 37.6299 20.1278 37.1076 19.8887C36.5385 19.6275 36.5385 19.6275 35.8458 19.0667C35.788 19.02 35.5764 18.8743 35.3235 18.6489C34.8781 18.253 34.2046 18.1843 33.762 18.5829C33.7538 18.5884 33.7483 18.5967 33.74 18.6022C33.2177 19.0722 33.226 19.8887 33.751 20.3533C34.1551 20.7079 34.5702 21.057 34.7599 21.1972C35.1668 21.4996 35.6314 21.626 36.1564 21.8295C36.6815 22.0329 37.3825 22.1374 37.9378 22.2061V23.5229C37.9378 24.2019 38.4518 24.7956 39.1308 24.8396C39.8758 24.8891 40.4916 24.2981 40.4916 23.5668V22.2336C41.2036 22.1456 41.5224 21.9862 42.0942 21.7553C42.6688 21.5243 43.1636 21.2274 43.5787 20.8618C43.9938 20.499 44.3099 20.0674 44.5298 19.5698C44.747 19.0722 44.857 18.5307 44.857 17.9451C44.8597 17.1919 44.7168 16.5706 44.4309 16.0731Z" fill="white"/>
<path d="M93.1156 19.457C97.4068 19.457 100.84 22.2857 100.84 26.324C100.84 30.3128 97.5827 33.1663 93.1156 33.1663C88.445 33.1663 85.3139 30.3128 85.3139 26.324C85.3139 22.283 88.7474 19.457 93.1156 19.457ZM93.0908 29.3507C94.8337 29.3507 96.0955 28.0889 96.0955 26.3213C96.0955 24.5289 94.7567 23.2671 93.0908 23.2671C91.4002 23.2671 90.0614 24.5289 90.0614 26.3213C90.0614 28.0889 91.2738 29.3507 93.0908 29.3507Z" fill="#002E69"/>
<path d="M103.391 19.8337H107.858V21.1972H107.908C108.917 20.1883 110.206 19.4543 111.619 19.4543C113.334 19.4543 115.228 20.0866 116.138 21.8267C117.502 20.1856 119.017 19.4543 120.43 19.4543C122.802 19.4543 125.479 20.6419 125.479 24.2513V32.7842H121.012V25.4636C121.012 24.1771 120.331 23.039 118.739 23.039C117.326 23.039 116.718 24.0754 116.669 25.0595V32.7842H112.202V25.4636C112.202 24.1771 111.52 23.039 109.931 23.039C108.441 23.039 107.861 24.1744 107.861 25.2107V32.7842H103.391V19.8337Z" fill="#002E69"/>
<path d="M136.462 33.1635C134.719 33.1635 133.281 32.5835 132.22 31.5471V39.3487H127.753V19.8337H132.17V21.2989H132.22C133.179 20.2377 134.694 19.457 136.462 19.457C140.247 19.457 142.9 22.5112 142.9 26.2993C142.897 30.0846 140.247 33.1635 136.462 33.1635ZM135.123 23.2671C133.38 23.2671 132.118 24.5289 132.118 26.2965C132.118 28.0889 133.457 29.3507 135.123 29.3507C136.814 29.3507 138.152 28.0889 138.152 26.2965C138.152 24.5289 136.94 23.2671 135.123 23.2671Z" fill="#002E69"/>
<path d="M150.498 19.457C152.241 19.457 153.679 20.0371 154.74 21.0734V19.8364H159.207V32.7869H154.789V31.3217H154.74C153.78 32.3828 152.266 33.1635 150.498 33.1635C146.71 33.1635 144.06 30.1094 144.06 26.3213C144.06 22.5359 146.71 19.457 150.498 19.457ZM151.834 29.3507C153.577 29.3507 154.839 28.0889 154.839 26.3213C154.839 24.5289 153.5 23.2671 151.834 23.2671C150.143 23.2671 148.805 24.5289 148.805 26.3213C148.805 28.0889 150.017 29.3507 151.834 29.3507Z" fill="#002E69"/>
<path d="M161.73 19.8337H166.198V21.703H166.247C166.247 21.703 167.66 19.457 170.211 19.457C171.877 19.457 173.04 20.2652 173.04 20.2652L171.17 24.0506C171.17 24.0506 170.338 23.3441 168.848 23.3441C166.525 23.3441 166.198 25.6423 166.198 25.9694V32.7841H161.73V19.8337Z" fill="#002E69"/>
<path d="M177.358 26.9288C177.358 28.9218 179.024 29.6036 180.16 29.6036C181.597 29.6036 182.23 29.3259 183.316 28.1658L186.546 29.7822C185.08 32.2316 182.708 33.1663 179.83 33.1663C175.918 33.1663 172.71 30.0874 172.71 26.324C172.71 22.5387 175.915 19.457 179.83 19.457C183.769 19.457 186.771 21.7799 186.771 26.324C186.771 26.5 186.771 26.7776 186.746 26.9288H177.358ZM182.406 24.4547C182.202 23.0912 181.27 22.36 179.956 22.36C178.417 22.36 177.559 23.2699 177.482 24.4547H182.406Z" fill="#002E69"/>
<path d="M188.313 19.8337H192.78V21.1972H192.83C193.839 20.1883 195.128 19.4543 196.541 19.4543C198.256 19.4543 200.15 20.0866 201.06 21.8267C202.424 20.1856 203.938 19.4543 205.351 19.4543C207.724 19.4543 210.401 20.6419 210.401 24.2513V32.7842H205.934V25.4636C205.934 24.1771 205.252 23.039 203.661 23.039C202.248 23.039 201.64 24.0754 201.591 25.0595V32.7842H197.124V25.4636C197.124 24.1771 196.442 23.039 194.853 23.039C193.363 23.039 192.783 24.1744 192.783 25.2107V32.7842H188.316V19.8337H188.313Z" fill="#0177FF"/>
<path d="M218.178 19.457C219.921 19.457 221.359 20.0371 222.42 21.0734V19.8364H226.887V32.7869H222.469V31.3217H222.42C221.461 32.3828 219.946 33.1635 218.178 33.1635C214.393 33.1635 211.74 30.1094 211.74 26.3213C211.743 22.5359 214.393 19.457 218.178 19.457ZM219.517 29.3507C221.26 29.3507 222.522 28.0889 222.522 26.3213C222.522 24.5289 221.183 23.2671 219.517 23.2671C217.826 23.2671 216.488 24.5289 216.488 26.3213C216.488 28.0889 217.7 29.3507 219.517 29.3507Z" fill="#0177FF"/>
<path d="M229.413 19.8337H233.88V21.1972H233.93C234.939 20.1883 236.228 19.4543 237.641 19.4543C240.013 19.4543 243.321 20.6419 243.321 24.2513V32.7842H238.853V25.4636C238.853 24.1771 237.971 22.9401 236.53 22.9401C235.192 22.9401 233.88 24.1771 233.88 25.4636V32.7842H229.413V19.8337Z" fill="#0177FF"/>
<path d="M250.542 14.4815C250.542 15.9467 249.355 17.1315 247.892 17.1315C246.427 17.1315 245.242 15.9439 245.242 14.4815C245.242 13.0162 246.43 11.8314 247.892 11.8314C249.357 11.8314 250.542 13.019 250.542 14.4815ZM245.597 32.7842H250.064V19.8337H245.597V32.7842Z" fill="#0177FF"/>
<path d="M258.217 19.457C259.96 19.457 261.398 20.0371 262.459 21.0734V19.8364H266.926V32.7869H262.508V31.3217H262.459C261.5 32.3828 259.985 33.1635 258.217 33.1635C254.432 33.1635 251.779 30.1094 251.779 26.3213C251.779 22.5359 254.432 19.457 258.217 19.457ZM259.556 29.3507C261.299 29.3507 262.561 28.0889 262.561 26.3213C262.561 24.5289 261.222 23.2671 259.556 23.2671C257.865 23.2671 256.527 24.5289 256.527 26.3213C256.527 28.0889 257.739 29.3507 259.556 29.3507Z" fill="#0177FF"/>
<path d="M84.1071 27.5556L86.1634 31.6654C86.1634 31.6654 83.7992 33.6172 79.2002 33.6172C73.2129 33.6172 67.7149 28.735 67.7149 22.6707C67.7149 16.5817 73.1881 11.6472 79.2002 11.6472C83.7992 11.6472 86.1634 13.599 86.1634 13.599L84.1071 17.7088C84.1071 17.7088 82.411 16.3975 79.9451 16.3975C75.0904 16.3975 72.9572 19.7897 72.9572 22.6157C72.9572 25.4664 75.0904 28.8587 79.9451 28.8587C82.411 28.8642 84.1071 27.5556 84.1071 27.5556Z" fill="#002E69"/>
</svg>
