<svg width="96" height="101" viewBox="0 0 96 101" fill="none" xmlns="http://www.w3.org/2000/svg">
<path d="M60.1938 1.02047C65.3517 0.626341 70.63 1.76708 75.1275 4.3356C79.6429 6.89966 83.3626 10.8513 85.6247 15.5273C88.2334 20.8666 88.8685 27.1043 87.5463 32.8853C86.5677 37.2103 84.4498 41.2676 81.4544 44.5381C78.2449 48.0718 74.0299 50.6835 69.4298 51.9625C63.8243 53.5301 57.6908 53.188 52.3187 50.9319C47.3646 48.872 43.0857 45.2371 40.2465 40.686C37.4222 36.2093 36.039 30.8477 36.332 25.5649C36.567 20.7967 38.1822 16.1103 40.9188 12.2003C43.7357 8.15938 47.6755 4.89035 52.2176 2.96582C54.7474 1.88904 57.4528 1.22869 60.1938 1.02047ZM59.7432 4.12887C53.5323 4.76691 47.7424 8.19507 44.0019 13.1655C40.7894 17.3537 39.1088 22.6885 39.372 27.9639C39.5743 32.7931 41.3813 37.53 44.4213 41.2824C47.5297 45.1583 51.9216 47.99 56.7463 49.1873C62.2671 50.5823 68.3069 49.8461 73.3056 47.1051C77.6663 44.7299 81.2045 40.8779 83.199 36.3298C85.5712 30.9533 85.821 24.6577 83.7954 19.1325C82.1341 14.5413 78.9498 10.5256 74.8792 7.83366C70.4709 4.88589 65.0156 3.54586 59.7432 4.12887Z" fill="#002E69"/>
<path d="M60.5078 11.1548C60.6431 9.95902 61.9043 9.0622 63.0808 9.32544C64.0668 9.49648 64.8328 10.435 64.8447 11.4284C64.8566 12.1765 64.8402 12.9261 64.8477 13.6757C67.1247 13.9122 69.2842 14.9741 70.9261 16.5551C71.643 17.2392 71.6772 18.4856 70.9901 19.2024C70.3535 19.958 69.1057 20.0844 68.3531 19.4315C66.8837 18.1108 64.986 17.0236 62.9484 17.15C61.7214 17.1321 60.423 17.1901 59.3328 17.8163C58.433 18.3398 57.7444 19.3021 57.731 20.367C57.6968 21.0764 57.975 21.8022 58.5223 22.2662C59.6764 23.2746 61.1934 23.6717 62.6182 24.1357C64.2676 24.6131 65.9111 25.1262 67.5039 25.7732C68.9719 26.4127 70.4487 27.2501 71.3426 28.6258C72.3658 30.1502 72.4699 32.1298 72.0922 33.8818C71.6519 35.8495 70.1661 37.4364 68.3844 38.302C67.257 38.824 66.097 39.3446 64.8491 39.4858C64.8357 40.3098 64.864 41.1352 64.8387 41.9592C64.7778 43.0598 63.7367 43.967 62.6435 43.9254C61.4998 43.9432 60.5137 42.914 60.4899 41.7896C60.4691 41.0044 60.4929 40.2191 60.481 39.4338C59.1083 39.2895 57.7578 38.9727 56.4862 38.4314C55.2592 38.0551 54.349 37.1181 53.3942 36.312C52.7636 35.7989 52.5107 34.8872 52.7784 34.1213C53.0372 33.2973 53.8835 32.686 54.758 32.7901C55.4407 32.808 55.9761 33.2601 56.4624 33.6855C57.2298 34.2611 57.9274 34.9541 58.8197 35.3393C60.2341 36.0502 61.8597 35.7885 63.3827 35.8435C64.6781 35.906 66.0315 35.5832 67.031 34.7221C68.1286 33.8119 68.4424 32.1045 67.7806 30.8507C67.1514 29.8022 65.9527 29.2861 64.867 28.8444C63.1313 28.2569 61.4031 27.6412 59.6645 27.0627C57.7459 26.3532 55.7322 25.446 54.5334 23.7089C53.644 22.4759 53.4983 20.8741 53.6753 19.4047C53.8686 17.9308 54.6807 16.5714 55.8288 15.6389C57.1466 14.5502 58.8093 13.9732 60.4825 13.7218C60.5018 12.8666 60.4483 12.0085 60.5078 11.1548Z" fill="#002E69"/>
<path d="M24.486 64.4569C28.4749 61.0659 33.7592 59.2484 38.9899 59.4611C40.0845 59.4983 41.1717 59.65 42.2619 59.766C46.5304 60.233 50.7989 60.706 55.0688 61.173C56.7331 61.3737 58.4568 61.4243 60.014 62.1144C63.1626 63.395 65.499 66.4037 66.0032 69.759C72.7926 66.7071 79.5835 63.6597 86.3729 60.6078C86.8518 60.3936 87.3263 60.1631 87.8319 60.0144C89.8055 59.4224 92.0751 59.8374 93.6561 61.1789C95.481 62.6885 96.2038 65.3433 95.4616 67.5831C94.95 69.2176 93.7022 70.5919 92.1361 71.2775C85.1831 74.5926 78.2301 77.9107 71.2771 81.2259C66.3513 83.5401 60.7933 84.483 55.3782 83.9327C53.2395 83.7007 51.1008 83.4612 48.9621 83.2292C47.4807 83.079 45.9979 82.8336 44.5047 82.9318C41.612 83.0701 38.7609 84.0933 36.4734 85.8766C38.2894 88.4614 38.3786 92.1246 36.64 94.769C35.361 96.6072 34.0611 98.4321 32.7716 100.261C32.2927 101.02 31.1356 101.172 30.4634 100.589C29.8253 100.086 29.7093 99.0761 30.2031 98.4336C31.4108 96.7217 32.6199 95.0099 33.8291 93.2981C34.3392 92.5827 34.6575 91.7334 34.7318 90.8589C34.885 89.208 34.1131 87.5126 32.7686 86.5414C26.65 82.0483 20.5314 77.5597 14.4127 73.0682C12.4317 71.511 9.28758 71.9096 7.75122 73.9025C6.19554 76.0249 4.66959 78.1695 3.12432 80.2993C2.80753 80.7678 2.23344 81.0355 1.67125 80.976C0.43384 80.9195 -0.204201 79.2775 0.622723 78.3748C2.1442 76.2792 3.64933 74.1688 5.17824 72.0762C6.88414 69.7991 9.87951 68.6108 12.686 69.0406C14.2729 69.2459 15.72 70.0237 16.95 71.0202C19.468 68.8399 21.9681 66.6387 24.486 64.4569ZM26.3942 66.9748C24.1187 68.9633 21.8342 70.9429 19.5631 72.9373C24.4414 76.5142 29.3167 80.094 34.1934 83.6754C37.6528 80.8183 42.2515 79.4396 46.7133 79.8263C48.4118 79.9899 50.1058 80.1967 51.8028 80.3766C54.3177 80.6339 56.8327 81.0355 59.37 80.9239C62.6717 80.805 65.9527 80.0821 68.9956 78.7942C70.6346 78.0728 72.2334 77.2652 73.8546 76.5053C79.5553 73.7865 85.2575 71.0678 90.9582 68.3461C92.1272 67.7973 92.8351 66.4126 92.5392 65.147C92.3309 64.03 91.3761 63.1287 90.2621 62.9428C89.459 62.7658 88.644 63.0038 87.9286 63.3637C80.5755 66.6729 73.218 69.9702 65.8649 73.2779C65.4024 73.4742 64.9473 73.7553 64.4297 73.7419C61.0045 73.7434 57.5808 73.7404 54.1556 73.7449C53.6856 73.7642 53.1948 73.6274 52.8676 73.2779C52.3144 72.7335 52.2668 71.7683 52.765 71.1734C53.0595 70.8001 53.5295 70.5874 54.0039 70.5963C56.9829 70.5904 59.9604 70.5993 62.9395 70.5919C62.6643 67.5801 60.1672 64.9432 57.1554 64.5729C51.8533 63.975 46.5482 63.4054 41.2446 62.8179C39.9566 62.6677 38.6582 62.5294 37.3598 62.6097C33.3546 62.7956 29.4267 64.3483 26.3942 66.9748Z" fill="#002E69"/>
</svg>
