<svg width="68" height="53" viewBox="0 0 68 53" fill="none" xmlns="http://www.w3.org/2000/svg">
<path d="M19.4722 8.55556V25.8611H23.5278V8.55556V7.80556H24.2778H46.5H47.25V8.55556V16.8889V17.6389H46.5H41.3662L49.2778 25.5505L57.1893 17.6389H52.0556H51.3056V16.8889V8.55556C51.3056 7.28104 50.7993 6.05873 49.898 5.15751C48.9968 4.2563 47.7745 3.75 46.5 3.75H24.2778C23.0033 3.75 21.781 4.2563 20.8797 5.15751C19.9785 6.05873 19.4722 7.28104 19.4722 8.55556Z" fill="#002E69" stroke="white" stroke-width="1.5"/>
<path d="M58.25 28.3611V32.4166H37.5278V28.3611H58.25ZM58.25 36.6944V40.75H37.5278V36.6944H58.25ZM30.4722 36.6944V40.75H9.75V36.6944H30.4722ZM58.25 45.0277V49.0833H37.5278V45.0277H58.25ZM30.4722 45.0277V49.0833H9.75V45.0277H30.4722Z" fill="#002E69" stroke="white" stroke-width="1.5"/>
</svg>
