<svg width="27" height="31" viewBox="0 0 27 31" fill="none" xmlns="http://www.w3.org/2000/svg">
<path d="M5.43538 22.7437C5.43538 23.5271 6.07692 24.1666 6.86626 24.1666H8.50203V28.1977C8.50203 29.2188 9.32496 30.0525 10.336 30.0525C11.3504 30.0525 12.1699 29.2222 12.1699 28.1977V24.1632H15.025V28.1943C15.025 29.2155 15.8479 30.0491 16.8589 30.0491C17.8733 30.0491 18.6929 29.2188 18.6929 28.1943V24.1632H20.3286C21.118 24.1632 21.7595 23.5238 21.7595 22.7403V9.50876H5.43538V22.7437ZM17.4299 2.65192L18.9381 0.475682C19.0254 0.348455 19.0052 0.177704 18.8877 0.0940021C18.7701 0.0136485 18.6022 0.0538255 18.5148 0.181052L16.9496 2.44434C15.9184 2.03923 14.7697 1.81491 13.5639 1.81491C12.358 1.81491 11.2093 2.03923 10.1781 2.44434L8.61288 0.1844C8.52555 0.0571735 8.3576 0.0136487 8.24004 0.0973503C8.12248 0.177704 8.10233 0.345107 8.18966 0.47903L9.69779 2.65527C7.29955 3.76683 5.62012 5.87276 5.40515 8.33359H21.7293C21.5076 5.86941 19.8248 3.76348 17.4299 2.65192ZM10.1177 6.08369C9.93895 6.08369 9.76426 6.03087 9.61567 5.93191C9.46709 5.83295 9.35128 5.69229 9.28289 5.52772C9.21451 5.36315 9.19661 5.18206 9.23148 5.00736C9.26634 4.83265 9.35239 4.67218 9.47875 4.54622C9.60512 4.42027 9.76611 4.33449 9.94138 4.29974C10.1167 4.26499 10.2983 4.28282 10.4634 4.35099C10.6285 4.41915 10.7696 4.53459 10.8689 4.6827C10.9682 4.83081 11.0212 5.00493 11.0212 5.18306C11.0206 5.42173 10.9252 5.65045 10.7559 5.81922C10.5866 5.98799 10.3571 6.08307 10.1177 6.08369ZM17.1176 6.08369C16.9389 6.08369 16.7642 6.03087 16.6156 5.93191C16.467 5.83295 16.3512 5.69229 16.2828 5.52772C16.2144 5.36315 16.1965 5.18206 16.2314 5.00736C16.2662 4.83265 16.3523 4.67218 16.4787 4.54622C16.605 4.42027 16.766 4.33449 16.9413 4.29974C17.1166 4.26499 17.2982 4.28282 17.4633 4.35099C17.6284 4.41915 17.7695 4.53459 17.8688 4.6827C17.9681 4.83081 18.0211 5.00493 18.0211 5.18306C18.0205 5.42173 17.9251 5.65045 17.7558 5.81922C17.5865 5.98799 17.357 6.08307 17.1176 6.08369ZM24.6213 9.45519C23.6069 9.45519 22.7873 10.2855 22.7873 11.31V18.5552C22.7873 19.5764 23.6103 20.4101 24.6213 20.4101C25.6357 20.4101 26.4552 19.5797 26.4552 18.5552V11.3067C26.4586 10.2822 25.639 9.45519 24.6213 9.45519ZM2.49972 9.45519C1.48534 9.45519 0.665771 10.2855 0.665771 11.31V18.5552C0.665771 19.5764 1.4887 20.4101 2.49972 20.4101C3.5141 20.4101 4.33367 19.5797 4.33367 18.5552V11.3067C4.33367 10.2822 3.51074 9.45519 2.49972 9.45519Z" fill="white"/>
</svg>
