<svg width="120" height="40" viewBox="0 0 120 40" fill="none" xmlns="http://www.w3.org/2000/svg">
<rect y="-0.000976562" width="120" height="40" rx="6" fill="#404040"/>
<path fill-rule="evenodd" clip-rule="evenodd" d="M26.5822 17.8046C26.556 14.9039 28.9631 13.4927 29.0732 13.427C27.7099 11.4443 25.5969 11.1734 24.8544 11.1518C23.0797 10.9655 21.3583 12.2111 20.4543 12.2111C19.5322 12.2111 18.1401 11.1698 16.6397 11.2004C14.7089 11.2301 12.9027 12.3452 11.912 14.0768C9.8676 17.6075 11.3924 22.796 13.3511 25.6499C14.3309 27.0476 15.4758 28.6082 16.9744 28.5533C18.4405 28.493 18.9882 27.6209 20.7574 27.6209C22.5104 27.6209 23.0247 28.5533 24.5531 28.5182C26.1266 28.493 27.1172 27.1142 28.0627 25.7039C29.195 24.1019 29.6497 22.5242 29.6678 22.4432C29.6308 22.4306 26.6119 21.2813 26.5822 17.8046Z" fill="white"/>
<path fill-rule="evenodd" clip-rule="evenodd" d="M23.6951 9.27483C24.4836 8.29113 25.0231 6.95283 24.8734 5.59473C23.732 5.64513 22.3047 6.38223 21.4828 7.34433C20.7556 8.19213 20.106 9.58173 20.2738 10.8885C21.5559 10.9839 22.8722 10.2432 23.6951 9.27483Z" fill="white"/>
<path fill-rule="evenodd" clip-rule="evenodd" d="M109.612 23.6265C109.612 23.9703 109.589 24.2601 109.542 24.4968H103.771C103.793 25.35 104.072 26.0025 104.608 26.4525C105.094 26.8548 105.723 27.0564 106.496 27.0564C107.35 27.0564 108.13 26.9205 108.831 26.6478L109.132 27.9798C108.313 28.3362 107.345 28.5135 106.229 28.5135C104.887 28.5135 103.833 28.1193 103.066 27.3318C102.301 26.5443 101.918 25.4868 101.918 24.1602C101.918 22.8579 102.274 21.7734 102.988 20.9085C103.735 19.9851 104.744 19.5234 106.015 19.5234C107.262 19.5234 108.207 19.9851 108.849 20.9085C109.357 21.642 109.612 22.5492 109.612 23.6265ZM107.778 23.1288C107.79 22.56 107.665 22.0686 107.404 21.6537C107.071 21.12 106.56 20.8536 105.871 20.8536C105.242 20.8536 104.731 21.1137 104.34 21.6357C104.02 22.0506 103.83 22.5483 103.771 23.1279L107.778 23.1288Z" fill="white"/>
<path fill-rule="evenodd" clip-rule="evenodd" d="M101.009 21.4039C100.819 21.3688 100.616 21.3508 100.403 21.3508C99.7262 21.3508 99.203 21.6055 98.8349 22.1158C98.5146 22.5658 98.354 23.1346 98.354 23.8213V28.3528H96.4313L96.4494 22.4362C96.4494 21.4408 96.425 20.5345 96.3772 19.7173H98.0526L98.123 21.3697H98.1762C98.3792 20.8018 98.6995 20.3446 99.138 20.0017C99.5666 19.693 100.029 19.5391 100.528 19.5391C100.706 19.5391 100.867 19.5517 101.009 19.5742V21.4039Z" fill="white"/>
<path fill-rule="evenodd" clip-rule="evenodd" d="M94.7568 23.9635C94.7568 25.291 94.376 26.3809 93.6164 27.2332C92.8197 28.1107 91.7623 28.5481 90.4442 28.5481C89.1738 28.5481 88.1624 28.1278 87.4082 27.2872C86.6539 26.4466 86.2768 25.3855 86.2768 24.1066C86.2768 22.7683 86.6647 21.6721 87.4434 20.8198C88.2202 19.9666 89.2686 19.54 90.5867 19.54C91.857 19.54 92.8793 19.9603 93.6507 20.8018C94.3887 21.6181 94.7568 22.672 94.7568 23.9635ZM92.7611 24.0256C92.7611 23.2291 92.5905 22.546 92.245 21.9763C91.8417 21.2869 91.2652 20.9431 90.5181 20.9431C89.7449 20.9431 89.1576 21.2878 88.7543 21.9763C88.4087 22.5469 88.2382 23.2408 88.2382 24.0616C88.2382 24.8581 88.4087 25.5412 88.7543 26.11C89.1702 26.7994 89.7513 27.1432 90.501 27.1432C91.2354 27.1432 91.8119 26.7922 92.2279 26.092C92.5824 25.5115 92.7611 24.8212 92.7611 24.0256Z" fill="white"/>
<path fill-rule="evenodd" clip-rule="evenodd" d="M85.1906 21.1564H83.0703V25.3495C83.0703 26.416 83.4439 26.9488 84.1927 26.9488C84.5364 26.9488 84.8215 26.9191 85.0471 26.8597L85.1003 28.3168C84.7214 28.4581 84.2225 28.5292 83.6044 28.5292C82.8448 28.5292 82.2511 28.2979 81.8226 27.8362C81.3958 27.3736 81.1811 26.5978 81.1811 25.5079V21.1546H79.918V19.7146H81.1811V18.1333L83.0703 17.5645V19.7146H85.1906V21.1564Z" fill="white"/>
<path fill-rule="evenodd" clip-rule="evenodd" d="M78.8308 24.9941C78.8308 26.0129 78.4762 26.8418 77.7643 27.4817C76.9821 28.181 75.8931 28.5302 74.4938 28.5302C73.2018 28.5302 72.1661 28.2818 71.382 27.7841L71.8277 26.1848C72.6722 26.6942 73.5988 26.9498 74.6084 26.9498C75.3329 26.9498 75.8967 26.786 76.3018 26.4602C76.7051 26.1344 76.9063 25.697 76.9063 25.1516C76.9063 24.6656 76.7403 24.2561 76.4074 23.924C76.0763 23.5919 75.5232 23.2832 74.7509 22.9979C72.6487 22.2158 71.5986 21.0701 71.5986 19.5635C71.5986 18.5789 71.9667 17.7716 72.7038 17.1434C73.4382 16.5143 74.418 16.2002 75.6432 16.2002C76.7358 16.2002 77.6434 16.3901 78.3679 16.769L77.887 18.3332C77.2104 17.966 76.4453 17.7824 75.5891 17.7824C74.9124 17.7824 74.3837 17.9489 74.0048 18.2801C73.6845 18.5762 73.5239 18.9371 73.5239 19.3646C73.5239 19.838 73.707 20.2295 74.0752 20.5373C74.3954 20.8217 74.9774 21.1295 75.8219 21.4616C76.8549 21.8765 77.6137 22.3616 78.1018 22.9178C78.5881 23.4722 78.8308 24.1661 78.8308 24.9941Z" fill="white"/>
<path fill-rule="evenodd" clip-rule="evenodd" d="M67.6974 23.9284C67.6974 25.3972 67.2995 26.5582 66.5028 27.4105C65.791 28.1692 64.9059 28.5481 63.8494 28.5481C62.709 28.5481 61.8898 28.1395 61.3917 27.3223H61.3557V31.8718H59.4321V22.5595C59.4321 21.6361 59.4078 20.6884 59.3608 19.7164H61.0525L61.1599 21.0853H61.196C61.8365 20.0539 62.81 19.5391 64.1174 19.5391C65.1378 19.5391 65.9904 19.9414 66.6743 20.7469C67.3554 21.5533 67.6974 22.6135 67.6974 23.9284ZM65.7377 23.9986C65.7377 23.158 65.5474 22.465 65.1666 21.9196C64.7507 21.3508 64.194 21.0664 63.493 21.0664C63.0175 21.0664 62.5872 21.2248 62.201 21.5371C61.8149 21.8521 61.5632 22.2634 61.445 22.7728C61.3863 23.0104 61.3557 23.2048 61.3557 23.3578V24.7978C61.3557 25.426 61.5487 25.9561 61.9331 26.389C62.3192 26.821 62.8209 27.0379 63.4398 27.0379C64.1643 27.0379 64.7282 26.7589 65.1315 26.2027C65.5356 25.6456 65.7377 24.9112 65.7377 23.9986Z" fill="white"/>
<path fill-rule="evenodd" clip-rule="evenodd" d="M57.7395 23.9284C57.7395 25.3972 57.3417 26.5582 56.5459 27.4105C55.8331 28.1692 54.9481 28.5481 53.8916 28.5481C52.7511 28.5481 51.9319 28.1395 51.433 27.3223H51.3969V31.8718H49.4734V22.5595C49.4734 21.6361 49.449 20.6884 49.4021 19.7164H51.0938L51.2011 21.0853H51.2372C51.8787 20.0539 52.8522 19.5391 54.1586 19.5391C55.1799 19.5391 56.0325 19.9414 56.7146 20.7469C57.3985 21.5533 57.7395 22.6135 57.7395 23.9284ZM55.7799 23.9986C55.7799 23.158 55.5904 22.465 55.2097 21.9196C54.7938 21.3508 54.2353 21.0664 53.5352 21.0664C53.0606 21.0664 52.6293 21.2248 52.2441 21.5371C51.8579 21.8521 51.6053 22.2634 51.4871 22.7728C51.4276 23.0104 51.3978 23.2048 51.3978 23.3578V24.7978C51.3978 25.426 51.5909 25.9561 51.977 26.389C52.3632 26.8219 52.8648 27.0379 53.4819 27.0379C54.2064 27.0379 54.7703 26.7589 55.1736 26.2027C55.5778 25.6456 55.7799 24.9112 55.7799 23.9986Z" fill="white"/>
<path fill-rule="evenodd" clip-rule="evenodd" d="M47.7997 28.3532H45.7508L44.6284 24.8351H40.7272L39.6581 28.3532H37.6633L41.5284 16.376H43.9157L47.7997 28.3532ZM44.2901 23.3591L43.2751 20.2316C43.1677 19.9121 42.9665 19.1597 42.6697 17.9753H42.6336C42.5154 18.4847 42.3251 19.2371 42.0634 20.2316L41.0665 23.3591H44.2901Z" fill="white"/>
<path d="M37.7427 11.999V5.60059H39.5488C40.1055 5.60059 40.5977 5.72363 41.0254 5.96973C41.4531 6.21582 41.7834 6.56592 42.0164 7.02002C42.2493 7.47412 42.3672 7.9956 42.3701 8.58447V8.99316C42.3701 9.59668 42.2537 10.1255 42.0208 10.5796C41.7878 11.0337 41.4553 11.3823 41.0232 11.6255C40.5911 11.8687 40.0879 11.9932 39.5137 11.999H37.7427ZM38.5864 6.29492V11.3091H39.4741C40.1245 11.3091 40.6306 11.1069 40.9924 10.7026C41.3542 10.2983 41.5352 9.72266 41.5352 8.97559V8.60205C41.5352 7.87548 41.3645 7.31079 41.0232 6.90796C40.6819 6.50512 40.1978 6.30078 39.5708 6.29492H38.5864ZM44.4004 11.999H43.5874V7.24414H44.4004V11.999ZM43.5215 5.98291C43.5215 5.85107 43.5618 5.73975 43.6423 5.64893C43.7229 5.55811 43.8423 5.5127 44.0005 5.5127C44.1587 5.5127 44.2788 5.55811 44.3608 5.64893C44.4429 5.73975 44.4839 5.85107 44.4839 5.98291C44.4839 6.11475 44.4429 6.22461 44.3608 6.3125C44.2788 6.40039 44.1587 6.44434 44.0005 6.44434C43.8423 6.44434 43.7229 6.40039 43.6423 6.3125C43.5618 6.22461 43.5215 6.11475 43.5215 5.98291ZM48.4697 10.7378C48.4697 10.5181 48.387 10.3474 48.2214 10.2258C48.0559 10.1042 47.7673 9.99951 47.3557 9.91162C46.9441 9.82373 46.6174 9.71826 46.3757 9.59521C46.134 9.47217 45.9553 9.32568 45.8396 9.15576C45.7239 8.98584 45.666 8.78369 45.666 8.54932C45.666 8.15967 45.8308 7.83008 46.1604 7.56055C46.49 7.29101 46.9111 7.15625 47.4238 7.15625C47.9629 7.15625 48.4001 7.29541 48.7356 7.57373C49.071 7.85205 49.2388 8.20801 49.2388 8.6416H48.4214C48.4214 8.41894 48.3269 8.22705 48.1379 8.06592C47.949 7.90478 47.7109 7.82422 47.4238 7.82422C47.1279 7.82422 46.8965 7.88867 46.7295 8.01758C46.5625 8.14649 46.479 8.31494 46.479 8.52295C46.479 8.71924 46.5566 8.86719 46.7119 8.9668C46.8672 9.06641 47.1477 9.16162 47.5535 9.25244C47.9592 9.34326 48.2881 9.45166 48.54 9.57764C48.792 9.70361 48.9788 9.85522 49.1003 10.0325C49.2219 10.2097 49.2827 10.4258 49.2827 10.6807C49.2827 11.1055 49.1128 11.446 48.7729 11.7024C48.4331 11.9587 47.9922 12.0869 47.4502 12.0869C47.0693 12.0869 46.7324 12.0195 46.4395 11.8848C46.1465 11.75 45.9172 11.5618 45.7517 11.3201C45.5862 11.0784 45.5034 10.8169 45.5034 10.5356H46.3164C46.3311 10.8081 46.4402 11.0242 46.6438 11.1838C46.8474 11.3435 47.1162 11.4233 47.4502 11.4233C47.7578 11.4233 48.0046 11.3611 48.1907 11.2366C48.3767 11.1121 48.4697 10.9458 48.4697 10.7378ZM54.3584 9.67432C54.3584 10.398 54.1929 10.981 53.8618 11.4233C53.5308 11.8657 53.0825 12.0869 52.5171 12.0869C51.9399 12.0869 51.4858 11.9038 51.1548 11.5376V13.8271H50.3418V7.24414H51.0845L51.124 7.77148C51.4551 7.36133 51.915 7.15625 52.5039 7.15625C53.0752 7.15625 53.5271 7.37158 53.8596 7.80225C54.1921 8.23291 54.3584 8.83203 54.3584 9.59961V9.67432ZM53.5454 9.58203C53.5454 9.0459 53.4312 8.62256 53.2026 8.31201C52.9741 8.00146 52.6606 7.84619 52.2622 7.84619C51.77 7.84619 51.4009 8.06445 51.1548 8.50098V10.7729C51.398 11.2065 51.77 11.4233 52.271 11.4233C52.6606 11.4233 52.9705 11.2688 53.2004 10.9597C53.4304 10.6506 53.5454 10.1914 53.5454 9.58203ZM55.1758 9.57764C55.1758 9.11181 55.2673 8.69287 55.4504 8.3208C55.6335 7.94873 55.8884 7.66162 56.2151 7.45947C56.5417 7.25732 56.9145 7.15625 57.3335 7.15625C57.981 7.15625 58.5046 7.38037 58.9045 7.82861C59.3044 8.27686 59.5044 8.87304 59.5044 9.61719V9.67432C59.5044 10.1372 59.4158 10.5525 59.2385 10.9202C59.0613 11.2878 58.8079 11.5742 58.4783 11.7793C58.1487 11.9844 57.77 12.0869 57.3423 12.0869C56.6978 12.0869 56.1755 11.8628 55.7756 11.4146C55.3757 10.9663 55.1758 10.3731 55.1758 9.63477V9.57764ZM55.9932 9.67432C55.9932 10.2017 56.1155 10.625 56.3601 10.9443C56.6047 11.2637 56.9321 11.4233 57.3423 11.4233C57.7554 11.4233 58.0835 11.2615 58.3267 10.9377C58.5698 10.614 58.6914 10.1606 58.6914 9.57764C58.6914 9.05615 58.5676 8.63355 58.3201 8.30981C58.0725 7.98608 57.7437 7.82422 57.3335 7.82422C56.9321 7.82422 56.6084 7.98389 56.3623 8.30322C56.1162 8.62256 55.9932 9.07959 55.9932 9.67432ZM61.293 7.24414L61.3193 7.8418C61.6826 7.38476 62.1572 7.15625 62.7432 7.15625C63.7481 7.15625 64.2549 7.72314 64.2637 8.85693V11.999H63.4507V8.85254C63.4478 8.50976 63.3694 8.25635 63.2156 8.09229C63.0618 7.92822 62.8223 7.84619 62.4971 7.84619C62.2334 7.84619 62.002 7.9165 61.8027 8.05713C61.6035 8.19775 61.4482 8.38232 61.3369 8.61084V11.999H60.5239V7.24414H61.293ZM66.373 11.999H65.5557V7.24414H66.373V11.999ZM66.3818 5.25342H67.3662L66.1885 6.54541H65.5337L66.3818 5.25342ZM69.2822 10.896L70.46 7.24414H71.2905L69.5854 11.999H68.9658L67.2432 7.24414H68.0737L69.2822 10.896ZM74.0459 12.0869C73.4014 12.0869 72.877 11.8752 72.4727 11.4519C72.0684 11.0286 71.8662 10.4624 71.8662 9.75342V9.604C71.8662 9.13232 71.9563 8.71118 72.1365 8.34058C72.3167 7.96997 72.5686 7.67993 72.8923 7.47046C73.2161 7.26099 73.5669 7.15625 73.9448 7.15625C74.563 7.15625 75.0435 7.35986 75.3862 7.76709C75.729 8.17432 75.9004 8.75732 75.9004 9.51611V9.85449H72.6792C72.6909 10.3232 72.8279 10.7019 73.0901 10.9905C73.3523 11.2791 73.6855 11.4233 74.0898 11.4233C74.377 11.4233 74.6201 11.3647 74.8193 11.2476C75.0186 11.1304 75.1929 10.9751 75.3423 10.7817L75.8389 11.1685C75.4404 11.7808 74.8428 12.0869 74.0459 12.0869ZM73.9448 7.82422C73.6167 7.82422 73.3413 7.9436 73.1187 8.18237C72.896 8.42114 72.7583 8.75586 72.7056 9.18652H75.0874V9.125C75.064 8.71191 74.9526 8.39185 74.7534 8.16479C74.5542 7.93774 74.2847 7.82422 73.9448 7.82422ZM77.7241 11.999H76.9111V5.24902H77.7241V11.999ZM82.022 7.24414L82.0483 7.8418C82.4116 7.38476 82.8862 7.15625 83.4722 7.15625C84.4771 7.15625 84.9839 7.72314 84.9927 8.85693V11.999H84.1797V8.85254C84.1768 8.50976 84.0984 8.25635 83.9446 8.09229C83.7908 7.92822 83.5513 7.84619 83.2261 7.84619C82.9624 7.84619 82.731 7.9165 82.5317 8.05713C82.3325 8.19775 82.1772 8.38232 82.0659 8.61084V11.999H81.2529V7.24414H82.022ZM89.1543 11.999C89.1074 11.9053 89.0693 11.7383 89.04 11.498C88.6621 11.8906 88.2109 12.0869 87.6865 12.0869C87.2178 12.0869 86.8333 11.9543 86.533 11.6892C86.2327 11.4241 86.0825 11.0879 86.0825 10.6807C86.0825 10.1855 86.2708 9.80103 86.6472 9.5271C87.0237 9.25317 87.5532 9.11621 88.2358 9.11621H89.0269V8.74268C89.0269 8.45849 88.9419 8.23218 88.772 8.06372C88.6021 7.89526 88.3516 7.81104 88.0205 7.81104C87.7305 7.81104 87.4873 7.88428 87.291 8.03076C87.0947 8.17725 86.9966 8.35449 86.9966 8.5625H86.1792C86.1792 8.32519 86.2634 8.09595 86.4319 7.87476C86.6003 7.65356 86.8289 7.47852 87.1174 7.34961C87.406 7.2207 87.7231 7.15625 88.0688 7.15625C88.6167 7.15625 89.0459 7.29321 89.3564 7.56714C89.667 7.84107 89.8281 8.21826 89.8398 8.69873V10.8872C89.8398 11.3237 89.8955 11.6709 90.0068 11.9287V11.999H89.1543ZM87.8052 11.3794C88.0601 11.3794 88.3018 11.3135 88.5303 11.1816C88.7588 11.0498 88.9243 10.8784 89.0269 10.6675V9.69189H88.3896C87.3936 9.69189 86.8955 9.9834 86.8955 10.5664C86.8955 10.8213 86.9805 11.0205 87.1504 11.1641C87.3203 11.3076 87.5386 11.3794 87.8052 11.3794Z" fill="white"/>
</svg>
