<svg width="26" height="25" viewBox="0 0 26 25" fill="none" xmlns="http://www.w3.org/2000/svg">
<path d="M13.3149 1.32212e-05C10.2421 -0.00446219 7.27613 1.12741 4.98752 3.17796L7.93219 10.2471C8.37642 9.186 9.12443 8.27994 10.0822 7.6428C11.0399 7.00566 12.1646 6.66594 13.3149 6.66594H24.372C23.3106 4.65363 21.7197 2.96884 19.7711 1.79425C17.8225 0.619655 15.5902 -0.00080049 13.3149 1.32212e-05Z" fill="#0177FF"/>
<path d="M1.08775 9.90695C1.51088 7.91092 2.41609 6.04874 3.72438 4.48275L7.54562 13.6517C7.56744 13.7054 7.5948 13.757 7.6273 13.805C7.95324 15.2225 8.79706 16.4675 9.99322 17.295C11.1894 18.123 12.6516 18.4741 14.0932 18.2796L9.40709 24.3756C7.46908 23.7372 5.71681 22.6342 4.30314 21.1626C2.88941 19.6914 1.85732 17.8964 1.29688 15.9341C0.736383 13.9723 0.664573 11.903 1.08775 9.90695Z" fill="#0177FF"/>
<path d="M11.1736 24.8141C13.3242 25.1893 15.5356 24.9944 17.5876 24.249C19.6395 23.5037 21.4604 22.2339 22.8691 20.5658C24.2777 18.8981 25.2249 16.8902 25.6164 14.7424C26.0078 12.5946 25.8299 10.3818 25.1003 8.32428C25.0606 8.32998 25.0205 8.33283 24.9804 8.33242H17.3978C17.9527 8.87516 18.3934 9.52329 18.6939 10.2389C18.9944 10.9542 19.1487 11.7227 19.1477 12.4986C19.1513 13.9893 18.5821 15.4239 17.5578 16.5066L11.1736 24.8141Z" fill="#0177FF"/>
<path d="M10.369 9.55258C9.58768 10.3342 9.14874 11.3936 9.14874 12.4986C9.14874 13.6036 9.58768 14.6631 10.369 15.4447C11.1503 16.2258 12.21 16.6648 13.3149 16.6648C14.4199 16.6648 15.4796 16.2258 16.2609 15.4447C17.0422 14.6631 17.4811 13.6036 17.4811 12.4986C17.4811 11.3936 17.0422 10.3342 16.2609 9.55258C15.4796 8.77142 14.4199 8.33242 13.3149 8.33242C12.21 8.33242 11.1503 8.77142 10.369 9.55258Z" fill="#0177FF"/>
</svg>
