<svg width="68" height="50" viewBox="0 0 68 50" fill="none" xmlns="http://www.w3.org/2000/svg">
<mask id="path-1-inside-1_1963_1198" fill="white">
<path fill-rule="evenodd" clip-rule="evenodd" d="M20.4576 6.54077H53.9815C56.6698 6.54077 58.8571 8.72806 58.8571 11.4164V31.8585C58.8571 34.5468 56.6698 36.7341 53.9815 36.7341H52.1321V38.5835C52.1321 41.2718 49.9448 43.4591 47.2565 43.4591H13.7326C11.0443 43.4591 8.85706 41.2718 8.85706 38.5835V18.1447C8.85706 15.4564 11.0443 13.2691 13.7326 13.2691H15.582V11.4164C15.582 8.72806 17.7693 6.54077 20.4576 6.54077ZM47.2565 16.2936H13.7326C12.7138 16.2936 11.8833 17.1242 11.8833 18.143V21.8552H49.1059V18.143C49.1059 17.1242 48.2753 16.2936 47.2565 16.2936ZM13.7326 40.4312H47.2565C48.2753 40.4312 49.1059 39.6023 49.1059 38.5818V24.8831H11.8833V38.5818C11.8833 39.6006 12.7138 40.4312 13.7326 40.4312ZM53.9815 33.7096C55.0003 33.7096 55.8308 32.879 55.8308 31.8602V11.4164C55.8308 10.3975 55.0003 9.567 53.9815 9.567H20.4576C19.4388 9.567 18.6082 10.3975 18.6082 11.4164V13.2691H47.2565C49.9448 13.2691 52.1321 15.4564 52.1321 18.1447V33.7096H53.9815ZM18.7765 33.6255H25.641C26.4765 33.6255 27.1541 34.303 27.1541 35.1386C27.1541 35.9742 26.4765 36.6517 25.641 36.6517H18.7765C17.9409 36.6517 17.2634 35.9742 17.2634 35.1386C17.2634 34.303 17.9409 33.6255 18.7765 33.6255Z"/>
</mask>
<path fill-rule="evenodd" clip-rule="evenodd" d="M20.4576 6.54077H53.9815C56.6698 6.54077 58.8571 8.72806 58.8571 11.4164V31.8585C58.8571 34.5468 56.6698 36.7341 53.9815 36.7341H52.1321V38.5835C52.1321 41.2718 49.9448 43.4591 47.2565 43.4591H13.7326C11.0443 43.4591 8.85706 41.2718 8.85706 38.5835V18.1447C8.85706 15.4564 11.0443 13.2691 13.7326 13.2691H15.582V11.4164C15.582 8.72806 17.7693 6.54077 20.4576 6.54077ZM47.2565 16.2936H13.7326C12.7138 16.2936 11.8833 17.1242 11.8833 18.143V21.8552H49.1059V18.143C49.1059 17.1242 48.2753 16.2936 47.2565 16.2936ZM13.7326 40.4312H47.2565C48.2753 40.4312 49.1059 39.6023 49.1059 38.5818V24.8831H11.8833V38.5818C11.8833 39.6006 12.7138 40.4312 13.7326 40.4312ZM53.9815 33.7096C55.0003 33.7096 55.8308 32.879 55.8308 31.8602V11.4164C55.8308 10.3975 55.0003 9.567 53.9815 9.567H20.4576C19.4388 9.567 18.6082 10.3975 18.6082 11.4164V13.2691H47.2565C49.9448 13.2691 52.1321 15.4564 52.1321 18.1447V33.7096H53.9815ZM18.7765 33.6255H25.641C26.4765 33.6255 27.1541 34.303 27.1541 35.1386C27.1541 35.9742 26.4765 36.6517 25.641 36.6517H18.7765C17.9409 36.6517 17.2634 35.9742 17.2634 35.1386C17.2634 34.303 17.9409 33.6255 18.7765 33.6255Z" fill="#002E69"/>
<path d="M52.1321 36.7341V36.2341H51.6321V36.7341H52.1321ZM15.582 13.2691V13.7691H16.082V13.2691H15.582ZM11.8833 21.8552H11.3833V22.3552H11.8833V21.8552ZM49.1059 21.8552V22.3552H49.6059V21.8552H49.1059ZM49.1059 24.8831H49.6059V24.3831H49.1059V24.8831ZM11.8833 24.8831V24.3831H11.3833V24.8831H11.8833ZM18.6082 13.2691H18.1082V13.7691H18.6082V13.2691ZM52.1321 33.7096H51.6321V34.2096H52.1321V33.7096ZM53.9815 6.04077H20.4576V7.04077H53.9815V6.04077ZM59.3571 11.4164C59.3571 8.45192 56.9459 6.04077 53.9815 6.04077V7.04077C56.3936 7.04077 58.3571 9.0042 58.3571 11.4164H59.3571ZM59.3571 31.8585V11.4164H58.3571V31.8585H59.3571ZM53.9815 37.2341C56.9459 37.2341 59.3571 34.823 59.3571 31.8585H58.3571C58.3571 34.2707 56.3936 36.2341 53.9815 36.2341V37.2341ZM52.1321 37.2341H53.9815V36.2341H52.1321V37.2341ZM52.6321 38.5835V36.7341H51.6321V38.5835H52.6321ZM47.2565 43.9591C50.221 43.9591 52.6321 41.5479 52.6321 38.5835H51.6321C51.6321 40.9956 49.6687 42.9591 47.2565 42.9591V43.9591ZM13.7326 43.9591H47.2565V42.9591H13.7326V43.9591ZM8.35706 38.5835C8.35706 41.5479 10.7682 43.9591 13.7326 43.9591V42.9591C11.3205 42.9591 9.35706 40.9956 9.35706 38.5835H8.35706ZM8.35706 18.1447V38.5835H9.35706V18.1447H8.35706ZM13.7326 12.7691C10.7682 12.7691 8.35706 15.1802 8.35706 18.1447H9.35706C9.35706 15.7325 11.3205 13.7691 13.7326 13.7691V12.7691ZM15.582 12.7691H13.7326V13.7691H15.582V12.7691ZM15.082 11.4164V13.2691H16.082V11.4164H15.082ZM20.4576 6.04077C17.4932 6.04077 15.082 8.45192 15.082 11.4164H16.082C16.082 9.0042 18.0454 7.04077 20.4576 7.04077V6.04077ZM13.7326 16.7936H47.2565V15.7936H13.7326V16.7936ZM12.3833 18.143C12.3833 17.4003 12.99 16.7936 13.7326 16.7936V15.7936C12.4377 15.7936 11.3833 16.848 11.3833 18.143H12.3833ZM12.3833 21.8552V18.143H11.3833V21.8552H12.3833ZM49.1059 21.3552H11.8833V22.3552H49.1059V21.3552ZM48.6059 18.143V21.8552H49.6059V18.143H48.6059ZM47.2565 16.7936C47.9992 16.7936 48.6059 17.4003 48.6059 18.143H49.6059C49.6059 16.848 48.5515 15.7936 47.2565 15.7936V16.7936ZM47.2565 39.9312H13.7326V40.9312H47.2565V39.9312ZM48.6059 38.5818C48.6059 39.3259 47.9995 39.9312 47.2565 39.9312V40.9312C48.5512 40.9312 49.6059 39.8787 49.6059 38.5818H48.6059ZM48.6059 24.8831V38.5818H49.6059V24.8831H48.6059ZM11.8833 25.3831H49.1059V24.3831H11.8833V25.3831ZM12.3833 38.5818V24.8831H11.3833V38.5818H12.3833ZM13.7326 39.9312C12.99 39.9312 12.3833 39.3245 12.3833 38.5818H11.3833C11.3833 39.8768 12.4377 40.9312 13.7326 40.9312V39.9312ZM55.3308 31.8602C55.3308 32.6029 54.7242 33.2096 53.9815 33.2096V34.2096C55.2764 34.2096 56.3308 33.1552 56.3308 31.8602H55.3308ZM55.3308 11.4164V31.8602H56.3308V11.4164H55.3308ZM53.9815 10.067C54.7242 10.067 55.3308 10.6737 55.3308 11.4164H56.3308C56.3308 10.1214 55.2764 9.067 53.9815 9.067V10.067ZM20.4576 10.067H53.9815V9.067H20.4576V10.067ZM19.1082 11.4164C19.1082 10.6737 19.7149 10.067 20.4576 10.067V9.067C19.1626 9.067 18.1082 10.1214 18.1082 11.4164H19.1082ZM19.1082 13.2691V11.4164H18.1082V13.2691H19.1082ZM47.2565 12.7691H18.6082V13.7691H47.2565V12.7691ZM52.6321 18.1447C52.6321 15.1802 50.221 12.7691 47.2565 12.7691V13.7691C49.6687 13.7691 51.6321 15.7325 51.6321 18.1447H52.6321ZM52.6321 33.7096V18.1447H51.6321V33.7096H52.6321ZM53.9815 33.2096H52.1321V34.2096H53.9815V33.2096ZM25.641 33.1255H18.7765V34.1255H25.641V33.1255ZM27.6541 35.1386C27.6541 34.0269 26.7527 33.1255 25.641 33.1255V34.1255C26.2004 34.1255 26.6541 34.5792 26.6541 35.1386H27.6541ZM25.641 37.1517C26.7527 37.1517 27.6541 36.2503 27.6541 35.1386H26.6541C26.6541 35.6981 26.2004 36.1517 25.641 36.1517V37.1517ZM18.7765 37.1517H25.641V36.1517H18.7765V37.1517ZM16.7634 35.1386C16.7634 36.2503 17.6648 37.1517 18.7765 37.1517V36.1517C18.217 36.1517 17.7634 35.6981 17.7634 35.1386H16.7634ZM18.7765 33.1255C17.6648 33.1255 16.7634 34.0269 16.7634 35.1386H17.7634C17.7634 34.5792 18.217 34.1255 18.7765 34.1255V33.1255Z" fill="white" mask="url(#path-1-inside-1_1963_1198)"/>
</svg>
