<svg width="16" height="16" viewBox="0 0 16 16" fill="none" xmlns="http://www.w3.org/2000/svg">
<path fill-rule="evenodd" clip-rule="evenodd" d="M7.17233 0.11084C6.10836 0.110931 5.05984 0.36546 4.11424 0.853193C3.16865 1.34093 2.3534 2.04772 1.73651 2.9146C1.11963 3.78149 0.719 4.78333 0.568046 5.83653C0.417093 6.88974 0.520195 7.96378 0.868749 8.96904C1.2173 9.9743 1.80121 10.8816 2.57174 11.6153C3.34227 12.349 4.27709 12.8878 5.2982 13.1868C6.31931 13.4857 7.3971 13.5361 8.44166 13.3338C9.48622 13.1315 10.4673 12.6823 11.3029 12.0237L14.1697 14.8905C14.3177 15.0335 14.516 15.1126 14.7218 15.1108C14.9276 15.109 15.1245 15.0265 15.2701 14.8809C15.4156 14.7354 15.4982 14.5385 15.5 14.3327C15.5017 14.1269 15.4226 13.9286 15.2796 13.7805L12.4129 10.9138C13.1884 9.92988 13.6713 8.74753 13.8063 7.50202C13.9413 6.25651 13.7229 4.99816 13.1761 3.87098C12.6293 2.7438 11.7762 1.79334 10.7144 1.12836C9.65265 0.46338 8.42514 0.110756 7.17233 0.11084ZM2.06995 6.78319C2.06995 5.42995 2.60752 4.13214 3.5644 3.17526C4.52128 2.21838 5.8191 1.6808 7.17233 1.6808C8.52557 1.6808 9.82338 2.21838 10.7803 3.17526C11.7371 4.13214 12.2747 5.42995 12.2747 6.78319C12.2747 8.13643 11.7371 9.43424 10.7803 10.3911C9.82338 11.348 8.52557 11.8856 7.17233 11.8856C5.8191 11.8856 4.52128 11.348 3.5644 10.3911C2.60752 9.43424 2.06995 8.13643 2.06995 6.78319Z" fill="#404040"/>
</svg>
