<svg width="31" height="31" viewBox="0 0 31 31" fill="none" xmlns="http://www.w3.org/2000/svg">
<path d="M8.89995 0.0524902H21.5C26.3 0.0524902 30.2 3.95249 30.2 8.75249V21.3525C30.2 23.6599 29.2833 25.8728 27.6518 27.5043C26.0202 29.1359 23.8073 30.0525 21.5 30.0525H8.89995C4.09995 30.0525 0.199951 26.1525 0.199951 21.3525V8.75249C0.199951 6.44511 1.11656 4.23223 2.74812 2.60066C4.37969 0.969095 6.59257 0.0524902 8.89995 0.0524902ZM8.59995 3.05249C7.16778 3.05249 5.79427 3.62142 4.78158 4.63411C3.76888 5.64681 3.19995 7.02032 3.19995 8.45249V21.6525C3.19995 24.6375 5.61495 27.0525 8.59995 27.0525H21.8C23.2321 27.0525 24.6056 26.4836 25.6183 25.4709C26.631 24.4582 27.2 23.0847 27.2 21.6525V8.45249C27.2 5.46749 24.785 3.05249 21.8 3.05249H8.59995ZM23.075 5.30249C23.5722 5.30249 24.0491 5.50003 24.4008 5.85167C24.7524 6.2033 24.95 6.68021 24.95 7.17749C24.95 7.67477 24.7524 8.15169 24.4008 8.50332C24.0491 8.85495 23.5722 9.05249 23.075 9.05249C22.5777 9.05249 22.1008 8.85495 21.7491 8.50332C21.3975 8.15169 21.2 7.67477 21.2 7.17749C21.2 6.68021 21.3975 6.2033 21.7491 5.85167C22.1008 5.50003 22.5777 5.30249 23.075 5.30249ZM15.2 7.55249C17.1891 7.55249 19.0967 8.34267 20.5033 9.74919C21.9098 11.1557 22.7 13.0634 22.7 15.0525C22.7 17.0416 21.9098 18.9493 20.5033 20.3558C19.0967 21.7623 17.1891 22.5525 15.2 22.5525C13.2108 22.5525 11.3032 21.7623 9.89665 20.3558C8.49013 18.9493 7.69995 17.0416 7.69995 15.0525C7.69995 13.0634 8.49013 11.1557 9.89665 9.74919C11.3032 8.34267 13.2108 7.55249 15.2 7.55249ZM15.2 10.5525C14.0065 10.5525 12.8619 11.0266 12.018 11.8705C11.1741 12.7144 10.7 13.859 10.7 15.0525C10.7 16.246 11.1741 17.3906 12.018 18.2345C12.8619 19.0784 14.0065 19.5525 15.2 19.5525C16.3934 19.5525 17.538 19.0784 18.3819 18.2345C19.2258 17.3906 19.7 16.246 19.7 15.0525C19.7 13.859 19.2258 12.7144 18.3819 11.8705C17.538 11.0266 16.3934 10.5525 15.2 10.5525Z" fill="white"/>
</svg>
