<svg width="31" height="31" viewBox="0 0 31 31" fill="none" xmlns="http://www.w3.org/2000/svg">
<path d="M15.1951 0.0525061C11.5077 0.0471356 7.94855 1.40538 5.20221 3.86605L8.73581 12.349C9.2689 11.0757 10.1665 9.98841 11.3158 9.22385C12.465 8.45929 13.8147 8.05162 15.1951 8.05162H28.4636C27.1899 5.63685 25.2808 3.6151 22.9425 2.20559C20.6042 0.796076 17.9255 0.0515296 15.1951 0.0525061Z" fill="white"/>
<path d="M0.522492 11.9408C1.03025 9.54559 2.11649 7.31098 3.68645 5.43179L8.27194 16.4345C8.29812 16.4989 8.33095 16.5609 8.36995 16.6185C8.76108 18.3195 9.77366 19.8135 11.209 20.8065C12.6444 21.8001 14.3991 22.2214 16.129 21.9881L10.5057 29.3032C8.18009 28.5371 6.07736 27.2135 4.38095 25.4476C2.68448 23.6822 1.44597 21.5281 0.773441 19.1734C0.100847 16.8192 0.0146752 14.3361 0.522492 11.9408Z" fill="white"/>
<path d="M12.6255 29.8295C15.2063 30.2796 17.8599 30.0458 20.3223 29.1513C22.7846 28.2569 24.9697 26.7331 26.6601 24.7314C28.3505 22.7302 29.4871 20.3208 29.9568 17.7434C30.4266 15.1661 30.2131 12.5106 29.3376 10.0416C29.2899 10.0485 29.2418 10.0519 29.1936 10.0514H20.0946C20.7605 10.7027 21.2893 11.4804 21.6499 12.3392C22.0105 13.1975 22.1956 14.1198 22.1944 15.0508C22.1987 16.8397 21.5158 18.5612 20.2866 19.8604L12.6255 29.8295Z" fill="white"/>
<path d="M11.66 11.5156C10.7224 12.4535 10.1957 13.7248 10.1957 15.0508C10.1957 16.3769 10.7224 17.6482 11.66 18.5861C12.5976 19.5235 13.8692 20.0503 15.1951 20.0503C16.5211 20.0503 17.7927 19.5235 18.7302 18.5861C19.6678 17.6482 20.1946 16.3769 20.1946 15.0508C20.1946 13.7248 19.6678 12.4535 18.7302 11.5156C17.7927 10.5782 16.5211 10.0514 15.1951 10.0514C13.8692 10.0514 12.5976 10.5782 11.66 11.5156Z" fill="white"/>
</svg>
