<svg width="26" height="25" viewBox="0 0 26 25" fill="none" xmlns="http://www.w3.org/2000/svg">
<path fill-rule="evenodd" clip-rule="evenodd" d="M7.5714 5.55556C7.5714 4.08213 8.15671 2.66905 9.19858 1.62718C10.2404 0.585316 11.6535 0 13.127 0C14.6004 0 16.0135 0.585316 17.0553 1.62718C18.0972 2.66905 18.6825 4.08213 18.6825 5.55556C18.6825 7.02898 18.0972 8.44206 17.0553 9.48393C16.0135 10.5258 14.6004 11.1111 13.127 11.1111C11.6535 11.1111 10.2404 10.5258 9.19858 9.48393C8.15671 8.44206 7.5714 7.02898 7.5714 5.55556ZM7.5714 13.8889C5.72962 13.8889 3.96327 14.6205 2.66093 15.9229C1.3586 17.2252 0.626953 18.9916 0.626953 20.8333C0.626953 21.9384 1.06594 22.9982 1.84734 23.7796C2.62874 24.561 3.68855 25 4.79362 25H21.4603C22.5654 25 23.6252 24.561 24.4066 23.7796C25.188 22.9982 25.627 21.9384 25.627 20.8333C25.627 18.9916 24.8953 17.2252 23.593 15.9229C22.2906 14.6205 20.5243 13.8889 18.6825 13.8889H7.5714Z" fill="#002E69"/>
</svg>
