<svg width="22" height="25" viewBox="0 0 22 25" fill="none" xmlns="http://www.w3.org/2000/svg">
<path d="M18.4865 23.997C17.1256 25.3162 15.6397 25.1079 14.2093 24.483C12.6956 23.8442 11.3069 23.8164 9.70987 24.483C7.71012 25.344 6.6547 25.0941 5.4604 23.997C-1.31652 17.0117 -0.316644 6.3742 7.37683 5.98536C9.25159 6.08257 10.557 7.013 11.6541 7.09633C13.2928 6.76303 14.862 5.80482 16.6118 5.92981C18.7087 6.09645 20.2919 6.92968 21.3334 8.42949C17.0006 11.0264 18.0283 16.734 22 18.331C21.2084 20.4141 20.1808 22.4833 18.4727 24.0109L18.4865 23.997ZM11.5152 5.90203C11.3069 2.8052 13.8205 0.249968 16.709 0C17.1117 3.58288 13.4594 6.24921 11.5152 5.90203Z" fill="#002E69"/>
</svg>
