<svg width="100" height="101" viewBox="0 0 100 101" fill="none" xmlns="http://www.w3.org/2000/svg">
<path fill-rule="evenodd" clip-rule="evenodd" d="M29.5557 4.8083C35.7765 2.00935 42.5783 0.506611 49.4002 0.449523C56.1466 0.357176 62.9383 1.49556 69.1995 4.04266C74.7823 6.29593 79.8966 9.68087 84.1933 13.8953C84.6106 13.5426 85.025 13.1862 85.4394 12.8297L85.4396 12.8296L85.4402 12.8291C86.1008 12.2609 86.7613 11.6928 87.4338 11.1399C88.2146 10.5153 89.4856 10.737 90.0179 11.5799C90.3933 12.0964 90.3315 12.7304 90.2724 13.3376C90.259 13.4744 90.2458 13.61 90.2378 13.7425C90.103 15.3824 89.9721 17.0226 89.8411 18.6629L89.8407 18.6676L89.8403 18.6724L89.84 18.6772L89.8396 18.6819C89.6578 20.9584 89.4761 23.2349 89.2841 25.5108C89.2052 26.4544 88.2834 27.1899 87.3482 27.0958C84.9611 27.08 82.5744 27.0927 80.1878 27.1054C77.7665 27.1183 75.3453 27.1312 72.9236 27.1143C71.9161 27.1244 71.0514 26.169 71.1505 25.1683C71.1706 24.5773 71.5652 24.1122 71.9564 23.7092C72.6885 22.9184 73.4172 22.1225 74.1442 21.3267C69.2784 17.2752 63.3749 14.4812 57.154 13.2942C50.1105 11.9358 42.6774 12.6209 36.0183 15.2972C30.5917 17.4582 25.6889 20.9103 21.8002 25.2674C18.0711 29.4297 15.2772 34.4282 13.7056 39.791C11.7008 46.5844 11.6672 53.9453 13.6099 60.7555C15.1949 66.3568 18.1114 71.5719 22.0319 75.8719C25.9928 80.2323 30.9829 83.6559 36.4834 85.7664C41.9117 87.8552 47.8303 88.6594 53.6197 88.0902C54.1788 88.0231 54.795 87.9761 55.2853 88.3152C56.0576 88.7753 56.3464 89.8465 55.9435 90.6424C55.6748 91.2132 55.0888 91.6028 54.4625 91.6531C47.0513 92.449 39.4251 91.2351 32.6602 88.0902C22.4702 83.4175 14.347 74.4447 10.7656 63.8164C8.32595 56.7107 7.89948 48.9368 9.4996 41.601C10.6833 36.1475 12.997 30.9459 16.2426 26.4091C19.6225 21.6658 24.0082 17.6462 29.0285 14.6945C34.9807 11.1769 41.8311 9.20402 48.7421 9.01093C59.4174 8.63819 70.1733 12.6125 78.0043 19.8827C78.6474 20.4704 78.7448 21.5416 78.2192 22.2367C78.0024 22.5152 77.7606 22.7722 77.5186 23.0294C77.3784 23.1784 77.2382 23.3275 77.1027 23.4809H77.1076C80.0107 23.4826 82.9138 23.4842 85.8186 23.4792C85.9361 22.0016 86.0551 20.5241 86.1742 19.0465L86.181 18.9613C86.2382 18.2509 86.2955 17.5406 86.3525 16.8302C86.1904 16.9627 86.0327 17.1009 85.875 17.2392L85.8749 17.2392L85.8749 17.2393C85.6211 17.4617 85.3672 17.6841 85.0949 17.883C84.3998 18.3766 83.3638 18.2624 82.7829 17.6412C78.6625 13.2874 73.6573 9.75139 68.1081 7.4679C61.946 4.9124 55.2131 3.89994 48.5641 4.08464C41.3258 4.29788 34.1462 6.24724 27.7994 9.73628C18.4103 14.854 10.8932 23.3079 6.93403 33.2411C4.05784 40.3871 3.03363 48.2601 3.94534 55.9081C4.72274 62.5386 6.97265 68.9929 10.4802 74.6747C15.7641 83.3016 23.941 90.1168 33.3889 93.7385C39.954 96.2772 47.105 97.2578 54.1133 96.6416C54.9243 96.5375 55.7621 97.0512 56.0224 97.8286C56.4421 98.8915 55.6177 100.198 54.4676 100.245C46.1933 100.989 37.7326 99.647 30.1148 96.3192C20.2689 92.0578 11.8872 84.5273 6.57304 75.2087C3.31906 69.5385 1.20516 63.217 0.394182 56.7292C-0.512499 49.4774 0.154081 42.0225 2.41574 35.0696C4.28787 29.2652 7.25137 23.82 11.0813 19.0768C16.0076 12.96 22.3913 8.02702 29.5557 4.8083ZM48.8394 24.9098C49.7562 24.4514 50.8929 24.4631 51.7929 24.9551C52.8456 25.5142 53.5206 26.6778 53.5424 27.8615C53.5516 28.6056 53.549 29.3488 53.5465 30.0924C53.5453 30.4395 53.5441 30.7866 53.5441 31.134C56.8317 31.4731 59.9345 32.9809 62.3641 35.1956C63.1919 35.8806 63.6351 37.019 63.3766 38.0768C63.0794 39.5661 61.4675 40.644 59.9782 40.2931C59.2708 40.179 58.7417 39.7113 58.2227 39.2524C58.0851 39.1308 57.9482 39.0098 57.8089 38.8961C56.5042 37.8837 55.0284 37.0828 53.4417 36.6059C52.3996 36.2543 51.3029 36.2849 50.2142 36.3153H50.2141H50.214H50.2138H50.2137H50.2136H50.2135H50.2134H50.2133H50.2132C49.8883 36.3244 49.5642 36.3334 49.2424 36.3323C47.6473 36.3927 45.9649 36.71 44.6838 37.7242C43.5538 38.6023 42.805 40.0093 42.899 41.4584C42.9309 42.4406 43.3842 43.3993 44.1465 44.0256C45.5838 45.2429 47.4005 45.8591 49.1669 46.4283C49.7664 46.6154 50.3678 46.7982 50.9693 46.9809L50.9699 46.9811L50.9705 46.9813L50.9712 46.9815L50.9718 46.9817L50.9724 46.9819L50.9731 46.9821L50.9737 46.9823L50.9743 46.9825L50.9749 46.9827C53.2806 47.6833 55.5884 48.3845 57.8055 49.3347C59.817 50.2532 61.8369 51.4134 63.1062 53.2838C64.5183 55.2248 64.8155 57.7501 64.567 60.0806C64.2983 62.6243 62.9551 65.0287 60.9151 66.5734C59.4476 67.7554 57.6796 68.4556 55.9351 69.1138C55.1644 69.3992 54.3551 69.5537 53.5458 69.6729C53.545 70.1804 53.546 70.6878 53.547 71.1954V71.1975C53.5481 71.8061 53.5493 72.4149 53.5475 73.0243C53.5508 74.0451 53.0622 75.0676 52.2261 75.6654C51.1985 76.4428 49.684 76.52 48.596 75.8232C47.6356 75.2322 47.0311 74.1257 47.0261 73.0024C47.0239 72.5089 47.0249 72.0154 47.0259 71.5219C47.0271 70.8804 47.0284 70.2389 47.0227 69.5973C45.4612 69.3875 43.8779 69.1725 42.3987 68.6017C42.149 68.5047 41.8959 68.4124 41.6423 68.32C40.6579 67.9611 39.6658 67.5994 38.8341 66.9478C38.0092 66.3053 37.2197 65.6194 36.4309 64.9342L36.3793 64.8893C35.6825 64.2815 35.293 63.3446 35.3635 62.4228C35.4206 61.3818 36.0704 60.4097 36.9972 59.9412C37.8871 59.503 38.9785 59.6104 39.8247 60.1024C40.4013 60.5016 40.9465 60.9514 41.4919 61.4014L41.492 61.4014C42.5362 62.2629 43.5811 63.1249 44.8484 63.6334C46.1239 64.2173 47.5504 64.2351 48.9309 64.2522C49.035 64.2535 49.1389 64.2548 49.2424 64.2563C49.6531 64.2476 50.0656 64.251 50.4786 64.2544C51.6564 64.2641 52.8379 64.2738 53.989 64.0028C55.5203 63.5763 57.0483 62.7267 57.8424 61.2962C58.5157 60.0302 58.6232 58.4502 58.0876 57.1171C57.5788 55.888 56.3951 55.1459 55.2735 54.5414C54.1623 53.9466 52.968 53.5552 51.7743 53.164C51.2292 52.9853 50.6843 52.8067 50.1474 52.6088C49.3842 52.3288 48.6096 52.0691 47.8341 51.8092L47.834 51.8092C45.397 50.9923 42.9508 50.1724 40.8187 48.7051C39.0238 47.5281 37.516 45.7634 37.019 43.6411C36.3995 40.9244 36.7924 37.8703 38.5453 35.6371C40.5668 33.0128 43.8208 31.6612 47.0261 31.2045C47.029 30.691 47.0275 30.1772 47.0259 29.6634V29.6633V29.6632V29.6631V29.663V29.6629V29.6628V29.6627V29.6626V29.6625C47.0239 29.0024 47.0219 28.3424 47.0294 27.6835C47.0529 26.5149 47.7934 25.4118 48.8394 24.9098ZM89.108 36.6748C88.7941 35.7261 87.6271 35.2476 86.7221 35.6371C85.849 35.9696 85.389 37.0273 85.7013 37.9004C86.1597 39.2336 86.5492 40.5903 86.8816 41.9604C87.1016 42.8687 88.1241 43.4581 89.0258 43.2264C89.9526 43.0417 90.6057 42.0393 90.3925 41.1158C90.0634 39.6097 89.6235 38.1254 89.108 36.6748ZM95.634 35.6589C96.5709 35.2207 97.8168 35.7361 98.0989 36.7486C98.5253 38.1842 98.8544 39.6466 99.1332 41.1175C99.3733 42.0577 98.7151 43.097 97.7664 43.2817C96.8497 43.5185 95.8036 42.8989 95.6156 41.9637C95.3385 40.5852 95.0313 39.2118 94.6501 37.8584C94.368 37.0105 94.813 36.0098 95.634 35.6589ZM99.9964 50.3522C100.018 49.1248 98.581 48.2416 97.4812 48.7588C96.7911 49.0392 96.3394 49.7763 96.3848 50.5184C96.363 53.047 96.1732 55.5756 95.7501 58.069C95.733 58.1764 95.7129 58.2857 95.6926 58.3963C95.581 59.0033 95.4627 59.6469 95.8022 60.198C96.2622 61.0812 97.5131 61.3834 98.3409 60.8394C98.7942 60.5607 99.0931 60.0805 99.1737 59.5583C99.7294 56.5243 100.015 53.4366 99.9964 50.3522ZM89.0759 49.2457C89.8466 48.9468 90.7734 49.3095 91.1898 50.0113C91.4621 50.4284 91.4505 50.9317 91.4393 51.4149C91.4372 51.5037 91.4352 51.5918 91.4349 51.6786C91.3258 54.8486 90.9094 58.0237 90.0564 61.0812C89.6451 62.3338 87.7948 62.6192 86.9889 61.595C86.4365 60.9956 86.5221 60.1259 86.7538 59.4072C87.4304 56.662 87.7746 53.8395 87.825 51.0154C87.7847 50.2229 88.3405 49.4976 89.0759 49.2457ZM96.3394 66.7111C95.8643 66.1083 94.9861 65.8984 94.2792 66.1805C93.7688 66.3652 93.3894 66.7984 93.2147 67.3055C92.1838 69.9533 90.8926 72.497 89.405 74.9165C88.9567 75.6251 89.1078 76.6292 89.7374 77.1816C90.5165 77.9438 91.9487 77.7507 92.4978 76.8055C94.1113 74.2197 95.4747 71.4795 96.5913 68.6436C96.87 68.014 96.7911 67.2383 96.3394 66.7111ZM84.3948 67.5472C85.3804 67.25 86.5154 67.9485 86.6598 68.9744C86.7673 69.4999 86.5775 70.0221 86.3089 70.4687C84.749 73.2778 82.8668 75.9088 80.7093 78.2897C80.1485 78.9428 79.1058 79.0906 78.3855 78.6221C77.6988 78.2091 77.3697 77.3108 77.6131 76.5502C77.7149 76.1772 77.9759 75.8886 78.2312 75.6064C78.2579 75.5769 78.2845 75.5475 78.3108 75.5181C78.332 75.4945 78.353 75.4708 78.3737 75.4471C80.2727 73.3046 81.9148 70.9389 83.2849 68.4253C83.5116 67.9921 83.9246 67.6731 84.3948 67.5472ZM87.1835 82.0877C86.8275 81.3976 85.9981 81.0064 85.2408 81.1608C84.7841 81.2297 84.4047 81.5168 84.1091 81.8543C82.2118 83.938 80.0979 85.8185 77.8581 87.5244C77.0572 88.1171 76.9397 89.3982 77.6146 90.1286C78.1956 90.8354 79.3256 90.9631 80.0526 90.4106C82.5292 88.5553 84.8227 86.4565 86.9148 84.1764C87.432 83.629 87.5327 82.7492 87.1835 82.0877ZM71.4528 81.6461C72.2302 81.3187 73.2208 81.6159 73.6591 82.3429C74.1897 83.127 73.9647 84.309 73.1604 84.8228C70.4001 86.695 67.4063 88.2212 64.2749 89.368C63.427 89.6954 62.3793 89.2975 61.9982 88.4663C61.5264 87.5395 62.0233 86.2802 63.024 85.9646C65.6165 85.0092 68.1048 83.7734 70.4269 82.2757C70.5252 82.2135 70.6219 82.1484 70.7186 82.0833C70.9557 81.9237 71.1928 81.7642 71.4528 81.6461ZM73.095 92.9678C72.7759 92.0746 71.6812 91.5759 70.798 91.9235C68.1888 93.1828 65.4923 94.2775 62.6967 95.0566C61.8739 95.2278 61.2443 96.0119 61.2678 96.8565C61.246 97.9949 62.4532 98.915 63.5446 98.5859C66.5165 97.7598 69.4044 96.6399 72.1715 95.2765C73.0228 94.9021 73.4543 93.8258 73.095 92.9678Z" fill="#002E69"/>
</svg>
