<svg width="69" height="50" viewBox="0 0 69 50" fill="none" xmlns="http://www.w3.org/2000/svg">
<path fill-rule="evenodd" clip-rule="evenodd" d="M24.492 2.18198C27.6024 0.782506 31.0033 0.0311374 34.4143 0.00259376C37.7875 -0.0435798 41.1833 0.525613 44.3139 1.79916C47.1053 2.9258 49.6625 4.61827 51.8108 6.72546C52.0194 6.5492 52.2265 6.37108 52.4336 6.19296L52.4337 6.19287L52.4339 6.1927L52.4343 6.19236C52.7645 5.9083 53.0948 5.62425 53.4311 5.34781C53.8214 5.03551 54.457 5.14632 54.7231 5.56776C54.9108 5.82604 54.8799 6.14301 54.8504 6.44661C54.8437 6.51505 54.8371 6.58281 54.8331 6.64906C54.7655 7.47137 54.6998 8.29383 54.6341 9.11632L54.6339 9.1188C54.5431 10.257 54.4522 11.3953 54.3562 12.5332C54.3168 13.0051 53.8559 13.3728 53.3883 13.3258C52.1947 13.3178 51.0014 13.3242 49.8081 13.3305C48.5974 13.337 47.3868 13.3434 46.176 13.335C45.6722 13.34 45.2399 12.8623 45.2894 12.362C45.2995 12.0665 45.4968 11.8339 45.6924 11.6324C46.0584 11.237 46.4228 10.8391 46.7863 10.4412C44.3534 8.41541 41.4016 7.01845 38.2912 6.42491C34.7694 5.74574 31.0529 6.08826 27.7233 7.42646C25.01 8.50692 22.5586 10.233 20.6143 12.4115C18.7497 14.4927 17.3528 16.9919 16.567 19.6734C15.5646 23.07 15.5478 26.7505 16.5191 30.1556C17.3116 32.9562 18.7699 35.5638 20.7301 37.7138C22.7106 39.894 25.2056 41.6058 27.9559 42.6611C30.67 43.7054 33.6293 44.1075 36.524 43.8229C36.8036 43.7894 37.1117 43.7659 37.3568 43.9354C37.743 44.1655 37.8874 44.7011 37.6859 45.099C37.5516 45.3845 37.2586 45.5792 36.9454 45.6044C33.2398 46.0023 29.4267 45.3954 26.0443 43.8229C20.9493 41.4866 16.8877 37.0002 15.097 31.686C13.8771 28.1332 13.6639 24.2462 14.464 20.5784C15.0558 17.8516 16.2127 15.2508 17.8355 12.9824C19.5254 10.6108 21.7183 8.60094 24.2284 7.12507C27.2045 5.36628 30.6297 4.37984 34.0852 4.2833C39.4229 4.09693 44.8008 6.08407 48.7163 9.71918C49.0379 10.013 49.0866 10.5486 48.8238 10.8962C48.7154 11.0355 48.5945 11.164 48.4735 11.2926C48.4034 11.3671 48.3333 11.4416 48.2655 11.5183H48.268C49.7195 11.5191 51.1711 11.5199 52.6235 11.5174C52.6822 10.7787 52.7417 10.0399 52.8012 9.3011L52.8904 8.19294C52.8094 8.2592 52.7305 8.32831 52.6517 8.39741L52.6516 8.39744C52.5247 8.50867 52.3978 8.6199 52.2616 8.71932C51.9141 8.96613 51.3961 8.90905 51.1056 8.59842C49.0454 6.42155 46.5428 4.65353 43.7682 3.51178C40.6872 2.23403 37.3207 1.7278 33.9962 1.82015C30.377 1.92677 26.7873 2.90145 23.6139 4.64597C18.9193 7.20482 15.1608 11.4318 13.1812 16.3984C11.7431 19.9714 11.231 23.9079 11.6868 27.7319C12.0755 31.0472 13.2005 34.2743 14.9543 37.1152C17.5962 41.4286 21.6847 44.8362 26.4086 46.6471C29.6912 47.9164 33.2667 48.4067 36.7708 48.0986C37.1763 48.0466 37.5952 48.3035 37.7254 48.6922C37.9352 49.2236 37.523 49.8767 36.948 49.9002C32.8108 50.2721 28.5805 49.6014 24.7716 47.9374C19.8486 45.8067 15.6578 42.0415 13.0007 37.3822C11.3737 34.5471 10.3168 31.3863 9.91126 28.1424C9.45792 24.5165 9.79121 20.7891 10.922 17.3126C11.8581 14.4104 13.3399 11.6879 15.2548 9.31621C17.7179 6.25785 20.9098 3.79134 24.492 2.18198ZM34.1339 12.2327C34.5923 12.0035 35.1606 12.0094 35.6106 12.2554C36.137 12.5349 36.4745 13.1167 36.4854 13.7086C36.49 14.0804 36.4887 14.4517 36.4874 14.8233V14.8234V14.8235V14.8235V14.8236V14.8237V14.8238V14.8239V14.824V14.8241C36.4868 14.9976 36.4862 15.1712 36.4862 15.3448C38.13 15.5144 39.6815 16.2683 40.8962 17.3756C41.3101 17.7181 41.5318 18.2873 41.4025 18.8162C41.2539 19.5609 40.4479 20.0998 39.7033 19.9244C39.3496 19.8673 39.0851 19.6335 38.8255 19.4041C38.7567 19.3432 38.6883 19.2827 38.6186 19.2259C37.9663 18.7197 37.2284 18.3192 36.435 18.0808C35.914 17.905 35.3656 17.9203 34.8213 17.9355H34.8212H34.8212H34.8211H34.821H34.821H34.8209H34.8209H34.8208H34.8208C34.6583 17.94 34.4963 17.9445 34.3354 17.944C33.5379 17.9742 32.6967 18.1329 32.0561 18.6399C31.4911 19.079 31.1167 19.7825 31.1637 20.507C31.1796 20.9981 31.4063 21.4775 31.7875 21.7906C32.5061 22.3993 33.4144 22.7074 34.2976 22.992C34.5983 23.0858 34.9 23.1775 35.2017 23.2692L35.2017 23.2692C36.3545 23.6195 37.5084 23.9701 38.6169 24.4452C39.6227 24.9044 40.6326 25.4845 41.2673 26.4197C41.9733 27.3902 42.1219 28.6529 41.9977 29.8181C41.8634 31.09 41.1917 32.2922 40.1717 33.0645C39.438 33.6556 38.554 34.0056 37.6817 34.3347C37.2964 34.4774 36.8917 34.5547 36.4871 34.6143C36.4867 34.8677 36.4872 35.121 36.4877 35.3745V35.3746V35.3748V35.3749V35.3751V35.3752V35.3753V35.3755V35.3756V35.3757C36.4883 35.6803 36.4888 35.985 36.4879 36.29C36.4896 36.8004 36.2453 37.3117 35.8272 37.6105C35.3134 37.9992 34.5562 38.0378 34.0122 37.6894C33.532 37.3939 33.2298 36.8407 33.2272 36.2791C33.2261 36.0323 33.2266 35.7855 33.2271 35.5388C33.2278 35.218 33.2284 34.8973 33.2256 34.5765C32.4448 34.4716 31.6531 34.3641 30.9135 34.0787C30.7893 34.0304 30.6635 33.9845 30.5373 33.9385L30.5371 33.9385L30.5369 33.9384L30.5368 33.9383L30.5366 33.9383L30.5364 33.9382L30.5362 33.9381L30.536 33.9381L30.5357 33.938L30.5354 33.9378C30.0432 33.7584 29.5471 33.5775 29.1312 33.2518C28.7187 32.9305 28.324 32.5875 27.9295 32.2448L27.9038 32.2225C27.5554 31.9186 27.3607 31.4501 27.3959 30.9892C27.4245 30.4687 27.7494 29.9827 28.2128 29.7484C28.6577 29.5293 29.2034 29.5831 29.6265 29.829C29.9149 30.0286 30.1875 30.2536 30.4602 30.4785C30.9823 30.9093 31.5047 31.3403 32.1384 31.5945C32.7761 31.8865 33.4894 31.8954 34.1796 31.9039L34.3354 31.906C34.5407 31.9016 34.747 31.9033 34.9535 31.905C35.5424 31.9099 36.1332 31.9147 36.7087 31.7792C37.4744 31.566 38.2383 31.1412 38.6354 30.4259C38.9721 29.7929 39.0258 29.0029 38.758 28.3364C38.5036 27.7218 37.9117 27.3508 37.3509 27.0485C36.7953 26.7511 36.1982 26.5554 35.6013 26.3598C35.3288 26.2705 35.0563 26.1812 34.7879 26.0823C34.4063 25.9422 34.019 25.8124 33.6312 25.6824L33.6312 25.6824C32.4127 25.274 31.1896 24.864 30.1235 24.1304C29.2261 23.5419 28.4722 22.6595 28.2237 21.5984C27.9139 20.24 28.1104 18.713 28.9868 17.5964C29.9976 16.2842 31.6246 15.6084 33.2272 15.3801C33.2287 15.1233 33.2279 14.8664 33.2271 14.6096V14.6095V14.6095V14.6094V14.6093V14.6093V14.6092V14.6092V14.6091V14.6091C33.2261 14.279 33.2251 13.949 33.2289 13.6196C33.2407 13.0353 33.6109 12.4837 34.1339 12.2327ZM54.2682 18.1152C54.1112 17.6409 53.5278 17.4016 53.0753 17.5964C52.6387 17.7626 52.4087 18.2915 52.5648 18.7281C52.794 19.3946 52.9888 20.073 53.155 20.758C53.265 21.2122 53.7762 21.5069 54.2271 21.391C54.6905 21.2987 55.0171 20.7975 54.9104 20.3357C54.7459 19.5827 54.5259 18.8406 54.2682 18.1152ZM57.5312 17.6073C57.9997 17.3882 58.6226 17.6459 58.7636 18.1521C58.9769 18.8699 59.1414 19.6011 59.2808 20.3366C59.4008 20.8067 59.0717 21.3264 58.5974 21.4187C58.139 21.5371 57.616 21.2273 57.522 20.7597C57.3834 20.0704 57.2298 19.3837 57.0392 18.7071C56.8982 18.2831 57.1207 17.7827 57.5312 17.6073ZM59.7124 24.9539C59.7233 24.3402 59.0047 23.8986 58.4548 24.1572C58.1097 24.2974 57.8839 24.666 57.9066 25.037C57.8957 26.3013 57.8008 27.5657 57.5892 28.8123C57.5807 28.866 57.5707 28.9206 57.5605 28.9759L57.5605 28.976C57.5047 29.2795 57.4455 29.6013 57.6153 29.8769C57.8453 30.3184 58.4707 30.4696 58.8846 30.1975C59.1113 30.0582 59.2607 29.8181 59.301 29.557C59.5789 28.04 59.7216 26.4961 59.7124 24.9539ZM54.2521 24.4007C54.6375 24.2513 55.1009 24.4326 55.3091 24.7835C55.4453 24.992 55.4394 25.2437 55.4338 25.4853L55.4328 25.5328C55.4322 25.5612 55.4317 25.5893 55.4317 25.6171C55.3771 27.2022 55.1689 28.7897 54.7424 30.3185C54.5367 30.9447 53.6116 31.0875 53.2086 30.5753C52.9324 30.2756 52.9752 29.8408 53.0911 29.4815C53.4294 28.1088 53.6015 26.6976 53.6267 25.2855C53.6065 24.8893 53.8844 24.5266 54.2521 24.4007ZM57.8839 33.1334C57.6463 32.832 57.2072 32.727 56.8538 32.8681C56.5986 32.9604 56.4089 33.177 56.3216 33.4306C55.8061 34.7545 55.1605 36.0264 54.4167 37.2361C54.1925 37.5904 54.2681 38.0924 54.5829 38.3686C54.9724 38.7498 55.6886 38.6532 55.9631 38.1806C56.7699 36.8877 57.4515 35.5176 58.0098 34.0997C58.1492 33.7848 58.1097 33.397 57.8839 33.1334ZM51.9116 33.5514C52.4044 33.4028 52.9719 33.7521 53.0441 34.265C53.0978 34.5278 53.0029 34.7889 52.8686 35.0122C52.0887 36.4167 51.1476 37.7322 50.0688 38.9227C49.7884 39.2492 49.2671 39.3231 48.9069 39.0889C48.5636 38.8824 48.399 38.4332 48.5208 38.0529C48.5716 37.8664 48.7022 37.7221 48.8298 37.581L48.8298 37.581C48.8539 37.5544 48.8778 37.528 48.9011 37.5014C49.8506 36.4301 50.6716 35.2473 51.3567 33.9905C51.47 33.7739 51.6765 33.6144 51.9116 33.5514ZM53.3059 40.8217C53.1279 40.4766 52.7132 40.281 52.3346 40.3583C52.1062 40.3927 51.9165 40.5362 51.7688 40.705C50.8201 41.7468 49.7631 42.6871 48.6432 43.54C48.2428 43.8364 48.184 44.4769 48.5215 44.8421C48.812 45.1956 49.377 45.2594 49.7405 44.9832C50.9788 44.0555 52.1256 43.0061 53.1716 41.866C53.4302 41.5923 53.4805 41.1524 53.3059 40.8217ZM45.4406 40.6009C45.8293 40.4372 46.3246 40.5858 46.5437 40.9493C46.809 41.3413 46.6965 41.9324 46.2944 42.1893C44.9142 43.1253 43.4174 43.8884 41.8517 44.4618C41.4277 44.6255 40.9038 44.4266 40.7133 44.011C40.4774 43.5476 40.7259 42.918 41.2262 42.7601C42.5224 42.2824 43.7666 41.6646 44.9277 40.9157C44.9768 40.8846 45.0251 40.852 45.0735 40.8195C45.1921 40.7397 45.3106 40.6599 45.4406 40.6009ZM46.2617 46.2618C46.1022 45.8151 45.5548 45.5658 45.1132 45.7396C43.8086 46.3692 42.4603 46.9166 41.0625 47.3061C40.6512 47.3918 40.3363 47.7838 40.3481 48.2061C40.3372 48.7753 40.9408 49.2353 41.4865 49.0708C42.9724 48.6577 44.4164 48.0978 45.7999 47.4161C46.2256 47.2289 46.4413 46.6908 46.2617 46.2618Z" fill="#002E69"/>
</svg>
