<svg width="68" height="50" viewBox="0 0 68 50" fill="none" xmlns="http://www.w3.org/2000/svg">
<path fill-rule="evenodd" clip-rule="evenodd" d="M40.2397 0.038066C42.8187 -0.158998 45.4578 0.411372 47.7066 1.69563C49.9643 2.97766 51.8241 4.9535 52.9552 7.2915C54.2595 9.96115 54.577 13.08 53.916 15.9705C53.4266 18.133 52.3677 20.1616 50.87 21.7969C49.2653 23.5637 47.1578 24.8696 44.8577 25.5091C42.055 26.2929 38.9882 26.1219 36.3022 24.9938C33.8251 23.9638 31.6857 22.1464 30.2661 19.8709C28.8539 17.6325 28.1623 14.9517 28.3088 12.3103C28.4263 9.9262 29.2339 7.583 30.6022 5.62798C32.0107 3.60752 33.9806 1.97301 36.2516 1.01074C37.5165 0.47235 38.8692 0.142175 40.2397 0.038066ZM40.0144 1.59227C36.909 1.91129 34.014 3.62537 32.1438 6.1106C30.5375 8.20468 29.6972 10.8721 29.8288 13.5098C29.93 15.9244 30.8335 18.2929 32.3535 20.1691C33.9077 22.107 36.1036 23.5229 38.516 24.1215C41.2764 24.819 44.2963 24.4509 46.7956 23.0804C48.976 21.8928 50.7451 19.9668 51.7423 17.6927C52.9284 15.0045 53.0533 11.8567 52.0405 9.09407C51.2099 6.79846 49.6177 4.79065 47.5824 3.44466C45.3783 1.97078 42.6506 1.30076 40.0144 1.59227ZM40.3967 5.1052C40.4644 4.50731 41.095 4.0589 41.6832 4.19052C42.1762 4.27604 42.5592 4.74528 42.5652 5.24203C42.5684 5.44502 42.5675 5.64823 42.5665 5.85153V5.8516C42.5657 6.02291 42.5649 6.19428 42.5666 6.36566C43.7052 6.4839 44.7849 7.01486 45.6059 7.80534C45.9643 8.14741 45.9814 8.77058 45.6379 9.12901C45.3196 9.50678 44.6957 9.56999 44.3194 9.24353C43.5847 8.58318 42.6358 8.03959 41.617 8.1028C41.0035 8.09387 40.3543 8.12287 39.8092 8.43594C39.3593 8.6977 39.015 9.17884 39.0083 9.71128C38.9912 10.066 39.1303 10.4289 39.404 10.6609C39.9135 11.1061 40.5646 11.313 41.2005 11.5151C41.2847 11.5418 41.3686 11.5685 41.4519 11.5957C42.2766 11.8344 43.0983 12.0909 43.8948 12.4144C44.6287 12.7342 45.3672 13.1528 45.8141 13.8407C46.3257 14.6029 46.3778 15.5927 46.1889 16.4687C45.9688 17.4525 45.2259 18.246 44.335 18.6788C43.7713 18.9398 43.1913 19.2001 42.5674 19.2707C42.5645 19.451 42.5655 19.6314 42.5666 19.8118C42.5679 20.0437 42.5693 20.2757 42.5622 20.5074C42.5317 21.0577 42.0112 21.5113 41.4646 21.4905C40.8927 21.4994 40.3997 20.9848 40.3878 20.4226C40.382 20.2045 40.3831 19.9865 40.3842 19.7684V19.7682C40.3851 19.5937 40.386 19.4192 40.3833 19.2447C39.697 19.1726 39.0217 19.0142 38.3859 18.7435C37.8759 18.5871 37.4753 18.2369 37.0804 17.8916L37.0803 17.8915C37.0002 17.8215 36.9204 17.7517 36.8399 17.6838C36.5246 17.4273 36.3982 16.9714 36.532 16.5884C36.6614 16.1765 37.0846 15.8708 37.5218 15.9229C37.8631 15.9318 38.1309 16.1579 38.374 16.3705C38.4784 16.4489 38.5803 16.5315 38.6822 16.6142L38.6822 16.6143C38.9548 16.8355 39.2279 17.0573 39.5527 17.1975C40.0864 17.4657 40.6801 17.457 41.2666 17.4484H41.2668C41.4574 17.4456 41.6473 17.4428 41.8342 17.4496C42.4819 17.4808 43.1586 17.3194 43.6583 16.8889C44.2071 16.4338 44.364 15.5801 44.0331 14.9532C43.7185 14.4289 43.1192 14.1709 42.5763 13.95C42.2027 13.8236 41.8299 13.6945 41.4569 13.5654L41.4568 13.5654C40.9635 13.3946 40.4701 13.2239 39.9751 13.0591C39.0158 12.7044 38.0089 12.2508 37.4095 11.3822C36.9648 10.7658 36.892 9.96486 36.9804 9.23015C37.0771 8.49321 37.4832 7.81352 38.0572 7.34726C38.7161 6.80292 39.5475 6.51439 40.3841 6.38871C40.3879 6.2211 40.3861 6.05325 40.3842 5.8854C40.3814 5.62507 40.3786 5.36472 40.3967 5.1052ZM29.6378 29.2585C27.0224 29.1522 24.3803 30.0609 22.3858 31.7564C21.7695 32.2904 21.1554 32.8268 20.5412 33.3631C19.9008 33.9223 19.2605 34.4816 18.6178 35.0381C18.0028 34.5398 17.2793 34.1509 16.4858 34.0483C15.0826 33.8334 13.5849 34.4275 12.7319 35.566C12.2923 36.1678 11.8565 36.7726 11.4209 37.3771C11.0991 37.8237 10.7774 38.2702 10.4542 38.7153C10.0407 39.1667 10.3597 39.9877 10.9784 40.016C11.2595 40.0457 11.5466 39.9118 11.705 39.6776C12.011 39.2558 12.3155 38.8329 12.62 38.41C13.0843 37.765 13.5487 37.1201 14.0184 36.4792C14.7866 35.4827 16.3587 35.2835 17.3492 36.062C18.5724 36.96 19.7956 37.8577 21.0188 38.7554C22.8549 40.1029 24.691 41.4503 26.5271 42.7986C27.1994 43.2842 27.5853 44.132 27.5087 44.9574C27.4716 45.3947 27.3124 45.8193 27.0574 46.177C26.4528 47.0329 25.8482 47.8888 25.2444 48.7448C24.9975 49.066 25.0555 49.5709 25.3745 49.8223C25.7106 50.1138 26.2892 50.0379 26.5286 49.6587C26.728 49.3758 26.9279 49.0931 27.1279 48.8104C27.5744 48.179 28.0211 47.5473 28.4628 46.9124C29.3321 45.5903 29.2875 43.7587 28.3795 42.4662C29.5233 41.5746 30.9488 41.063 32.3952 40.9938C32.9805 40.9554 33.5626 41.0225 34.1436 41.0894C34.3038 41.1079 34.4638 41.1263 34.6239 41.1426C35.1588 41.2006 35.6938 41.2596 36.2287 41.3185C36.7631 41.3774 37.2975 41.4363 37.8319 41.4943C40.5395 41.7694 43.3184 41.298 45.7814 40.1409C47.5196 39.3121 49.2579 38.4829 50.9961 37.6538C52.7344 36.8246 54.4726 35.9955 56.2109 35.1667C56.9939 34.8239 57.6178 34.1368 57.8736 33.3195C58.2447 32.1996 57.8833 30.8722 56.9709 30.1174C56.1804 29.4466 55.0456 29.2392 54.0588 29.5351C53.8466 29.5976 53.6454 29.6888 53.4446 29.7798C53.4062 29.7972 53.3678 29.8146 53.3293 29.8319C51.6331 30.5943 49.9368 31.3562 48.2404 32.118C46.5417 32.881 44.843 33.6439 43.1444 34.4074C42.8923 32.7298 41.7241 31.2254 40.1498 30.5852C39.5209 30.3065 38.8377 30.2364 38.1597 30.1668C37.9983 30.1503 37.8372 30.1337 37.6772 30.1144C36.5953 29.9961 35.5135 29.877 34.4318 29.7579C33.379 29.642 32.3264 29.5261 31.2738 29.411C31.144 29.3972 31.0144 29.3823 30.8848 29.3675C30.4697 29.3201 30.0548 29.2727 29.6378 29.2585ZM22.0204 34.166C22.4604 33.7826 22.9005 33.3993 23.3399 33.0154C24.8562 31.7021 26.8201 30.9257 28.8227 30.8328C29.4719 30.7926 30.1211 30.8618 30.7651 30.9369C31.7901 31.0504 32.8152 31.1626 33.8402 31.2748C35.4672 31.4529 37.0942 31.631 38.7205 31.8144C40.2264 31.9996 41.475 33.318 41.6125 34.8239C40.8325 34.8258 40.0527 34.8255 39.2728 34.8252C38.5635 34.825 37.8542 34.8247 37.1448 34.8261C36.9076 34.8217 36.6726 34.928 36.5253 35.1146C36.2762 35.4121 36.3 35.8947 36.5766 36.1669C36.7402 36.3416 36.9856 36.4101 37.2206 36.4004C38.2907 36.399 39.3605 36.3991 40.4304 36.3991C41.0728 36.3992 41.7152 36.3992 42.3577 36.3989C42.561 36.4042 42.7451 36.3185 42.9268 36.234C42.9763 36.2109 43.0257 36.1879 43.0753 36.1669C44.8096 35.3867 46.5443 34.6078 48.2791 33.8288C50.222 32.9563 52.1649 32.0839 54.1071 31.2098C54.4648 31.0299 54.8723 30.9109 55.2739 30.9994C55.8309 31.0923 56.3083 31.543 56.4124 32.1014C56.5604 32.7343 56.2064 33.4266 55.6219 33.701C53.2351 34.8405 50.8477 35.979 48.4607 37.1174C47.9972 37.3385 47.5336 37.5595 47.0701 37.7806C46.7817 37.9158 46.4947 38.054 46.2077 38.1922C45.6881 38.4425 45.1685 38.6927 44.6406 38.925C43.1192 39.569 41.4787 39.9304 39.8278 39.9899C38.8365 40.0335 37.852 39.9204 36.869 39.8075C36.594 39.776 36.3191 39.7444 36.0442 39.7163C35.719 39.6818 35.394 39.6453 35.0691 39.6089C34.5461 39.5502 34.0232 39.4916 33.4995 39.4411C31.2686 39.2478 28.9692 39.9371 27.2395 41.3657C24.8012 39.575 22.3635 37.785 19.9244 35.9966C20.6214 35.3845 21.3209 34.7752 22.0204 34.166Z" fill="#002E69"/>
</svg>
