<svg width="25" height="25" viewBox="0 0 25 25" fill="none" xmlns="http://www.w3.org/2000/svg">
<rect width="25" height="25" rx="12.5" fill="#002E69"/>
<path fill-rule="evenodd" clip-rule="evenodd" d="M12.0242 7.11025C9.27091 7.303 7.09714 9.59764 7.09714 12.4C7.09714 15.3287 9.47131 17.7029 12.4 17.7029C14.7463 17.7029 16.7371 16.1787 17.4358 14.0667C16.8981 14.2888 16.3088 14.4114 15.6914 14.4114C13.1667 14.4114 11.12 12.3647 11.12 9.84C11.12 8.81663 11.4565 7.87179 12.0242 7.11025ZM6 12.4C6 8.86538 8.86538 6 12.4 6C12.7289 6 13.0523 6.02485 13.3684 6.07286C13.587 6.10608 13.7644 6.26736 13.8181 6.48191C13.8719 6.69646 13.7915 6.9223 13.6143 7.05468C12.7652 7.68912 12.2171 8.70049 12.2171 9.84C12.2171 11.7588 13.7726 13.3143 15.6914 13.3143C16.521 13.3143 17.2814 13.0242 17.8788 12.5394C18.0505 12.4001 18.289 12.3775 18.4838 12.482C18.6786 12.5865 18.7916 12.7977 18.7705 13.0178C18.4594 16.2628 15.7263 18.8 12.4 18.8C8.86538 18.8 6 15.9346 6 12.4Z" fill="white"/>
</svg>
