<svg width="22" height="25" viewBox="0 0 22 25" fill="none" xmlns="http://www.w3.org/2000/svg">
<path d="M4.41766 18.9093C4.41766 19.5622 4.95229 20.0951 5.61007 20.0951H6.97321V23.4543C6.97321 24.3053 7.65898 25 8.5015 25C9.34682 25 10.0298 24.3081 10.0298 23.4543V20.0923H12.409V23.4515C12.409 24.3025 13.0948 24.9972 13.9373 24.9972C14.7826 24.9972 15.4656 24.3053 15.4656 23.4515V20.0923H16.8287C17.4865 20.0923 18.0211 19.5594 18.0211 18.9065V7.88023H4.41766V18.9093ZM14.4131 2.1662L15.6699 0.352659C15.7427 0.246637 15.7259 0.104345 15.6279 0.0345932C15.53 -0.0323681 15.39 0.0011127 15.3172 0.107135L14.0129 1.99321C13.1535 1.65561 12.1963 1.46868 11.1914 1.46868C10.1865 1.46868 9.22926 1.65561 8.36994 1.99321L7.06558 0.109925C6.9928 0.00390271 6.85285 -0.032368 6.75488 0.0373834C6.65692 0.104345 6.64012 0.243847 6.7129 0.355449L7.96968 2.16898C5.97115 3.09528 4.57161 4.85023 4.39247 6.90092H17.9959C17.8112 4.84744 16.4089 3.09249 14.4131 2.1662ZM8.31956 5.026C8.17064 5.026 8.02507 4.98198 7.90124 4.89951C7.77742 4.81705 7.68092 4.69983 7.62393 4.56269C7.56694 4.42555 7.55203 4.27464 7.58108 4.12906C7.61013 3.98347 7.68184 3.84974 7.78714 3.74478C7.89245 3.63981 8.02661 3.56833 8.17267 3.53937C8.31872 3.51041 8.47012 3.52528 8.6077 3.58208C8.74528 3.63889 8.86288 3.73508 8.94561 3.85851C9.02835 3.98193 9.07251 4.12704 9.07251 4.27548C9.07199 4.47437 8.9925 4.66497 8.8514 4.80561C8.71031 4.94625 8.5191 5.02549 8.31956 5.026ZM14.1528 5.026C14.0039 5.026 13.8583 4.98198 13.7345 4.89951C13.6107 4.81705 13.5142 4.69983 13.4572 4.56269C13.4002 4.42555 13.3853 4.27464 13.4143 4.12906C13.4434 3.98347 13.5151 3.84974 13.6204 3.74478C13.7257 3.63981 13.8599 3.56833 14.0059 3.53937C14.152 3.51041 14.3034 3.52528 14.441 3.58208C14.5785 3.63889 14.6961 3.73508 14.7789 3.85851C14.8616 3.98193 14.9058 4.12704 14.9058 4.27548C14.9052 4.47437 14.8257 4.66497 14.6847 4.80561C14.5436 4.94625 14.3523 5.02549 14.1528 5.026ZM20.4059 7.83559C19.5606 7.83559 18.8776 8.52752 18.8776 9.38128V15.419C18.8776 16.2699 19.5634 16.9646 20.4059 16.9646C21.2512 16.9646 21.9342 16.2727 21.9342 15.419V9.37849C21.937 8.52473 21.254 7.83559 20.4059 7.83559ZM1.97128 7.83559C1.12596 7.83559 0.442993 8.52752 0.442993 9.38128V15.419C0.442993 16.2699 1.12876 16.9646 1.97128 16.9646C2.8166 16.9646 3.49957 16.2727 3.49957 15.419V9.37849C3.49957 8.52473 2.8138 7.83559 1.97128 7.83559Z" fill="#002E69"/>
</svg>
