<svg width="69" height="48" viewBox="0 0 69 48" fill="none" xmlns="http://www.w3.org/2000/svg">
<path fill-rule="evenodd" clip-rule="evenodd" d="M48.0292 20.9449V6.05128C48.0292 2.71382 45.3154 0 41.978 0H16.3369C12.9995 0 10.2856 2.71382 10.2856 6.05128V41.9487C10.2856 45.2862 12.9995 48 16.3369 48H44.5421C52.1205 48 58.2856 41.8349 58.2856 34.2564C58.2856 28.1388 54.2649 22.9445 48.7239 21.1676L48.0292 20.9449ZM46.1831 20.5955L45.1349 20.545C45.0076 20.5389 44.9161 20.5321 44.8386 20.5264L44.8384 20.5264C44.7328 20.5187 44.6528 20.5128 44.5421 20.5128C36.9636 20.5128 30.7985 26.6779 30.7985 34.2564C30.7985 38.2799 32.545 41.893 35.3174 44.414L37.2307 46.1538H16.3369C14.018 46.1538 12.1318 44.2677 12.1318 41.9487V6.05128C12.1318 3.73233 14.018 1.84615 16.3369 1.84615H41.978C44.2969 1.84615 46.1831 3.73233 46.1831 6.05128V20.5955ZM44.5421 46.1538C37.9795 46.1538 32.6446 40.819 32.6446 34.2564C32.6446 27.6939 37.9795 22.359 44.5421 22.359C51.1046 22.359 56.4395 27.6939 56.4395 34.2564C56.4395 40.819 51.1046 46.1538 44.5421 46.1538ZM24.9523 29.1282C24.9523 29.6375 24.5385 30.0513 24.0292 30.0513H18.901C18.3918 30.0513 17.978 29.6375 17.978 29.1282C17.978 28.619 18.3918 28.2051 18.901 28.2051H24.0292C24.5385 28.2051 24.9523 28.619 24.9523 29.1282ZM24.9523 36.8205C24.9523 37.3298 24.5385 37.7436 24.0292 37.7436H18.901C18.3918 37.7436 17.978 37.3298 17.978 36.8205C17.978 36.3113 18.3918 35.8974 18.901 35.8974H24.0292C24.5385 35.8974 24.9523 36.3113 24.9523 36.8205ZM21.7728 18.1026H37.1574C39.0795 18.1026 40.6446 16.5375 40.6446 14.6154V9.48718C40.6446 7.5651 39.0795 6 37.1574 6H21.7728C19.8507 6 18.2856 7.5651 18.2856 9.48718V14.6154C18.2856 16.5375 19.8507 18.1026 21.7728 18.1026ZM20.1318 9.48718C20.1318 8.58105 20.8667 7.84615 21.7728 7.84615H37.1574C38.0636 7.84615 38.7985 8.58105 38.7985 9.48718V14.6154C38.7985 15.5215 38.0636 16.2564 37.1574 16.2564H21.7728C20.8667 16.2564 20.1318 15.5215 20.1318 14.6154V9.48718ZM45.0724 25.464L45.4355 25.9884C45.7986 26.4726 45.9802 27.0778 45.9802 27.683V27.7435L45.8995 30.9106L47.6142 31.5764V31.3545C47.6142 30.9308 47.9571 30.5879 48.3807 30.5879C48.8044 30.5879 49.1473 30.9308 49.1473 31.3545V32.1815L50.6603 32.7666C51.0436 32.9078 51.2856 33.2709 51.2856 33.6945V34.8242C51.2856 34.8847 51.2655 34.9251 51.2251 34.9654C51.1848 35.0058 51.1444 35.0058 51.0839 35.0058L45.7784 34.098L45.4758 38.2738L47.1098 39.2219C47.3317 39.3631 47.473 39.6052 47.473 39.8674V40.755C47.473 40.8156 47.4528 40.8559 47.4124 40.8963C47.3721 40.9366 47.3116 40.9366 47.2712 40.9366L44.2856 40.1499L41.3 40.9164C41.2395 40.9366 41.1992 40.9164 41.1588 40.8761C41.1185 40.8357 41.0983 40.7954 41.0983 40.7349V39.8473C41.0983 39.585 41.2395 39.3429 41.4614 39.2017L43.0954 38.2334L42.7928 34.0375L37.4874 34.9452C37.4268 34.9452 37.3865 34.9452 37.3461 34.9049C37.3058 34.8645 37.2856 34.8242 37.2856 34.7637V33.634C37.2856 33.2305 37.5277 32.8674 37.911 32.706L39.424 32.121V31.2939C39.424 30.8703 39.7669 30.5274 40.1905 30.5274C40.6142 30.5274 40.9571 30.8703 40.9571 31.2939V31.5158L42.6718 30.8501L42.5911 27.683C42.5709 27.0576 42.7727 26.4323 43.1358 25.9279L43.4989 25.4034C43.6804 25.1412 43.9629 25 44.2856 25C44.6084 25.0605 44.8908 25.2017 45.0724 25.464ZM43.2164 43.0749V41.7839C43.2164 41.6023 43.0551 41.4409 42.8735 41.4409C42.692 41.4409 42.5306 41.6023 42.5306 41.7839V43.0749C42.5306 43.2565 42.692 43.4179 42.8735 43.4179C43.0551 43.4179 43.2164 43.2565 43.2164 43.0749ZM44.6286 41.4409V43.8819C44.6286 44.0634 44.4672 44.2248 44.2857 44.2248C44.1041 44.2248 43.9427 44.0634 43.9427 43.8819V41.4409C43.9427 41.2594 44.1041 41.098 44.2857 41.098C44.4672 41.098 44.6286 41.2392 44.6286 41.4409ZM45.3548 41.7839V43.0749C45.3548 43.2565 45.5162 43.4179 45.6977 43.4179C45.8793 43.4179 46.0407 43.2565 46.0407 43.0749V41.7839C46.0407 41.6023 45.8793 41.4409 45.6977 41.4409C45.5162 41.4409 45.3548 41.6023 45.3548 41.7839Z" fill="#002E69"/>
</svg>
