<svg width="23" height="27" viewBox="0 0 23 27" fill="none" xmlns="http://www.w3.org/2000/svg">
<path d="M3.53516 11V22.25H18.5352V11C18.5352 9.01088 17.745 7.10322 16.3385 5.6967C14.9319 4.29018 13.0243 3.5 11.0352 3.5C9.04603 3.5 7.13838 4.29018 5.73186 5.6967C4.32533 7.10322 3.53516 9.01088 3.53516 11Z" fill="#002E69"/>
<path d="M3.53516 22.25V11C3.53516 9.01088 4.32533 7.10322 5.73186 5.6967C7.13838 4.29018 9.04603 3.5 11.0352 3.5C13.0243 3.5 14.9319 4.29018 16.3385 5.6967C17.745 7.10322 18.5352 9.01088 18.5352 11V22.25M3.53516 22.25H18.5352M3.53516 22.25H1.03516M18.5352 22.25H21.0352M9.78516 26H12.2852" stroke="#002E69" stroke-width="2" stroke-linecap="round" stroke-linejoin="round"/>
<path d="M11.0352 3.5C11.7255 3.5 12.2852 2.94036 12.2852 2.25C12.2852 1.55964 11.7255 1 11.0352 1C10.3448 1 9.78516 1.55964 9.78516 2.25C9.78516 2.94036 10.3448 3.5 11.0352 3.5Z" stroke="#002E69" stroke-width="2"/>
</svg>
