<svg width="25" height="25" viewBox="0 0 25 25" fill="none" xmlns="http://www.w3.org/2000/svg">
<path d="M12.496 1.32212e-05C9.42309 -0.00446219 6.45716 1.12741 4.16855 3.17796L7.11322 10.2471C7.55745 9.186 8.30546 8.27994 9.2632 7.6428C10.2209 7.00566 11.3456 6.66594 12.496 6.66594H23.553C22.4916 4.65363 20.9007 2.96884 18.9522 1.79425C17.0036 0.619655 14.7713 -0.00080049 12.496 1.32212e-05Z" fill="#002E69"/>
<path d="M0.268784 9.90695C0.691914 7.91092 1.59712 6.04874 2.90541 4.48275L6.72665 13.6517C6.74847 13.7054 6.77583 13.757 6.80833 13.805C7.13427 15.2225 7.97809 16.4675 9.17425 17.295C10.3704 18.123 11.8326 18.4741 13.2742 18.2796L8.58812 24.3756C6.65011 23.7372 4.89784 22.6342 3.48417 21.1626C2.07044 19.6914 1.03835 17.8964 0.477908 15.9341C-0.0825865 13.9723 -0.154397 11.903 0.268784 9.90695Z" fill="#002E69"/>
<path d="M10.3546 24.8141C12.5053 25.1893 14.7166 24.9944 16.7686 24.249C18.8205 23.5037 20.6415 22.2339 22.0501 20.5658C23.4587 18.8981 24.406 16.8902 24.7974 14.7424C25.1889 12.5946 25.011 10.3818 24.2814 8.32428C24.2416 8.32998 24.2015 8.33283 24.1614 8.33242H16.5789C17.1338 8.87516 17.5744 9.52329 17.875 10.2389C18.1755 10.9542 18.3297 11.7227 18.3287 12.4986C18.3323 13.9893 17.7632 15.4239 16.7389 16.5066L10.3546 24.8141Z" fill="#002E69"/>
<path d="M9.55003 9.55258C8.76871 10.3342 8.32977 11.3936 8.32977 12.4986C8.32977 13.6036 8.76871 14.6631 9.55003 15.4447C10.3313 16.2258 11.391 16.6648 12.496 16.6648C13.6009 16.6648 14.6606 16.2258 15.4419 15.4447C16.2232 14.6631 16.6622 13.6036 16.6622 12.4986C16.6622 11.3936 16.2232 10.3342 15.4419 9.55258C14.6606 8.77142 13.6009 8.33242 12.496 8.33242C11.391 8.33242 10.3313 8.77142 9.55003 9.55258Z" fill="#002E69"/>
</svg>
