<svg width="69" height="50" viewBox="0 0 69 50" fill="none" xmlns="http://www.w3.org/2000/svg">
<path fill-rule="evenodd" clip-rule="evenodd" d="M29.9925 0.00609293C28.9982 0.047104 28.0196 0.38655 27.2126 0.968907C26.2025 1.69196 25.4624 2.78601 25.186 3.99868C25.0354 4.6203 25.0412 5.25864 25.0471 5.89501C25.049 6.10607 25.051 6.31691 25.0472 6.52685C25.0475 7.29205 25.0473 8.05724 25.0472 8.8224C25.0469 9.96952 25.0467 11.1165 25.0478 12.2633C22.9271 13.6942 20.8047 15.1228 18.6824 16.5515L18.682 16.5517C16.8739 17.7688 15.0658 18.9859 13.2587 20.2043C13.0038 20.3671 12.884 20.6776 12.901 20.9728C12.902 21.7986 12.9016 22.6244 12.9012 23.4501C12.9006 24.6888 12.9 25.9275 12.9042 27.1661C12.8821 27.7251 13.5225 28.1466 14.0285 27.9087C16.0452 27.0954 18.0613 26.2802 20.0774 25.465L20.0775 25.4649L20.0776 25.4649C21.7338 24.7952 23.39 24.1255 25.0466 23.4568L25.0469 26.4014C25.0471 28.3645 25.0474 30.3276 25.0466 32.2906C24.5854 32.5203 24.1225 32.7468 23.6597 32.9733L23.659 32.9736L23.6578 32.9742L23.6569 32.9746C23.214 33.1914 22.7711 33.4081 22.3298 33.6276C22.0288 33.762 21.8547 34.0913 21.8704 34.415C21.8715 35.2184 21.8712 36.0221 21.8709 36.8258C21.8705 37.8973 21.8701 38.9687 21.873 40.0398C21.854 40.5723 22.4421 40.9919 22.9399 40.7995C24.3245 40.2547 25.7075 39.7052 27.0906 39.1556L27.0929 39.1547C28.1374 38.7397 29.1819 38.3247 30.2272 37.9117C31.0905 38.254 31.9536 38.5967 32.8168 38.9395L32.8267 38.9434L32.8269 38.9435L32.8271 38.9436L32.8274 38.9437L32.8276 38.9438L32.8278 38.9439L32.8281 38.9439C34.3804 39.5603 35.9328 40.1767 37.4862 40.7913C37.9676 40.9938 38.5676 40.614 38.5752 40.0884C38.583 38.922 38.5819 37.7553 38.5808 36.5886V36.5885V36.5885V36.5885V36.5884V36.5884V36.5884V36.5865C38.5801 35.8618 38.5794 35.1371 38.5809 34.4125C38.5966 34.1008 38.4345 33.7815 38.1499 33.6427C37.6855 33.4094 37.2185 33.1812 36.7516 32.9531L36.7511 32.9529L36.7507 32.9527L36.7504 32.9525L36.75 32.9523L36.7497 32.9522L36.7493 32.952L36.7489 32.9518C36.3002 32.7326 35.8514 32.5133 35.4047 32.2894C35.4045 31.0998 35.4047 29.9102 35.4048 28.7206V28.7206V28.7205V28.7205V28.7205V28.7204V28.7204C35.4052 26.5791 35.4055 24.4377 35.4035 22.2965C35.4236 21.8978 35.1221 21.5123 34.7227 21.4599C34.2608 21.3691 33.7857 21.7615 33.7882 22.2316C33.7838 24.7212 33.7847 27.2111 33.7856 29.701V29.701V29.7011V29.7012V29.7012V29.7013V29.7013C33.786 30.726 33.7864 31.7506 33.7864 32.7752C33.7782 33.0818 33.9554 33.3821 34.2324 33.5172L35.1484 33.9667L35.1534 33.9691L35.1583 33.9715L35.1632 33.9739L35.18 33.9821C35.7736 34.2735 36.3674 34.5649 36.9612 34.856C36.961 35.4227 36.961 35.9893 36.9611 36.556V36.5652C36.9612 37.3249 36.9613 38.0845 36.9606 38.8442C35.3186 38.1951 33.6783 37.5436 32.0376 36.892L30.8733 36.4296C30.826 36.4117 30.7789 36.3923 30.7319 36.373L30.7318 36.3729L30.7317 36.3729C30.5944 36.3164 30.4567 36.2597 30.3092 36.239C30.1149 36.2128 29.9336 36.2867 29.7568 36.3587C29.7206 36.3734 29.6846 36.3881 29.6487 36.4018L28.6487 36.799L28.6414 36.8019C26.9248 37.4838 25.2084 38.1656 23.4907 38.8448C23.4903 37.9581 23.4904 37.0714 23.4905 36.1848L23.4907 34.8554C23.9423 34.6352 24.3933 34.4137 24.8443 34.1921L24.8447 34.192L24.8451 34.1918L24.8454 34.1916L24.8458 34.1914L24.8461 34.1912L24.8465 34.191L24.8469 34.1909C25.2973 33.9696 25.7477 33.7484 26.1987 33.5285C26.4851 33.3948 26.6776 33.0906 26.6656 32.7733C26.6656 31.7698 26.6659 30.7663 26.6662 29.7628V29.7627V29.7626V29.7626V29.7625V29.7624V29.7624V29.7609C26.667 27.2524 26.6677 24.7437 26.6637 22.2353C26.6725 21.7041 26.0719 21.294 25.5804 21.5009C23.2601 22.4346 20.9411 23.3725 18.6222 24.3104L18.619 24.3116L18.6163 24.3128L18.6147 24.3134L18.6132 24.314L18.6117 24.3146L18.6105 24.3151C17.2475 24.8663 15.8845 25.4176 14.5213 25.968C14.5206 24.4127 14.5206 22.8574 14.5213 21.3016L20.4117 17.3358L26.3022 13.37C26.5425 13.2161 26.6769 12.9303 26.6668 12.6482C26.6662 11.3979 26.6664 10.1476 26.6665 8.89739V8.8929V8.89285V8.89281V8.89276V8.89271V8.89267V8.89262C26.6667 7.64103 26.6668 6.38951 26.6662 5.13815C26.6681 4.33938 26.9602 3.54882 27.465 2.93113C28.1167 2.12163 29.1382 1.62004 30.1786 1.61499C31.1225 1.59543 32.0639 1.98093 32.7308 2.64784C33.3901 3.29707 33.7845 4.21193 33.7864 5.13878C33.785 6.92784 33.7853 8.7169 33.7855 10.5062V10.5063V10.5064V10.5065V10.5066V10.5067V10.5069L33.7857 12.6539C33.7775 12.9271 33.9037 13.2047 34.134 13.358C34.9017 13.8757 35.6699 14.3929 36.438 14.91L36.4406 14.9118L36.4492 14.9176L36.4497 14.9178L36.4501 14.9181L36.4505 14.9184L36.4509 14.9187L36.4514 14.919C36.9867 15.2794 37.5221 15.6399 38.0572 16.0004C38.3234 16.1966 38.7077 16.2118 38.9834 16.025C39.3064 15.8206 39.4377 15.3745 39.2787 15.0269C39.1952 14.8087 38.996 14.6788 38.8085 14.5564L38.7676 14.5297C38.4263 14.2998 38.0848 14.0701 37.7432 13.8404L37.7413 13.8391C36.9617 13.3147 36.1822 12.7904 35.4047 12.2633C35.404 11.4089 35.4046 10.5545 35.4051 9.70016V9.70013V9.7001V9.70007V9.70004V9.7V9.69997C35.4061 8.16216 35.407 6.62442 35.4009 5.08642C35.3858 3.54314 34.6268 2.03582 33.4065 1.09383C32.4462 0.338598 31.2121 -0.0544772 29.9925 0.00609293ZM28.824 6.46277C28.7156 6.46362 28.6058 6.46447 28.5023 6.49783C28.1704 6.59941 27.9281 6.93381 27.9464 7.28272C27.9357 7.70166 28.3136 8.07707 28.7319 8.07202C29.221 8.07336 29.7102 8.0731 30.1995 8.07285C30.6343 8.07262 31.0693 8.07239 31.5043 8.07328C31.7895 8.08338 32.0746 7.93321 32.2179 7.68525C32.3926 7.40385 32.3668 7.01646 32.1567 6.7603C32.0027 6.56471 31.7541 6.45303 31.5055 6.46312C31.2342 6.46312 30.9629 6.46336 30.6916 6.4636L30.69 6.4636C30.0785 6.46414 29.4671 6.46468 28.8556 6.46249L28.824 6.46277ZM29.8852 10.344C30.39 10.1541 30.9793 10.5939 30.9458 11.1308C30.9466 14.028 30.9465 16.9252 30.9464 19.8225V19.8225V19.8226V19.8226V19.8227V19.8227V19.8581C30.9463 22.0194 30.9462 24.1807 30.9465 26.3421C30.9723 26.751 30.6468 27.1428 30.2373 27.1819C29.7849 27.2538 29.3224 26.8645 29.3376 26.4027C29.3373 23.9092 29.3373 21.4156 29.3373 18.922C29.3373 16.4321 29.3373 13.9423 29.3369 11.4526C29.3373 11.4068 29.3367 11.3608 29.3361 11.3149V11.3149V11.3148V11.3148C29.3346 11.1906 29.333 11.0664 29.3496 10.9434C29.4026 10.6671 29.6158 10.4279 29.8852 10.344ZM52.0962 16.538C50.2381 15.2534 47.9156 14.6773 45.6713 14.9064C44.3678 15.037 43.0946 15.4477 41.9589 16.0988C40.2282 17.0919 38.8099 18.6251 37.965 20.4334C37.006 22.4738 36.8193 24.8575 37.4294 27.0261C37.9581 28.9334 39.1001 30.6615 40.6396 31.9039C42.3349 33.2894 44.5173 34.0604 46.7073 34.0478C48.7724 34.0509 50.8375 33.3727 52.4779 32.1133C54.0142 30.9461 55.1853 29.3025 55.7727 27.4627C56.4541 25.349 56.3992 22.9988 55.5878 20.928C54.9007 19.1576 53.6609 17.6118 52.0962 16.538ZM40.2352 18.9835C41.61 17.3582 43.605 16.2559 45.7294 16.0351C47.956 15.7871 50.2646 16.4742 51.9927 17.8989C53.5884 19.193 54.6938 21.0814 55.0099 23.1136C55.3809 25.4222 54.7688 27.8791 53.3126 29.7151C52.0148 31.3802 50.0658 32.5203 47.9755 32.8231C45.6985 33.1809 43.2889 32.5544 41.4787 31.1259C39.6263 29.6949 38.4092 27.469 38.2338 25.132C38.0408 22.9231 38.7872 20.6599 40.2352 18.9835ZM46.2115 18.2055C46.5169 17.8409 47.144 17.8503 47.4317 18.232C47.6491 18.501 47.6367 18.8396 47.6245 19.1721C47.6197 19.3029 47.6149 19.4327 47.6242 19.557C48.4583 19.6472 49.2476 20.034 49.8526 20.6107C50.1303 20.8662 50.1391 21.347 49.8728 21.6139C49.6331 21.8801 49.1801 21.9205 48.9081 21.6801C48.5523 21.3577 48.1396 21.0908 47.681 20.9425C47.3551 20.8195 47.0037 20.8311 46.6602 20.8424L46.6599 20.8425C46.6144 20.844 46.569 20.8455 46.5238 20.8466C46.0512 20.8662 45.5364 20.9993 45.2323 21.3886C44.937 21.7369 44.8903 22.3136 45.2133 22.66C45.5225 22.9742 45.9452 23.1382 46.3553 23.277C46.6098 23.3626 46.8682 23.4404 47.1269 23.5184C47.8603 23.7394 48.5962 23.9612 49.2539 24.361C49.753 24.6544 50.1561 25.1358 50.2918 25.7049C50.4684 26.4677 50.3448 27.3302 49.8331 27.9428C49.3946 28.4797 48.7397 28.7681 48.098 28.9851C47.9642 29.0261 47.8262 29.051 47.6888 29.0757L47.6248 29.0873C47.6127 29.2215 47.6187 29.3618 47.6246 29.5028C47.6383 29.8254 47.6522 30.152 47.4507 30.418C47.1604 30.8092 46.5118 30.8281 46.2077 30.4439C45.9767 30.1701 45.9906 29.8193 46.0043 29.4747V29.4746V29.4746V29.4745C46.0098 29.3354 46.0153 29.1974 46.0045 29.0659C45.6676 29.0217 45.3288 28.9757 45.0058 28.8697C44.962 28.8541 44.9179 28.8387 44.8738 28.8232C44.4979 28.6918 44.1142 28.5577 43.8183 28.281C43.7555 28.2221 43.6867 28.1668 43.6175 28.1112L43.6175 28.1112L43.6174 28.1111L43.6174 28.1111C43.4289 27.9597 43.2379 27.8063 43.159 27.5718C43.0309 27.2103 43.2398 26.7762 43.5988 26.6469C43.8246 26.5718 44.0871 26.6109 44.2808 26.7503C44.4018 26.8384 44.518 26.9343 44.6342 27.0303C44.8944 27.2452 45.155 27.4604 45.4708 27.5882C45.8104 27.7409 46.1803 27.7397 46.5477 27.7385C46.686 27.738 46.824 27.7376 46.9598 27.7453C47.4525 27.7617 47.9743 27.6867 48.3706 27.3693C48.9075 26.9813 49.0028 26.0727 48.4822 25.6336C48.1028 25.3108 47.6308 25.1546 47.1636 25.0001L47.1634 25C47.038 24.9585 46.9129 24.9171 46.7901 24.8727C46.6106 24.8075 46.4279 24.7462 46.2446 24.6846C45.4869 24.4302 44.7181 24.172 44.1187 23.6259C43.229 22.8234 43.26 21.2769 44.1023 20.4523C44.6064 19.9425 45.3067 19.6788 46.0052 19.574C46.0168 19.4419 46.0106 19.3024 46.0045 19.1616V19.1616V19.1615V19.1615C45.9895 18.8197 45.9742 18.471 46.2115 18.2055ZM30.9281 41.426C30.7438 41.0891 30.3034 40.932 29.9463 41.0702C29.7476 41.1421 29.5804 41.2942 29.4927 41.4866C29.4167 41.6436 29.4186 41.8192 29.4205 41.9916C29.4209 42.0326 29.4214 42.0734 29.4208 42.1137C29.4223 43.6747 29.4217 45.2357 29.4211 46.7967L29.4208 47.7316C29.3974 48.1752 29.8037 48.5815 30.2479 48.5499C30.6549 48.555 31.024 48.196 31.0284 47.789C31.0312 46.7521 31.0307 45.715 31.0302 44.6779C31.0299 43.8237 31.0295 42.9696 31.0309 42.1156C31.0308 42.0831 31.0312 42.0503 31.0316 42.0173V42.0172V42.0171C31.0341 41.8141 31.0366 41.604 30.9281 41.426ZM18.5858 42.5093C19.0716 42.3251 19.6521 42.7238 19.6483 43.2444C19.6552 44.799 19.6536 46.3537 19.652 47.9083C19.6515 48.3323 19.6511 48.7563 19.6508 49.1802C19.6653 49.5992 19.3088 49.9834 18.8899 49.9973C18.4369 50.037 18.0154 49.6326 18.0343 49.179C18.032 48.1905 18.0325 47.202 18.0329 46.2135V46.213C18.0332 45.2861 18.0336 44.3592 18.0318 43.4324C17.9883 43.0443 18.1971 42.6254 18.5858 42.5093ZM42.4151 43.24C42.4151 42.7245 41.8447 42.3289 41.3608 42.5068C41.0207 42.609 40.7873 42.9542 40.8005 43.3062C40.7991 44.4128 40.7993 45.5197 40.7995 46.6264C40.7996 47.457 40.7998 48.2874 40.7992 49.1178C40.7923 49.362 40.8712 49.6156 41.0579 49.7816C41.3475 50.0648 41.8542 50.0705 42.1495 49.7917C42.3432 49.6257 42.4302 49.367 42.4195 49.1166C42.4179 48.3074 42.4184 47.4982 42.4189 46.6891C42.4196 45.5392 42.4203 44.3895 42.4151 43.24Z" fill="#002E69"/>
</svg>
