<svg width="23" height="27" viewBox="0 0 23 27" fill="none" xmlns="http://www.w3.org/2000/svg">
<path d="M3.90796 11V22.25H18.908V11C18.908 9.01088 18.1178 7.10322 16.7113 5.6967C15.3047 4.29018 13.3971 3.5 11.408 3.5C9.41884 3.5 7.51118 4.29018 6.10466 5.6967C4.69814 7.10322 3.90796 9.01088 3.90796 11Z" fill="#0177FF"/>
<path d="M3.90796 22.25V11C3.90796 9.01088 4.69814 7.10322 6.10466 5.6967C7.51118 4.29018 9.41884 3.5 11.408 3.5C13.3971 3.5 15.3047 4.29018 16.7113 5.6967C18.1178 7.10322 18.908 9.01088 18.908 11V22.25M3.90796 22.25H18.908M3.90796 22.25H1.40796M18.908 22.25H21.408M10.158 26H12.658" stroke="#0177FF" stroke-width="2" stroke-linecap="round" stroke-linejoin="round"/>
<path d="M11.408 3.5C12.0983 3.5 12.658 2.94036 12.658 2.25C12.658 1.55964 12.0983 1 11.408 1C10.7176 1 10.158 1.55964 10.158 2.25C10.158 2.94036 10.7176 3.5 11.408 3.5Z" stroke="#0177FF" stroke-width="2"/>
</svg>
