<svg width="26" height="25" viewBox="0 0 26 25" fill="none" xmlns="http://www.w3.org/2000/svg">
<path d="M8.06592 0H18.5659C22.5659 0 25.8159 3.25 25.8159 7.25V17.75C25.8159 19.6728 25.0521 21.5169 23.6924 22.8765C22.3328 24.2362 20.4887 25 18.5659 25H8.06592C4.06592 25 0.815918 21.75 0.815918 17.75V7.25C0.815918 5.32718 1.57976 3.48311 2.93939 2.12348C4.29903 0.763837 6.1431 0 8.06592 0ZM7.81592 2.5C6.62244 2.5 5.47785 2.97411 4.63394 3.81802C3.79002 4.66193 3.31592 5.80653 3.31592 7V18C3.31592 20.4875 5.32842 22.5 7.81592 22.5H18.8159C20.0094 22.5 21.154 22.0259 21.9979 21.182C22.8418 20.3381 23.3159 19.1935 23.3159 18V7C23.3159 4.5125 21.3034 2.5 18.8159 2.5H7.81592ZM19.8784 4.375C20.2928 4.375 20.6902 4.53962 20.9833 4.83265C21.2763 5.12567 21.4409 5.5231 21.4409 5.9375C21.4409 6.3519 21.2763 6.74933 20.9833 7.04235C20.6902 7.33538 20.2928 7.5 19.8784 7.5C19.464 7.5 19.0666 7.33538 18.7736 7.04235C18.4805 6.74933 18.3159 6.3519 18.3159 5.9375C18.3159 5.5231 18.4805 5.12567 18.7736 4.83265C19.0666 4.53962 19.464 4.375 19.8784 4.375ZM13.3159 6.25C14.9735 6.25 16.5632 6.90848 17.7353 8.08058C18.9074 9.25268 19.5659 10.8424 19.5659 12.5C19.5659 14.1576 18.9074 15.7473 17.7353 16.9194C16.5632 18.0915 14.9735 18.75 13.3159 18.75C11.6583 18.75 10.0686 18.0915 8.8965 16.9194C7.7244 15.7473 7.06592 14.1576 7.06592 12.5C7.06592 10.8424 7.7244 9.25268 8.8965 8.08058C10.0686 6.90848 11.6583 6.25 13.3159 6.25ZM13.3159 8.75C12.3214 8.75 11.3675 9.14509 10.6643 9.84835C9.96101 10.5516 9.56592 11.5054 9.56592 12.5C9.56592 13.4946 9.96101 14.4484 10.6643 15.1517C11.3675 15.8549 12.3214 16.25 13.3159 16.25C14.3105 16.25 15.2643 15.8549 15.9676 15.1517C16.6708 14.4484 17.0659 13.4946 17.0659 12.5C17.0659 11.5054 16.6708 10.5516 15.9676 9.84835C15.2643 9.14509 14.3105 8.75 13.3159 8.75Z" fill="#0177FF"/>
</svg>
