<svg width="69" height="50" viewBox="0 0 69 50" fill="none" xmlns="http://www.w3.org/2000/svg">
<path fill-rule="evenodd" clip-rule="evenodd" d="M21.6165 0.00233533C21.0578 -0.00407792 20.4934 0.0873103 19.9819 0.317385C18.6897 0.872131 17.7774 2.22052 17.7798 3.63223C17.7819 4.43414 17.7813 5.23605 17.7807 6.03795C17.7799 7.10711 17.7791 8.17627 17.7846 9.24543C17.8127 9.83063 18.5189 10.2186 19.0352 9.95168C19.44 9.78414 19.5899 9.32238 19.5506 8.91514C22.8887 8.91474 26.227 8.91474 29.5654 8.91474C32.9038 8.91474 36.2423 8.91474 39.5808 8.91434C40.1356 8.93759 40.5741 8.34196 40.421 7.81447C40.3264 7.40562 39.9103 7.11462 39.4942 7.1499C35.5046 7.15134 31.5149 7.15105 27.5252 7.15076C24.8651 7.15057 22.2051 7.15038 19.545 7.1507C19.5456 6.71186 19.5452 6.27292 19.5448 5.83394V5.83391V5.83387V5.83384V5.8338V5.83339C19.5441 5.10176 19.5434 4.37004 19.5474 3.63864C19.5635 2.8899 20.0629 2.18364 20.7611 1.91428C21.0904 1.76973 21.451 1.77434 21.8055 1.77888C21.8756 1.77978 21.9455 1.78067 22.0149 1.78041C25.6488 1.78001 29.2829 1.78001 32.9171 1.78001C36.5512 1.78001 40.1853 1.78001 43.8192 1.7796C44.8044 1.76037 45.679 2.60772 45.7343 3.58413C41.3229 3.58322 36.9117 3.58335 32.5005 3.58348C29.1922 3.58358 25.8838 3.58367 22.5753 3.58333C22.0205 3.55447 21.5684 4.1477 21.7207 4.67759C21.8073 5.06078 22.1793 5.35659 22.5745 5.34617C28.0872 5.34789 33.6 5.34756 39.1127 5.34723L45.7319 5.34697C45.7316 6.53674 45.7319 7.72651 45.7321 8.91628C45.7325 11.059 45.7329 13.2017 45.7303 15.3444C45.7271 16.3216 44.8709 17.1922 43.8953 17.2187C43.377 17.2282 42.8585 17.2265 42.3399 17.2248H42.3398H42.3398H42.3397H42.3397C41.8966 17.2234 41.4534 17.222 41.0102 17.2275C40.546 17.2403 40.1644 17.6917 40.1989 18.1502C40.2085 18.5831 40.5845 18.9759 41.0222 18.9855C41.3802 18.9917 41.7388 18.9903 42.0975 18.989H42.0975H42.0975H42.0976H42.0976C42.35 18.988 42.6025 18.9871 42.8548 18.9887C43.0065 18.9862 43.1593 18.9879 43.3123 18.9896C43.8343 18.9954 44.3598 19.0013 44.8613 18.8388C46.3484 18.418 47.4787 16.9726 47.4956 15.4222C47.4964 11.466 47.4964 7.50904 47.4956 3.55287C47.4659 2.08744 46.4518 0.713403 45.0722 0.228402C44.459 -0.0106724 43.7955 -0.0042559 43.147 0.00201518L43.0247 0.00313654C39.9662 0.00279297 36.9078 0.00289122 33.8495 0.00298948C29.7719 0.00312048 25.6943 0.00325149 21.6165 0.00233533ZM12.6404 11.0788C12.4367 11.0828 12.2347 11.1053 12.0359 11.1453C10.7108 11.4027 9.58204 12.4488 9.2221 13.7491C9.07191 14.2302 9.07723 14.7326 9.08252 15.2323C9.08404 15.3754 9.08555 15.5182 9.08341 15.6603C9.08434 17.0663 9.08383 18.4724 9.08332 19.8786C9.08251 22.1051 9.0817 24.3317 9.08662 26.558C9.13873 28.3817 10.7364 29.9899 12.5618 30.0492C17.2872 30.0532 22.0127 30.0525 26.7381 30.0518C29.5731 30.0514 32.4081 30.051 35.243 30.0516C36.6644 30.0275 38.0064 29.0824 38.5314 27.7661C38.7824 27.1865 38.828 26.5475 38.812 25.9239C38.8113 24.2356 38.8114 22.5473 38.8115 20.859C38.8116 18.8332 38.8117 16.8074 38.8104 14.7816C38.8064 14.089 38.6196 13.3956 38.2476 12.8096C37.6135 11.7843 36.4511 11.0996 35.2414 11.0788H12.6404ZM10.8479 14.784C10.8334 13.9327 11.4475 13.1278 12.2692 12.9106C12.5375 12.8364 12.8165 12.839 13.0928 12.8416L13.1951 12.8424C16.2443 12.8434 19.2937 12.8431 22.3431 12.8427H22.3431H22.3432H22.3432H22.3495C26.6215 12.8421 30.8935 12.8416 35.1653 12.8448C36.1465 12.8505 37.0235 13.7162 37.0331 14.6991C37.0346 17.0391 37.0343 19.3795 37.034 21.7199V21.72V21.72V21.7201V21.7201V21.7374C37.0338 23.2927 37.0336 24.848 37.0339 26.4032C37.0388 27.3981 36.1545 28.2799 35.1621 28.2855C30.606 28.2885 26.05 28.2881 21.4941 28.2878H21.4941H21.494H21.494H21.4939C18.5947 28.2875 15.6956 28.2873 12.7967 28.2879C11.9798 28.3048 11.1982 27.7412 10.9489 26.9652C10.8412 26.6554 10.8435 26.326 10.8457 26.0015C10.846 25.949 10.8464 25.8966 10.8463 25.8445C10.847 24.1687 10.8469 22.4928 10.8468 20.817C10.8467 18.806 10.8465 16.795 10.8479 14.784ZM24.6156 16.5942C24.7983 16.5123 24.9993 16.5138 25.1965 16.5153H25.1967H25.1969H25.1971C25.2332 16.5156 25.2693 16.5159 25.305 16.5156C26.4162 16.5182 27.5274 16.5176 28.6385 16.517H28.6386H28.6386H28.6387C29.9836 16.5163 31.3284 16.5156 32.673 16.5204C33.239 16.5132 33.6679 17.1353 33.4875 17.6652C33.3801 18.0444 32.9969 18.3025 32.6081 18.2921C30.5955 18.2953 28.5828 18.2944 26.5698 18.2935H26.5695H26.5692H26.569L25.0581 18.2929C24.6909 18.3113 24.3126 18.1093 24.1707 17.7622C23.9735 17.3357 24.1803 16.7778 24.6156 16.5942ZM25.0604 19.388C24.9073 19.3896 24.7486 19.3976 24.6091 19.4665C24.1345 19.671 23.9461 20.3163 24.2323 20.746C24.391 20.9977 24.6796 21.1644 24.9802 21.1532C25.8968 21.1529 26.8134 21.1532 27.7299 21.1534H27.73H27.73C29.3786 21.1538 31.0272 21.1542 32.6753 21.1516C33.1227 21.1572 33.5163 20.7548 33.5227 20.3115C33.5596 19.8417 33.1547 19.3936 32.6817 19.3912C31.3706 19.3883 30.0594 19.3888 28.7483 19.3893C27.519 19.3898 26.2897 19.3903 25.0604 19.388ZM12.905 24.5915C13.0993 24.5284 13.3048 24.5306 13.5082 24.5327C13.5658 24.5333 13.6233 24.5339 13.6802 24.533C16.0323 24.5346 18.3835 24.5338 20.7348 24.533C20.9801 24.5298 21.2398 24.5715 21.4322 24.7358C21.797 25.0196 21.8619 25.6016 21.5757 25.9624C21.4018 26.1988 21.1067 26.3223 20.8174 26.3111C20.1531 26.3111 19.4889 26.3109 18.8247 26.3107C17.0551 26.3102 15.2857 26.3098 13.5167 26.3127C13.1543 26.3383 12.7383 26.2878 12.5114 25.968C12.145 25.5255 12.3575 24.7719 12.905 24.5915ZM51.7571 26.5011C50.7583 26.5259 49.8829 27.4061 49.8532 28.4026C49.8437 28.8496 49.8453 29.297 49.847 29.7445C49.8488 30.1998 49.8505 30.6553 49.8404 31.1106C49.0773 31.1058 48.3143 31.1064 47.5511 31.107C47.029 31.1075 46.5068 31.1079 45.9844 31.1066C42.773 31.0905 39.5623 31.9916 36.8327 33.6855C36.0565 34.1557 35.3432 34.7146 34.6299 35.2733C34.3302 35.5081 34.0306 35.7429 33.7263 35.971C31.848 35.9074 29.969 35.9121 28.0899 35.9169C27.2679 35.9189 26.4459 35.921 25.6239 35.9173C23.9373 35.9341 22.3596 37.135 21.8698 38.7447C21.4922 39.916 21.6886 41.2491 22.3853 42.2632C22.277 42.2546 22.1661 42.2594 22.0552 42.2643C21.8679 42.2726 21.6806 42.2808 21.5058 42.2239C20.2945 41.3997 19.0864 40.5703 17.8782 39.7409C17.185 39.265 16.4919 38.7892 15.7981 38.3143C15.721 38.2622 15.6445 38.2092 15.5678 38.156C15.2439 37.9316 14.9185 37.7061 14.5523 37.5551C13.3314 37.0236 11.8403 37.135 10.7356 37.8894C9.69745 38.5876 9.06896 39.8294 9.08098 41.076C9.07858 42.0901 9.50105 43.0937 10.2201 43.8072C10.4738 44.0637 10.7733 44.2654 11.0715 44.4663C11.1079 44.4908 11.1442 44.5153 11.1805 44.5399C11.8215 44.9756 12.4621 45.4119 13.1027 45.8482C13.8435 46.3526 14.5843 46.8571 15.3259 47.3609C17.8102 49.0332 20.7868 49.9679 23.7825 50C25.7963 49.9991 27.8103 49.9992 29.8243 49.9993C31.3348 49.9994 32.8453 49.9995 34.3556 49.9992C35.9789 49.9679 37.5967 49.6745 39.1302 49.1422C41.2007 48.3713 43.2682 47.5915 45.3357 46.8117C46.8393 46.2447 48.3429 45.6776 49.8476 45.1139C49.8499 45.2296 49.8482 45.3465 49.8465 45.4638C49.8405 45.8774 49.8345 46.296 50.0031 46.6819C50.2965 47.4138 51.0509 47.9237 51.8405 47.9269C52.8015 47.9293 53.7627 47.9289 54.724 47.9285C55.6857 47.9281 56.6474 47.9277 57.6092 47.9301C57.8826 47.9317 58.1592 47.9037 58.4189 47.8123C59.1356 47.5686 59.6871 46.8872 59.7552 46.1304C59.7803 45.8335 59.7775 45.5356 59.7747 45.238C59.7732 45.0784 59.7717 44.9188 59.7745 44.7596V29.1321C59.774 29.0626 59.7744 28.9929 59.7748 28.9232C59.7764 28.6367 59.778 28.3494 59.72 28.0683C59.5733 27.3845 59.0426 26.8033 58.3764 26.5932C58.0686 26.4869 57.7442 26.4918 57.4225 26.4966C57.3245 26.4981 57.2268 26.4995 57.1298 26.4978C56.4944 26.4984 55.8588 26.4979 55.2232 26.4973C54.0676 26.4964 52.912 26.4954 51.7571 26.5011ZM51.6241 28.5685C51.6112 28.4499 51.6617 28.3232 51.782 28.2831C52.9569 28.2516 54.1349 28.2562 55.3129 28.2608C56.0791 28.2638 56.8453 28.2668 57.6108 28.2599C57.8024 28.2254 58.0325 28.3401 57.9956 28.5645C57.998 34.3396 57.9988 40.1156 57.9956 45.8915C58.01 46.0566 57.8481 46.1801 57.691 46.1504C57.3062 46.1506 56.9214 46.1508 56.5366 46.1511C54.9974 46.1519 53.4582 46.1528 51.9191 46.1496C51.7595 46.1769 51.6064 46.0518 51.6265 45.8875C51.6235 42.3608 51.6239 38.834 51.6242 35.3071C51.6245 33.061 51.6247 30.8148 51.6241 28.5685ZM35.622 36.7503C36.3503 36.1779 37.0786 35.6055 37.8741 35.1277C40.3239 33.6406 43.193 32.8406 46.0606 32.8838C46.6919 32.8842 47.323 32.8842 47.954 32.8842C48.585 32.8842 49.2159 32.8842 49.8468 32.8846C49.8476 36.3286 49.8476 39.7733 49.8468 43.218C48.4052 43.7584 46.9648 44.302 45.5244 44.8456C43.1656 45.7358 40.8069 46.626 38.4432 47.502C37.0043 47.9942 35.4819 48.2364 33.962 48.2364C32.1598 48.2354 30.3577 48.2356 28.5557 48.2357C27.2042 48.2358 25.8529 48.2359 24.5016 48.2355C21.6205 48.3197 18.7177 47.5092 16.3263 45.8947C15.7559 45.5049 15.1842 45.1168 14.6126 44.7288C13.6243 44.0578 12.6361 43.3869 11.6543 42.7073C11.0699 42.2568 10.7564 41.4784 10.8727 40.7489C10.9753 40.0635 11.4362 39.431 12.0824 39.1632C12.7806 38.8586 13.6216 38.9684 14.2428 39.4013C15.3944 40.1893 16.5451 40.9786 17.6958 41.768C18.7143 42.4667 19.733 43.1654 20.7523 43.8633C20.9102 43.9755 21.101 44.0357 21.2966 44.0277C25.9214 44.0269 30.5461 44.0269 35.1709 44.0277C35.3955 44.0354 35.5954 43.9335 35.7911 43.8337C35.8392 43.8093 35.887 43.7849 35.9348 43.7623C36.684 43.3905 37.4346 43.0211 38.1852 42.6517C38.65 42.423 39.1148 42.1943 39.5792 41.965C39.9407 41.8015 40.1492 41.3782 40.0658 40.9918C39.9976 40.6062 39.6465 40.2943 39.2537 40.2807C39.025 40.2559 38.8188 40.359 38.6194 40.4586C38.5867 40.475 38.5542 40.4912 38.5218 40.5068C38.0123 40.7599 37.5017 41.011 36.9912 41.262C36.3569 41.5739 35.7227 41.8857 35.0907 42.2015C34.9905 42.2568 34.8759 42.2648 34.7644 42.2648C33.2969 42.2621 31.8291 42.2626 30.3612 42.2631C28.8071 42.2636 27.2528 42.2641 25.6985 42.2608C24.6403 42.26 23.6663 41.4271 23.4891 40.3857C23.3208 39.5272 23.708 38.5996 24.4255 38.1042C24.8391 37.806 25.3538 37.6681 25.8612 37.6801C26.5543 37.6822 27.2475 37.6813 27.9407 37.6803C29.8967 37.6775 31.8531 37.6748 33.8081 37.7411C34.0453 37.7531 34.3051 37.7563 34.5063 37.608C34.884 37.3303 35.253 37.0403 35.622 36.7503Z" fill="#002E69"/>
</svg>
