<svg width="88" height="101" viewBox="0 0 88 101" fill="none" xmlns="http://www.w3.org/2000/svg">
<path d="M29.2821 2.88215C30.8961 1.71744 32.8532 1.03854 34.842 0.956522C37.2812 0.835382 39.7494 1.62153 41.67 3.132C44.1105 5.01598 45.6285 8.03061 45.6588 11.1172C45.6777 15.9022 45.6626 20.686 45.6664 25.471C47.9037 26.9878 50.1498 28.4932 52.3922 30.0037C52.7897 30.2649 53.2351 30.5299 53.4143 30.9981C53.7323 31.6933 53.4698 32.5855 52.8237 32.9943C52.2723 33.3679 51.5038 33.3376 50.9713 32.9451C48.3567 31.1835 45.7396 29.4232 43.1249 27.6604C42.6644 27.3537 42.412 26.7985 42.4284 26.2521C42.4284 21.2412 42.4259 16.2316 42.4296 11.2219C42.4259 9.3682 41.6372 7.53848 40.3185 6.24001C38.9847 4.9062 37.102 4.13519 35.2142 4.17431C33.1334 4.18441 31.0904 5.1876 29.7869 6.80659C28.7774 8.04197 28.1931 9.6231 28.1893 11.2206C28.1919 16.2265 28.1881 21.2336 28.1906 26.2408C28.2108 26.8048 27.942 27.3765 27.4612 27.6844C19.6073 32.9716 11.7534 38.2602 3.89945 43.5474C3.89818 46.6592 3.89818 49.7697 3.89945 52.8803C11.2726 49.9035 18.642 46.9141 26.0177 43.9462C27.0007 43.5323 28.202 44.3525 28.1843 45.415C28.1957 52.4399 28.1881 59.466 28.1881 66.4909C28.2121 67.1256 27.8272 67.7338 27.2543 68.0014C25.4473 68.8822 23.6453 69.7743 21.8383 70.6551C21.8383 73.3139 21.8371 75.9739 21.8383 78.6339C25.9457 77.0099 30.0494 75.3783 34.1542 73.748C34.577 73.5864 35.0073 73.3593 35.4754 73.4224C35.8717 73.4779 36.2326 73.6634 36.6036 73.8035C40.6618 75.4149 44.7174 77.0276 48.7782 78.6327C48.7807 75.9739 48.7782 73.3151 48.7794 70.6564C46.9598 69.7642 45.1402 68.8708 43.3218 67.9787C42.7678 67.7086 42.4132 67.108 42.4296 66.4947C42.4296 59.466 42.4208 52.4361 42.4334 45.4074C42.4284 44.4673 43.3786 43.6824 44.3023 43.8642C45.101 43.9689 45.7042 44.7399 45.6638 45.5374C45.6702 52.1989 45.6651 58.8616 45.6664 65.523C47.491 66.4379 49.3334 67.3136 51.1568 68.2298C51.7259 68.5074 52.0502 69.1459 52.0187 69.7693C52.0111 73.5536 52.0325 77.338 52.0073 81.1211C51.9922 82.1723 50.7921 82.9319 49.8293 82.5268C44.9875 80.6113 40.1507 78.687 35.3114 76.7676C30.4506 78.6882 25.5987 80.6302 20.7367 82.5433C19.7411 82.9281 18.565 82.089 18.6029 81.0239C18.5928 77.2749 18.6029 73.5233 18.5978 69.7743C18.5663 69.127 18.9145 68.4683 19.5165 68.1995C21.3235 67.301 23.1431 66.4253 24.9501 65.5256C24.9526 59.6364 24.9501 53.7472 24.9501 47.858C17.6034 50.8234 10.2606 53.7989 2.91392 56.7618C1.90189 57.2375 0.621086 56.3946 0.665252 55.2766C0.651371 51.1477 0.66399 47.0189 0.658942 42.89C0.624871 42.2994 0.864628 41.6786 1.37443 41.353C9.23088 36.0557 17.0974 30.7709 24.9526 25.471C24.9488 21.6475 24.9526 17.8228 24.9514 13.998C24.9817 12.3122 24.8277 10.5973 25.229 8.94169C25.7817 6.51636 27.2619 4.32826 29.2821 2.88215Z" fill="#002E69"/>
<path d="M31.8615 13.9398C32.0886 13.8666 32.3309 13.8717 32.5681 13.8691C34.3347 13.8755 36.1014 13.8704 37.868 13.8704C38.3652 13.8502 38.8624 14.0736 39.1703 14.4647C39.5905 14.9771 39.6422 15.7519 39.2927 16.3147C39.0062 16.8106 38.4358 17.1109 37.8655 17.0907C36.0168 17.0869 34.1682 17.0932 32.3208 17.0882C31.4842 17.0983 30.7283 16.3475 30.7497 15.5096C30.7132 14.8118 31.1977 14.143 31.8615 13.9398Z" fill="#002E69"/>
<path d="M34.6274 21.6325C35.6369 21.2526 36.8155 22.1322 36.7486 23.206C36.7511 33.3465 36.7486 43.4869 36.7499 53.6286C36.8016 54.4463 36.1505 55.23 35.3315 55.3082C34.4268 55.452 33.5018 54.6735 33.5321 53.7498C33.5308 43.7835 33.5321 33.8159 33.5308 23.8496C33.5334 23.5101 33.5106 23.1682 33.5561 22.8312C33.6621 22.2785 34.0886 21.8003 34.6274 21.6325Z" fill="#002E69"/>
<path d="M66.1996 30.757C70.6881 30.2989 75.3331 31.451 79.0493 34.0202C82.1788 36.1679 84.6584 39.2595 86.0326 42.8004C87.6553 46.9418 87.7651 51.6423 86.4023 55.8696C85.2275 59.5493 82.8854 62.8365 79.8128 65.1709C76.5319 67.6896 72.4017 69.0462 68.2716 69.0398C63.8916 69.0651 59.5268 67.5231 56.1361 64.752C53.0571 62.2673 50.7731 58.8111 49.7157 54.9964C48.4955 50.6593 48.869 45.892 50.787 41.811C52.4767 38.1945 55.3134 35.1281 58.7747 33.1419C61.0461 31.8397 63.5926 31.0182 66.1996 30.757ZM66.3157 33.0145C62.067 33.4561 58.0769 35.6606 55.3273 38.9112C52.4313 42.2641 50.9384 46.7904 51.3246 51.2082C51.6754 55.8822 54.1095 60.3341 57.8144 63.1961C61.4348 66.053 66.2539 67.306 70.808 66.5905C74.9886 65.9848 78.8865 63.7046 81.4822 60.3745C84.3946 56.7025 85.6187 51.7887 84.8767 47.1715C84.2445 43.107 82.0337 39.3302 78.8424 36.7421C75.3861 33.8928 70.7689 32.5186 66.3157 33.0145Z" fill="#002E69" stroke="#002E69"/>
<path d="M67.2799 37.3554C67.8907 36.626 69.145 36.645 69.7204 37.4084C70.3261 38.158 70.0396 39.1776 70.1053 40.0583C71.7735 40.2388 73.3521 41.0123 74.5622 42.1657C75.1174 42.6767 75.1351 43.6383 74.6026 44.1721C74.1231 44.7046 73.2171 44.7853 72.6732 44.3046C71.9615 43.6597 71.1362 43.126 70.2188 42.8294C69.4806 42.5506 68.6768 42.6174 67.9045 42.6376C66.9594 42.6767 65.9297 42.943 65.3215 43.7216C64.7309 44.4181 64.6375 45.5715 65.2836 46.2643C65.9019 46.8927 66.7474 47.2208 67.5676 47.4984C69.5198 48.1546 71.5854 48.5849 73.3647 49.6663C74.3628 50.2531 75.1692 51.2159 75.4405 52.3541C75.7938 53.8797 75.5465 55.6047 74.5231 56.83C73.6461 57.9038 72.3363 58.4805 71.0529 58.9146C70.7438 59.0092 70.4233 59.061 70.1065 59.119C70.027 60.0011 70.3374 61.0156 69.7582 61.7803C69.1778 62.5627 67.8806 62.6005 67.2723 61.8321C66.6237 61.0636 66.9405 59.991 66.866 59.0761C66.1922 58.9878 65.5145 58.8957 64.8685 58.6837C64.0356 58.3871 63.1548 58.1247 62.4936 57.5063C62.0255 57.0672 61.3907 56.729 61.1749 56.088C60.9188 55.3649 61.3365 54.4968 62.0545 54.2381C62.5062 54.0879 63.0312 54.1661 63.4186 54.445C64.2022 55.0154 64.8849 55.7511 65.7985 56.1208C66.7335 56.541 67.7834 56.3782 68.7765 56.435C69.762 56.4678 70.8056 56.3176 71.5981 55.6829C72.6719 54.9069 72.8625 53.0898 71.8214 52.2115C70.8586 51.3925 69.598 51.1099 68.4371 50.6897C66.5947 50.0209 64.5833 49.5527 63.0943 48.1962C61.315 46.5911 61.3768 43.4982 63.0615 41.849C64.0697 40.8294 65.4704 40.3019 66.8673 40.0924C66.9468 39.1864 66.6099 38.105 67.2799 37.3554Z" fill="#002E69"/>
<path d="M34.7496 83.0845C35.4638 82.8082 36.3446 83.1224 36.7131 83.7962C36.9655 84.2101 36.9175 84.7111 36.9188 85.1755C36.9125 88.9573 36.9238 92.7404 36.9137 96.5223C36.9049 97.3362 36.1667 98.0542 35.3528 98.0441C34.4644 98.1072 33.6518 97.2946 33.6985 96.4075C33.6997 92.6622 33.7022 88.917 33.6985 85.1717C33.7048 84.7515 33.6543 84.306 33.8423 83.9174C34.0177 83.5325 34.3521 83.2284 34.7496 83.0845Z" fill="#002E69"/>
<path d="M12.0285 85.9629C13.0001 85.5945 14.161 86.392 14.1535 87.433C14.1711 91.3903 14.161 95.3475 14.1585 99.3048C14.1875 100.143 13.4746 100.911 12.6367 100.939C11.7307 101.018 10.8877 100.21 10.9256 99.3023C10.9168 95.4712 10.9281 91.6401 10.9205 87.8091C10.8335 87.033 11.2512 86.1951 12.0285 85.9629Z" fill="#002E69"/>
<path d="M57.5785 85.9581C58.5464 85.6023 59.6871 86.3935 59.6871 87.4244C59.7048 91.3413 59.6884 95.2594 59.6959 99.1776C59.7174 99.6785 59.5432 100.196 59.1558 100.528C58.5653 101.086 57.552 101.074 56.9728 100.508C56.5993 100.176 56.4415 99.6684 56.4554 99.1801C56.458 95.3061 56.4529 91.4309 56.4579 87.5569C56.4314 86.8528 56.8983 86.1625 57.5785 85.9581Z" fill="#002E69"/>
</svg>
