<svg width="22" height="25" viewBox="0 0 22 25" fill="none" xmlns="http://www.w3.org/2000/svg">
<path d="M18.2645 23.997C16.9036 25.3162 15.4176 25.1079 13.9873 24.483C12.4736 23.8442 11.0848 23.8164 9.48782 24.483C7.48807 25.344 6.43265 25.0941 5.23836 23.997C-1.53856 17.0117 -0.53869 6.3742 7.15478 5.98536C9.02955 6.08257 10.3349 7.013 11.432 7.09633C13.0707 6.76303 14.64 5.80482 16.3897 5.92981C18.4867 6.09645 20.0698 6.92968 21.1114 8.42949C16.7786 11.0264 17.8062 16.734 21.7779 18.331C20.9864 20.4141 19.9587 22.4833 18.2506 24.0109L18.2645 23.997ZM11.2932 5.90203C11.0848 2.8052 13.5984 0.249968 16.4869 0C16.8897 3.58288 13.2373 6.24921 11.2932 5.90203Z" fill="#0177FF"/>
</svg>
