<svg version="1.1" xmlns="http://www.w3.org/2000/svg" xmlns:xlink="http://www.w3.org/1999/xlink" width="23" height="27" viewBox="0,0,218.0625,256"><g fill="none" fill-rule="nonzero" stroke="none" stroke-width="none" stroke-linecap="none" stroke-linejoin="none" stroke-miterlimit="10" stroke-dasharray="" stroke-dashoffset="0" font-family="none" font-weight="none" font-size="none" text-anchor="none" style="mix-blend-mode: normal"><g transform="translate(4.4014,0) scale(9.48148,9.48148)"><path d="M3.53516,11v11.25h15.00004v-11.25c0,-1.98912 -0.7902,-3.89678 -2.1967,-5.3033c-1.4066,-1.40652 -3.3142,-2.1967 -5.3033,-2.1967c-1.98917,0 -3.89682,0.79018 -5.30334,2.1967c-1.40653,1.40652 -2.1967,3.31418 -2.1967,5.3033z" fill="#ffffff" stroke="none" stroke-width="1" stroke-linecap="butt" stroke-linejoin="miter"></path><path d="M3.53516,22.25v-11.25c0,-1.98912 0.79017,-3.89678 2.1967,-5.3033c1.40652,-1.40652 3.31417,-2.1967 5.30334,-2.1967c1.9891,0 3.8967,0.79018 5.3033,2.1967c1.4065,1.40652 2.1967,3.31418 2.1967,5.3033v11.25M3.53516,22.25h15.00004M3.53516,22.25h-2.5M18.5352,22.25h2.5M9.78516,26h2.50004" fill="none" stroke="#ffffff" stroke-width="2" stroke-linecap="round" stroke-linejoin="round"></path><path d="M11.0352,3.5c0.6903,0 1.25,-0.55964 1.25,-1.25c0,-0.69036 -0.5597,-1.25 -1.25,-1.25c-0.6904,0 -1.25004,0.55964 -1.25004,1.25c0,0.69036 0.55964,1.25 1.25004,1.25z" fill="none" stroke="#ffffff" stroke-width="2" stroke-linecap="butt" stroke-linejoin="miter"></path></g></g></svg>