<svg width="22" height="25" viewBox="0 0 22 25" fill="none" xmlns="http://www.w3.org/2000/svg">
<path d="M4.19867 18.9093C4.19867 19.5622 4.73329 20.0951 5.39107 20.0951H6.75422V23.4543C6.75422 24.3053 7.43999 25 8.28251 25C9.12782 25 9.81079 24.3081 9.81079 23.4543V20.0923H12.19V23.4515C12.19 24.3025 12.8758 24.9972 13.7183 24.9972C14.5636 24.9972 15.2466 24.3053 15.2466 23.4515V20.0923H16.6097C17.2675 20.0923 17.8021 19.5594 17.8021 18.9065V7.88023H4.19867V18.9093ZM14.1941 2.1662L15.4509 0.352659C15.5237 0.246637 15.5069 0.104345 15.4089 0.0345932C15.311 -0.0323681 15.171 0.0011127 15.0982 0.107135L13.7939 1.99321C12.9346 1.65561 11.9773 1.46868 10.9724 1.46868C9.96754 1.46868 9.01026 1.65561 8.15095 1.99321L6.84659 0.109925C6.77381 0.00390271 6.63386 -0.032368 6.53589 0.0373834C6.43792 0.104345 6.42113 0.243847 6.4939 0.355449L7.75068 2.16898C5.75215 3.09528 4.35262 4.85023 4.17348 6.90092H17.7769C17.5922 4.84744 16.1899 3.09249 14.1941 2.1662ZM8.10057 5.026C7.95165 5.026 7.80607 4.98198 7.68225 4.89951C7.55843 4.81705 7.46192 4.69983 7.40493 4.56269C7.34794 4.42555 7.33303 4.27464 7.36209 4.12906C7.39114 3.98347 7.46285 3.84974 7.56815 3.74478C7.67345 3.63981 7.80762 3.56833 7.95367 3.53937C8.09973 3.51041 8.25112 3.52528 8.38871 3.58208C8.52629 3.63889 8.64388 3.73508 8.72662 3.85851C8.80935 3.98193 8.85351 4.12704 8.85351 4.27548C8.853 4.47437 8.7735 4.66497 8.63241 4.80561C8.49132 4.94625 8.3001 5.02549 8.10057 5.026ZM13.9338 5.026C13.7849 5.026 13.6393 4.98198 13.5155 4.89951C13.3917 4.81705 13.2952 4.69983 13.2382 4.56269C13.1812 4.42555 13.1663 4.27464 13.1953 4.12906C13.2244 3.98347 13.2961 3.84974 13.4014 3.74478C13.5067 3.63981 13.6409 3.56833 13.7869 3.53937C13.933 3.51041 14.0844 3.52528 14.222 3.58208C14.3595 3.63889 14.4771 3.73508 14.5599 3.85851C14.6426 3.98193 14.6868 4.12704 14.6868 4.27548C14.6862 4.47437 14.6068 4.66497 14.4657 4.80561C14.3246 4.94625 14.1334 5.02549 13.9338 5.026ZM20.1869 7.83559C19.3416 7.83559 18.6586 8.52752 18.6586 9.38128V15.419C18.6586 16.2699 19.3444 16.9646 20.1869 16.9646C21.0322 16.9646 21.7152 16.2727 21.7152 15.419V9.37849C21.718 8.52473 21.035 7.83559 20.1869 7.83559ZM1.75229 7.83559C0.90697 7.83559 0.223999 8.52752 0.223999 9.38128V15.419C0.223999 16.2699 0.90977 16.9646 1.75229 16.9646C2.59761 16.9646 3.28058 16.2727 3.28058 15.419V9.37849C3.28058 8.52473 2.59481 7.83559 1.75229 7.83559Z" fill="#0177FF"/>
</svg>
