<svg width="26" height="31" viewBox="0 0 26 31" fill="none" xmlns="http://www.w3.org/2000/svg">
<path d="M21.2473 28.8489C19.6141 30.432 17.831 30.182 16.1146 29.4321C14.2981 28.6655 12.6317 28.6322 10.7152 29.4321C8.31555 30.4653 7.04904 30.1654 5.61589 28.8489C-2.51642 20.4666 -1.31657 7.70153 7.9156 7.23492C10.1653 7.35157 11.7318 8.46809 13.0483 8.56808C15.0147 8.16813 16.8978 7.01828 18.9975 7.16826C21.5139 7.36823 23.4136 8.36811 24.6635 10.1679C19.4641 13.2842 20.6973 20.1333 25.4634 22.0497C24.5135 24.5494 23.2803 27.0324 21.2306 28.8655L21.2473 28.8489ZM12.8816 7.13493C12.6317 3.41873 15.648 0.352452 19.1142 0.0524902C19.5975 4.35195 15.2147 7.55154 12.8816 7.13493Z" fill="white"/>
</svg>
