<svg width="26" height="25" viewBox="0 0 26 25" fill="none" xmlns="http://www.w3.org/2000/svg">
<path d="M7.69299 0H18.193C22.193 0 25.443 3.25 25.443 7.25V17.75C25.443 19.6728 24.6792 21.5169 23.3195 22.8765C21.9599 24.2362 20.1158 25 18.193 25H7.69299C3.69299 25 0.442993 21.75 0.442993 17.75V7.25C0.442993 5.32718 1.20683 3.48311 2.56647 2.12348C3.92611 0.763837 5.77017 0 7.69299 0ZM7.44299 2.5C6.24952 2.5 5.10493 2.97411 4.26101 3.81802C3.4171 4.66193 2.94299 5.80653 2.94299 7V18C2.94299 20.4875 4.95549 22.5 7.44299 22.5H18.443C19.6365 22.5 20.7811 22.0259 21.625 21.182C22.4689 20.3381 22.943 19.1935 22.943 18V7C22.943 4.5125 20.9305 2.5 18.443 2.5H7.44299ZM19.5055 4.375C19.9199 4.375 20.3173 4.53962 20.6103 4.83265C20.9034 5.12567 21.068 5.5231 21.068 5.9375C21.068 6.3519 20.9034 6.74933 20.6103 7.04235C20.3173 7.33538 19.9199 7.5 19.5055 7.5C19.0911 7.5 18.6937 7.33538 18.4006 7.04235C18.1076 6.74933 17.943 6.3519 17.943 5.9375C17.943 5.5231 18.1076 5.12567 18.4006 4.83265C18.6937 4.53962 19.0911 4.375 19.5055 4.375ZM12.943 6.25C14.6006 6.25 16.1903 6.90848 17.3624 8.08058C18.5345 9.25268 19.193 10.8424 19.193 12.5C19.193 14.1576 18.5345 15.7473 17.3624 16.9194C16.1903 18.0915 14.6006 18.75 12.943 18.75C11.2854 18.75 9.69568 18.0915 8.52358 16.9194C7.35147 15.7473 6.69299 14.1576 6.69299 12.5C6.69299 10.8424 7.35147 9.25268 8.52358 8.08058C9.69568 6.90848 11.2854 6.25 12.943 6.25ZM12.943 8.75C11.9484 8.75 10.9946 9.14509 10.2913 9.84835C9.58808 10.5516 9.19299 11.5054 9.19299 12.5C9.19299 13.4946 9.58808 14.4484 10.2913 15.1517C10.9946 15.8549 11.9484 16.25 12.943 16.25C13.9376 16.25 14.8914 15.8549 15.5946 15.1517C16.2979 14.4484 16.693 13.4946 16.693 12.5C16.693 11.5054 16.2979 10.5516 15.5946 9.84835C14.8914 9.14509 13.9376 8.75 12.943 8.75Z" fill="#002E69"/>
</svg>
