<svg width="25" height="25" viewBox="0 0 25 25" fill="none" xmlns="http://www.w3.org/2000/svg">
<rect width="25" height="25" rx="12.5" fill="white"/>
<path d="M12.4999 6.10156C12.7464 6.10156 12.9463 6.30144 12.9463 6.54799V7.14323C12.9463 7.38978 12.7464 7.58966 12.4999 7.58966C12.2533 7.58966 12.0535 7.38978 12.0535 7.14323V6.54799C12.0535 6.30144 12.2533 6.10156 12.4999 6.10156Z" fill="#002E69"/>
<path fill-rule="evenodd" clip-rule="evenodd" d="M9.07726 12.5004C9.07726 10.6101 10.6096 9.07775 12.4999 9.07775C14.3901 9.07775 15.9225 10.6101 15.9225 12.5004C15.9225 14.3906 14.3901 15.923 12.4999 15.923C10.6096 15.923 9.07726 14.3906 9.07726 12.5004ZM12.4999 9.97061C11.1027 9.97061 9.97012 11.1032 9.97012 12.5004C9.97012 13.8975 11.1027 15.0301 12.4999 15.0301C13.897 15.0301 15.0296 13.8975 15.0296 12.5004C15.0296 11.1032 13.897 9.97061 12.4999 9.97061Z" fill="#002E69"/>
<path d="M8.6066 7.97574C8.43225 7.8014 8.14959 7.8014 7.97525 7.97574C7.80091 8.15009 7.80091 8.43275 7.97525 8.60709L8.39615 9.02799C8.57049 9.20233 8.85315 9.20233 9.02749 9.02799C9.20183 8.85365 9.20183 8.57098 9.02749 8.39664L8.6066 7.97574Z" fill="#002E69"/>
<path d="M18.8987 12.5004C18.8987 12.7469 18.6988 12.9468 18.4523 12.9468H17.857C17.6105 12.9468 17.4106 12.7469 17.4106 12.5004C17.4106 12.2538 17.6105 12.0539 17.857 12.0539H18.4523C18.6988 12.0539 18.8987 12.2538 18.8987 12.5004Z" fill="#002E69"/>
<path d="M17.0245 8.60708C17.1989 8.43274 17.1989 8.15008 17.0245 7.97574C16.8502 7.8014 16.5675 7.8014 16.3932 7.97574L15.9723 8.39664C15.7979 8.57098 15.7979 8.85364 15.9723 9.02798C16.1466 9.20232 16.4293 9.20232 16.6036 9.02798L17.0245 8.60708Z" fill="#002E69"/>
<path d="M12.4999 17.4111C12.7464 17.4111 12.9463 17.611 12.9463 17.8575V18.4528C12.9463 18.6993 12.7464 18.8992 12.4999 18.8992C12.2533 18.8992 12.0535 18.6993 12.0535 18.4528V17.8575C12.0535 17.611 12.2533 17.4111 12.4999 17.4111Z" fill="#002E69"/>
<path d="M16.6037 15.9728C16.4293 15.7984 16.1467 15.7984 15.9723 15.9728C15.798 16.1471 15.798 16.4298 15.9723 16.6041L16.3932 17.025C16.5675 17.1994 16.8502 17.1994 17.0246 17.025C17.1989 16.8507 17.1989 16.568 17.0246 16.3937L16.6037 15.9728Z" fill="#002E69"/>
<path d="M7.58917 12.5004C7.58917 12.7469 7.3893 12.9468 7.14274 12.9468H6.5475C6.30095 12.9468 6.10107 12.7469 6.10107 12.5004C6.10107 12.2538 6.30095 12.0539 6.5475 12.0539H7.14274C7.3893 12.0539 7.58917 12.2538 7.58917 12.5004Z" fill="#002E69"/>
<path d="M9.02745 16.6041C9.20179 16.4298 9.20179 16.1471 9.02745 15.9728C8.85311 15.7984 8.57045 15.7984 8.39611 15.9728L7.97521 16.3937C7.80087 16.568 7.80087 16.8507 7.97521 17.025C8.14955 17.1993 8.43221 17.1993 8.60656 17.025L9.02745 16.6041Z" fill="#002E69"/>
</svg>
