<svg width="268" height="51" viewBox="0 0 268 51" fill="none" xmlns="http://www.w3.org/2000/svg">
<path d="M53.8608 14.7666C53.8746 22.7909 47.5382 29.1796 39.5606 29.1823C31.6187 29.1851 25.1669 22.7469 25.1586 14.8161C25.1531 6.9677 31.6352 0.447088 39.4479 0.444339C47.4419 0.438842 53.8471 6.80276 53.8608 14.7666Z" fill="#0177FF"/>
<path d="M39.7942 38.221C37.694 38.0093 35.6762 37.7839 33.6887 37.3661C30.9315 36.786 29.4058 34.7683 28.089 32.5196C27.9516 32.2859 27.8224 31.989 28.0423 31.7389C28.2347 31.5217 28.4849 31.6812 28.7103 31.7251C35.1017 33.0062 41.4986 32.5966 47.8873 31.7334C48.9704 31.5877 49.8528 31.7526 50.6363 32.4894C51.1283 32.9539 51.6644 33.3773 52.1152 33.8804C53.8168 35.7689 53.8883 36.6019 52.6293 38.7598C50.4988 42.4077 48.3573 46.0501 46.2654 49.72C45.7925 50.5502 45.3857 50.7124 44.7259 49.9675C44.4373 49.6403 44.1046 49.3489 43.794 49.0383C42.6972 47.9414 42.3041 46.7181 43.0573 45.2502C43.2717 44.8323 43.3789 44.3595 43.5878 43.7602C42.1474 44.1588 40.9708 44.8736 39.742 45.4426C36.2315 47.0728 32.7403 48.7112 28.823 49.1757C22.2282 49.9565 16.1556 48.3126 10.4047 45.2419C7.29563 43.5815 4.41194 41.5858 2.22099 38.7516C1.45677 37.7619 1.00594 36.6101 0.632073 35.4225C0.469883 34.9112 0.480879 34.4329 0.937212 34.1388C1.44303 33.8116 1.60797 34.4054 1.85812 34.6391C7.1197 39.502 13.2307 42.6881 20.4138 43.1527C26.8795 43.5706 33.1004 42.2043 38.8733 39.1309C39.2059 38.9522 39.621 38.8175 39.7942 38.221Z" fill="#07316A"/>
<path d="M11.4549 29.1797C5.57478 29.1879 0.736553 24.4679 0.722808 18.7115C0.709063 12.6967 5.47856 7.9272 11.5236 7.91896C17.291 7.91071 22.2172 12.7764 22.2172 18.4806C22.2199 24.4267 17.4449 29.1714 11.4549 29.1797Z" fill="#0177FF"/>
<path d="M14.465 19.7011C14.2698 19.3629 14.0059 19.0853 13.676 18.8654C13.3462 18.6482 12.986 18.4668 12.5957 18.3211C12.2053 18.1754 11.815 18.0434 11.4219 17.9225C10.9903 17.8015 10.5862 17.6751 10.2096 17.5404C9.83295 17.4084 9.52506 17.2435 9.28865 17.051C9.05224 16.8586 8.93403 16.6029 8.93403 16.2896C8.93403 16.0971 8.97801 15.9184 9.06598 15.7535C9.15395 15.5913 9.2749 15.4484 9.42885 15.3274C9.58279 15.2065 9.77522 15.1157 10.0061 15.0553C10.2343 14.9948 10.4845 14.9645 10.7539 14.9645C11.037 14.9645 11.4054 14.9398 11.6473 15.0085C11.8892 15.0745 12.2383 15.2065 12.4417 15.3274C12.6479 15.4511 12.8348 15.5638 12.997 15.7095C13.0218 15.726 13.0823 15.781 13.1592 15.8525C13.4451 16.1109 13.8795 16.1081 14.1681 15.8525L14.1819 15.8387C14.509 15.5446 14.52 15.036 14.2038 14.7309C14.1434 14.6732 14.0939 14.6264 14.0664 14.6044C13.8245 14.3873 13.5111 14.1783 13.1262 13.9777C12.7414 13.777 12.2933 13.6478 11.782 13.5873V12.7296C11.782 12.2678 11.4329 11.8637 10.971 11.8334C10.4652 11.8005 10.0446 12.2018 10.0446 12.7021V13.6093C9.62678 13.6698 9.25016 13.777 8.91204 13.9282C8.57391 14.0794 8.28527 14.2691 8.04336 14.5C7.80144 14.7309 7.61451 14.992 7.48806 15.2889C7.35886 15.5858 7.29563 15.9157 7.29563 16.2786C7.29563 16.7267 7.38085 17.1005 7.54854 17.4029C7.71622 17.7053 7.94164 17.9637 8.22479 18.1754C8.50793 18.387 8.82407 18.5685 9.17594 18.7197C9.52506 18.8709 9.88243 19.0001 10.248 19.11C10.7209 19.2805 11.1745 19.4372 11.6115 19.5829C12.0486 19.7285 12.406 19.91 12.6837 20.1272C12.9586 20.3443 13.0988 20.6412 13.0988 21.0151C13.0988 21.3422 13.008 21.6171 12.8266 21.8398C12.6452 22.0624 12.3785 22.2356 12.0266 22.3566C11.6748 22.4775 11.2514 22.4583 10.7539 22.4583C10.336 22.4583 9.8357 22.4665 9.48108 22.3044C9.09347 22.1257 9.09347 22.1257 8.62064 21.7436C8.58216 21.7133 8.43646 21.6116 8.26602 21.4604C7.96363 21.191 7.50455 21.1443 7.20216 21.4164C7.19666 21.4219 7.19117 21.4247 7.18842 21.4302C6.8338 21.7491 6.83655 22.3071 7.19667 22.6232C7.47156 22.8651 7.75471 23.1016 7.88391 23.1978C8.15881 23.4039 8.4777 23.4892 8.83506 23.6266C9.19243 23.7668 9.67076 23.8355 10.0474 23.885V24.7812C10.0474 25.243 10.3965 25.6471 10.8583 25.6774C11.3641 25.7104 11.7847 25.309 11.7847 24.8087V23.9015C12.2713 23.841 12.4857 23.7311 12.8761 23.5744C13.2664 23.4177 13.6046 23.2143 13.8877 22.9669C14.1709 22.7195 14.3853 22.4253 14.5337 22.0872C14.6822 21.7491 14.7564 21.3807 14.7564 20.9793C14.7591 20.4625 14.6602 20.0392 14.465 19.7011Z" fill="white"/>
<path d="M44.9678 16.0175C44.6819 15.52 44.2943 15.1104 43.8105 14.7915C43.3239 14.4726 42.7961 14.206 42.2216 13.9915C41.647 13.7771 41.0725 13.5819 40.4979 13.406C39.8629 13.2273 39.2691 13.0431 38.7166 12.8452C38.1613 12.65 37.7105 12.4109 37.3668 12.125C37.0205 11.8418 36.8473 11.468 36.8473 11.0061C36.8473 10.723 36.9105 10.4591 37.0397 10.2199C37.1689 9.98075 37.3476 9.77183 37.573 9.59314C37.8012 9.41446 38.0816 9.28251 38.4197 9.19455C38.7551 9.10658 39.1235 9.06259 39.5193 9.06259C39.9344 9.06259 40.476 9.02686 40.8333 9.12582C41.1907 9.22478 41.702 9.41721 41.9989 9.5959C42.3013 9.77733 42.5789 9.94227 42.8153 10.1567C42.8511 10.1814 42.9418 10.2639 43.0545 10.3656C43.4751 10.7422 44.1129 10.7422 44.5335 10.3656L44.5527 10.3464C45.0338 9.91202 45.0475 9.16705 44.5857 8.71897C44.4977 8.631 44.4235 8.56503 44.385 8.53204C44.0277 8.21315 43.5686 7.90527 43.005 7.61387C42.4415 7.31973 41.7817 7.13005 41.0313 7.04208V5.78305C41.0313 5.10404 40.5172 4.51026 39.8382 4.46628C39.0932 4.41679 38.4774 5.00783 38.4774 5.73906V7.06957C37.8644 7.15754 37.3091 7.31423 36.8143 7.5369C36.3195 7.75956 35.8934 8.03997 35.5388 8.37534C35.1814 8.71347 34.9092 9.09833 34.7223 9.53542C34.5326 9.96976 34.4392 10.4536 34.4392 10.9869C34.4392 11.6439 34.5629 12.1964 34.8103 12.639C35.0577 13.0844 35.3903 13.461 35.8054 13.7716C36.2205 14.0823 36.6851 14.3489 37.2019 14.5716C37.716 14.7942 38.241 14.9839 38.7771 15.1434C39.4698 15.3935 40.1378 15.6217 40.7811 15.8361C41.4244 16.0505 41.9494 16.3172 42.3563 16.6361C42.7631 16.9549 42.9638 17.392 42.9638 17.9418C42.9638 18.4202 42.8291 18.827 42.5624 19.1541C42.2958 19.484 41.9054 19.7369 41.3886 19.9129C40.8746 20.0915 40.2505 20.0613 39.5166 20.0613C38.9035 20.0613 38.1668 20.0723 37.6445 19.8331C37.0754 19.572 37.0755 19.572 36.3827 19.0112C36.325 18.9645 36.1133 18.8188 35.8604 18.5933C35.4151 18.1975 34.7416 18.1288 34.299 18.5274C34.2907 18.5329 34.2852 18.5411 34.277 18.5466C33.7547 19.0167 33.7629 19.8331 34.288 20.2977C34.6921 20.6523 35.1072 21.0015 35.2969 21.1417C35.7037 21.4441 36.1683 21.5705 36.6933 21.7739C37.2184 21.9774 37.9194 22.0818 38.4747 22.1505V23.4673C38.4747 24.1463 38.9887 24.7401 39.6677 24.7841C40.4127 24.8336 41.0285 24.2425 41.0285 23.5113V22.178C41.7405 22.0901 42.0594 21.9306 42.6312 21.6997C43.2057 21.4688 43.7005 21.1719 44.1156 20.8063C44.5307 20.4434 44.8469 20.0118 45.0668 19.5143C45.2839 19.0167 45.3939 18.4751 45.3939 17.8896C45.3967 17.1364 45.2537 16.5151 44.9678 16.0175Z" fill="white"/>
<path d="M93.6525 19.4009C97.9437 19.4009 101.377 22.2296 101.377 26.2679C101.377 30.2567 98.1196 33.1101 93.6525 33.1101C88.982 33.1101 85.8509 30.2567 85.8509 26.2679C85.8509 22.2268 89.2844 19.4009 93.6525 19.4009ZM93.6278 29.2945C95.3706 29.2945 96.6324 28.0327 96.6324 26.2651C96.6324 24.4728 95.2937 23.211 93.6278 23.211C91.9371 23.211 90.5984 24.4728 90.5984 26.2651C90.5984 28.0327 91.8107 29.2945 93.6278 29.2945Z" fill="#002E69"/>
<path d="M103.928 19.7778H108.395V21.1413H108.445C109.454 20.1324 110.743 19.3984 112.156 19.3984C113.871 19.3984 115.765 20.0307 116.675 21.7708C118.039 20.1297 119.554 19.3984 120.967 19.3984C123.339 19.3984 126.016 20.586 126.016 24.1954V32.7283H121.549V25.4077C121.549 24.1212 120.868 22.9831 119.276 22.9831C117.863 22.9831 117.255 24.0195 117.206 25.0036V32.7283H112.739V25.4077C112.739 24.1212 112.057 22.9831 110.468 22.9831C108.978 22.9831 108.398 24.1185 108.398 25.1548V32.7283H103.928V19.7778Z" fill="#002E69"/>
<path d="M136.999 33.1074C135.256 33.1074 133.818 32.5273 132.757 31.4909V39.2926H128.29V19.7775H132.707V21.2427H132.757C133.716 20.1816 135.231 19.4009 136.999 19.4009C140.784 19.4009 143.437 22.455 143.437 26.2431C143.434 30.0285 140.784 33.1074 136.999 33.1074ZM135.66 23.211C133.917 23.211 132.655 24.4728 132.655 26.2404C132.655 28.0327 133.994 29.2945 135.66 29.2945C137.35 29.2945 138.689 28.0327 138.689 26.2404C138.689 24.4728 137.477 23.211 135.66 23.211Z" fill="#002E69"/>
<path d="M151.035 19.4009C152.778 19.4009 154.216 19.9809 155.277 21.0173V19.7802H159.744V32.7307H155.326V31.2655H155.277C154.317 32.3266 152.803 33.1074 151.035 33.1074C147.247 33.1074 144.597 30.0532 144.597 26.2651C144.597 22.4798 147.247 19.4009 151.035 19.4009ZM152.371 29.2945C154.114 29.2945 155.376 28.0327 155.376 26.2651C155.376 24.4728 154.037 23.211 152.371 23.211C150.68 23.211 149.342 24.4728 149.342 26.2651C149.342 28.0327 150.554 29.2945 152.371 29.2945Z" fill="#002E69"/>
<path d="M162.267 19.7775H166.734V21.6468H166.784C166.784 21.6468 168.197 19.4009 170.748 19.4009C172.414 19.4009 173.577 20.2091 173.577 20.2091L171.707 23.9945C171.707 23.9945 170.874 23.288 169.384 23.288C167.062 23.288 166.734 25.5861 166.734 25.9132V32.728H162.267V19.7775Z" fill="#002E69"/>
<path d="M177.895 26.8726C177.895 28.8657 179.561 29.5474 180.697 29.5474C182.134 29.5474 182.767 29.2698 183.852 28.1097L187.083 29.7261C185.617 32.1754 183.245 33.1101 180.367 33.1101C176.455 33.1101 173.247 30.0312 173.247 26.2679C173.247 22.4825 176.452 19.4009 180.367 19.4009C184.306 19.4009 187.308 21.7238 187.308 26.2679C187.308 26.4438 187.308 26.7215 187.283 26.8726H177.895ZM182.943 24.3986C182.739 23.0351 181.807 22.3038 180.493 22.3038C178.954 22.3038 178.096 23.2137 178.019 24.3986H182.943Z" fill="#002E69"/>
<path d="M188.85 19.7778H193.317V21.1413H193.367C194.376 20.1324 195.665 19.3984 197.078 19.3984C198.793 19.3984 200.687 20.0307 201.597 21.7708C202.961 20.1297 204.475 19.3984 205.888 19.3984C208.261 19.3984 210.938 20.586 210.938 24.1954V32.7283H206.471V25.4077C206.471 24.1212 205.789 22.9831 204.198 22.9831C202.785 22.9831 202.177 24.0195 202.128 25.0036V32.7283H197.661V25.4077C197.661 24.1212 196.979 22.9831 195.39 22.9831C193.9 22.9831 193.32 24.1185 193.32 25.1548V32.7283H188.853V19.7778H188.85Z" fill="#0177FF"/>
<path d="M218.715 19.4009C220.458 19.4009 221.896 19.9809 222.957 21.0173V19.7802H227.424V32.7307H223.006V31.2655H222.957C221.997 32.3266 220.483 33.1074 218.715 33.1074C214.93 33.1074 212.277 30.0532 212.277 26.2651C212.28 22.4798 214.93 19.4009 218.715 19.4009ZM220.054 29.2945C221.797 29.2945 223.059 28.0327 223.059 26.2651C223.059 24.4728 221.72 23.211 220.054 23.211C218.363 23.211 217.024 24.4728 217.024 26.2651C217.024 28.0327 218.237 29.2945 220.054 29.2945Z" fill="#0177FF"/>
<path d="M229.95 19.7778H234.417V21.1413H234.467C235.476 20.1324 236.765 19.3984 238.178 19.3984C240.55 19.3984 243.857 20.586 243.857 24.1954V32.7283H239.39V25.4077C239.39 24.1212 238.508 22.8842 237.067 22.8842C235.729 22.8842 234.417 24.1212 234.417 25.4077V32.7283H229.95V19.7778Z" fill="#0177FF"/>
<path d="M251.079 14.4254C251.079 15.8906 249.891 17.0754 248.429 17.0754C246.964 17.0754 245.779 15.8879 245.779 14.4254C245.779 12.9602 246.967 11.7754 248.429 11.7754C249.894 11.7754 251.079 12.963 251.079 14.4254ZM246.134 32.7282H250.601V19.7777H246.134V32.7282Z" fill="#0177FF"/>
<path d="M258.754 19.4009C260.497 19.4009 261.935 19.9809 262.996 21.0173V19.7802H267.463V32.7307H263.045V31.2655H262.996C262.037 32.3266 260.522 33.1074 258.754 33.1074C254.969 33.1074 252.316 30.0532 252.316 26.2651C252.316 22.4798 254.969 19.4009 258.754 19.4009ZM260.093 29.2945C261.836 29.2945 263.098 28.0327 263.098 26.2651C263.098 24.4728 261.759 23.211 260.093 23.211C258.402 23.211 257.064 24.4728 257.064 26.2651C257.064 28.0327 258.276 29.2945 260.093 29.2945Z" fill="#0177FF"/>
<path d="M84.644 27.4997L86.7003 31.6095C86.7003 31.6095 84.3362 33.5613 79.7371 33.5613C73.7498 33.5613 68.2518 28.679 68.2518 22.6148C68.2518 16.5258 73.725 11.5913 79.7371 11.5913C84.3362 11.5913 86.7003 13.5431 86.7003 13.5431L84.644 17.6528C84.644 17.6528 82.9479 16.3416 80.4821 16.3416C75.6273 16.3416 73.4941 19.7338 73.4941 22.5598C73.4941 25.4105 75.6273 28.8028 80.4821 28.8028C82.9479 28.8083 84.644 27.4997 84.644 27.4997Z" fill="#002E69"/>
</svg>
