<svg width="120" height="31" viewBox="0 0 120 31" fill="none" xmlns="http://www.w3.org/2000/svg">
<path opacity="0.25" d="M66.5393 0.948732C65.6099 0.948334 64.6826 1.03464 63.7693 1.20654C70.7238 2.50872 75.9921 8.08134 75.9921 15.4121C75.9921 20.6348 71.7612 25.3945 66.5393 25.3945C64.2731 25.3977 62.0812 24.5864 60.3631 23.1085C58.645 21.6307 57.5151 19.5847 57.1793 17.3434C56.8436 15.1022 57.3244 12.8149 58.534 10.8985C59.7436 8.98211 61.6016 7.56413 63.7693 6.90303C62.8721 6.63265 61.9401 6.49519 61.0031 6.49503C55.7812 6.49503 51.5502 11.254 51.5502 16.4767C51.5502 23.8082 56.8147 29.387 63.7731 30.683C67.2388 31.333 70.8227 30.7418 73.896 29.0131C76.9693 27.2844 79.3357 24.5287 80.58 21.2294V10.6594C78.4316 4.98768 72.9581 0.948732 66.5393 0.948732Z" fill="#37322D"/>
<path d="M63.7695 1.20673C59.9314 0.485641 55.9633 1.2902 52.7092 3.44933C49.455 5.60846 47.1715 8.95182 46.3441 12.7685C46.3191 12.8792 46.2569 12.9781 46.1679 13.0485C46.0788 13.119 45.9683 13.1568 45.8548 13.1556H38.5565C38.4244 13.1552 38.2974 13.207 38.2032 13.2998C38.1091 13.3926 38.0555 13.5189 38.0541 13.6511V18.1863C38.0543 18.3195 38.1073 18.4471 38.2015 18.5413C38.2957 18.6355 38.4233 18.6885 38.5565 18.6887H44.9622C45.0282 18.6886 45.0936 18.7015 45.1546 18.7267C45.2156 18.752 45.271 18.789 45.3177 18.8356C45.3644 18.8823 45.4014 18.9378 45.4266 18.9988C45.4518 19.0598 45.4647 19.1251 45.4646 19.1912V21.4363C45.4638 21.6766 45.377 21.9086 45.22 22.0905C44.0699 23.4271 42.5688 24.4153 40.8864 24.9432C39.204 25.4712 37.4075 25.5179 35.6999 25.0781C33.9923 24.6383 32.4419 23.7295 31.2239 22.4545C30.0059 21.1794 29.1689 19.5891 28.8077 17.8632C28.4464 16.1373 28.5752 14.3448 29.1795 12.6883C29.7839 11.0318 30.8396 9.57742 32.2274 8.48965C33.6152 7.40188 35.2796 6.72409 37.0325 6.53294C38.7854 6.34179 40.5568 6.6449 42.1464 7.40799C42.2595 7.46435 42.3897 7.47597 42.511 7.44052C42.6323 7.40507 42.7357 7.32516 42.8006 7.21676L45.1278 3.30323C45.1952 3.18904 45.215 3.05291 45.1828 2.92426C45.1507 2.79562 45.0692 2.6848 44.956 2.61575C44.949 2.60879 44.9428 2.60879 44.9297 2.60259C42.8045 1.50479 40.4461 0.935174 38.0541 0.941954C29.778 0.948922 23.0681 7.66502 23.0681 15.9411C23.0681 24.2172 29.778 30.9341 38.0611 30.9341C40.1512 30.9376 42.2188 30.5026 44.1304 29.6571C46.0419 28.8116 47.7547 27.5745 49.1583 26.0257C49.2478 25.9276 49.3726 25.8691 49.5052 25.8628C49.6378 25.8566 49.7675 25.9032 49.8659 25.9924C49.879 26.0056 49.8922 26.0125 49.8992 26.0257C51.6223 27.9198 53.8008 29.3422 56.2281 30.1579C58.6553 30.9736 61.2507 31.1555 63.768 30.6863C56.8135 29.3903 51.5451 23.8115 51.5451 16.4799C51.5451 11.2573 55.776 6.49831 60.9979 6.49831C63.2626 6.49902 65.4518 7.31249 67.1675 8.79079C68.8831 10.2691 70.0112 12.314 70.3466 14.5537C70.6821 16.7934 70.2025 19.0791 68.9952 20.9952C67.7879 22.9112 65.9331 24.3304 63.768 24.9945C64.6648 25.2725 65.5991 25.4107 66.538 25.404C71.7599 25.404 75.9909 20.6443 75.9909 15.4224C75.9862 8.08153 70.7241 2.50891 63.7695 1.20673ZM96.4326 24.9744H86.6004C86.5344 24.9745 86.469 24.9615 86.408 24.9363C86.347 24.9111 86.2915 24.8741 86.2449 24.8274C86.1982 24.7807 86.1612 24.7253 86.136 24.6643C86.1107 24.6033 86.0978 24.5379 86.0979 24.4719V1.88105C86.0983 1.74873 86.0464 1.62163 85.9534 1.52749C85.8604 1.43335 85.734 1.37982 85.6017 1.3786H81.0696C81.0035 1.3785 80.9382 1.39142 80.8772 1.41664C80.8162 1.44185 80.7607 1.47886 80.7141 1.52553C80.6674 1.57221 80.6304 1.62764 80.6052 1.68865C80.5799 1.74965 80.567 1.81504 80.5671 1.88105V29.5096C80.567 29.6406 80.5928 29.7705 80.6429 29.8916C80.693 30.0127 80.7665 30.1227 80.8592 30.2154C80.9519 30.3081 81.0619 30.3816 81.183 30.4317C81.3041 30.4818 81.434 30.5076 81.565 30.5075H96.4295C96.5627 30.5075 96.6905 30.4546 96.7848 30.3603C96.879 30.2661 96.9319 30.1383 96.9319 30.005V25.4675C96.9305 25.3358 96.8773 25.2099 96.7839 25.1171C96.6905 25.0242 96.5643 24.9719 96.4326 24.9713V24.9744Z" fill="#FF7020"/>
</svg>
