<svg width="75" height="71" viewBox="0 0 75 71" fill="none" xmlns="http://www.w3.org/2000/svg">
<path fill-rule="evenodd" clip-rule="evenodd" d="M51.8004 0.305856C49.6133 0.624263 47.8797 1.2172 45.3311 2.51775C43.6594 3.37096 42.6027 4.1908 40.6056 6.18521C38.4096 8.378 37.8498 9.12758 36.7772 11.3107C35.1558 14.6105 34.6259 16.8808 34.6417 20.4619C34.6867 30.5548 41.9298 38.8385 52.0599 40.3821C56.0942 40.9965 60.4413 40.213 64.4336 38.1519C66.0652 37.3094 67.1951 36.4387 69.0493 34.5945C71.1417 32.5137 71.687 31.7765 72.7405 29.6044C74.8267 25.3042 75.4441 21.3164 74.6926 16.9984C73.1472 8.1153 66.3546 1.53184 57.458 0.29455C55.1167 -0.0311241 54.0987 -0.0289688 51.8004 0.305856ZM55.8019 5.96478C56.5184 6.29126 57.0392 7.41632 57.0392 8.638C57.0392 9.26216 57.1819 9.41396 57.914 9.56873C60.0074 10.0109 62.4223 11.8229 62.4223 12.9514C62.4223 13.4776 61.4372 14.5405 60.9495 14.5405C60.7872 14.5405 59.9926 14.1134 59.1833 13.5915C57.1329 12.2691 55.9387 11.9854 53.944 12.348C52.0066 12.6998 51.1179 13.525 51.1179 14.9722C51.1179 16.4154 52.0362 17.0541 55.9074 18.3027C61.3855 20.07 62.9606 21.479 62.9606 24.6138C62.9606 27.3338 61.5989 29.0992 58.68 30.1634L57.103 30.7386L56.9741 32.0798C56.8325 33.5531 56.4702 34.0618 55.3705 34.3313C54.2395 34.6085 53.2711 33.4953 53.2711 31.9183C53.2711 30.8083 53.2052 30.6853 52.5309 30.5362C50.5107 30.0897 49.0643 29.4585 48.1322 28.6164C46.8639 27.4706 46.6365 26.8249 47.199 25.9663C47.8073 25.0382 48.9092 25.105 50.206 26.1485C51.7776 27.413 52.7578 27.729 55.1067 27.729C56.8715 27.729 57.3827 27.6253 58.1433 27.1134C59.9175 25.9192 60.1452 23.9571 58.6401 22.8334C58.2649 22.5532 56.3513 21.7347 54.3875 21.0147C50.2211 19.4873 48.9192 18.6714 48.1666 17.1171C46.6917 14.07 48.5071 10.6184 52.0543 9.72537L53.2711 9.41881V8.19928C53.2711 7.26344 53.4248 6.82607 53.9319 6.31925C54.6801 5.57074 54.8615 5.53629 55.8019 5.96478ZM13.9749 10.6658C8.78941 11.4929 5.48476 13.391 2.95204 16.9973C-1.35278 23.127 -0.524332 31.4575 4.88993 36.4891C12.2652 43.343 24.2692 41.2105 28.8089 32.2399C30.3278 29.2389 30.8074 25.1376 29.9962 22.0889C28.6378 16.9849 24.3451 12.598 19.3579 11.2178C17.7473 10.7721 15.0453 10.4949 13.9749 10.6658ZM15.2668 16.4784C15.4445 16.656 15.5898 17.182 15.5898 17.6471C15.5898 18.3988 15.708 18.528 16.6543 18.8114C18.8409 19.4665 19.9894 21.138 18.7758 21.8986C18.4291 22.1158 18.0641 22.0003 17.1608 21.3877C16.2013 20.7372 15.7214 20.598 14.4642 20.6056C12.6943 20.6161 11.8217 21.191 11.8217 22.3459C11.8217 23.3614 12.5516 23.9124 14.8292 24.6151C18.4339 25.7273 19.6034 26.6626 19.8228 28.6096C20.0472 30.6005 18.8342 32.2251 16.6301 32.8856C15.6638 33.175 15.5898 33.2686 15.5898 34.2023C15.5898 35.2302 15.2795 35.5344 14.2314 35.5344C13.646 35.5344 13.1674 34.7775 13.1674 33.8516C13.1674 33.3131 12.9387 33.1381 11.7404 32.7605C10.9399 32.5083 9.97449 31.9568 9.54169 31.5052C8.86181 30.7957 8.80663 30.6191 9.07875 30.0219C9.48436 29.1318 9.9395 29.1665 11.4042 30.199C12.445 30.9327 12.8587 31.0568 14.3173 31.0737C16.5216 31.0993 17.4739 30.5405 17.4739 29.2222C17.4739 28.116 17.0432 27.6431 15.5274 27.0854C14.8957 26.8531 13.688 26.4117 12.8439 26.1049C11.0939 25.4684 9.78204 24.3724 9.51962 23.3272C9.06717 21.5245 10.2837 19.4808 12.1231 18.9533C12.8288 18.7509 13.0506 18.5178 13.1909 17.832C13.4993 16.3242 14.4758 15.6874 15.2668 16.4784ZM38.4677 44.6433C38.4677 45.3304 40.8368 48.6386 42.2302 49.8971C42.8633 50.4688 43.8973 51.1651 44.5285 51.4442C45.6412 51.9362 50.0615 52.7876 53.4552 53.163C55.6192 53.4023 55.4819 53.8012 52.7659 55.1628C42.1233 60.4985 29.21 61.7821 18.8142 58.5377C13.7004 56.9417 7.71872 53.4817 3.23868 49.5276C1.20685 47.7345 0.685234 47.3951 0.367366 47.6589C-0.168516 48.1035 -0.118451 49.1384 0.519709 50.8179C1.35193 53.0075 2.28023 54.315 4.72225 56.7371C9.73144 61.7056 18.6759 66.3014 26.9362 68.1513C29.3839 68.6993 30.4034 68.7725 35.3725 68.7572C40.6613 68.741 41.1959 68.6928 43.6874 68.0078C46.7081 67.1778 50.575 65.6412 55.2897 63.3983C57.0661 62.5529 58.965 61.6995 59.5095 61.5014L60.4994 61.1415L59.8037 63.0759C58.8329 65.7755 59.0186 66.5525 61.1799 68.8339C63.0766 70.8358 63.3643 70.8738 64.3965 69.2589C66.5306 65.9203 74.0849 52.5943 74.3142 51.7642C74.74 50.2217 74.2292 49.0154 72.309 47.0299C69.2996 43.9185 68.9936 43.8364 63.2736 44.6056C58.3925 45.2623 45.5981 45.2656 41.9024 44.6113C38.6341 44.0326 38.4677 44.0342 38.4677 44.6433Z" fill="white"/>
</svg>
