<svg width="200" height="40" viewBox="0 0 200 40" fill="none" xmlns="http://www.w3.org/2000/svg">
<path d="M97.5262 17.9375C100.453 16.5307 102.224 13.6391 102.224 10.1338C102.224 7.51835 101.376 5.37737 99.7168 3.7722C98.1022 2.10091 95.973 1.25365 93.3953 1.25365H82.785C82.6929 1.25365 82.6196 1.32918 82.6196 1.42128V37.8576C82.6196 37.9521 82.6929 38.0254 82.785 38.0254H94.8281C97.6136 38.0254 99.9811 37.0411 101.869 35.1008C103.77 33.1438 104.733 30.7621 104.733 28.0191C104.733 23.0574 101.943 19.2217 97.5262 17.9375ZM83.9768 2.61317H93.3953C97.7928 2.61317 100.866 5.703 100.866 10.1338C100.866 12.2675 100.158 14.0545 98.763 15.4495C97.4034 16.8091 95.5977 17.5008 93.3953 17.5008H83.9768V2.61317ZM100.859 34.1635C99.2445 35.8253 97.2145 36.6679 94.8281 36.6679H83.9768V18.858H94.3678C97.014 18.858 99.1408 19.6961 100.864 21.4215C102.533 23.0881 103.375 25.3094 103.375 28.0191C103.375 30.46 102.552 32.4664 100.859 34.1635Z" fill="black"/>
<path d="M25.0566 26.2605C23.7608 27.3747 22.2572 27.9318 20.5482 27.9318C18.3528 27.9318 16.5755 27.1669 15.2112 25.6397C13.8444 24.1101 13.1623 22.1107 13.1623 19.6393C13.1623 17.1537 13.842 15.145 15.197 13.6154C16.5519 12.0882 18.3363 11.3209 20.5482 11.3209C22.1557 11.3209 23.6073 11.8284 24.901 12.8386C26.1968 13.8489 27.1126 15.1827 27.6485 16.842H40.2676C39.6116 11.8142 37.4682 7.75177 33.8424 4.65007C30.2143 1.54837 25.7649 -0.000164032 20.4962 -0.000164032C16.592 -0.000164032 13.0773 0.840424 9.94964 2.52588C6.82432 4.20875 4.3836 6.55048 2.62965 9.54592C0.875935 12.5437 0 15.9096 0 19.6393C0 23.3713 0.875935 26.7349 2.62965 29.7327C4.3836 32.7305 6.82432 35.0699 9.94964 36.7551C13.0773 38.4406 16.592 39.2808 20.4962 39.2808C25.8523 39.2808 30.3608 37.6733 34.022 34.4632C37.6853 31.2481 39.8097 27.0511 40.3975 21.8677H27.5965C27.2 23.6828 26.3527 25.1463 25.0566 26.2605Z" fill="black"/>
<path d="M70.4884 16.0473C68.0005 13.7058 64.7925 12.5373 60.86 12.5373C60.4564 12.5373 59.9088 12.5562 59.2147 12.5916L66.1757 1.25415L53.7431 1.25645L47.8583 10.8636C46.1944 13.5877 44.9645 16.0969 44.1691 18.3935C43.3735 20.688 42.9746 22.9705 42.9746 25.2367C42.9746 29.3888 44.4239 32.7667 47.3225 35.3727C50.2214 37.9787 53.9838 39.2815 58.6104 39.2815C63.2913 39.2815 67.0634 37.9834 69.9266 35.3868C72.7874 32.7903 74.2205 29.37 74.2205 25.1281C74.2205 21.415 72.9763 18.3889 70.4884 16.0473ZM62.0944 28.6098C61.1975 29.507 60.0384 29.9554 58.6104 29.9554C57.1847 29.9554 56.0232 29.507 55.1287 28.6098C54.2317 27.7153 53.7833 26.5538 53.7833 25.1281C53.7833 23.7001 54.2317 22.5316 55.1287 21.6157C56.0232 20.7023 57.1847 20.2444 58.6104 20.2444C60.0384 20.2444 61.1975 20.7023 62.0944 21.6157C62.9892 22.5316 63.4377 23.7001 63.4377 25.1281C63.4377 26.5538 62.9892 27.7153 62.0944 28.6098Z" fill="black"/>
<path d="M199.969 37.763L185.832 17.9491L199.917 1.52943C199.941 1.50133 199.955 1.46355 199.955 1.42104C199.955 1.32894 199.882 1.2534 199.79 1.2534H198.461C198.411 1.2534 198.364 1.27702 198.336 1.31481L178.97 23.8859V1.42104C178.97 1.32894 178.897 1.2534 178.805 1.2534H177.799C177.707 1.2534 177.634 1.32894 177.634 1.42104V37.8598C177.634 37.9519 177.707 38.0251 177.799 38.0251H178.805C178.897 38.0251 178.97 37.9519 178.97 37.8598V25.9088L184.933 19.0255L198.432 37.9544C198.461 37.9969 198.513 38.0251 198.569 38.0251H199.832C199.924 38.0251 200 37.9519 200 37.8598C200 37.822 199.988 37.7889 199.969 37.763Z" fill="black"/>
<path d="M169.159 1.25365H168.134C168.042 1.25365 167.969 1.32933 167.969 1.42143V34.7797L143.857 1.32211C143.828 1.28197 143.779 1.25365 143.724 1.25365H143.073C142.981 1.25365 142.908 1.32933 142.908 1.42143V37.8578C142.908 37.9499 142.981 38.0254 143.073 38.0254H144.097C144.189 38.0254 144.265 37.9499 144.265 37.8578V4.23964L168.564 37.9569C168.594 37.9994 168.642 38.0254 168.698 38.0254H169.159C169.253 38.0254 169.326 37.9499 169.326 37.8578V1.42143C169.326 1.32933 169.253 1.25365 169.159 1.25365Z" fill="black"/>
<path d="M136.863 37.801L123.044 1.36219C123.023 1.30079 122.959 1.25365 122.888 1.25365H122.242C122.168 1.25365 122.11 1.29848 122.084 1.35988L108.265 37.7987C108.258 37.8176 108.256 37.8387 108.256 37.8576C108.256 37.9497 108.329 38.0254 108.421 38.0254H109.486C109.559 38.0254 109.618 37.9804 109.644 37.919L113.897 26.6477H131.233L135.486 37.9144C135.51 37.9805 135.571 38.0254 135.642 38.0254H136.707C136.799 38.0254 136.874 37.9497 136.874 37.8576C136.874 37.8387 136.87 37.8175 136.863 37.801ZM114.391 25.2905L122.563 3.87613L130.737 25.2905H114.391Z" fill="black"/>
</svg>
