<svg width="216" height="200" viewBox="0 0 216 200" fill="none" xmlns="http://www.w3.org/2000/svg">
<path d="M213.295 57.289C213.35 89.3863 188.005 114.941 156.094 114.952C124.327 114.963 98.5193 89.2103 98.4863 57.4869C98.4644 26.0934 124.393 0.0110102 155.643 1.42389e-05C187.62 -0.0219777 213.24 25.4337 213.295 57.289Z" fill="#0177FF"/>
<path d="M157.029 173.626C148.628 174.472 140.557 175.374 132.607 177.045C121.578 179.366 115.475 187.437 110.208 196.431C109.659 197.366 109.142 198.554 110.021 199.554C110.791 200.423 111.792 199.785 112.693 199.609C138.259 194.485 163.847 196.123 189.401 199.576C193.734 200.159 197.263 199.499 200.397 196.552C202.366 194.694 204.51 193.001 206.313 190.988C213.12 183.434 213.406 180.102 208.369 171.471C199.848 156.879 191.282 142.309 182.914 127.63C181.022 124.309 179.395 123.66 176.756 126.64C175.601 127.949 174.271 129.114 173.028 130.357C168.641 134.744 167.069 139.637 170.081 145.509C170.939 147.18 171.368 149.072 172.204 151.469C166.442 149.874 161.735 147.015 156.82 144.739C142.778 138.219 128.814 131.665 113.144 129.807C86.7649 126.684 62.4748 133.26 39.4713 145.542C27.0348 152.184 15.5 160.167 6.73626 171.504C3.67938 175.462 1.87604 180.069 0.380588 184.82C-0.268174 186.865 -0.224189 188.778 1.60114 189.955C3.6244 191.263 4.28416 188.888 5.28479 187.953C26.3311 168.502 50.7751 155.757 79.5076 153.899C105.37 152.228 130.254 157.693 153.346 169.986C154.676 170.701 156.336 171.24 157.029 173.626Z" fill="#07316A"/>
<path d="M43.6715 114.941C20.1512 114.974 0.798262 96.0938 0.743283 73.0682C0.688303 49.009 19.7663 29.931 43.9464 29.898C67.016 29.865 86.7208 49.3279 86.7208 72.1445C86.7318 95.9288 67.6318 114.908 43.6715 114.941Z" fill="#0177FF"/>
<path d="M55.7128 77.0268C54.9321 75.6743 53.8765 74.5637 52.5569 73.684C51.2374 72.8153 49.797 72.0896 48.2355 71.5068C46.6741 70.924 45.1127 70.3962 43.5402 69.9124C41.8139 69.4286 40.1975 68.9227 38.691 68.3839C37.1846 67.8561 35.953 67.1964 35.0074 66.4267C34.0617 65.6569 33.5889 64.6343 33.5889 63.3808C33.5889 62.6111 33.7648 61.8963 34.1167 61.2366C34.4686 60.5878 34.9524 60.016 35.5682 59.5322C36.1839 59.0484 36.9537 58.6855 37.8773 58.4436C38.79 58.2017 39.7906 58.0807 40.8682 58.0807C42.0008 58.0807 43.4743 57.9818 44.4419 58.2567C45.4096 58.5206 46.8061 59.0484 47.6198 59.5322C48.4445 60.027 49.1922 60.4778 49.8409 61.0606C49.9399 61.1266 50.1818 61.3465 50.4897 61.6324C51.6333 62.666 53.3707 62.655 54.5252 61.6324L54.5802 61.5774C55.8887 60.4009 55.9327 58.3666 54.6682 57.1461C54.4263 56.9151 54.2283 56.7282 54.1184 56.6403C53.1507 55.7716 51.8972 54.9359 50.3578 54.1332C48.8183 53.3305 47.026 52.8136 44.9807 52.5717V49.141C44.9807 47.2937 43.5842 45.6773 41.7369 45.5563C39.7136 45.4243 38.0313 47.0298 38.0313 49.031V52.6597C36.3599 52.9016 34.8534 53.3304 33.5009 53.9352C32.1484 54.54 30.9939 55.2987 30.0262 56.2224C29.0586 57.1461 28.3108 58.1907 27.805 59.3782C27.2882 60.5658 27.0353 61.8853 27.0353 63.3368C27.0353 65.1291 27.3762 66.6246 28.0469 67.8341C28.7177 69.0437 29.6194 70.0773 30.7519 70.924C31.8845 71.7707 33.1491 72.4964 34.5565 73.1012C35.953 73.706 37.3825 74.2228 38.845 74.6626C40.7363 75.3444 42.5506 75.9712 44.299 76.5539C46.0473 77.1367 47.4768 77.8625 48.5874 78.7312C49.687 79.5998 50.2478 80.7874 50.2478 82.2829C50.2478 83.5914 49.8849 84.691 49.1592 85.5817C48.4335 86.4723 47.3668 87.165 45.9594 87.6489C44.5519 88.1327 42.8585 88.0557 40.8682 88.0557C39.1968 88.0557 37.1956 88.0887 35.7771 87.4399C34.2267 86.7252 34.2267 86.7252 32.3354 85.1968C32.1814 85.0758 31.5986 84.669 30.9169 84.0642C29.7073 82.9866 27.871 82.7997 26.6614 83.8883C26.6394 83.9103 26.6175 83.9212 26.6065 83.9432C25.188 85.2188 25.199 87.4509 26.6394 88.7155C27.739 89.6831 28.8716 90.6288 29.3884 91.0136C30.488 91.8383 31.7636 92.1792 33.193 92.729C34.6225 93.2898 36.5358 93.5647 38.0423 93.7626V97.3473C38.0423 99.1946 39.4388 100.811 41.2861 100.932C43.3093 101.064 44.9917 99.4586 44.9917 97.4573V93.8286C46.938 93.5867 47.7957 93.1469 49.3571 92.5201C50.9185 91.8933 52.271 91.0796 53.4036 90.09C54.5362 89.1003 55.3939 87.9238 55.9877 86.5713C56.5815 85.2188 56.8784 83.7453 56.8784 82.1399C56.8894 80.0727 56.4935 78.3793 55.7128 77.0268Z" fill="#E6E6E6"/>
<path d="M177.724 62.2922C176.58 60.3019 175.03 58.6635 173.094 57.388C171.148 56.1125 169.037 55.0459 166.739 54.1882C164.441 53.3305 162.142 52.5498 159.844 51.846C157.304 51.1313 154.929 50.3946 152.719 49.6029C150.498 48.8222 148.694 47.8655 147.32 46.7219C145.934 45.5893 145.242 44.0939 145.242 42.2466C145.242 41.114 145.494 40.0584 146.011 39.1017C146.528 38.1451 147.243 37.3094 148.144 36.5946C149.057 35.8799 150.179 35.3521 151.531 35.0002C152.873 34.6484 154.346 34.4724 155.93 34.4724C157.59 34.4724 159.756 34.3295 161.186 34.7253C162.615 35.1212 164.66 35.8909 165.848 36.6056C167.058 37.3314 168.168 37.9911 169.114 38.8488C169.257 38.9478 169.62 39.2776 170.07 39.6845C171.753 41.1909 174.304 41.1909 175.986 39.6845L176.063 39.6075C177.988 37.8701 178.043 34.8903 176.195 33.0979C175.843 32.746 175.546 32.4821 175.393 32.3502C173.963 31.0747 172.127 29.8431 169.873 28.6775C167.618 27.501 164.979 26.7422 161.977 26.3904V21.3542C161.977 18.6382 159.921 16.2631 157.205 16.0871C154.225 15.8892 151.762 18.2534 151.762 21.1783V26.5003C149.31 26.8522 147.089 27.479 145.11 28.3696C143.13 29.2603 141.426 30.3819 140.007 31.7234C138.578 33.0759 137.489 34.6154 136.742 36.3637C135.983 38.1011 135.609 40.0364 135.609 42.1696C135.609 44.7976 136.104 47.0078 137.094 48.7782C138.083 50.5595 139.414 52.066 141.074 53.3085C142.734 54.5511 144.593 55.6177 146.66 56.5083C148.716 57.399 150.817 58.1577 152.961 58.7955C155.732 59.7961 158.404 60.7088 160.977 61.5665C163.55 62.4241 165.65 63.4908 167.277 64.7663C168.905 66.0418 169.708 67.7902 169.708 69.9894C169.708 71.9027 169.169 73.5301 168.102 74.8386C167.036 76.1581 165.474 77.1698 163.407 77.8735C161.351 78.5882 158.855 78.4673 155.919 78.4673C153.467 78.4673 150.52 78.5113 148.43 77.5546C146.154 76.51 146.154 76.51 143.383 74.2668C143.152 74.0799 142.306 73.4971 141.294 72.5954C139.513 71.012 136.819 70.7371 135.048 72.3315C135.015 72.3535 134.993 72.3865 134.96 72.4085C132.871 74.2888 132.904 77.5546 135.004 79.4129C136.621 80.8314 138.281 82.2279 139.04 82.7887C140.667 83.9983 142.526 84.5041 144.626 85.3178C146.726 86.1315 149.53 86.5493 151.751 86.8242V92.0913C151.751 94.8073 153.807 97.1824 156.523 97.3584C159.503 97.5563 161.966 95.1922 161.966 92.2672V86.9342C164.814 86.5823 166.09 85.9445 168.377 85.0209C170.675 84.0972 172.655 82.9097 174.315 81.4472C175.975 79.9957 177.24 78.2693 178.119 76.2791C178.988 74.2888 179.428 72.1226 179.428 69.7805C179.439 66.7676 178.867 64.2825 177.724 62.2922Z" fill="#E6E6E6"/>
</svg>
