<svg width="216" height="200" viewBox="0 0 216 200" fill="none" xmlns="http://www.w3.org/2000/svg">
<path d="M213.295 57.289C213.35 89.3863 188.005 114.941 156.094 114.952C124.327 114.963 98.5193 89.2103 98.4863 57.4869C98.4644 26.0934 124.393 0.0110102 155.643 1.42389e-05C187.62 -0.0219777 213.24 25.4337 213.295 57.289Z" fill="#0177FF"/>
<path d="M157.029 173.626C148.628 174.472 140.557 175.374 132.607 177.045C121.578 179.366 115.475 187.437 110.208 196.431C109.659 197.366 109.142 198.554 110.021 199.554C110.791 200.423 111.792 199.785 112.693 199.609C138.259 194.485 163.847 196.123 189.401 199.576C193.734 200.159 197.263 199.499 200.397 196.552C202.366 194.694 204.51 193.001 206.313 190.988C213.12 183.434 213.406 180.102 208.369 171.471C199.848 156.879 191.282 142.309 182.914 127.63C181.022 124.309 179.395 123.66 176.756 126.64C175.601 127.949 174.271 129.114 173.028 130.357C168.641 134.744 167.069 139.637 170.081 145.509C170.939 147.18 171.368 149.072 172.204 151.469C166.442 149.874 161.735 147.015 156.82 144.739C142.778 138.219 128.814 131.665 113.144 129.807C86.7649 126.684 62.4748 133.26 39.4713 145.542C27.0348 152.184 15.5 160.167 6.73626 171.504C3.67938 175.462 1.87604 180.069 0.380588 184.82C-0.268174 186.865 -0.224189 188.778 1.60114 189.955C3.6244 191.263 4.28416 188.888 5.28479 187.953C26.3311 168.502 50.7751 155.757 79.5076 153.899C105.37 152.228 130.254 157.693 153.346 169.986C154.676 170.701 156.336 171.24 157.029 173.626Z" fill="white"/>
<path d="M43.6715 114.941C20.1512 114.974 0.798262 96.0942 0.743283 73.0687C0.688303 49.0095 19.7663 29.9315 43.9464 29.8985C67.016 29.8655 86.7208 49.3284 86.7208 72.145C86.7318 95.9293 67.6318 114.908 43.6715 114.941Z" fill="#0177FF"/>
<path d="M55.7128 77.0269C54.9321 75.6744 53.8765 74.5638 52.5569 73.6841C51.2374 72.8154 49.797 72.0897 48.2355 71.5069C46.6741 70.9241 45.1127 70.3963 43.5402 69.9125C41.8139 69.4287 40.1975 68.9229 38.691 68.3841C37.1846 67.8563 35.953 67.1965 35.0074 66.4268C34.0617 65.6571 33.5889 64.6345 33.5889 63.3809C33.5889 62.6112 33.7648 61.8964 34.1167 61.2367C34.4686 60.5879 34.9524 60.0161 35.5682 59.5323C36.1839 59.0485 36.9537 58.6856 37.8773 58.4437C38.79 58.2018 39.7906 58.0808 40.8682 58.0808C42.0008 58.0808 43.4743 57.9819 44.4419 58.2568C45.4096 58.5207 46.8061 59.0485 47.6198 59.5323C48.4445 60.0271 49.1922 60.478 49.8409 61.0607C49.9399 61.1267 50.1818 61.3466 50.4897 61.6325C51.6333 62.6661 53.3707 62.6551 54.5252 61.6325L54.5802 61.5776C55.8887 60.401 55.9327 58.3667 54.6682 57.1462C54.4263 56.9153 54.2283 56.7283 54.1184 56.6404C53.1507 55.7717 51.8972 54.936 50.3578 54.1333C48.8183 53.3306 47.026 52.8138 44.9807 52.5719V49.1411C44.9807 47.2938 43.5842 45.6774 41.7369 45.5564C39.7136 45.4245 38.0313 47.0299 38.0313 49.0311V52.6598C36.3599 52.9018 34.8534 53.3306 33.5009 53.9353C32.1484 54.5401 30.9939 55.2989 30.0262 56.2225C29.0586 57.1462 28.3108 58.1908 27.805 59.3784C27.2882 60.5659 27.0353 61.8855 27.0353 63.3369C27.0353 65.1293 27.3762 66.6247 28.0469 67.8343C28.7177 69.0438 29.6194 70.0774 30.7519 70.9241C31.8845 71.7708 33.1491 72.4966 34.5565 73.1013C35.953 73.7061 37.3825 74.2229 38.845 74.6628C40.7363 75.3445 42.5506 75.9713 44.299 76.5541C46.0473 77.1368 47.4768 77.8626 48.5874 78.7313C49.687 79.6 50.2478 80.7875 50.2478 82.283C50.2478 83.5915 49.8849 84.6911 49.1592 85.5818C48.4335 86.4725 47.3668 87.1652 45.9594 87.649C44.5519 88.1328 42.8585 88.0559 40.8682 88.0559C39.1968 88.0559 37.1956 88.0888 35.7771 87.4401C34.2267 86.7253 34.2267 86.7254 32.3354 85.1969C32.1814 85.076 31.5986 84.6691 30.9169 84.0643C29.7073 82.9867 27.871 82.7998 26.6614 83.8884C26.6394 83.9104 26.6175 83.9214 26.6065 83.9434C25.188 85.2189 25.199 87.4511 26.6394 88.7156C27.739 89.6832 28.8716 90.6289 29.3884 91.0138C30.488 91.8385 31.7636 92.1794 33.193 92.7292C34.6225 93.29 36.5358 93.5648 38.0423 93.7627V97.3474C38.0423 99.1948 39.4388 100.811 41.2861 100.932C43.3093 101.064 44.9917 99.4587 44.9917 97.4574V93.8288C46.938 93.5868 47.7957 93.147 49.3571 92.5202C50.9185 91.8935 52.271 91.0797 53.4036 90.0901C54.5362 89.1005 55.3939 87.9239 55.9877 86.5714C56.5815 85.2189 56.8784 83.7454 56.8784 82.14C56.8894 80.0728 56.4935 78.3794 55.7128 77.0269Z" fill="#E6E6E6"/>
<path d="M177.724 62.2928C176.58 60.3025 175.03 58.6642 173.094 57.3886C171.148 56.1131 169.037 55.0465 166.739 54.1888C164.441 53.3311 162.142 52.5504 159.844 51.8466C157.304 51.1319 154.929 50.3952 152.719 49.6035C150.498 48.8228 148.694 47.8661 147.32 46.7225C145.934 45.5899 145.242 44.0945 145.242 42.2472C145.242 41.1146 145.494 40.059 146.011 39.1023C146.528 38.1457 147.243 37.31 148.144 36.5952C149.057 35.8805 150.179 35.3527 151.531 35.0008C152.873 34.649 154.346 34.473 155.93 34.473C157.59 34.473 159.756 34.3301 161.186 34.7259C162.615 35.1218 164.66 35.8915 165.848 36.6062C167.058 37.332 168.168 37.9917 169.114 38.8494C169.257 38.9484 169.62 39.2782 170.07 39.6851C171.753 41.1915 174.304 41.1915 175.986 39.6851L176.063 39.6081C177.988 37.8708 178.043 34.8909 176.195 33.0985C175.843 32.7467 175.546 32.4828 175.393 32.3508C173.963 31.0753 172.127 29.8437 169.873 28.6782C167.618 27.5016 164.979 26.7428 161.977 26.391V21.3548C161.977 18.6388 159.921 16.2637 157.205 16.0878C154.225 15.8898 151.762 18.254 151.762 21.1789V26.5009C149.31 26.8528 147.089 27.4796 145.11 28.3702C143.13 29.2609 141.426 30.3825 140.007 31.724C138.578 33.0765 137.489 34.616 136.742 36.3643C135.983 38.1017 135.609 40.037 135.609 42.1702C135.609 44.7982 136.104 47.0084 137.094 48.7788C138.083 50.5601 139.414 52.0666 141.074 53.3091C142.734 54.5517 144.593 55.6183 146.66 56.509C148.716 57.3996 150.817 58.1583 152.961 58.7961C155.732 59.7967 158.404 60.7094 160.977 61.5671C163.55 62.4248 165.65 63.4914 167.277 64.7669C168.905 66.0424 169.708 67.7908 169.708 69.99C169.708 71.9033 169.169 73.5307 168.102 74.8392C167.036 76.1587 165.474 77.1704 163.407 77.8741C161.351 78.5889 158.855 78.4679 155.919 78.4679C153.467 78.4679 150.52 78.5119 148.43 77.5552C146.154 76.5106 146.154 76.5106 143.383 74.2674C143.152 74.0805 142.306 73.4977 141.294 72.596C139.513 71.0126 136.819 70.7377 135.048 72.3321C135.015 72.3541 134.993 72.3871 134.96 72.4091C132.871 74.2894 132.904 77.5552 135.004 79.4135C136.621 80.832 138.281 82.2285 139.04 82.7893C140.667 83.9989 142.526 84.5047 144.626 85.3184C146.726 86.1321 149.53 86.5499 151.751 86.8248V92.0919C151.751 94.8079 153.807 97.183 156.523 97.359C159.503 97.5569 161.966 95.1928 161.966 92.2678V86.9348C164.814 86.5829 166.09 85.9452 168.377 85.0215C170.675 84.0978 172.655 82.9103 174.315 81.4478C175.975 79.9963 177.24 78.27 178.119 76.2797C178.988 74.2894 179.428 72.1232 179.428 69.7811C179.439 66.7682 178.867 64.2831 177.724 62.2928Z" fill="#E6E6E6"/>
</svg>
