<svg width="200" height="45" viewBox="0 0 200 45" fill="none" xmlns="http://www.w3.org/2000/svg">
<path fill-rule="evenodd" clip-rule="evenodd" d="M135.561 1.51682H139.128C140.379 1.51682 141.166 2.25801 141.259 3.50876V29.404C141.259 30.701 140.471 31.4885 139.174 31.4885H135.746C134.495 31.4885 133.708 30.84 133.523 29.6819L133.198 27.8753C131.16 30.0988 127.871 32.2297 122.822 32.2297C114.761 32.2297 109.156 25.5127 109.156 16.4332C109.156 7.16837 115.178 0.775635 123.331 0.775635C128.195 0.775635 131.114 2.72125 133.106 4.85216L133.291 3.36979C133.476 2.16536 134.31 1.51682 135.561 1.51682ZM117.68 16.5722C117.68 21.5289 120.598 24.6789 125.184 24.6789C129.678 24.6789 132.689 21.4362 132.689 16.4332C132.689 11.4765 129.77 8.32647 125.184 8.32647C120.737 8.32647 117.68 11.5692 117.68 16.5722ZM158.26 23.6136H166.413C167.71 23.6136 168.498 24.4011 168.452 25.6982V29.4041C168.452 30.7012 167.664 31.4887 166.367 31.4887H156.222C149.32 31.4887 145.104 27.2732 145.104 20.3709V3.55521C145.104 2.25813 145.892 1.47062 147.189 1.47062H151.821C153.118 1.47062 153.906 2.25813 153.906 3.55521V19.2591C153.906 22.1312 155.388 23.6136 158.26 23.6136ZM193.419 1.51701H197.959C199.302 1.51701 200.044 2.25819 199.997 3.55527V29.4505C199.997 30.7475 199.21 31.5351 197.913 31.5351H194.624C193.373 31.5351 192.585 30.8865 192.354 29.7284L191.983 27.9218C189.621 30.8402 186.332 32.2762 182.07 32.2762C174.936 32.2762 170.211 27.0879 170.211 17.9621V3.6016C170.211 2.30452 170.998 1.51701 172.295 1.51701H176.835C178.132 1.51701 178.92 2.30452 178.92 3.6016V17.3135C178.92 22.1776 181.097 24.6791 184.988 24.6791C188.694 24.6791 191.335 21.8996 191.335 16.9893V3.6016C191.335 2.30452 192.122 1.51701 193.419 1.51701ZM34.5281 3.50895C34.3891 2.11922 33.6943 1.51701 32.3972 1.51701H28.9692C27.8574 1.51701 27.1162 1.98025 26.514 2.95305L18.1757 17.0356L10.4395 2.95305C9.92997 1.98025 9.0498 1.51701 7.98435 1.51701H4.27842C2.98134 1.51701 2.28648 2.16555 2.14751 3.50895L0.0165967 29.4041C-0.122376 30.8402 0.618809 31.5351 1.96221 31.5351H6.08506C7.38214 31.5351 8.16965 30.8865 8.21597 29.5431L9.09613 15.0437L14.0991 24.0305C14.6087 25.0034 15.4889 25.4666 16.5543 25.4666H19.4264C20.5382 25.4666 21.2794 25.096 21.8816 24.0305L27.4868 14.3951L28.1354 29.5431C28.1817 30.9328 28.9229 31.5351 30.2199 31.5351H34.7134C36.1031 31.5351 36.798 30.8402 36.659 29.4041L34.5281 3.50895ZM103.968 1.51682H100.401C99.1506 1.51682 98.3168 2.16536 98.1315 3.36979L97.9462 4.85216C95.9542 2.72125 93.0358 0.775635 88.1718 0.775635C80.0187 0.775635 73.9966 6.79777 73.9966 16.0626C73.9966 24.8642 79.5555 31.0716 87.6159 31.0716C92.6189 31.0716 95.5836 28.987 97.5756 26.8098V28.2922C97.5756 33.4805 94.6572 36.7695 88.496 36.7695C85.9019 36.7695 83.5857 36.2599 81.1768 35.2408C79.9261 34.6386 78.9533 34.9165 78.3974 36.121L76.9613 38.9931C76.3591 40.1512 76.5907 41.124 77.6562 41.7725C81.0842 43.7181 85.2997 44.5056 89.3762 44.5056C99.5212 44.5056 106.007 38.1129 106.007 29.1723V3.60141C106.053 2.25801 105.265 1.51682 103.968 1.51682ZM90.0711 23.7061C85.5776 23.7061 82.5666 20.7413 82.5666 16.1089C82.5666 11.2449 85.7166 8.3728 90.0711 8.3728C94.5645 8.3728 97.5756 11.0133 97.5756 16.0163C97.5756 20.4634 94.3792 23.7061 90.0711 23.7061ZM65.2874 1.51682H68.8544C70.1515 1.51682 70.8926 2.25801 70.9853 3.50876V29.404C70.9853 30.701 70.1978 31.4885 68.9007 31.4885H65.4727C64.222 31.4885 63.4345 30.84 63.2492 29.6819L62.9249 27.8753C60.8866 30.0988 57.5976 32.2297 52.5483 32.2297C44.4879 32.2297 38.8826 25.5127 38.8826 16.4332C38.8826 7.16837 44.9048 0.775635 53.0578 0.775635C57.9219 0.775635 60.8403 2.72125 62.8322 4.85216L63.0175 3.36979C63.2028 2.16536 64.0367 1.51682 65.2874 1.51682ZM47.4063 16.5722C47.4063 21.5289 50.3247 24.6789 54.9108 24.6789C59.4043 24.6789 62.4153 21.4362 62.4153 16.4332C62.4153 11.4765 59.4969 8.32647 54.9108 8.32647C50.4637 8.32647 47.4063 11.5692 47.4063 16.5722Z" fill="#009FE3"/>
</svg>
