<svg width="121" height="31" viewBox="0 0 121 31" fill="none" xmlns="http://www.w3.org/2000/svg">
<path fill-rule="evenodd" clip-rule="evenodd" d="M78.0117 30.3831H71.6556V3.71021H78.0117V30.3831ZM31.7315 30.3831H31.7287L31.7315 30.3841V30.3831ZM31.7315 30.3831H50.1969V25.527H39.806L49.4901 15.813V10.9944H32.5125V15.8505H41.4091L31.7315 25.453V30.3831ZM11.3922 30.3831H4.25146L14.2355 3.71208H21.2994L31.2834 30.3831H24.0302L22.3859 25.602H13.074L11.3922 30.3831ZM17.7848 11.1068H17.7098L14.6818 20.4469H20.7378L17.7848 11.1068ZM63.8089 10.9939H70.1649V30.3874H63.9964V27.7343H63.9214C62.7252 29.7133 60.2559 30.9442 58.0153 30.9442C52.443 30.9442 50.8343 27.7315 50.8343 22.6504V10.9939H57.1903V22.2398C57.1903 24.8188 58.3134 25.7159 60.3309 25.7159C61.7155 25.7159 63.8089 24.8188 63.8089 21.3811V10.9939Z" fill="#0E2B58"/>
<path fill-rule="evenodd" clip-rule="evenodd" d="M105.586 3.71948H107.324V5.08819H105.584L105.586 3.71948Z" fill="#5061AA"/>
<path fill-rule="evenodd" clip-rule="evenodd" d="M99.1821 18.3872H104.502V24.0589H99.1821V18.3872Z" fill="#8B328A"/>
<path fill-rule="evenodd" clip-rule="evenodd" d="M102.677 25.2717H106.174V27.3904H102.677V25.2717Z" fill="#5D80C0"/>
<path fill-rule="evenodd" clip-rule="evenodd" d="M100.605 26.2617H104.808V30.4222H100.606L100.605 26.2617Z" fill="#E94E29"/>
<path fill-rule="evenodd" clip-rule="evenodd" d="M105.812 22.4849H109.41V24.0598H105.813L105.812 22.4849Z" fill="#D5262A"/>
<path fill-rule="evenodd" clip-rule="evenodd" d="M104.494 19.6169H108.183V20.5497H104.494V19.6169Z" fill="#F6A022"/>
<path fill-rule="evenodd" clip-rule="evenodd" d="M109.405 22.4849H111.983V23.1945H109.405V22.4849Z" fill="#6A95CD"/>
<path fill-rule="evenodd" clip-rule="evenodd" d="M104.494 15.1003H108.019V19.619H104.494V15.1003Z" fill="#306FB6"/>
<path fill-rule="evenodd" clip-rule="evenodd" d="M97.6118 11.6355H104.502V18.3881H97.6118V11.6355Z" fill="#73C8DD"/>
<path fill-rule="evenodd" clip-rule="evenodd" d="M93.6021 11.637H98.2032V15.3718H93.6021V11.637Z" fill="#92C143"/>
<path fill-rule="evenodd" clip-rule="evenodd" d="M99.5718 5.31274H107.368V11.6847H99.5718V5.31274Z" fill="#5061AA"/>
<path fill-rule="evenodd" clip-rule="evenodd" d="M108.015 12.4622H113.696V19.3966H108.015V12.4622Z" fill="#169BD6"/>
<path fill-rule="evenodd" clip-rule="evenodd" d="M107.119 16.4092H111.982V22.5027H107.118L107.119 16.4092Z" fill="#F6A022"/>
<path fill-rule="evenodd" clip-rule="evenodd" d="M104.494 20.5359H108.092V24.0542H104.494V20.5359Z" fill="#D5262A"/>
<path fill-rule="evenodd" clip-rule="evenodd" d="M102.393 22.7451H107.035V25.295H102.391L102.393 22.7451Z" fill="#199AA6"/>
<path fill-rule="evenodd" clip-rule="evenodd" d="M111.977 18.7791H112.971V21.8324H111.977V18.7791Z" fill="#A5BFDF"/>
<path fill-rule="evenodd" clip-rule="evenodd" d="M113.689 12.2476H116.289V13.8544H113.69L113.689 12.2476Z" fill="#3FB7AF"/>
<path fill-rule="evenodd" clip-rule="evenodd" d="M113.452 13.8533H115.327V14.8986H113.452V13.8533Z" fill="#AE2258"/>
<path fill-rule="evenodd" clip-rule="evenodd" d="M104.494 8.927H108.019V15.1087H104.494V8.927Z" fill="#79C199"/>
<path fill-rule="evenodd" clip-rule="evenodd" d="M108.015 6.43774H112.756V12.461H108.017L108.015 6.43774Z" fill="#E5DF1F"/>
<path fill-rule="evenodd" clip-rule="evenodd" d="M107.361 5.31274H110.818V10.9601H107.361V5.31274Z" fill="#33BACF"/>
<path fill-rule="evenodd" clip-rule="evenodd" d="M112.035 10.8037H116.75V12.463H112.035V10.8037Z" fill="#6CA9DB"/>
<path fill-rule="evenodd" clip-rule="evenodd" d="M112.762 7.16626H115.014V10.8055H112.762V7.16626Z" fill="#DE5097"/>
<path fill-rule="evenodd" clip-rule="evenodd" d="M114.337 8.31104H116.426V9.83724H114.337V8.31104Z" fill="#604596"/>
<path fill-rule="evenodd" clip-rule="evenodd" d="M113.801 9.83789H116.749V11.3632H113.801V9.83789Z" fill="#FAD803"/>
<path d="M105.573 3.65356H107.345V5.08789H105.573V3.65356ZM99.5718 3.69763H102.787V7.26283H99.5718V3.69763Z" fill="#5061AA"/>
<path fill-rule="evenodd" clip-rule="evenodd" d="M89.6396 3.69775H99.5862V11.685H89.6396V3.69775Z" fill="#0BB8E7"/>
<path fill-rule="evenodd" clip-rule="evenodd" d="M94.7402 0.944336H98.2014V5.44888H94.7402V0.944336Z" fill="#41AD4C"/>
<path fill-rule="evenodd" clip-rule="evenodd" d="M87.5479 11.0032H93.9695V13.5062H87.5479V11.0032Z" fill="#E7B720"/>
<path fill-rule="evenodd" clip-rule="evenodd" d="M102.782 1.35327H105.276V5.31315H102.782V1.35327Z" fill="#B9CF37"/>
<path fill-rule="evenodd" clip-rule="evenodd" d="M106.109 16.4092H107.118V17.416H106.106L106.109 16.4092Z" fill="#92C143"/>
</svg>
