<svg width="120" height="40" viewBox="0 0 120 40" fill="none" xmlns="http://www.w3.org/2000/svg">
<rect y="-0.000976562" width="120" height="40" rx="6" fill="#404040"/>
<path fill-rule="evenodd" clip-rule="evenodd" d="M96.0605 27.7495H97.7441V16.4986H96.0605V27.7495ZM111.225 20.5513L109.294 25.4293H109.236L107.234 20.5513H105.42L108.423 27.3688L106.712 31.1614H108.467L113.096 20.5513H111.225ZM101.676 26.4715C101.125 26.4715 100.355 26.197 100.355 25.5157C100.355 24.6481 101.313 24.3151 102.141 24.3151C102.881 24.3151 103.229 24.4744 103.678 24.6913C103.548 25.7335 102.648 26.4715 101.676 26.4715ZM101.879 20.3056C100.66 20.3056 99.3979 20.8411 98.8755 22.0282L100.37 22.6501C100.689 22.0282 101.285 21.8248 101.908 21.8248C102.779 21.8248 103.664 22.3459 103.678 23.2729V23.3881C103.373 23.2144 102.721 22.9543 101.922 22.9543C100.312 22.9543 98.6725 23.8372 98.6725 25.4869C98.6725 26.9926 99.9925 27.9628 101.473 27.9628C102.605 27.9628 103.229 27.4561 103.62 26.8621H103.678V27.7306H105.304V23.4169C105.304 21.4198 103.809 20.3056 101.879 20.3056ZM91.4743 21.9211H89.0806V18.0646H91.4743C92.7329 18.0646 93.4484 19.1041 93.4484 19.9924C93.4484 20.8645 92.7329 21.9211 91.4743 21.9211ZM91.431 16.4986H87.397V27.7495H89.0806V23.4871H91.431C93.2968 23.4871 95.1311 22.1389 95.1311 19.9924C95.1311 17.8459 93.2968 16.4986 91.431 16.4986ZM69.4331 26.4733C68.2701 26.4733 67.2965 25.5022 67.2965 24.1684C67.2965 22.8202 68.2701 21.8338 69.4331 21.8338C70.5817 21.8338 71.483 22.8202 71.483 24.1684C71.483 25.5022 70.5817 26.4733 69.4331 26.4733ZM71.3666 21.1813H71.308C70.9299 20.7322 70.2036 20.3263 69.2878 20.3263C67.3687 20.3263 65.6102 22.0075 65.6102 24.1684C65.6102 26.314 67.3687 27.9817 69.2878 27.9817C70.2036 27.9817 70.9299 27.5758 71.308 27.1114H71.3666V27.6631C71.3666 29.1274 70.5817 29.9104 69.3167 29.9104C68.2845 29.9104 67.6448 29.1706 67.3841 28.5469L65.9152 29.1562C66.3365 30.1714 67.4562 31.4179 69.3167 31.4179C71.2935 31.4179 72.9654 30.2578 72.9654 27.4309V20.5576H71.3666V21.1813ZM74.1284 27.7495H75.8147V16.4977H74.1284V27.7495ZM78.3005 24.0379C78.2562 22.5592 79.4481 21.805 80.3062 21.805C80.9747 21.805 81.5414 22.138 81.7308 22.6168L78.3005 24.0379ZM83.5326 22.7617C83.2132 21.9067 82.2388 20.3263 80.2475 20.3263C78.2707 20.3263 76.6286 21.877 76.6286 24.154C76.6286 26.2996 78.2562 27.9817 80.437 27.9817C82.1955 27.9817 83.2132 26.9089 83.6346 26.2852L82.3263 25.4149C81.8905 26.053 81.2941 26.4733 80.437 26.4733C79.579 26.4733 78.9681 26.0818 78.5765 25.3141L83.7077 23.1964L83.5326 22.7617ZM42.6532 21.5008V23.1244H46.5492C46.4328 24.0379 46.1269 24.7048 45.6623 25.1683C45.0947 25.7344 44.2087 26.3581 42.6532 26.3581C40.255 26.3581 38.3802 24.4294 38.3802 22.0372C38.3802 19.6441 40.255 17.7163 42.6532 17.7163C43.9471 17.7163 44.8917 18.2239 45.5892 18.8764L46.7378 17.7307C45.7642 16.8028 44.4704 16.0918 42.6532 16.0918C39.3681 16.0918 36.6063 18.7603 36.6063 22.0372C36.6063 25.3141 39.3681 27.9817 42.6532 27.9817C44.4262 27.9817 45.7642 27.4012 46.8108 26.314C47.8863 25.2412 48.2202 23.7337 48.2202 22.5151C48.2202 22.138 48.1913 21.7906 48.1335 21.5008H42.6532ZM52.6493 26.4733C51.4863 26.4733 50.483 25.5166 50.483 24.154C50.483 22.7761 51.4863 21.8338 52.6493 21.8338C53.8123 21.8338 54.8147 22.7761 54.8147 24.154C54.8147 25.5166 53.8123 26.4733 52.6493 26.4733ZM52.6493 20.3263C50.5272 20.3263 48.7967 21.9355 48.7967 24.154C48.7967 26.3581 50.5272 27.9817 52.6493 27.9817C54.7714 27.9817 56.5011 26.3581 56.5011 24.154C56.5011 21.9355 54.7714 20.3263 52.6493 20.3263ZM61.052 26.4733C59.889 26.4733 58.8866 25.5166 58.8866 24.154C58.8866 22.7761 59.889 21.8338 61.052 21.8338C62.215 21.8338 63.2175 22.7761 63.2175 24.154C63.2175 25.5166 62.215 26.4733 61.052 26.4733ZM61.052 20.3263C58.9299 20.3263 57.2003 21.9355 57.2003 24.154C57.2003 26.3581 58.9299 27.9817 61.052 27.9817C63.1741 27.9817 64.9038 26.3581 64.9038 24.154C64.9038 21.9355 63.1741 20.3263 61.052 20.3263Z" fill="white"/>
<path d="M37.7427 11.999V5.60059H39.5488C40.1055 5.60059 40.5977 5.72363 41.0254 5.96973C41.4531 6.21582 41.7834 6.56592 42.0164 7.02002C42.2493 7.47412 42.3672 7.9956 42.3701 8.58447V8.99316C42.3701 9.59668 42.2537 10.1255 42.0208 10.5796C41.7878 11.0337 41.4553 11.3823 41.0232 11.6255C40.5911 11.8687 40.0879 11.9932 39.5137 11.999H37.7427ZM38.5864 6.29492V11.3091H39.4741C40.1245 11.3091 40.6306 11.1069 40.9924 10.7026C41.3542 10.2983 41.5352 9.72266 41.5352 8.97559V8.60205C41.5352 7.87548 41.3645 7.31079 41.0232 6.90796C40.6819 6.50512 40.1978 6.30078 39.5708 6.29492H38.5864ZM44.4004 11.999H43.5874V7.24414H44.4004V11.999ZM43.5215 5.98291C43.5215 5.85107 43.5618 5.73975 43.6423 5.64893C43.7229 5.55811 43.8423 5.5127 44.0005 5.5127C44.1587 5.5127 44.2788 5.55811 44.3608 5.64893C44.4429 5.73975 44.4839 5.85107 44.4839 5.98291C44.4839 6.11475 44.4429 6.22461 44.3608 6.3125C44.2788 6.40039 44.1587 6.44434 44.0005 6.44434C43.8423 6.44434 43.7229 6.40039 43.6423 6.3125C43.5618 6.22461 43.5215 6.11475 43.5215 5.98291ZM48.4697 10.7378C48.4697 10.5181 48.387 10.3474 48.2214 10.2258C48.0559 10.1042 47.7673 9.99951 47.3557 9.91162C46.9441 9.82373 46.6174 9.71826 46.3757 9.59521C46.134 9.47217 45.9553 9.32568 45.8396 9.15576C45.7239 8.98584 45.666 8.78369 45.666 8.54932C45.666 8.15967 45.8308 7.83008 46.1604 7.56055C46.49 7.29101 46.9111 7.15625 47.4238 7.15625C47.9629 7.15625 48.4001 7.29541 48.7356 7.57373C49.071 7.85205 49.2388 8.20801 49.2388 8.6416H48.4214C48.4214 8.41894 48.3269 8.22705 48.1379 8.06592C47.949 7.90478 47.7109 7.82422 47.4238 7.82422C47.1279 7.82422 46.8965 7.88867 46.7295 8.01758C46.5625 8.14649 46.479 8.31494 46.479 8.52295C46.479 8.71924 46.5566 8.86719 46.7119 8.9668C46.8672 9.06641 47.1477 9.16162 47.5535 9.25244C47.9592 9.34326 48.2881 9.45166 48.54 9.57764C48.792 9.70361 48.9788 9.85522 49.1003 10.0325C49.2219 10.2097 49.2827 10.4258 49.2827 10.6807C49.2827 11.1055 49.1128 11.446 48.7729 11.7024C48.4331 11.9587 47.9922 12.0869 47.4502 12.0869C47.0693 12.0869 46.7324 12.0195 46.4395 11.8848C46.1465 11.75 45.9172 11.5618 45.7517 11.3201C45.5862 11.0784 45.5034 10.8169 45.5034 10.5356H46.3164C46.3311 10.8081 46.4402 11.0242 46.6438 11.1838C46.8474 11.3435 47.1162 11.4233 47.4502 11.4233C47.7578 11.4233 48.0046 11.3611 48.1907 11.2366C48.3767 11.1121 48.4697 10.9458 48.4697 10.7378ZM54.3584 9.67432C54.3584 10.398 54.1929 10.981 53.8618 11.4233C53.5308 11.8657 53.0825 12.0869 52.5171 12.0869C51.9399 12.0869 51.4858 11.9038 51.1548 11.5376V13.8271H50.3418V7.24414H51.0845L51.124 7.77148C51.4551 7.36133 51.915 7.15625 52.5039 7.15625C53.0752 7.15625 53.5271 7.37158 53.8596 7.80225C54.1921 8.23291 54.3584 8.83203 54.3584 9.59961V9.67432ZM53.5454 9.58203C53.5454 9.0459 53.4312 8.62256 53.2026 8.31201C52.9741 8.00146 52.6606 7.84619 52.2622 7.84619C51.77 7.84619 51.4009 8.06445 51.1548 8.50098V10.7729C51.398 11.2065 51.77 11.4233 52.271 11.4233C52.6606 11.4233 52.9705 11.2688 53.2004 10.9597C53.4304 10.6506 53.5454 10.1914 53.5454 9.58203ZM55.1758 9.57764C55.1758 9.11181 55.2673 8.69287 55.4504 8.3208C55.6335 7.94873 55.8884 7.66162 56.2151 7.45947C56.5417 7.25732 56.9145 7.15625 57.3335 7.15625C57.981 7.15625 58.5046 7.38037 58.9045 7.82861C59.3044 8.27686 59.5044 8.87304 59.5044 9.61719V9.67432C59.5044 10.1372 59.4158 10.5525 59.2385 10.9202C59.0613 11.2878 58.8079 11.5742 58.4783 11.7793C58.1487 11.9844 57.77 12.0869 57.3423 12.0869C56.6978 12.0869 56.1755 11.8628 55.7756 11.4146C55.3757 10.9663 55.1758 10.3731 55.1758 9.63477V9.57764ZM55.9932 9.67432C55.9932 10.2017 56.1155 10.625 56.3601 10.9443C56.6047 11.2637 56.9321 11.4233 57.3423 11.4233C57.7554 11.4233 58.0835 11.2615 58.3267 10.9377C58.5698 10.614 58.6914 10.1606 58.6914 9.57764C58.6914 9.05615 58.5676 8.63355 58.3201 8.30981C58.0725 7.98608 57.7437 7.82422 57.3335 7.82422C56.9321 7.82422 56.6084 7.98389 56.3623 8.30322C56.1162 8.62256 55.9932 9.07959 55.9932 9.67432ZM61.293 7.24414L61.3193 7.8418C61.6826 7.38476 62.1572 7.15625 62.7432 7.15625C63.7481 7.15625 64.2549 7.72314 64.2637 8.85693V11.999H63.4507V8.85254C63.4478 8.50976 63.3694 8.25635 63.2156 8.09229C63.0618 7.92822 62.8223 7.84619 62.4971 7.84619C62.2334 7.84619 62.002 7.9165 61.8027 8.05713C61.6035 8.19775 61.4482 8.38232 61.3369 8.61084V11.999H60.5239V7.24414H61.293ZM66.373 11.999H65.5557V7.24414H66.373V11.999ZM66.3818 5.25342H67.3662L66.1885 6.54541H65.5337L66.3818 5.25342ZM69.2822 10.896L70.46 7.24414H71.2905L69.5854 11.999H68.9658L67.2432 7.24414H68.0737L69.2822 10.896ZM74.0459 12.0869C73.4014 12.0869 72.877 11.8752 72.4727 11.4519C72.0684 11.0286 71.8662 10.4624 71.8662 9.75342V9.604C71.8662 9.13232 71.9563 8.71118 72.1365 8.34058C72.3167 7.96997 72.5686 7.67993 72.8923 7.47046C73.2161 7.26099 73.5669 7.15625 73.9448 7.15625C74.563 7.15625 75.0435 7.35986 75.3862 7.76709C75.729 8.17432 75.9004 8.75732 75.9004 9.51611V9.85449H72.6792C72.6909 10.3232 72.8279 10.7019 73.0901 10.9905C73.3523 11.2791 73.6855 11.4233 74.0898 11.4233C74.377 11.4233 74.6201 11.3647 74.8193 11.2476C75.0186 11.1304 75.1929 10.9751 75.3423 10.7817L75.8389 11.1685C75.4404 11.7808 74.8428 12.0869 74.0459 12.0869ZM73.9448 7.82422C73.6167 7.82422 73.3413 7.9436 73.1187 8.18237C72.896 8.42114 72.7583 8.75586 72.7056 9.18652H75.0874V9.125C75.064 8.71191 74.9526 8.39185 74.7534 8.16479C74.5542 7.93774 74.2847 7.82422 73.9448 7.82422ZM77.7241 11.999H76.9111V5.24902H77.7241V11.999ZM82.022 7.24414L82.0483 7.8418C82.4116 7.38476 82.8862 7.15625 83.4722 7.15625C84.4771 7.15625 84.9839 7.72314 84.9927 8.85693V11.999H84.1797V8.85254C84.1768 8.50976 84.0984 8.25635 83.9446 8.09229C83.7908 7.92822 83.5513 7.84619 83.2261 7.84619C82.9624 7.84619 82.731 7.9165 82.5317 8.05713C82.3325 8.19775 82.1772 8.38232 82.0659 8.61084V11.999H81.2529V7.24414H82.022ZM86.0034 9.57764C86.0034 9.11181 86.095 8.69287 86.2781 8.3208C86.4612 7.94873 86.7161 7.66162 87.0427 7.45947C87.3694 7.25732 87.7422 7.15625 88.1611 7.15625C88.8086 7.15625 89.3323 7.38037 89.7322 7.82861C90.1321 8.27686 90.332 8.87304 90.332 9.61719V9.67432C90.332 10.1372 90.2434 10.5525 90.0662 10.9202C89.8889 11.2878 89.6355 11.5742 89.3059 11.7793C88.9763 11.9844 88.5977 12.0869 88.1699 12.0869C87.5254 12.0869 87.0032 11.8628 86.6033 11.4146C86.2034 10.9663 86.0034 10.3731 86.0034 9.63477V9.57764ZM86.8208 9.67432C86.8208 10.2017 86.9431 10.625 87.1877 10.9443C87.4324 11.2637 87.7598 11.4233 88.1699 11.4233C88.583 11.4233 88.9111 11.2615 89.1543 10.9377C89.3975 10.614 89.519 10.1606 89.519 9.57764C89.519 9.05615 89.3953 8.63355 89.1477 8.30981C88.9001 7.98608 88.5713 7.82422 88.1611 7.82422C87.7598 7.82422 87.436 7.98389 87.1899 8.30322C86.9438 8.62256 86.8208 9.07959 86.8208 9.67432Z" fill="white"/>
<path fill-rule="evenodd" clip-rule="evenodd" d="M8.53804 7.85672C8.27549 8.13302 8.1203 8.56322 8.1203 9.12122V29.0247C8.1203 29.5827 8.27549 30.012 8.53804 30.2892L8.60391 30.354L19.7829 19.2048V19.0734V18.9411L8.60391 7.79102L8.53804 7.85672Z" fill="url(#paint0_linear_1594_102463)"/>
<path fill-rule="evenodd" clip-rule="evenodd" d="M19.7828 18.9416V19.0739V19.2053L23.5083 22.9232L23.594 22.8755L28.0078 20.3726C29.2692 19.6589 29.2692 18.4889 28.0078 17.7743L23.594 15.2723L23.5092 15.2246L19.7828 18.9416Z" fill="url(#paint1_linear_1594_102463)"/>
<path fill-rule="evenodd" clip-rule="evenodd" d="M8.53802 30.29C8.95306 30.7292 9.63968 30.7832 10.4129 30.3458L23.594 22.8758L19.7828 19.0742L8.53802 30.29Z" fill="url(#paint2_linear_1594_102463)"/>
<path fill-rule="evenodd" clip-rule="evenodd" d="M8.53802 7.85722L19.7828 19.0739L23.594 15.2714L10.4129 7.80142C10.0502 7.59622 9.70645 7.49902 9.40148 7.49902C9.05592 7.49902 8.75818 7.62412 8.53802 7.85722Z" fill="url(#paint3_linear_1594_102463)"/>
<defs>
<linearGradient id="paint0_linear_1594_102463" x1="721.129" y1="113.314" x2="-239.226" y2="1072.02" gradientUnits="userSpaceOnUse">
<stop stop-color="#00A1FF"/>
<stop offset="0.2601" stop-color="#00BEFF"/>
<stop offset="0.5122" stop-color="#00D2FF"/>
<stop offset="0.7604" stop-color="#00DFFF"/>
<stop offset="1" stop-color="#00E3FF"/>
</linearGradient>
<linearGradient id="paint1_linear_1594_102463" x1="1010.23" y1="396.571" x2="-1176.07" y2="396.571" gradientUnits="userSpaceOnUse">
<stop stop-color="#FFE000"/>
<stop offset="0.4087" stop-color="#FFBD00"/>
<stop offset="0.7754" stop-color="#FFA500"/>
<stop offset="1" stop-color="#FF9C00"/>
</linearGradient>
<linearGradient id="paint2_linear_1594_102463" x1="1310.46" y1="376.429" x2="-332.406" y2="2015.71" gradientUnits="userSpaceOnUse">
<stop stop-color="#FF3A44"/>
<stop offset="1" stop-color="#C31162"/>
</linearGradient>
<linearGradient id="paint3_linear_1594_102463" x1="-279.457" y1="-122.816" x2="456.249" y2="603.393" gradientUnits="userSpaceOnUse">
<stop stop-color="#32A071"/>
<stop offset="0.0685" stop-color="#2DA771"/>
<stop offset="0.4762" stop-color="#15CF74"/>
<stop offset="0.8009" stop-color="#06E775"/>
<stop offset="1" stop-color="#00F076"/>
</linearGradient>
</defs>
</svg>
