<svg width="14" height="16" viewBox="0 0 14 16" fill="none" xmlns="http://www.w3.org/2000/svg">
<path id="Vector" d="M0.39715 0.941554C0.436265 0.827979 0.509855 0.729446 0.607655 0.6597C0.705454 0.589955 0.822584 0.552475 0.942705 0.55249C3.57853 0.55249 5.68647 1.08182 7.20847 2.12641C9.04742 3.38844 10.0376 5.37919 10.1605 8.05252H13.0581C13.1711 8.05253 13.2816 8.0857 13.3759 8.14793C13.4702 8.21015 13.5441 8.29869 13.5885 8.40256C13.633 8.50642 13.6459 8.62105 13.6258 8.73221C13.6057 8.84337 13.5533 8.94618 13.4753 9.02788L7.41761 15.3741C7.36374 15.4305 7.299 15.4753 7.22729 15.506C7.15559 15.5367 7.07841 15.5525 7.00042 15.5525C6.92243 15.5525 6.84525 15.5367 6.77355 15.506C6.70184 15.4753 6.6371 15.4305 6.58323 15.3741L0.525517 9.02788C0.447497 8.94618 0.395181 8.84337 0.375058 8.73221C0.354935 8.62105 0.367889 8.50642 0.412316 8.40256C0.456742 8.29869 0.530685 8.21015 0.624971 8.14793C0.719257 8.0857 0.829737 8.05253 0.942705 8.05252H3.81904C3.77 6.42991 3.50714 5.20395 3.00269 4.22786C2.45749 3.17317 1.64295 2.40839 0.586815 1.5841C0.492128 1.51016 0.422889 1.4085 0.388759 1.29331C0.354629 1.17812 0.35731 1.05515 0.39643 0.941554H0.39715Z" fill="#002E69"/>
</svg>
