<svg width="77" height="31" viewBox="0 0 77 31" fill="none" xmlns="http://www.w3.org/2000/svg">
<g id="XMLID_24_">
<path id="XMLID_36_" d="M39.9903 4.33596C40.9849 4.33596 41.7932 3.52759 41.7932 2.53301C41.7932 1.53843 40.9849 0.750741 39.9903 0.750741C38.9957 0.750741 38.208 1.55912 38.1873 2.53301C38.208 3.54828 38.9957 4.33596 39.9903 4.33596ZM47.1622 20.1739C47.8671 20.1739 48.4893 20.0084 48.9651 19.7793C49.4425 19.5517 49.7735 19.2813 49.9597 19.0537C50.0632 18.9089 50.1252 18.7227 50.1252 18.5143C50.1252 18.3695 50.0839 18.2246 50.0218 18.0576C49.8563 17.7059 49.4824 17.5389 49.1514 17.5389C49.0893 17.5389 49.0272 17.5389 48.9651 17.5596C48.7789 17.601 48.6548 17.6631 48.5292 17.7044C48.4051 17.7458 48.2602 17.7872 48.0312 17.7872C47.6587 17.7872 47.4297 17.6424 47.2642 17.4975C47.2435 17.4768 46.9952 17.1872 46.9124 16.8133C46.7676 16.2118 46.7676 15.3621 46.7469 14.7606C46.7469 14.533 46.7469 2.44729 46.7469 2.11478C46.7469 1.65813 46.5193 1.30641 46.2075 1.09951C45.8972 0.871924 45.4819 0.789164 45.0888 0.789164C44.6735 0.789164 44.2597 0.892613 43.9479 1.09951C43.6169 1.30641 43.3878 1.65961 43.3878 2.09409V16.398C43.3878 17.2064 43.6154 18.1389 44.2169 18.8852C44.7991 19.6345 45.7745 20.1739 47.1622 20.1739ZM54.0873 8.37931C54.9371 7.15567 55.8282 7.01084 56.2435 7.01084C56.9277 7.01084 57.6119 7.46749 57.8188 8.52414C57.8602 8.71035 57.8602 8.87586 57.8602 9.04286C57.8602 9.76848 57.5706 10.4113 57.1553 10.9079C56.14 12.0266 54.7302 12.3591 53.2376 12.5039C53.2376 12.3798 53.2376 12.235 53.2376 12.1094C53.2361 10.8044 53.4238 9.31182 54.0873 8.37931ZM51.8484 18.4744C52.9671 19.531 54.4804 20.1739 56.3676 20.1739C57.4036 20.1739 58.3583 19.9877 59.0839 19.6966C59.4356 19.5517 59.7474 19.3655 59.9543 19.1571C60.1819 18.9502 60.3267 18.6798 60.3267 18.3902C60.3267 18.3488 60.3267 18.3074 60.306 18.2453C60.244 17.7473 59.8287 17.4163 59.3735 17.4369C59.2494 17.4369 59.1459 17.4576 59.0218 17.499C58.4617 17.6852 57.9238 17.768 57.2602 17.768C57.074 17.768 56.8878 17.768 56.6794 17.7473C55.2696 17.6438 54.4612 16.7941 53.9425 15.9236C53.6942 15.4877 53.5272 15.0739 53.4445 14.7414C53.4031 14.5966 53.3617 14.4724 53.341 14.369C55.2696 14.2862 56.9277 14.0586 58.4824 13.2281C59.2908 12.7714 60.2647 12.0458 60.7834 11.0512C61.0937 10.3877 61.2814 9.64138 61.2814 8.95714C61.2814 8.75025 61.2607 8.54187 61.24 8.33498C60.909 6.49064 59.1873 5.08079 56.5346 5.10148C54.6903 5.10148 52.305 5.8271 50.8538 8.06601C50.2937 8.93646 49.5474 10.6153 49.5474 12.7301C49.5474 13.2281 49.5888 13.766 49.6922 14.3054C50.044 15.9458 50.7489 17.4163 51.8484 18.4744ZM18.9903 19.6345C19.3006 19.8621 19.7159 19.9448 20.109 19.9448C20.5243 19.9448 20.9381 19.8414 21.2499 19.6345C21.5809 19.4276 21.81 19.0744 21.81 18.6399C21.81 18.6399 21.81 10.8044 21.81 10.7631C21.8307 10.1616 21.9962 9.3532 22.3494 8.71035C22.7218 8.06749 23.2405 7.61232 24.0489 7.61232C24.4213 7.61232 24.6917 7.73646 24.8986 7.92266C25.209 8.21232 25.3967 8.68966 25.5001 9.167C25.6036 9.64434 25.6036 10.1409 25.6036 10.4113C25.6036 10.4734 25.6036 18.3931 25.6036 18.6207C25.6036 19.0773 25.8518 19.4291 26.1844 19.636C26.5154 19.8429 26.9514 19.9463 27.3666 19.9463C27.8026 19.9463 28.2371 19.8429 28.5903 19.636C28.9213 19.4291 29.1917 19.0759 29.1917 18.6414V10.7645C29.2124 10.1631 29.378 9.35468 29.7312 8.71182C30.1036 8.06897 30.6223 7.6138 31.4307 7.6138C31.8031 7.6138 32.0735 7.73793 32.2804 7.92414C32.5908 8.21379 32.7785 8.69113 32.8819 9.16847C32.9853 9.64581 32.9853 10.1217 32.9853 10.4128C32.9853 10.4749 32.9853 18.1035 32.9853 18.6222C32.9853 19.0788 33.2336 19.4305 33.5661 19.6374C33.8972 19.8443 34.3331 19.9478 34.7484 19.9478C35.1844 19.9478 35.6188 19.8443 35.9514 19.6374C36.3031 19.4305 36.5528 19.0773 36.5528 18.6429V10.9079C36.5528 8.95862 36.1582 7.4867 35.4548 6.51281C34.7292 5.51823 33.6725 5.04089 32.4075 5.04089C31.2046 5.04089 30.272 5.62168 29.6292 6.28522C29.1932 6.74187 28.8622 7.23842 28.6553 7.63301C28.3656 6.84532 27.9297 6.24384 27.3903 5.80936C26.7474 5.29064 25.9184 5.04237 25.0272 5.04237C23.4725 5.04237 22.4159 5.99557 21.773 6.86601V6.78325C21.773 6.3266 21.5454 5.97488 21.2336 5.76798C20.9233 5.5404 20.508 5.45764 20.1149 5.45764C19.6996 5.45764 19.2858 5.56109 18.974 5.76798C18.643 5.97488 18.4139 6.32808 18.4139 6.76256C18.4139 6.76256 18.4139 18.3089 18.4139 18.6207C18.4302 19.0759 18.6592 19.4276 18.9903 19.6345ZM41.1297 5.74582C40.8193 5.51823 40.4041 5.43547 40.011 5.43547C39.5957 5.43547 39.1819 5.53892 38.8701 5.74582C38.539 5.95271 38.31 6.30591 38.31 6.7404C38.31 6.7404 38.31 18.2867 38.31 18.5985C38.31 19.0552 38.5376 19.4069 38.8494 19.6138C39.1597 19.8414 39.575 19.9241 39.9681 19.9241C40.3834 19.9241 40.7972 19.8207 41.109 19.6138C41.44 19.4069 41.6691 19.0537 41.6691 18.6192C41.6691 18.6192 41.6691 7.07291 41.6691 6.76109C41.6691 6.3266 41.4415 5.9734 41.1297 5.74582ZM76.2474 11.8818C76.2267 11.799 76.1853 11.7369 76.1026 11.7163C76.0198 11.6956 75.9371 11.7163 75.875 11.7783C75.875 11.7783 75.8336 11.8404 75.7302 11.9232C75.6267 12.0266 75.4819 12.1714 75.2735 12.3591C74.8789 12.7537 74.2789 13.2916 73.4706 13.9552C72.9105 14.4325 72.2262 14.9498 71.4799 15.5099C71.4592 15.2823 71.4385 15.0739 71.3765 14.8877C71.1696 14.0586 70.6922 13.4365 70.1115 12.9384C69.2203 12.1921 68.0794 11.6941 67.1676 11.1562C66.6903 10.8872 66.2972 10.6167 65.9853 10.3064C65.675 9.99606 65.4873 9.66355 65.4252 9.22907C65.4046 9.14631 65.4046 9.06355 65.4046 8.98079C65.4046 8.54483 65.5701 8.08966 65.9233 7.75714C66.1095 7.57094 66.6696 7.19705 67.478 7.19705C68.4725 7.19705 69.3016 7.63301 69.7789 7.63301C70.3184 7.63301 70.7735 7.34335 70.8977 6.82463C70.9184 6.72118 70.939 6.61774 70.939 6.51429C70.939 5.9335 70.4617 5.39557 69.7982 5.22857C69.7982 5.22857 69.1967 5.02168 67.9331 5.02168C66.1716 5.02168 64.741 5.45764 63.7243 6.22463C62.709 6.99163 62.1489 8.06897 62.1489 9.33399C62.1489 9.68572 62.1903 10.0389 62.273 10.3906C62.6454 11.9453 64.1809 12.7744 65.5893 13.5207C66.2942 13.8931 66.9784 14.2463 67.4972 14.6187C68.0159 15.0133 68.3469 15.4064 68.4297 15.8631C68.4297 15.9458 68.4504 16.0286 68.4504 16.0906C68.4504 16.5059 68.2849 16.9197 67.911 17.2094C67.5386 17.5197 66.9578 17.7281 66.1494 17.7488H66.0666C65.1755 17.7488 64.4085 17.5005 63.9105 17.2714C63.6829 17.168 63.4745 17.1266 63.2469 17.1266C62.7075 17.1266 62.273 17.4783 62.1903 18.0177C62.1903 18.0591 62.1903 18.1212 62.1903 18.1626C62.1903 18.535 62.3972 18.8468 62.6676 19.0951C63.0829 19.4675 63.6829 19.6966 64.243 19.8621C58.045 22.9714 49.4203 25.7704 38.5169 25.7704C27.5085 25.7704 18.8233 22.9094 12.6046 19.7793C13.8903 19.531 14.9262 19.0123 15.6932 18.3281C16.7913 17.3335 17.3514 15.9857 17.3307 14.5966C17.3307 14.2862 17.31 13.9537 17.2479 13.6434C17.0617 12.566 16.4602 11.7148 15.7139 11.032C14.5952 9.99606 13.0819 9.24975 11.8169 8.52414C11.1947 8.15173 10.6139 7.79852 10.2001 7.40542C9.78633 7.01232 9.51589 6.59705 9.43313 6.1404C9.41244 6.01626 9.39175 5.89212 9.39175 5.74582C9.39175 5.14434 9.61934 4.52217 10.1174 4.02562C10.6154 3.54828 11.4031 3.19655 12.5632 3.19655C13.1853 3.19655 13.9317 3.3 14.7814 3.54828C15.0297 3.61035 15.2587 3.65173 15.4656 3.65173C16.0464 3.65173 16.4809 3.34138 16.6686 2.88473C16.7307 2.71921 16.772 2.5537 16.772 2.3867C16.772 1.99212 16.5651 1.66109 16.274 1.41281C15.9844 1.18522 15.6105 1.01823 15.1967 0.93547C14.409 0.769953 13.5385 0.666504 12.6474 0.666504H12.6267C10.2223 0.666504 8.45924 1.35074 7.31983 2.34532C6.17894 3.36059 5.64101 4.68769 5.64101 5.95271C5.64101 6.24237 5.6617 6.51281 5.72377 6.78178C6.07549 8.6468 7.60948 9.82906 9.18633 10.803C10.7617 11.7562 12.3991 12.5438 13.042 13.4143C13.373 13.8916 13.54 14.4502 13.54 14.9897C13.54 15.5498 13.3745 16.067 13.0627 16.4616C12.4612 17.1665 11.3425 17.6645 10.1395 17.6645C9.37254 17.6645 8.58485 17.4783 7.85924 17.0424C7.81786 17.0217 7.71441 16.9596 7.69372 16.9596C5.97352 15.8409 4.56367 14.7828 3.52623 13.9123C2.71786 13.2488 2.13707 12.7094 1.72328 12.3163C1.51638 12.1301 1.37155 11.9852 1.26663 11.8803C1.16318 11.7768 1.1218 11.7355 1.1218 11.7355C1.05973 11.6734 0.976971 11.6527 0.894212 11.6734C0.811454 11.6941 0.770074 11.7562 0.749385 11.8389C0.708005 12.1286 0.666626 12.5232 0.666626 12.9576V13.0611V13.0818C0.687316 14.2227 1.0819 15.0931 2.09717 16.0463C2.34544 16.2946 16.2356 30.4123 38.4991 30.4123C60.7627 30.4123 74.6528 16.2946 74.9011 16.0463C75.9371 15.0931 76.311 14.2227 76.3316 13.0818V12.9576C76.3095 12.5453 76.2888 12.1729 76.2474 11.8818Z" fill="#EB7F02"/>
</g>
</svg>
